# MagicaVoxel @ Ephtracy

# group
o 

# material
mtllib Building_BaseResident-2.mtl
usemtl palette

# normals
vn -1 0 0
vn 1 0 0
vn 0 0 1
vn 0 0 -1
vn 0 -1 0
vn 0 1 0

# texcoords
vt 0.0917969 0.5
vt 0.306641 0.5
vt 0.939453 0.5
vt 0.970703 0.5
vt 0.974609 0.5
vt 0.978516 0.5

# verts
v -6.3 0 3.6
v -6.3 0 -1.3
v -6.3 0 -1.4
v -6.3 12.6 3.6
v -6.3 12.6 -1.3
v -6.3 12.6 -1.4
v 2 1.6 0.9
v 2 1.6 0.8
v 2 3.4 0.9
v 2 3.4 0.8
v 2 5.8 0.7
v 2 5.8 0.6
v 2 7.4 0.7
v 2 7.4 0.6
v 2.1 9.5 1.2
v 2.1 9.5 1.1
v 2.1 11.2 1.2
v 2.1 11.2 1.1
v 3.7 0.5 -1.1
v 3.7 0.5 -1.2
v 3.7 0.7 -1.1
v 3.7 0.7 -1.2
v 3.7 0.8 -1.1
v 3.7 0.8 -1.2
v 3.7 1 -1.1
v 3.7 1 -1.2
v 3.7 1.1 -1.1
v 3.7 1.1 -1.2
v 3.7 1.3 -1.1
v 3.7 1.3 -1.2
v 3.7 1.4 -1.1
v 3.7 1.4 -1.2
v 3.7 1.6 -1.1
v 3.7 1.6 -1.2
v 3.7 1.7 -1.1
v 3.7 1.7 -1.2
v 3.7 1.8 -1.1
v 3.7 1.8 -1.2
v 4.7 0.5 -1.1
v 4.7 0.5 -1.2
v 4.7 0.7 -1.1
v 4.7 0.7 -1.2
v 4.7 0.8 -1.1
v 4.7 0.8 -1.2
v 4.7 1 -1.1
v 4.7 1 -1.2
v 4.7 1.1 -1.1
v 4.7 1.1 -1.2
v 4.7 1.3 -1.1
v 4.7 1.3 -1.2
v 4.7 1.4 -1.1
v 4.7 1.4 -1.2
v 4.7 1.6 -1.1
v 4.7 1.6 -1.2
v 4.7 1.7 -1.1
v 4.7 1.7 -1.2
v 4.7 1.8 -1.1
v 4.7 1.8 -1.2
v 4.8 0.4 -1
v 4.8 0.4 -1.1
v 4.8 0.4 -1.2
v 4.8 0.4 -1.3
v 4.8 1.8 -1
v 4.8 1.8 -1.1
v 4.8 1.8 -1.2
v 4.8 1.8 -1.3
v 4.9 0.4 1
v 4.9 0.4 0.9
v 4.9 3.6 1
v 4.9 3.6 0.9
v 4.9 4.5 2.9
v 4.9 4.5 0.8
v 4.9 4.5 0.7
v 4.9 7.4 2.9
v 4.9 7.4 0.8
v 4.9 7.4 0.7
v 4.9 8.4 1.3
v 4.9 8.4 1.2
v 4.9 11.2 1.3
v 4.9 11.2 1.2
v 5 0.4 0.9
v 5 0.4 0.8
v 5 3.7 0.9
v 5 3.7 0.8
v 5 4.5 0.7
v 5 4.5 0.6
v 5 7.5 0.7
v 5 7.5 0.6
v 5 8.4 1.2
v 5 8.4 1.1
v 5 11.3 1.2
v 5 11.3 1.1
v 6 0.4 0.8
v 6 0.4 -1
v 6 0.4 -1.3
v 6 0.4 -1.4
v 6 1.8 -1
v 6 1.8 -1.2
v 6 1.8 -1.3
v 6 4 0.8
v 6 4 -1.3
v 6 4 -1.4
v 6 4.5 0.6
v 6 4.5 -1
v 6 4.5 -1.3
v 6 4.5 -1.4
v 6 5.7 -1
v 6 5.8 -1
v 6 5.8 -1.3
v 6 7.9 0.6
v 6 7.9 -1.3
v 6 7.9 -1.4
v 6 8.4 1.1
v 6 8.4 -1
v 6 8.4 -1.3
v 6 8.4 -1.4
v 6 9.6 -1
v 6 9.7 -1
v 6 9.7 -1.3
v 6 12 1.1
v 6 12 -1.3
v 6 12 -1.4
v -6 0.4 0.8
v -6 0.4 -1
v -6 0.4 -1.3
v -6 0.4 -1.4
v -6 1.7 -1
v -6 1.8 -1
v -6 1.8 -1.3
v -6 4 0.8
v -6 4 -1.3
v -6 4 -1.4
v -6 4.5 0.6
v -6 4.5 -1
v -6 4.5 -1.3
v -6 4.5 -1.4
v -6 5.7 -1
v -6 5.8 -1
v -6 5.8 -1.3
v -6 7.9 0.6
v -6 7.9 -1.3
v -6 7.9 -1.4
v -6 8.4 1.1
v -6 8.4 -1
v -6 8.4 -1.3
v -6 8.4 -1.4
v -6 9.6 -1
v -6 9.7 -1
v -6 9.7 -1.3
v -6 12 1.1
v -6 12 -1.3
v -6 12 -1.4
v -5.6 1.6 0.9
v -5.6 1.6 0.8
v -5.6 3.4 0.9
v -5.6 3.4 0.8
v -5.6 9.5 1.2
v -5.6 9.5 1.1
v -5.6 11.2 1.2
v -5.6 11.2 1.1
v -5.5 5.8 0.7
v -5.5 5.8 0.6
v -5.5 7.4 0.7
v -5.5 7.4 0.6
v 2.9 0.4 0.9
v 2.9 0.4 0.8
v 2.9 3.7 0.9
v 2.9 3.7 0.8
v 3 0.4 1
v 3 0.4 0.9
v 3 3.6 1
v 3 3.6 0.9
v 3 4.5 0.7
v 3 4.5 0.6
v 3 7.5 0.7
v 3 7.5 0.6
v 3 8.4 1.2
v 3 8.4 1.1
v 3 11.3 1.2
v 3 11.3 1.1
v 3.1 4.5 2.9
v 3.1 4.5 0.8
v 3.1 4.5 0.7
v 3.1 7.4 2.9
v 3.1 7.4 0.8
v 3.1 7.4 0.7
v 3.1 8.4 1.3
v 3.1 8.4 1.2
v 3.1 11.2 1.3
v 3.1 11.2 1.2
v 3.2 0.4 -1
v 3.2 0.4 -1.1
v 3.2 0.4 -1.2
v 3.2 0.4 -1.3
v 3.2 1.7 -1
v 3.2 1.7 -1.1
v 3.2 1.7 -1.2
v 3.2 1.8 -1
v 3.2 1.8 -1.1
v 3.2 1.8 -1.2
v 3.2 1.8 -1.3
v 3.3 0.5 -1.1
v 3.3 0.5 -1.2
v 3.3 0.7 -1.1
v 3.3 0.7 -1.2
v 3.3 0.8 -1.1
v 3.3 0.8 -1.2
v 3.3 1 -1.1
v 3.3 1 -1.2
v 3.3 1.1 -1.1
v 3.3 1.1 -1.2
v 3.3 1.3 -1.1
v 3.3 1.3 -1.2
v 3.3 1.4 -1.1
v 3.3 1.4 -1.2
v 3.3 1.6 -1.1
v 3.3 1.6 -1.2
v 3.3 1.7 -1.1
v 3.3 1.7 -1.2
v 3.3 1.8 -1.1
v 3.3 1.8 -1.2
v 3.8 0.5 -1.1
v 3.8 0.5 -1.2
v 3.8 0.7 -1.1
v 3.8 0.7 -1.2
v 3.8 0.8 -1.1
v 3.8 0.8 -1.2
v 3.8 1 -1.1
v 3.8 1 -1.2
v 3.8 1.1 -1.1
v 3.8 1.1 -1.2
v 3.8 1.3 -1.1
v 3.8 1.3 -1.2
v 3.8 1.4 -1.1
v 3.8 1.4 -1.2
v 3.8 1.6 -1.1
v 3.8 1.6 -1.2
v 3.8 1.7 -1.1
v 3.8 1.7 -1.2
v 3.8 1.8 -1.1
v 3.8 1.8 -1.2
v 6.3 0 3.6
v 6.3 0 -1.3
v 6.3 0 -1.4
v 6.3 12.6 3.6
v 6.3 12.6 -1.3
v 6.3 12.6 -1.4
v -6.3 0 3.6
v -6.3 12.6 3.6
v 3 8.4 3.6
v 3 11.3 3.6
v 5 8.4 3.6
v 5 11.3 3.6
v 6.3 0 3.6
v 6.3 12.6 3.6
v -6 0.4 -1
v -6 1.7 -1
v -6 1.8 -1
v -6 4.5 -1
v -6 5.7 -1
v -6 5.8 -1
v -6 8.4 -1
v -6 9.6 -1
v -6 9.7 -1
v 3.2 0.4 -1
v 3.2 1.7 -1
v 3.2 1.8 -1
v 4.8 0.4 -1
v 4.8 1.8 -1
v 6 0.4 -1
v 6 1.8 -1
v 6 4.5 -1
v 6 5.7 -1
v 6 5.8 -1
v 6 8.4 -1
v 6 9.6 -1
v 6 9.7 -1
v 3.2 0.4 -1.1
v 3.2 1.7 -1.1
v 3.2 1.8 -1.1
v 3.3 0.5 -1.1
v 3.3 0.7 -1.1
v 3.3 0.8 -1.1
v 3.3 1 -1.1
v 3.3 1.1 -1.1
v 3.3 1.3 -1.1
v 3.3 1.4 -1.1
v 3.3 1.6 -1.1
v 3.3 1.7 -1.1
v 3.3 1.8 -1.1
v 3.7 0.5 -1.1
v 3.7 0.7 -1.1
v 3.7 0.8 -1.1
v 3.7 1 -1.1
v 3.7 1.1 -1.1
v 3.7 1.3 -1.1
v 3.7 1.4 -1.1
v 3.7 1.6 -1.1
v 3.7 1.7 -1.1
v 3.7 1.8 -1.1
v 3.8 0.5 -1.1
v 3.8 0.7 -1.1
v 3.8 0.8 -1.1
v 3.8 1 -1.1
v 3.8 1.1 -1.1
v 3.8 1.3 -1.1
v 3.8 1.4 -1.1
v 3.8 1.6 -1.1
v 3.8 1.7 -1.1
v 3.8 1.8 -1.1
v 4.7 0.5 -1.1
v 4.7 0.7 -1.1
v 4.7 0.8 -1.1
v 4.7 1 -1.1
v 4.7 1.1 -1.1
v 4.7 1.3 -1.1
v 4.7 1.4 -1.1
v 4.7 1.6 -1.1
v 4.7 1.7 -1.1
v 4.7 1.8 -1.1
v 4.8 0.4 -1.1
v 4.8 1.8 -1.1
v 3.1 4.5 2.9
v 3.1 7.4 2.9
v 4.9 4.5 2.9
v 4.9 7.4 2.9
v 3.1 8.4 1.3
v 3.1 11.2 1.3
v 4.9 8.4 1.3
v 4.9 11.2 1.3
v -5.6 9.5 1.2
v -5.6 11.2 1.2
v 2.1 9.5 1.2
v 2.1 11.2 1.2
v 3 8.4 1.2
v 3 11.3 1.2
v 3.1 8.4 1.2
v 3.1 11.2 1.2
v 4.9 8.4 1.2
v 4.9 11.2 1.2
v 5 8.4 1.2
v 5 11.3 1.2
v -6 8.4 1.1
v -6 12 1.1
v -5.6 9.5 1.1
v -5.6 11.2 1.1
v 2.1 9.5 1.1
v 2.1 11.2 1.1
v 3 8.4 1.1
v 3 11.3 1.1
v 5 8.4 1.1
v 5 11.3 1.1
v 6 8.4 1.1
v 6 12 1.1
v 3 0.4 1
v 3 3.6 1
v 4.9 0.4 1
v 4.9 3.6 1
v -5.6 1.6 0.9
v -5.6 3.4 0.9
v 2 1.6 0.9
v 2 3.4 0.9
v 2.9 0.4 0.9
v 2.9 3.7 0.9
v 3 0.4 0.9
v 3 3.6 0.9
v 4.9 0.4 0.9
v 4.9 3.6 0.9
v 5 0.4 0.9
v 5 3.7 0.9
v -6 0.4 0.8
v -6 4 0.8
v -5.6 1.6 0.8
v -5.6 3.4 0.8
v 2 1.6 0.8
v 2 3.4 0.8
v 2.9 0.4 0.8
v 2.9 3.7 0.8
v 5 0.4 0.8
v 5 3.7 0.8
v 6 0.4 0.8
v 6 4 0.8
v -5.5 5.8 0.7
v -5.5 7.4 0.7
v 2 5.8 0.7
v 2 7.4 0.7
v 3 4.5 0.7
v 3 7.5 0.7
v 3.1 4.5 0.7
v 3.1 7.4 0.7
v 4.9 4.5 0.7
v 4.9 7.4 0.7
v 5 4.5 0.7
v 5 7.5 0.7
v -6 4.5 0.6
v -6 7.9 0.6
v -5.5 5.8 0.6
v -5.5 7.4 0.6
v 2 5.8 0.6
v 2 7.4 0.6
v 3 4.5 0.6
v 3 7.5 0.6
v 5 4.5 0.6
v 5 7.5 0.6
v 6 4.5 0.6
v 6 7.9 0.6
v 3.2 0.4 -1.2
v 3.2 1.7 -1.2
v 3.2 1.8 -1.2
v 3.3 0.5 -1.2
v 3.3 0.7 -1.2
v 3.3 0.8 -1.2
v 3.3 1 -1.2
v 3.3 1.1 -1.2
v 3.3 1.3 -1.2
v 3.3 1.4 -1.2
v 3.3 1.6 -1.2
v 3.3 1.7 -1.2
v 3.3 1.8 -1.2
v 3.7 0.5 -1.2
v 3.7 0.7 -1.2
v 3.7 0.8 -1.2
v 3.7 1 -1.2
v 3.7 1.1 -1.2
v 3.7 1.3 -1.2
v 3.7 1.4 -1.2
v 3.7 1.6 -1.2
v 3.7 1.7 -1.2
v 3.7 1.8 -1.2
v 3.8 0.5 -1.2
v 3.8 0.7 -1.2
v 3.8 0.8 -1.2
v 3.8 1 -1.2
v 3.8 1.1 -1.2
v 3.8 1.3 -1.2
v 3.8 1.4 -1.2
v 3.8 1.6 -1.2
v 3.8 1.7 -1.2
v 3.8 1.8 -1.2
v 4.7 0.5 -1.2
v 4.7 0.7 -1.2
v 4.7 0.8 -1.2
v 4.7 1 -1.2
v 4.7 1.1 -1.2
v 4.7 1.3 -1.2
v 4.7 1.4 -1.2
v 4.7 1.6 -1.2
v 4.7 1.7 -1.2
v 4.7 1.8 -1.2
v 4.8 0.4 -1.2
v 4.8 1.8 -1.2
v -6 0.4 -1.3
v -6 1.8 -1.3
v -6 4.5 -1.3
v -6 5.8 -1.3
v -6 8.4 -1.3
v -6 9.7 -1.3
v 3.2 0.4 -1.3
v 3.2 1.8 -1.3
v 4.8 0.4 -1.3
v 4.8 1.8 -1.3
v 6 0.4 -1.3
v 6 1.8 -1.3
v 6 4.5 -1.3
v 6 5.8 -1.3
v 6 8.4 -1.3
v 6 9.7 -1.3
v -6.3 0 -1.4
v -6.3 12.6 -1.4
v -6 0.4 -1.4
v -6 4 -1.4
v -6 4.5 -1.4
v -6 7.9 -1.4
v -6 8.4 -1.4
v -6 12 -1.4
v 6 0.4 -1.4
v 6 4 -1.4
v 6 4.5 -1.4
v 6 7.9 -1.4
v 6 8.4 -1.4
v 6 12 -1.4
v 6.3 0 -1.4
v 6.3 12.6 -1.4
v -6.3 0 3.6
v 6.3 0 3.6
v -6.3 0 -1.3
v 6.3 0 -1.3
v -6.3 0 -1.4
v 6.3 0 -1.4
v 3.3 0.7 -1.1
v 3.7 0.7 -1.1
v 3.8 0.7 -1.1
v 4.7 0.7 -1.1
v 3.3 0.7 -1.2
v 3.7 0.7 -1.2
v 3.8 0.7 -1.2
v 4.7 0.7 -1.2
v 3.3 1 -1.1
v 3.7 1 -1.1
v 3.8 1 -1.1
v 4.7 1 -1.1
v 3.3 1 -1.2
v 3.7 1 -1.2
v 3.8 1 -1.2
v 4.7 1 -1.2
v 3.3 1.3 -1.1
v 3.7 1.3 -1.1
v 3.8 1.3 -1.1
v 4.7 1.3 -1.1
v 3.3 1.3 -1.2
v 3.7 1.3 -1.2
v 3.8 1.3 -1.2
v 4.7 1.3 -1.2
v 3.3 1.6 -1.1
v 3.7 1.6 -1.1
v 3.8 1.6 -1.1
v 4.7 1.6 -1.1
v 3.3 1.6 -1.2
v 3.7 1.6 -1.2
v 3.8 1.6 -1.2
v 4.7 1.6 -1.2
v -5.6 3.4 0.9
v 2 3.4 0.9
v -5.6 3.4 0.8
v 2 3.4 0.8
v 3 3.6 1
v 4.9 3.6 1
v 3 3.6 0.9
v 4.9 3.6 0.9
v 2.9 3.7 0.9
v 5 3.7 0.9
v 2.9 3.7 0.8
v 5 3.7 0.8
v -6 4 0.8
v 6 4 0.8
v -6 4 -1.3
v 6 4 -1.3
v -6 4 -1.4
v 6 4 -1.4
v 3.1 7.4 2.9
v 4.9 7.4 2.9
v 3.1 7.4 0.8
v 4.9 7.4 0.8
v -5.5 7.4 0.7
v 2 7.4 0.7
v 3.1 7.4 0.7
v 4.9 7.4 0.7
v -5.5 7.4 0.6
v 2 7.4 0.6
v 3 7.5 0.7
v 5 7.5 0.7
v 3 7.5 0.6
v 5 7.5 0.6
v -6 7.9 0.6
v 6 7.9 0.6
v -6 7.9 -1.3
v 6 7.9 -1.3
v -6 7.9 -1.4
v 6 7.9 -1.4
v 3.1 11.2 1.3
v 4.9 11.2 1.3
v -5.6 11.2 1.2
v 2.1 11.2 1.2
v 3.1 11.2 1.2
v 4.9 11.2 1.2
v -5.6 11.2 1.1
v 2.1 11.2 1.1
v 3 11.3 1.2
v 5 11.3 1.2
v 3 11.3 1.1
v 5 11.3 1.1
v -6 12 1.1
v 6 12 1.1
v -6 12 -1.3
v 6 12 -1.3
v -6 12 -1.4
v 6 12 -1.4
v 3 0.4 1
v 4.9 0.4 1
v 2.9 0.4 0.9
v 3 0.4 0.9
v 4.9 0.4 0.9
v 5 0.4 0.9
v -6 0.4 0.8
v 2.9 0.4 0.8
v 5 0.4 0.8
v 6 0.4 0.8
v -6 0.4 -1
v 3.2 0.4 -1
v 4.8 0.4 -1
v 6 0.4 -1
v 3.2 0.4 -1.1
v 4.8 0.4 -1.1
v 3.2 0.4 -1.2
v 4.8 0.4 -1.2
v -6 0.4 -1.3
v 3.2 0.4 -1.3
v 4.8 0.4 -1.3
v 6 0.4 -1.3
v -6 0.4 -1.4
v 6 0.4 -1.4
v 3.3 0.5 -1.1
v 3.7 0.5 -1.1
v 3.8 0.5 -1.1
v 4.7 0.5 -1.1
v 3.3 0.5 -1.2
v 3.7 0.5 -1.2
v 3.8 0.5 -1.2
v 4.7 0.5 -1.2
v 3.3 0.8 -1.1
v 3.7 0.8 -1.1
v 3.8 0.8 -1.1
v 4.7 0.8 -1.1
v 3.3 0.8 -1.2
v 3.7 0.8 -1.2
v 3.8 0.8 -1.2
v 4.7 0.8 -1.2
v 3.3 1.1 -1.1
v 3.7 1.1 -1.1
v 3.8 1.1 -1.1
v 4.7 1.1 -1.1
v 3.3 1.1 -1.2
v 3.7 1.1 -1.2
v 3.8 1.1 -1.2
v 4.7 1.1 -1.2
v 3.3 1.4 -1.1
v 3.7 1.4 -1.1
v 3.8 1.4 -1.1
v 4.7 1.4 -1.1
v 3.3 1.4 -1.2
v 3.7 1.4 -1.2
v 3.8 1.4 -1.2
v 4.7 1.4 -1.2
v -5.6 1.6 0.9
v 2 1.6 0.9
v -5.6 1.6 0.8
v 2 1.6 0.8
v 3.3 1.7 -1.1
v 3.7 1.7 -1.1
v 3.8 1.7 -1.1
v 4.7 1.7 -1.1
v 3.3 1.7 -1.2
v 3.7 1.7 -1.2
v 3.8 1.7 -1.2
v 4.7 1.7 -1.2
v -6 1.8 -1
v 3.2 1.8 -1
v 4.8 1.8 -1
v 6 1.8 -1
v 3.2 1.8 -1.1
v 3.3 1.8 -1.1
v 3.7 1.8 -1.1
v 3.8 1.8 -1.1
v 4.7 1.8 -1.1
v 4.8 1.8 -1.1
v 3.2 1.8 -1.2
v 3.3 1.8 -1.2
v 3.7 1.8 -1.2
v 3.8 1.8 -1.2
v 4.7 1.8 -1.2
v 4.8 1.8 -1.2
v 6 1.8 -1.2
v -6 1.8 -1.3
v 3.2 1.8 -1.3
v 4.8 1.8 -1.3
v 6 1.8 -1.3
v 3.1 4.5 2.9
v 4.9 4.5 2.9
v 3.1 4.5 0.8
v 4.9 4.5 0.8
v 3 4.5 0.7
v 3.1 4.5 0.7
v 4.9 4.5 0.7
v 5 4.5 0.7
v -6 4.5 0.6
v 3 4.5 0.6
v 5 4.5 0.6
v 6 4.5 0.6
v -6 4.5 -1
v 6 4.5 -1
v -6 4.5 -1.3
v 6 4.5 -1.3
v -6 4.5 -1.4
v 6 4.5 -1.4
v -5.5 5.8 0.7
v 2 5.8 0.7
v -5.5 5.8 0.6
v 2 5.8 0.6
v -6 5.8 -1
v 6 5.8 -1
v -6 5.8 -1.3
v 6 5.8 -1.3
v 3.1 8.4 1.3
v 4.9 8.4 1.3
v 3 8.4 1.2
v 3.1 8.4 1.2
v 4.9 8.4 1.2
v 5 8.4 1.2
v -6 8.4 1.1
v 3 8.4 1.1
v 5 8.4 1.1
v 6 8.4 1.1
v -6 8.4 -1
v 6 8.4 -1
v -6 8.4 -1.3
v 6 8.4 -1.3
v -6 8.4 -1.4
v 6 8.4 -1.4
v -5.6 9.5 1.2
v 2.1 9.5 1.2
v -5.6 9.5 1.1
v 2.1 9.5 1.1
v -6 9.7 -1
v 6 9.7 -1
v -6 9.7 -1.3
v 6 9.7 -1.3
v -6.3 12.6 3.6
v 6.3 12.6 3.6
v -6.3 12.6 -1.3
v 6.3 12.6 -1.3
v -6.3 12.6 -1.4
v 6.3 12.6 -1.4

# faces
f 4/2/1 2/2/1 1/2/1
f 5/4/1 3/4/1 2/4/1
f 5/2/1 2/2/1 4/2/1
f 6/4/1 3/4/1 5/4/1
f 9/3/1 8/3/1 7/3/1
f 10/3/1 8/3/1 9/3/1
f 13/3/1 12/3/1 11/3/1
f 14/3/1 12/3/1 13/3/1
f 17/3/1 16/3/1 15/3/1
f 18/3/1 16/3/1 17/3/1
f 21/6/1 20/6/1 19/6/1
f 22/6/1 20/6/1 21/6/1
f 25/6/1 24/6/1 23/6/1
f 26/6/1 24/6/1 25/6/1
f 29/6/1 28/6/1 27/6/1
f 30/6/1 28/6/1 29/6/1
f 33/6/1 32/6/1 31/6/1
f 34/6/1 32/6/1 33/6/1
f 37/6/1 36/6/1 35/6/1
f 38/6/1 36/6/1 37/6/1
f 41/6/1 40/6/1 39/6/1
f 42/6/1 40/6/1 41/6/1
f 45/6/1 44/6/1 43/6/1
f 46/6/1 44/6/1 45/6/1
f 49/6/1 48/6/1 47/6/1
f 50/6/1 48/6/1 49/6/1
f 53/6/1 52/6/1 51/6/1
f 54/6/1 52/6/1 53/6/1
f 57/6/1 56/6/1 55/6/1
f 58/6/1 56/6/1 57/6/1
f 63/2/1 60/2/1 59/2/1
f 64/2/1 60/2/1 63/2/1
f 65/5/1 62/5/1 61/5/1
f 66/5/1 62/5/1 65/5/1
f 69/6/1 68/6/1 67/6/1
f 70/6/1 68/6/1 69/6/1
f 74/2/1 72/2/1 71/2/1
f 75/6/1 73/6/1 72/6/1
f 75/2/1 72/2/1 74/2/1
f 76/6/1 73/6/1 75/6/1
f 79/6/1 78/6/1 77/6/1
f 80/6/1 78/6/1 79/6/1
f 83/3/1 82/3/1 81/3/1
f 84/3/1 82/3/1 83/3/1
f 87/3/1 86/3/1 85/3/1
f 88/3/1 86/3/1 87/3/1
f 91/3/1 90/3/1 89/3/1
f 92/3/1 90/3/1 91/3/1
f 97/2/1 94/2/1 93/2/1
f 99/4/1 96/4/1 95/4/1
f 100/2/1 98/2/1 97/2/1
f 100/2/1 99/2/1 98/2/1
f 100/2/1 97/2/1 93/2/1
f 101/4/1 96/4/1 99/4/1
f 101/2/1 99/2/1 100/2/1
f 102/4/1 96/4/1 101/4/1
f 107/2/1 104/2/1 103/2/1
f 108/2/1 107/2/1 103/2/1
f 109/4/1 106/4/1 105/4/1
f 110/2/1 108/2/1 103/2/1
f 110/2/1 109/2/1 108/2/1
f 111/4/1 106/4/1 109/4/1
f 111/2/1 109/2/1 110/2/1
f 112/4/1 106/4/1 111/4/1
f 117/2/1 114/2/1 113/2/1
f 118/2/1 117/2/1 113/2/1
f 119/4/1 116/4/1 115/4/1
f 120/2/1 118/2/1 113/2/1
f 120/2/1 119/2/1 118/2/1
f 121/4/1 116/4/1 119/4/1
f 121/2/1 119/2/1 120/2/1
f 122/4/1 116/4/1 121/4/1
f 123/2/2 124/2/2 127/2/2
f 123/2/2 127/2/2 128/2/2
f 125/4/2 126/4/2 129/4/2
f 123/2/2 128/2/2 130/2/2
f 128/2/2 129/2/2 130/2/2
f 129/4/2 126/4/2 131/4/2
f 130/2/2 129/2/2 131/2/2
f 131/4/2 126/4/2 132/4/2
f 133/2/2 134/2/2 137/2/2
f 133/2/2 137/2/2 138/2/2
f 135/4/2 136/4/2 139/4/2
f 133/2/2 138/2/2 140/2/2
f 138/2/2 139/2/2 140/2/2
f 139/4/2 136/4/2 141/4/2
f 140/2/2 139/2/2 141/2/2
f 141/4/2 136/4/2 142/4/2
f 143/2/2 144/2/2 147/2/2
f 143/2/2 147/2/2 148/2/2
f 145/4/2 146/4/2 149/4/2
f 143/2/2 148/2/2 150/2/2
f 148/2/2 149/2/2 150/2/2
f 149/4/2 146/4/2 151/4/2
f 150/2/2 149/2/2 151/2/2
f 151/4/2 146/4/2 152/4/2
f 153/3/2 154/3/2 155/3/2
f 155/3/2 154/3/2 156/3/2
f 157/3/2 158/3/2 159/3/2
f 159/3/2 158/3/2 160/3/2
f 161/3/2 162/3/2 163/3/2
f 163/3/2 162/3/2 164/3/2
f 165/3/2 166/3/2 167/3/2
f 167/3/2 166/3/2 168/3/2
f 169/6/2 170/6/2 171/6/2
f 171/6/2 170/6/2 172/6/2
f 173/3/2 174/3/2 175/3/2
f 175/3/2 174/3/2 176/3/2
f 177/3/2 178/3/2 179/3/2
f 179/3/2 178/3/2 180/3/2
f 181/2/2 182/2/2 184/2/2
f 182/6/2 183/6/2 185/6/2
f 184/2/2 182/2/2 185/2/2
f 185/6/2 183/6/2 186/6/2
f 187/6/2 188/6/2 189/6/2
f 189/6/2 188/6/2 190/6/2
f 191/2/2 192/2/2 195/2/2
f 195/2/2 192/2/2 196/2/2
f 193/5/2 194/5/2 197/5/2
f 195/5/2 196/5/2 198/5/2
f 198/5/2 196/5/2 199/5/2
f 197/5/2 194/5/2 200/5/2
f 200/5/2 194/5/2 201/5/2
f 202/6/2 203/6/2 204/6/2
f 204/6/2 203/6/2 205/6/2
f 206/6/2 207/6/2 208/6/2
f 208/6/2 207/6/2 209/6/2
f 210/6/2 211/6/2 212/6/2
f 212/6/2 211/6/2 213/6/2
f 214/6/2 215/6/2 216/6/2
f 216/6/2 215/6/2 217/6/2
f 218/5/2 219/5/2 220/5/2
f 220/5/2 219/5/2 221/5/2
f 222/6/2 223/6/2 224/6/2
f 224/6/2 223/6/2 225/6/2
f 226/6/2 227/6/2 228/6/2
f 228/6/2 227/6/2 229/6/2
f 230/6/2 231/6/2 232/6/2
f 232/6/2 231/6/2 233/6/2
f 234/6/2 235/6/2 236/6/2
f 236/6/2 235/6/2 237/6/2
f 238/6/2 239/6/2 240/6/2
f 240/6/2 239/6/2 241/6/2
f 242/2/2 243/2/2 245/2/2
f 243/4/2 244/4/2 246/4/2
f 245/2/2 243/2/2 246/2/2
f 246/4/2 244/4/2 247/4/2
f 250/2/3 249/2/3 248/2/3
f 251/2/3 249/2/3 250/2/3
f 252/2/3 250/2/3 248/2/3
f 252/1/3 251/1/3 250/1/3
f 253/2/3 249/2/3 251/2/3
f 253/1/3 251/1/3 252/1/3
f 254/2/3 252/2/3 248/2/3
f 254/2/3 253/2/3 252/2/3
f 255/2/3 249/2/3 253/2/3
f 255/2/3 253/2/3 254/2/3
f 265/2/3 257/2/3 256/2/3
f 266/5/3 258/5/3 257/5/3
f 266/2/3 257/2/3 265/2/3
f 267/5/3 258/5/3 266/5/3
f 270/2/3 269/2/3 268/2/3
f 271/2/3 269/2/3 270/2/3
f 272/2/3 260/2/3 259/2/3
f 273/5/3 261/5/3 260/5/3
f 273/2/3 260/2/3 272/2/3
f 274/5/3 261/5/3 273/5/3
f 275/2/3 263/2/3 262/2/3
f 276/5/3 264/5/3 263/5/3
f 276/2/3 263/2/3 275/2/3
f 277/5/3 264/5/3 276/5/3
f 281/6/3 279/6/3 278/6/3
f 282/6/3 279/6/3 281/6/3
f 283/6/3 279/6/3 282/6/3
f 284/6/3 279/6/3 283/6/3
f 285/6/3 279/6/3 284/6/3
f 286/6/3 279/6/3 285/6/3
f 287/6/3 279/6/3 286/6/3
f 288/6/3 279/6/3 287/6/3
f 289/5/3 280/5/3 279/5/3
f 289/6/3 279/6/3 288/6/3
f 290/5/3 280/5/3 289/5/3
f 291/6/3 281/6/3 278/6/3
f 292/6/3 283/6/3 282/6/3
f 293/6/3 283/6/3 292/6/3
f 294/6/3 285/6/3 284/6/3
f 295/6/3 285/6/3 294/6/3
f 296/6/3 287/6/3 286/6/3
f 297/6/3 287/6/3 296/6/3
f 298/6/3 289/6/3 288/6/3
f 299/6/3 289/6/3 298/6/3
f 301/6/3 297/6/3 296/6/3
f 301/6/3 300/6/3 299/6/3
f 301/6/3 299/6/3 298/6/3
f 301/6/3 298/6/3 297/6/3
f 301/6/3 295/6/3 294/6/3
f 301/6/3 296/6/3 295/6/3
f 301/6/3 291/6/3 278/6/3
f 301/6/3 294/6/3 293/6/3
f 301/6/3 293/6/3 292/6/3
f 301/6/3 292/6/3 291/6/3
f 302/6/3 300/6/3 301/6/3
f 303/6/3 300/6/3 302/6/3
f 304/6/3 300/6/3 303/6/3
f 305/6/3 300/6/3 304/6/3
f 306/6/3 300/6/3 305/6/3
f 307/6/3 300/6/3 306/6/3
f 308/6/3 300/6/3 307/6/3
f 309/6/3 300/6/3 308/6/3
f 310/6/3 300/6/3 309/6/3
f 311/6/3 301/6/3 278/6/3
f 312/6/3 303/6/3 302/6/3
f 313/6/3 303/6/3 312/6/3
f 314/6/3 305/6/3 304/6/3
f 315/6/3 305/6/3 314/6/3
f 316/6/3 307/6/3 306/6/3
f 317/6/3 307/6/3 316/6/3
f 318/6/3 309/6/3 308/6/3
f 319/6/3 309/6/3 318/6/3
f 321/6/3 317/6/3 316/6/3
f 321/6/3 320/6/3 319/6/3
f 321/6/3 319/6/3 318/6/3
f 321/6/3 318/6/3 317/6/3
f 321/6/3 311/6/3 278/6/3
f 321/6/3 316/6/3 315/6/3
f 321/6/3 315/6/3 314/6/3
f 321/6/3 314/6/3 313/6/3
f 321/6/3 313/6/3 312/6/3
f 321/6/3 312/6/3 311/6/3
f 322/6/3 320/6/3 321/6/3
f 323/2/4 324/2/4 325/2/4
f 325/2/4 324/2/4 326/2/4
f 327/1/4 328/1/4 329/1/4
f 329/1/4 328/1/4 330/1/4
f 331/2/4 332/2/4 333/2/4
f 333/2/4 332/2/4 334/2/4
f 335/6/4 336/6/4 337/6/4
f 337/6/4 336/6/4 338/6/4
f 338/6/4 336/6/4 340/6/4
f 339/6/4 340/6/4 341/6/4
f 340/6/4 336/6/4 342/6/4
f 341/6/4 340/6/4 342/6/4
f 343/3/4 344/3/4 345/3/4
f 345/3/4 344/3/4 346/3/4
f 343/3/4 345/3/4 347/3/4
f 346/3/4 344/3/4 348/3/4
f 343/3/4 347/3/4 349/3/4
f 347/3/4 348/3/4 349/3/4
f 348/3/4 344/3/4 350/3/4
f 349/3/4 348/3/4 350/3/4
f 350/3/4 344/3/4 352/3/4
f 351/3/4 352/3/4 353/3/4
f 352/3/4 344/3/4 354/3/4
f 353/3/4 352/3/4 354/3/4
f 355/2/4 356/2/4 357/2/4
f 357/2/4 356/2/4 358/2/4
f 359/2/4 360/2/4 361/2/4
f 361/2/4 360/2/4 362/2/4
f 363/6/4 364/6/4 365/6/4
f 365/6/4 364/6/4 366/6/4
f 366/6/4 364/6/4 368/6/4
f 367/6/4 368/6/4 369/6/4
f 368/6/4 364/6/4 370/6/4
f 369/6/4 368/6/4 370/6/4
f 371/3/4 372/3/4 373/3/4
f 373/3/4 372/3/4 374/3/4
f 371/3/4 373/3/4 375/3/4
f 374/3/4 372/3/4 376/3/4
f 371/3/4 375/3/4 377/3/4
f 375/3/4 376/3/4 377/3/4
f 376/3/4 372/3/4 378/3/4
f 377/3/4 376/3/4 378/3/4
f 378/3/4 372/3/4 380/3/4
f 379/3/4 380/3/4 381/3/4
f 380/3/4 372/3/4 382/3/4
f 381/3/4 380/3/4 382/3/4
f 383/2/4 384/2/4 385/2/4
f 385/2/4 384/2/4 386/2/4
f 387/6/4 388/6/4 389/6/4
f 389/6/4 388/6/4 390/6/4
f 390/6/4 388/6/4 392/6/4
f 391/6/4 392/6/4 393/6/4
f 392/6/4 388/6/4 394/6/4
f 393/6/4 392/6/4 394/6/4
f 395/3/4 396/3/4 397/3/4
f 397/3/4 396/3/4 398/3/4
f 395/3/4 397/3/4 399/3/4
f 398/3/4 396/3/4 400/3/4
f 395/3/4 399/3/4 401/3/4
f 399/3/4 400/3/4 401/3/4
f 400/3/4 396/3/4 402/3/4
f 401/3/4 400/3/4 402/3/4
f 402/3/4 396/3/4 404/3/4
f 403/3/4 404/3/4 405/3/4
f 404/3/4 396/3/4 406/3/4
f 405/3/4 404/3/4 406/3/4
f 407/6/4 408/6/4 410/6/4
f 410/6/4 408/6/4 411/6/4
f 411/6/4 408/6/4 412/6/4
f 412/6/4 408/6/4 413/6/4
f 413/6/4 408/6/4 414/6/4
f 414/6/4 408/6/4 415/6/4
f 415/6/4 408/6/4 416/6/4
f 416/6/4 408/6/4 417/6/4
f 408/5/4 409/5/4 418/5/4
f 417/6/4 408/6/4 418/6/4
f 418/5/4 409/5/4 419/5/4
f 407/6/4 410/6/4 420/6/4
f 411/6/4 412/6/4 421/6/4
f 421/6/4 412/6/4 422/6/4
f 413/6/4 414/6/4 423/6/4
f 423/6/4 414/6/4 424/6/4
f 415/6/4 416/6/4 425/6/4
f 425/6/4 416/6/4 426/6/4
f 417/6/4 418/6/4 427/6/4
f 427/6/4 418/6/4 428/6/4
f 425/6/4 426/6/4 430/6/4
f 428/6/4 429/6/4 430/6/4
f 427/6/4 428/6/4 430/6/4
f 426/6/4 427/6/4 430/6/4
f 423/6/4 424/6/4 430/6/4
f 424/6/4 425/6/4 430/6/4
f 407/6/4 420/6/4 430/6/4
f 422/6/4 423/6/4 430/6/4
f 421/6/4 422/6/4 430/6/4
f 420/6/4 421/6/4 430/6/4
f 430/6/4 429/6/4 431/6/4
f 431/6/4 429/6/4 432/6/4
f 432/6/4 429/6/4 433/6/4
f 433/6/4 429/6/4 434/6/4
f 434/6/4 429/6/4 435/6/4
f 435/6/4 429/6/4 436/6/4
f 436/6/4 429/6/4 437/6/4
f 437/6/4 429/6/4 438/6/4
f 438/6/4 429/6/4 439/6/4
f 407/6/4 430/6/4 440/6/4
f 431/6/4 432/6/4 441/6/4
f 441/6/4 432/6/4 442/6/4
f 433/6/4 434/6/4 443/6/4
f 443/6/4 434/6/4 444/6/4
f 435/6/4 436/6/4 445/6/4
f 445/6/4 436/6/4 446/6/4
f 437/6/4 438/6/4 447/6/4
f 447/6/4 438/6/4 448/6/4
f 445/6/4 446/6/4 450/6/4
f 448/6/4 449/6/4 450/6/4
f 447/6/4 448/6/4 450/6/4
f 446/6/4 447/6/4 450/6/4
f 407/6/4 440/6/4 450/6/4
f 444/6/4 445/6/4 450/6/4
f 443/6/4 444/6/4 450/6/4
f 442/6/4 443/6/4 450/6/4
f 441/6/4 442/6/4 450/6/4
f 440/6/4 441/6/4 450/6/4
f 450/6/4 449/6/4 451/6/4
f 452/5/4 453/5/4 458/5/4
f 458/5/4 453/5/4 459/5/4
f 460/5/4 461/5/4 462/5/4
f 462/5/4 461/5/4 463/5/4
f 454/5/4 455/5/4 464/5/4
f 464/5/4 455/5/4 465/5/4
f 456/5/4 457/5/4 466/5/4
f 466/5/4 457/5/4 467/5/4
f 468/4/4 469/4/4 470/4/4
f 470/4/4 469/4/4 471/4/4
f 471/4/4 469/4/4 472/4/4
f 472/4/4 469/4/4 473/4/4
f 473/4/4 469/4/4 474/4/4
f 474/4/4 469/4/4 475/4/4
f 468/4/4 470/4/4 476/4/4
f 471/4/4 472/4/4 477/4/4
f 477/4/4 472/4/4 478/4/4
f 473/4/4 474/4/4 479/4/4
f 479/4/4 474/4/4 480/4/4
f 475/4/4 469/4/4 481/4/4
f 479/4/4 480/4/4 482/4/4
f 480/4/4 481/4/4 482/4/4
f 477/4/4 478/4/4 482/4/4
f 468/4/4 476/4/4 482/4/4
f 478/4/4 479/4/4 482/4/4
f 476/4/4 477/4/4 482/4/4
f 481/4/4 469/4/4 483/4/4
f 482/4/4 481/4/4 483/4/4
f 486/2/5 485/2/5 484/2/5
f 487/2/5 485/2/5 486/2/5
f 488/4/5 487/4/5 486/4/5
f 489/4/5 487/4/5 488/4/5
f 494/6/5 491/6/5 490/6/5
f 495/6/5 491/6/5 494/6/5
f 496/6/5 493/6/5 492/6/5
f 497/6/5 493/6/5 496/6/5
f 502/6/5 499/6/5 498/6/5
f 503/6/5 499/6/5 502/6/5
f 504/6/5 501/6/5 500/6/5
f 505/6/5 501/6/5 504/6/5
f 510/6/5 507/6/5 506/6/5
f 511/6/5 507/6/5 510/6/5
f 512/6/5 509/6/5 508/6/5
f 513/6/5 509/6/5 512/6/5
f 518/6/5 515/6/5 514/6/5
f 519/6/5 515/6/5 518/6/5
f 520/6/5 517/6/5 516/6/5
f 521/6/5 517/6/5 520/6/5
f 524/3/5 523/3/5 522/3/5
f 525/3/5 523/3/5 524/3/5
f 528/6/5 527/6/5 526/6/5
f 529/6/5 527/6/5 528/6/5
f 532/3/5 531/3/5 530/3/5
f 533/3/5 531/3/5 532/3/5
f 536/2/5 535/2/5 534/2/5
f 537/2/5 535/2/5 536/2/5
f 538/4/5 537/4/5 536/4/5
f 539/4/5 537/4/5 538/4/5
f 542/2/5 541/2/5 540/2/5
f 543/2/5 541/2/5 542/2/5
f 546/6/5 543/6/5 542/6/5
f 547/6/5 543/6/5 546/6/5
f 548/3/5 545/3/5 544/3/5
f 549/3/5 545/3/5 548/3/5
f 552/3/5 551/3/5 550/3/5
f 553/3/5 551/3/5 552/3/5
f 556/2/5 555/2/5 554/2/5
f 557/2/5 555/2/5 556/2/5
f 558/4/5 557/4/5 556/4/5
f 559/4/5 557/4/5 558/4/5
f 564/6/5 561/6/5 560/6/5
f 565/6/5 561/6/5 564/6/5
f 566/3/5 563/3/5 562/3/5
f 567/3/5 563/3/5 566/3/5
f 570/3/5 569/3/5 568/3/5
f 571/3/5 569/3/5 570/3/5
f 574/2/5 573/2/5 572/2/5
f 575/2/5 573/2/5 574/2/5
f 576/4/5 575/4/5 574/4/5
f 577/4/5 575/4/5 576/4/5
f 578/2/6 579/2/6 581/2/6
f 581/2/6 579/2/6 582/2/6
f 580/2/6 581/2/6 585/2/6
f 582/2/6 583/2/6 585/2/6
f 581/2/6 582/2/6 585/2/6
f 585/2/6 583/2/6 586/2/6
f 584/2/6 585/2/6 588/2/6
f 586/2/6 587/2/6 588/2/6
f 585/2/6 586/2/6 588/2/6
f 588/2/6 587/2/6 589/2/6
f 589/2/6 587/2/6 590/2/6
f 590/2/6 587/2/6 591/2/6
f 589/2/6 590/2/6 592/2/6
f 592/2/6 590/2/6 593/2/6
f 594/2/6 595/2/6 597/2/6
f 597/2/6 595/2/6 598/2/6
f 597/4/6 598/4/6 600/4/6
f 598/4/6 599/4/6 600/4/6
f 596/4/6 597/4/6 600/4/6
f 600/4/6 599/4/6 601/4/6
f 602/6/6 603/6/6 606/6/6
f 606/6/6 603/6/6 607/6/6
f 604/6/6 605/6/6 608/6/6
f 608/6/6 605/6/6 609/6/6
f 610/6/6 611/6/6 614/6/6
f 614/6/6 611/6/6 615/6/6
f 612/6/6 613/6/6 616/6/6
f 616/6/6 613/6/6 617/6/6
f 618/6/6 619/6/6 622/6/6
f 622/6/6 619/6/6 623/6/6
f 620/6/6 621/6/6 624/6/6
f 624/6/6 621/6/6 625/6/6
f 626/6/6 627/6/6 630/6/6
f 630/6/6 627/6/6 631/6/6
f 628/6/6 629/6/6 632/6/6
f 632/6/6 629/6/6 633/6/6
f 634/3/6 635/3/6 636/3/6
f 636/3/6 635/3/6 637/3/6
f 638/6/6 639/6/6 642/6/6
f 642/6/6 639/6/6 643/6/6
f 640/6/6 641/6/6 644/6/6
f 644/6/6 641/6/6 645/6/6
f 646/5/6 647/5/6 650/5/6
f 648/2/6 649/2/6 655/2/6
f 646/5/6 650/5/6 656/5/6
f 650/5/6 651/5/6 656/5/6
f 656/5/6 651/5/6 657/5/6
f 652/6/6 653/6/6 658/6/6
f 658/6/6 653/6/6 659/6/6
f 654/6/6 655/6/6 660/6/6
f 655/2/6 649/2/6 661/2/6
f 660/6/6 655/6/6 661/6/6
f 661/2/6 649/2/6 662/2/6
f 646/5/6 656/5/6 663/5/6
f 663/5/6 656/5/6 664/5/6
f 661/5/6 662/5/6 665/5/6
f 665/5/6 662/5/6 666/5/6
f 667/2/6 668/2/6 669/2/6
f 669/2/6 668/2/6 670/2/6
f 669/2/6 670/2/6 672/2/6
f 672/2/6 670/2/6 673/2/6
f 672/2/6 673/2/6 676/2/6
f 673/2/6 674/2/6 676/2/6
f 671/2/6 672/2/6 676/2/6
f 676/2/6 674/2/6 677/2/6
f 675/2/6 676/2/6 679/2/6
f 677/2/6 678/2/6 679/2/6
f 676/2/6 677/2/6 679/2/6
f 679/2/6 678/2/6 680/2/6
f 681/4/6 682/4/6 683/4/6
f 683/4/6 682/4/6 684/4/6
f 685/3/6 686/3/6 687/3/6
f 687/3/6 686/3/6 688/3/6
f 689/5/6 690/5/6 691/5/6
f 691/5/6 690/5/6 692/5/6
f 693/2/6 694/2/6 696/2/6
f 696/2/6 694/2/6 697/2/6
f 695/2/6 696/2/6 700/2/6
f 697/2/6 698/2/6 700/2/6
f 696/2/6 697/2/6 700/2/6
f 700/2/6 698/2/6 701/2/6
f 699/2/6 700/2/6 703/2/6
f 701/2/6 702/2/6 703/2/6
f 700/2/6 701/2/6 703/2/6
f 703/2/6 702/2/6 704/2/6
f 705/4/6 706/4/6 707/4/6
f 707/4/6 706/4/6 708/4/6
f 709/3/6 710/3/6 711/3/6
f 711/3/6 710/3/6 712/3/6
f 713/5/6 714/5/6 715/5/6
f 715/5/6 714/5/6 716/5/6
f 717/2/6 718/2/6 719/2/6
f 719/2/6 718/2/6 720/2/6
f 719/4/6 720/4/6 721/4/6
f 721/4/6 720/4/6 722/4/6
