# MagicaVoxel @ Ephtracy

# group
o 

# material
mtllib Hall Table.mtl
usemtl palette

# normals
vn -1 0 0
vn 1 0 0
vn 0 0 1
vn 0 0 -1
vn 0 -1 0
vn 0 1 0

# texcoords
vt 0.970703 0.5
vt 0.974609 0.5
vt 0.982422 0.5
vt 0.986328 0.5

# verts
v -1.2 0 4.3
v -1.2 0 -4.3
v -1.2 1.1 3.2
v -1.2 1.1 1.7
v -1.2 1.1 -1.7
v -1.2 1.1 -3.2
v -1.2 1.7 1.7
v -1.2 1.7 -1.7
v -1.2 2.8 4.3
v -1.2 2.8 3.2
v -1.2 2.8 -3.2
v -1.2 2.8 -4.3
v -0.2 0.1 -3.3
v -0.2 0.1 -4.2
v -0.2 2.7 -3.3
v -0.2 2.7 -4.2
v -0.1 0.1 4.2
v -0.1 0.1 4.1
v -0.1 1 4.2
v -0.1 1 4.1
v -0.1 1.1 4.2
v -0.1 1.1 4.1
v -0.1 1.9 4.2
v -0.1 1.9 4.1
v -0.1 2 4.2
v -0.1 2 4.1
v -0.1 2.7 4.2
v -0.1 2.7 4.1
v 0 0.5 2.6
v 0 0.5 2.2
v 0 0.5 0.3
v 0 0.5 -0.3
v 0 0.5 -2.2
v 0 0.5 -2.6
v 0 0.6 2.6
v 0 0.6 2.2
v 0 0.6 0.3
v 0 0.6 -0.3
v 0 0.6 -2.2
v 0 0.6 -2.6
v 0.6 1.7 4.3
v 0.6 1.7 4.2
v 0.6 1.8 4.3
v 0.6 1.8 4.2
v -1.1 0.1 4.2
v -1.1 0.1 3.3
v -1.1 0.1 -3.3
v -1.1 0.1 -4.2
v -1.1 1 4.2
v -1.1 1 3.3
v -1.1 1 1.6
v -1.1 1 -1.6
v -1.1 1.1 4.2
v -1.1 1.1 3.3
v -1.1 1.6 1.6
v -1.1 1.6 -1.6
v -1.1 1.9 4.2
v -1.1 1.9 3.3
v -1.1 2 4.2
v -1.1 2 3.3
v -1.1 2.7 4.2
v -1.1 2.7 3.3
v -1.1 2.7 -3.3
v -1.1 2.7 -4.2
v -0.2 0.1 1.6
v -0.2 0.1 1.5
v -0.2 0.1 -1.5
v -0.2 0.1 -1.6
v -0.2 0.9 1.6
v -0.2 0.9 1.5
v -0.2 0.9 -1.5
v -0.2 0.9 -1.6
v -0.1 0.1 3.2
v -0.1 0.1 1.6
v -0.1 0.1 1.5
v -0.1 0.1 -1.5
v -0.1 0.1 -1.6
v -0.1 0.1 -3.2
v -0.1 0.1 -3.3
v -0.1 0.1 -4.2
v -0.1 0.5 2.7
v -0.1 0.5 2.6
v -0.1 0.5 2.2
v -0.1 0.5 2.1
v -0.1 0.5 0.4
v -0.1 0.5 0.3
v -0.1 0.5 -0.3
v -0.1 0.5 -0.4
v -0.1 0.5 -2.1
v -0.1 0.5 -2.2
v -0.1 0.5 -2.6
v -0.1 0.5 -2.7
v -0.1 0.6 2.7
v -0.1 0.6 2.6
v -0.1 0.6 2.2
v -0.1 0.6 2.1
v -0.1 0.6 0.4
v -0.1 0.6 0.3
v -0.1 0.6 -0.3
v -0.1 0.6 -0.4
v -0.1 0.6 -2.1
v -0.1 0.6 -2.2
v -0.1 0.6 -2.6
v -0.1 0.6 -2.7
v -0.1 0.9 1.6
v -0.1 0.9 1.5
v -0.1 0.9 -1.5
v -0.1 0.9 -1.6
v -0.1 1 4.1
v -0.1 1 3.3
v -0.1 1 3.2
v -0.1 1 1.6
v -0.1 1 -1.6
v -0.1 1 -3.2
v -0.1 1.1 4.1
v -0.1 1.1 3.3
v -0.1 1.6 -4
v -0.1 1.6 -4.1
v -0.1 1.7 -4
v -0.1 1.7 -4.1
v -0.1 1.9 4.1
v -0.1 1.9 3.3
v -0.1 2 4.1
v -0.1 2 3.3
v -0.1 2.7 -3.3
v -0.1 2.7 -4.2
v 0 0 4.3
v 0 0 -4.3
v 0 0.1 4.2
v 0 0.1 4.1
v 0 0.1 3.3
v 0 0.1 3.2
v 0 0.1 -3.2
v 0 0.1 -3.3
v 0 0.1 -4.2
v 0 1 3.2
v 0 1 1.6
v 0 1 -1.6
v 0 1 -3.2
v 0 1.1 3.2
v 0 1.1 1.7
v 0 1.1 -1.7
v 0 1.1 -3.2
v 0 1.6 1.6
v 0 1.6 -1.6
v 0 1.6 -4
v 0 1.6 -4.1
v 0 1.7 1.7
v 0 1.7 -1.7
v 0 1.7 -4
v 0 1.7 -4.1
v 0 2.7 4.2
v 0 2.7 4.1
v 0 2.7 3.3
v 0 2.7 -3.3
v 0 2.7 -4.2
v 0 2.8 4.3
v 0 2.8 3.2
v 0 2.8 -3.2
v 0 2.8 -4.3
v 0.0999999 0.5 2.7
v 0.0999999 0.5 2.1
v 0.0999999 0.5 0.4
v 0.0999999 0.5 -0.4
v 0.0999999 0.5 -2.1
v 0.0999999 0.5 -2.7
v 0.0999999 0.6 2.7
v 0.0999999 0.6 2.1
v 0.0999999 0.6 0.4
v 0.0999999 0.6 -0.4
v 0.0999999 0.6 -2.1
v 0.0999999 0.6 -2.7
v 0.7 1.7 4.3
v 0.7 1.7 4.2
v 0.7 1.8 4.3
v 0.7 1.8 4.2
v 0.8 0.1 4.2
v 0.8 0.1 4.1
v 0.8 2.7 4.2
v 0.8 2.7 4.1
v -1.2 0 4.3
v -1.2 2.8 4.3
v 0 0 4.3
v 0 2.8 4.3
v 0.6 1.7 4.3
v 0.6 1.8 4.3
v 0.7 1.7 4.3
v 0.7 1.8 4.3
v 0 0.1 4.2
v 0 2.7 4.2
v 0.6 1.7 4.2
v 0.6 1.8 4.2
v 0.7 1.7 4.2
v 0.7 1.8 4.2
v 0.8 0.1 4.2
v 0.8 2.7 4.2
v -1.1 0.1 3.3
v -1.1 1 3.3
v -1.1 1.1 3.3
v -1.1 1.9 3.3
v -1.1 2 3.3
v -1.1 2.7 3.3
v -0.1 1 3.3
v -0.1 1.1 3.3
v -0.1 1.9 3.3
v -0.1 2 3.3
v 0 0.1 3.3
v 0 2.7 3.3
v -0.1 0.5 2.7
v -0.1 0.6 2.7
v 0.0999999 0.5 2.7
v 0.0999999 0.6 2.7
v -0.1 0.5 2.2
v -0.1 0.6 2.2
v 0 0.5 2.2
v 0 0.6 2.2
v -1.2 1.1 1.7
v -1.2 1.7 1.7
v 0 1.1 1.7
v 0 1.7 1.7
v -0.2 0.1 1.5
v -0.2 0.9 1.5
v -0.1 0.1 1.5
v -0.1 0.9 1.5
v -0.1 0.5 0.4
v -0.1 0.6 0.4
v 0.0999999 0.5 0.4
v 0.0999999 0.6 0.4
v -0.1 0.5 -0.3
v -0.1 0.6 -0.3
v 0 0.5 -0.3
v 0 0.6 -0.3
v -1.1 1 -1.6
v -1.1 1.6 -1.6
v -0.2 0.1 -1.6
v -0.2 0.9 -1.6
v -0.1 0.1 -1.6
v -0.1 0.9 -1.6
v -0.1 1 -1.6
v 0 1 -1.6
v 0 1.6 -1.6
v -0.1 0.5 -2.1
v -0.1 0.6 -2.1
v 0.0999999 0.5 -2.1
v 0.0999999 0.6 -2.1
v -0.1 0.5 -2.6
v -0.1 0.6 -2.6
v 0 0.5 -2.6
v 0 0.6 -2.6
v -1.2 1.1 -3.2
v -1.2 2.8 -3.2
v -0.1 0.1 -3.2
v -0.1 1 -3.2
v 0 0.1 -3.2
v 0 1 -3.2
v 0 1.1 -3.2
v 0 2.8 -3.2
v -0.1 1.6 -4
v -0.1 1.7 -4
v 0 1.6 -4
v 0 1.7 -4
v -1.1 0.1 -4.2
v -1.1 2.7 -4.2
v -0.2 0.1 -4.2
v -0.2 2.7 -4.2
v -0.1 0.1 -4.2
v -0.1 2.7 -4.2
v 0 0.1 -4.2
v 0 2.7 -4.2
v -1.1 0.1 4.2
v -1.1 1 4.2
v -1.1 1.1 4.2
v -1.1 1.9 4.2
v -1.1 2 4.2
v -1.1 2.7 4.2
v -0.1 0.1 4.2
v -0.1 1 4.2
v -0.1 1.1 4.2
v -0.1 1.9 4.2
v -0.1 2 4.2
v -0.1 2.7 4.2
v -0.1 0.1 4.1
v -0.1 1 4.1
v -0.1 1.1 4.1
v -0.1 1.9 4.1
v -0.1 2 4.1
v -0.1 2.7 4.1
v 0 0.1 4.1
v 0 2.7 4.1
v 0.8 0.1 4.1
v 0.8 2.7 4.1
v -1.2 1.1 3.2
v -1.2 2.8 3.2
v -0.1 0.1 3.2
v -0.1 1 3.2
v 0 0.1 3.2
v 0 1 3.2
v 0 1.1 3.2
v 0 2.8 3.2
v -0.1 0.5 2.6
v -0.1 0.6 2.6
v 0 0.5 2.6
v 0 0.6 2.6
v -0.1 0.5 2.1
v -0.1 0.6 2.1
v 0.0999999 0.5 2.1
v 0.0999999 0.6 2.1
v -1.1 1 1.6
v -1.1 1.6 1.6
v -0.2 0.1 1.6
v -0.2 0.9 1.6
v -0.1 0.1 1.6
v -0.1 0.9 1.6
v -0.1 1 1.6
v 0 1 1.6
v 0 1.6 1.6
v -0.1 0.5 0.3
v -0.1 0.6 0.3
v 0 0.5 0.3
v 0 0.6 0.3
v -0.1 0.5 -0.4
v -0.1 0.6 -0.4
v 0.0999999 0.5 -0.4
v 0.0999999 0.6 -0.4
v -0.2 0.1 -1.5
v -0.2 0.9 -1.5
v -0.1 0.1 -1.5
v -0.1 0.9 -1.5
v -1.2 1.1 -1.7
v -1.2 1.7 -1.7
v 0 1.1 -1.7
v 0 1.7 -1.7
v -0.1 0.5 -2.2
v -0.1 0.6 -2.2
v 0 0.5 -2.2
v 0 0.6 -2.2
v -0.1 0.5 -2.7
v -0.1 0.6 -2.7
v 0.0999999 0.5 -2.7
v 0.0999999 0.6 -2.7
v -1.1 0.1 -3.3
v -1.1 2.7 -3.3
v -0.2 0.1 -3.3
v -0.2 2.7 -3.3
v -0.1 0.1 -3.3
v -0.1 2.7 -3.3
v 0 0.1 -3.3
v 0 2.7 -3.3
v -0.1 1.6 -4.1
v -0.1 1.7 -4.1
v 0 1.6 -4.1
v 0 1.7 -4.1
v -1.2 0 -4.3
v -1.2 2.8 -4.3
v 0 0 -4.3
v 0 2.8 -4.3
v -1.2 0 4.3
v 0 0 4.3
v -1.2 0 -4.3
v 0 0 -4.3
v 0 0.1 4.2
v 0.8 0.1 4.2
v 0 0.1 4.1
v 0.8 0.1 4.1
v -0.1 0.5 2.7
v 0.0999999 0.5 2.7
v -0.1 0.5 2.6
v 0 0.5 2.6
v -0.1 0.5 2.2
v 0 0.5 2.2
v -0.1 0.5 2.1
v 0.0999999 0.5 2.1
v -0.1 0.5 0.4
v 0.0999999 0.5 0.4
v -0.1 0.5 0.3
v 0 0.5 0.3
v -0.1 0.5 -0.3
v 0 0.5 -0.3
v -0.1 0.5 -0.4
v 0.0999999 0.5 -0.4
v -0.1 0.5 -2.1
v 0.0999999 0.5 -2.1
v -0.1 0.5 -2.2
v 0 0.5 -2.2
v -0.1 0.5 -2.6
v 0 0.5 -2.6
v -0.1 0.5 -2.7
v 0.0999999 0.5 -2.7
v -0.2 0.9 1.6
v -0.1 0.9 1.6
v -0.2 0.9 1.5
v -0.1 0.9 1.5
v -0.2 0.9 -1.5
v -0.1 0.9 -1.5
v -0.2 0.9 -1.6
v -0.1 0.9 -1.6
v -1.1 1 4.2
v -0.1 1 4.2
v -0.1 1 4.1
v -1.1 1 3.3
v -0.1 1 3.3
v -0.1 1 3.2
v 0 1 3.2
v -0.1 1 1.6
v 0 1 1.6
v -0.1 1 -1.6
v 0 1 -1.6
v -0.1 1 -3.2
v 0 1 -3.2
v -1.1 1.6 1.6
v 0 1.6 1.6
v -1.1 1.6 -1.6
v 0 1.6 -1.6
v -0.1 1.6 -4
v 0 1.6 -4
v -0.1 1.6 -4.1
v 0 1.6 -4.1
v 0.6 1.7 4.3
v 0.7 1.7 4.3
v 0.6 1.7 4.2
v 0.7 1.7 4.2
v -1.1 1.9 4.2
v -0.1 1.9 4.2
v -0.1 1.9 4.1
v -1.1 1.9 3.3
v -0.1 1.9 3.3
v -1.1 2.7 4.2
v -0.1 2.7 4.2
v -0.1 2.7 4.1
v 0 2.7 4.1
v -1.1 2.7 3.3
v 0 2.7 3.3
v -1.1 2.7 -3.3
v -0.2 2.7 -3.3
v -0.1 2.7 -3.3
v 0 2.7 -3.3
v -1.1 2.7 -4.2
v -0.2 2.7 -4.2
v -0.1 2.7 -4.2
v 0 2.7 -4.2
v -1.1 0.1 4.2
v -0.1 0.1 4.2
v -0.1 0.1 4.1
v 0 0.1 4.1
v -1.1 0.1 3.3
v 0 0.1 3.3
v -0.1 0.1 3.2
v 0 0.1 3.2
v -0.2 0.1 1.6
v -0.1 0.1 1.6
v -0.2 0.1 1.5
v -0.1 0.1 1.5
v -0.2 0.1 -1.5
v -0.1 0.1 -1.5
v -0.2 0.1 -1.6
v -0.1 0.1 -1.6
v -0.1 0.1 -3.2
v 0 0.1 -3.2
v -1.1 0.1 -3.3
v -0.2 0.1 -3.3
v -0.1 0.1 -3.3
v 0 0.1 -3.3
v -1.1 0.1 -4.2
v -0.2 0.1 -4.2
v -0.1 0.1 -4.2
v 0 0.1 -4.2
v -0.1 0.6 2.7
v 0.0999999 0.6 2.7
v -0.1 0.6 2.6
v 0 0.6 2.6
v -0.1 0.6 2.2
v 0 0.6 2.2
v -0.1 0.6 2.1
v 0.0999999 0.6 2.1
v -0.1 0.6 0.4
v 0.0999999 0.6 0.4
v -0.1 0.6 0.3
v 0 0.6 0.3
v -0.1 0.6 -0.3
v 0 0.6 -0.3
v -0.1 0.6 -0.4
v 0.0999999 0.6 -0.4
v -0.1 0.6 -2.1
v 0.0999999 0.6 -2.1
v -0.1 0.6 -2.2
v 0 0.6 -2.2
v -0.1 0.6 -2.6
v 0 0.6 -2.6
v -0.1 0.6 -2.7
v 0.0999999 0.6 -2.7
v -1.1 1 1.6
v -0.1 1 1.6
v -1.1 1 -1.6
v -0.1 1 -1.6
v -1.1 1.1 4.2
v -0.1 1.1 4.2
v -0.1 1.1 4.1
v -1.1 1.1 3.3
v -0.1 1.1 3.3
v -1.2 1.1 3.2
v 0 1.1 3.2
v -1.2 1.1 1.7
v 0 1.1 1.7
v -1.2 1.1 -1.7
v 0 1.1 -1.7
v -1.2 1.1 -3.2
v 0 1.1 -3.2
v -1.2 1.7 1.7
v 0 1.7 1.7
v -1.2 1.7 -1.7
v 0 1.7 -1.7
v -0.1 1.7 -4
v 0 1.7 -4
v -0.1 1.7 -4.1
v 0 1.7 -4.1
v 0.6 1.8 4.3
v 0.7 1.8 4.3
v 0.6 1.8 4.2
v 0.7 1.8 4.2
v -1.1 2 4.2
v -0.1 2 4.2
v -0.1 2 4.1
v -1.1 2 3.3
v -0.1 2 3.3
v 0 2.7 4.2
v 0.8 2.7 4.2
v 0 2.7 4.1
v 0.8 2.7 4.1
v -1.2 2.8 4.3
v 0 2.8 4.3
v -1.2 2.8 3.2
v 0 2.8 3.2
v -1.2 2.8 -3.2
v 0 2.8 -3.2
v -1.2 2.8 -4.3
v 0 2.8 -4.3

# faces
f 3/1/1 2/1/1 1/1/1
f 4/1/1 2/1/1 3/1/1
f 5/1/1 2/1/1 4/1/1
f 6/1/1 2/1/1 5/1/1
f 7/1/1 5/1/1 4/1/1
f 8/1/1 5/1/1 7/1/1
f 9/1/1 3/1/1 1/1/1
f 10/1/1 3/1/1 9/1/1
f 11/1/1 2/1/1 6/1/1
f 12/1/1 2/1/1 11/1/1
f 15/3/1 14/3/1 13/3/1
f 16/3/1 14/3/1 15/3/1
f 19/3/1 18/3/1 17/3/1
f 20/3/1 18/3/1 19/3/1
f 23/3/1 22/3/1 21/3/1
f 24/3/1 22/3/1 23/3/1
f 27/3/1 26/3/1 25/3/1
f 28/3/1 26/3/1 27/3/1
f 35/2/1 30/2/1 29/2/1
f 36/2/1 30/2/1 35/2/1
f 37/2/1 32/2/1 31/2/1
f 38/2/1 32/2/1 37/2/1
f 39/2/1 34/2/1 33/2/1
f 40/2/1 34/2/1 39/2/1
f 43/4/1 42/4/1 41/4/1
f 44/4/1 42/4/1 43/4/1
f 45/1/2 46/1/2 49/1/2
f 49/1/2 46/1/2 50/1/2
f 51/1/2 52/1/2 55/1/2
f 55/1/2 52/1/2 56/1/2
f 53/1/2 54/1/2 57/1/2
f 57/1/2 54/1/2 58/1/2
f 59/1/2 60/1/2 61/1/2
f 61/1/2 60/1/2 62/1/2
f 47/1/2 48/1/2 63/1/2
f 63/1/2 48/1/2 64/1/2
f 65/1/2 66/1/2 69/1/2
f 69/1/2 66/1/2 70/1/2
f 67/1/2 68/1/2 71/1/2
f 71/1/2 68/1/2 72/1/2
f 73/1/2 74/1/2 81/1/2
f 81/1/2 74/1/2 82/1/2
f 82/1/2 74/1/2 83/1/2
f 83/1/2 74/1/2 84/1/2
f 75/1/2 76/1/2 85/1/2
f 85/1/2 76/1/2 86/1/2
f 86/1/2 76/1/2 87/1/2
f 87/1/2 76/1/2 88/1/2
f 77/1/2 78/1/2 89/1/2
f 89/1/2 78/1/2 90/1/2
f 90/1/2 78/1/2 91/1/2
f 91/1/2 78/1/2 92/1/2
f 73/1/2 81/1/2 93/1/2
f 82/1/2 83/1/2 94/1/2
f 94/1/2 83/1/2 95/1/2
f 84/1/2 74/1/2 96/1/2
f 75/1/2 85/1/2 97/1/2
f 86/1/2 87/1/2 98/1/2
f 98/1/2 87/1/2 99/1/2
f 88/1/2 76/1/2 100/1/2
f 77/1/2 89/1/2 101/1/2
f 90/1/2 91/1/2 102/1/2
f 102/1/2 91/1/2 103/1/2
f 92/1/2 78/1/2 104/1/2
f 94/1/2 95/1/2 105/1/2
f 95/1/2 96/1/2 105/1/2
f 93/1/2 94/1/2 105/1/2
f 96/1/2 74/1/2 105/1/2
f 98/1/2 99/1/2 106/1/2
f 99/1/2 100/1/2 106/1/2
f 75/1/2 97/1/2 106/1/2
f 97/1/2 98/1/2 106/1/2
f 100/1/2 76/1/2 107/1/2
f 106/1/2 100/1/2 107/1/2
f 103/1/2 104/1/2 108/1/2
f 102/1/2 103/1/2 108/1/2
f 77/1/2 101/1/2 108/1/2
f 101/1/2 102/1/2 108/1/2
f 106/1/2 107/1/2 111/1/2
f 93/1/2 105/1/2 111/1/2
f 107/1/2 108/1/2 111/1/2
f 73/1/2 93/1/2 111/1/2
f 105/1/2 106/1/2 111/1/2
f 111/1/2 108/1/2 112/1/2
f 108/1/2 104/1/2 113/1/2
f 112/1/2 108/1/2 113/1/2
f 104/1/2 78/1/2 114/1/2
f 113/1/2 104/1/2 114/1/2
f 109/1/2 110/1/2 115/1/2
f 115/1/2 110/1/2 116/1/2
f 79/3/2 80/3/2 117/3/2
f 117/3/2 80/3/2 118/3/2
f 79/3/2 117/3/2 119/3/2
f 118/3/2 80/3/2 120/3/2
f 121/1/2 122/1/2 123/1/2
f 123/1/2 122/1/2 124/1/2
f 79/3/2 119/3/2 125/3/2
f 119/3/2 120/3/2 125/3/2
f 120/3/2 80/3/2 126/3/2
f 125/3/2 120/3/2 126/3/2
f 127/1/2 128/1/2 129/1/2
f 129/1/2 128/1/2 130/1/2
f 130/1/2 128/1/2 131/1/2
f 131/1/2 128/1/2 132/1/2
f 132/1/2 128/1/2 133/1/2
f 133/1/2 128/1/2 134/1/2
f 134/1/2 128/1/2 135/1/2
f 131/1/2 132/1/2 136/1/2
f 133/1/2 134/1/2 139/1/2
f 136/1/2 137/1/2 140/1/2
f 131/1/2 136/1/2 140/1/2
f 140/1/2 137/1/2 141/1/2
f 138/1/2 139/1/2 142/1/2
f 139/1/2 134/1/2 143/1/2
f 142/1/2 139/1/2 143/1/2
f 141/1/2 137/1/2 144/1/2
f 138/1/2 142/1/2 145/1/2
f 141/1/2 144/1/2 148/1/2
f 144/1/2 145/1/2 148/1/2
f 145/1/2 142/1/2 149/1/2
f 148/1/2 145/1/2 149/1/2
f 146/4/2 147/4/2 150/4/2
f 150/4/2 147/4/2 151/4/2
f 127/1/2 129/1/2 152/1/2
f 131/1/2 140/1/2 154/1/2
f 143/1/2 134/1/2 155/1/2
f 135/1/2 128/1/2 156/1/2
f 153/1/2 154/1/2 157/1/2
f 152/1/2 153/1/2 157/1/2
f 127/1/2 152/1/2 157/1/2
f 154/1/2 140/1/2 158/1/2
f 157/1/2 154/1/2 158/1/2
f 143/1/2 155/1/2 159/1/2
f 155/1/2 156/1/2 159/1/2
f 156/1/2 128/1/2 160/1/2
f 159/1/2 156/1/2 160/1/2
f 161/2/2 162/2/2 167/2/2
f 167/2/2 162/2/2 168/2/2
f 163/2/2 164/2/2 169/2/2
f 169/2/2 164/2/2 170/2/2
f 165/2/2 166/2/2 171/2/2
f 171/2/2 166/2/2 172/2/2
f 173/4/2 174/4/2 175/4/2
f 175/4/2 174/4/2 176/4/2
f 177/3/2 178/3/2 179/3/2
f 179/3/2 178/3/2 180/3/2
f 183/1/3 182/1/3 181/1/3
f 184/1/3 182/1/3 183/1/3
f 187/4/3 186/4/3 185/4/3
f 188/4/3 186/4/3 187/4/3
f 191/3/3 190/3/3 189/3/3
f 192/3/3 190/3/3 191/3/3
f 193/3/3 191/3/3 189/3/3
f 194/3/3 190/3/3 192/3/3
f 195/3/3 193/3/3 189/3/3
f 195/3/3 194/3/3 193/3/3
f 196/3/3 190/3/3 194/3/3
f 196/3/3 194/3/3 195/3/3
f 203/1/3 198/1/3 197/1/3
f 204/1/3 200/1/3 199/1/3
f 205/1/3 200/1/3 204/1/3
f 206/1/3 202/1/3 201/1/3
f 207/1/3 205/1/3 204/1/3
f 207/1/3 206/1/3 205/1/3
f 207/1/3 203/1/3 197/1/3
f 207/1/3 204/1/3 203/1/3
f 208/1/3 202/1/3 206/1/3
f 208/1/3 206/1/3 207/1/3
f 211/2/3 210/2/3 209/2/3
f 212/2/3 210/2/3 211/2/3
f 215/2/3 214/2/3 213/2/3
f 216/2/3 214/2/3 215/2/3
f 219/1/3 218/1/3 217/1/3
f 220/1/3 218/1/3 219/1/3
f 223/1/3 222/1/3 221/1/3
f 224/1/3 222/1/3 223/1/3
f 227/2/3 226/2/3 225/2/3
f 228/2/3 226/2/3 227/2/3
f 231/2/3 230/2/3 229/2/3
f 232/2/3 230/2/3 231/2/3
f 237/1/3 236/1/3 235/1/3
f 238/1/3 236/1/3 237/1/3
f 239/1/3 234/1/3 233/1/3
f 240/1/3 234/1/3 239/1/3
f 241/1/3 234/1/3 240/1/3
f 244/2/3 243/2/3 242/2/3
f 245/2/3 243/2/3 244/2/3
f 248/2/3 247/2/3 246/2/3
f 249/2/3 247/2/3 248/2/3
f 254/1/3 253/1/3 252/1/3
f 255/1/3 253/1/3 254/1/3
f 256/1/3 251/1/3 250/1/3
f 257/1/3 251/1/3 256/1/3
f 260/4/3 259/4/3 258/4/3
f 261/4/3 259/4/3 260/4/3
f 264/1/3 263/1/3 262/1/3
f 265/1/3 263/1/3 264/1/3
f 268/1/3 267/1/3 266/1/3
f 269/1/3 267/1/3 268/1/3
f 270/1/4 271/1/4 276/1/4
f 276/1/4 271/1/4 277/1/4
f 272/1/4 273/1/4 278/1/4
f 278/1/4 273/1/4 279/1/4
f 274/1/4 275/1/4 280/1/4
f 280/1/4 275/1/4 281/1/4
f 282/3/4 283/3/4 288/3/4
f 286/3/4 287/3/4 288/3/4
f 285/3/4 286/3/4 288/3/4
f 284/3/4 285/3/4 288/3/4
f 283/3/4 284/3/4 288/3/4
f 288/3/4 287/3/4 289/3/4
f 288/3/4 289/3/4 290/3/4
f 290/3/4 289/3/4 291/3/4
f 294/1/4 295/1/4 296/1/4
f 296/1/4 295/1/4 297/1/4
f 292/1/4 293/1/4 298/1/4
f 298/1/4 293/1/4 299/1/4
f 300/2/4 301/2/4 302/2/4
f 302/2/4 301/2/4 303/2/4
f 304/2/4 305/2/4 306/2/4
f 306/2/4 305/2/4 307/2/4
f 310/1/4 311/1/4 312/1/4
f 312/1/4 311/1/4 313/1/4
f 308/1/4 309/1/4 314/1/4
f 314/1/4 309/1/4 315/1/4
f 315/1/4 309/1/4 316/1/4
f 317/2/4 318/2/4 319/2/4
f 319/2/4 318/2/4 320/2/4
f 321/2/4 322/2/4 323/2/4
f 323/2/4 322/2/4 324/2/4
f 325/1/4 326/1/4 327/1/4
f 327/1/4 326/1/4 328/1/4
f 329/1/4 330/1/4 331/1/4
f 331/1/4 330/1/4 332/1/4
f 333/2/4 334/2/4 335/2/4
f 335/2/4 334/2/4 336/2/4
f 337/2/4 338/2/4 339/2/4
f 339/2/4 338/2/4 340/2/4
f 341/1/4 342/1/4 343/1/4
f 343/1/4 342/1/4 344/1/4
f 345/1/4 346/1/4 347/1/4
f 347/1/4 346/1/4 348/1/4
f 349/4/4 350/4/4 351/4/4
f 351/4/4 350/4/4 352/4/4
f 353/1/4 354/1/4 355/1/4
f 355/1/4 354/1/4 356/1/4
f 359/1/5 358/1/5 357/1/5
f 360/1/5 358/1/5 359/1/5
f 363/3/5 362/3/5 361/3/5
f 364/3/5 362/3/5 363/3/5
f 367/2/5 366/2/5 365/2/5
f 368/2/5 366/2/5 367/2/5
f 370/2/5 366/2/5 368/2/5
f 371/2/5 370/2/5 369/2/5
f 372/2/5 366/2/5 370/2/5
f 372/2/5 370/2/5 371/2/5
f 375/2/5 374/2/5 373/2/5
f 376/2/5 374/2/5 375/2/5
f 378/2/5 374/2/5 376/2/5
f 379/2/5 378/2/5 377/2/5
f 380/2/5 374/2/5 378/2/5
f 380/2/5 378/2/5 379/2/5
f 383/2/5 382/2/5 381/2/5
f 384/2/5 382/2/5 383/2/5
f 386/2/5 382/2/5 384/2/5
f 387/2/5 386/2/5 385/2/5
f 388/2/5 382/2/5 386/2/5
f 388/2/5 386/2/5 387/2/5
f 391/1/5 390/1/5 389/1/5
f 392/1/5 390/1/5 391/1/5
f 395/1/5 394/1/5 393/1/5
f 396/1/5 394/1/5 395/1/5
f 399/1/5 398/1/5 397/1/5
f 400/1/5 399/1/5 397/1/5
f 401/1/5 399/1/5 400/1/5
f 404/1/5 403/1/5 402/1/5
f 405/1/5 403/1/5 404/1/5
f 408/1/5 407/1/5 406/1/5
f 409/1/5 407/1/5 408/1/5
f 412/1/5 411/1/5 410/1/5
f 413/1/5 411/1/5 412/1/5
f 416/4/5 415/4/5 414/4/5
f 417/4/5 415/4/5 416/4/5
f 420/4/5 419/4/5 418/4/5
f 421/4/5 419/4/5 420/4/5
f 424/1/5 423/1/5 422/1/5
f 425/1/5 424/1/5 422/1/5
f 426/1/5 424/1/5 425/1/5
f 429/1/5 428/1/5 427/1/5
f 431/1/5 429/1/5 427/1/5
f 431/1/5 430/1/5 429/1/5
f 432/1/5 430/1/5 431/1/5
f 437/1/5 434/1/5 433/1/5
f 438/1/5 434/1/5 437/1/5
f 439/1/5 436/1/5 435/1/5
f 440/1/5 436/1/5 439/1/5
f 441/1/6 442/1/6 443/1/6
f 441/1/6 443/1/6 445/1/6
f 443/1/6 444/1/6 445/1/6
f 445/1/6 444/1/6 446/1/6
f 447/1/6 448/1/6 450/1/6
f 449/1/6 450/1/6 451/1/6
f 450/1/6 448/1/6 452/1/6
f 451/1/6 450/1/6 452/1/6
f 452/1/6 448/1/6 454/1/6
f 453/1/6 454/1/6 455/1/6
f 454/1/6 448/1/6 456/1/6
f 455/1/6 454/1/6 456/1/6
f 456/1/6 448/1/6 457/1/6
f 457/1/6 448/1/6 458/1/6
f 459/1/6 460/1/6 463/1/6
f 463/1/6 460/1/6 464/1/6
f 461/1/6 462/1/6 465/1/6
f 465/1/6 462/1/6 466/1/6
f 467/2/6 468/2/6 469/2/6
f 469/2/6 468/2/6 470/2/6
f 470/2/6 468/2/6 472/2/6
f 471/2/6 472/2/6 473/2/6
f 472/2/6 468/2/6 474/2/6
f 473/2/6 472/2/6 474/2/6
f 475/2/6 476/2/6 477/2/6
f 477/2/6 476/2/6 478/2/6
f 478/2/6 476/2/6 480/2/6
f 479/2/6 480/2/6 481/2/6
f 480/2/6 476/2/6 482/2/6
f 481/2/6 480/2/6 482/2/6
f 483/2/6 484/2/6 485/2/6
f 485/2/6 484/2/6 486/2/6
f 486/2/6 484/2/6 488/2/6
f 487/2/6 488/2/6 489/2/6
f 488/2/6 484/2/6 490/2/6
f 489/2/6 488/2/6 490/2/6
f 491/1/6 492/1/6 493/1/6
f 493/1/6 492/1/6 494/1/6
f 495/1/6 496/1/6 497/1/6
f 495/1/6 497/1/6 498/1/6
f 498/1/6 497/1/6 499/1/6
f 500/1/6 501/1/6 502/1/6
f 502/1/6 501/1/6 503/1/6
f 504/1/6 505/1/6 506/1/6
f 506/1/6 505/1/6 507/1/6
f 508/1/6 509/1/6 510/1/6
f 510/1/6 509/1/6 511/1/6
f 512/4/6 513/4/6 514/4/6
f 514/4/6 513/4/6 515/4/6
f 516/4/6 517/4/6 518/4/6
f 518/4/6 517/4/6 519/4/6
f 520/1/6 521/1/6 522/1/6
f 520/1/6 522/1/6 523/1/6
f 523/1/6 522/1/6 524/1/6
f 525/3/6 526/3/6 527/3/6
f 527/3/6 526/3/6 528/3/6
f 529/1/6 530/1/6 531/1/6
f 531/1/6 530/1/6 532/1/6
f 533/1/6 534/1/6 535/1/6
f 535/1/6 534/1/6 536/1/6
