# MagicaVoxel @ Ephtracy

# group
o 

# material
mtllib Sofa.mtl
usemtl palette

# normals
vn -1 0 0
vn 1 0 0
vn 0 0 1
vn 0 0 -1
vn 0 -1 0
vn 0 1 0

# texcoords
vt 0.232422 0.5
vt 0.396484 0.5
vt 0.533203 0.5
vt 0.986328 0.5

# verts
v -1.4 0 3.7
v -1.4 0 3.5
v -1.4 0 -3.5
v -1.4 0 -3.7
v -1.4 0.1 3.7
v -1.4 0.1 3.5
v -1.4 0.1 -3.5
v -1.4 0.1 -3.7
v -1.4 0.3 3.5
v -1.4 0.3 -3.5
v -1.4 0.6 3.5
v -1.4 0.6 -3.5
v -1.4 0.7 3.8
v -1.4 0.7 3.7
v -1.4 0.7 -3.7
v -1.4 0.7 -3.8
v -1.4 1.2 3.7
v -1.4 1.2 3.5
v -1.4 1.2 -3.5
v -1.4 1.2 -3.7
v -1.4 1.4 3.8
v -1.4 1.4 3.7
v -1.4 1.4 -3.7
v -1.4 1.4 -3.8
v -1.4 1.9 3.7
v -1.4 1.9 3.4
v -1.4 1.9 -3.4
v -1.4 1.9 -3.7
v -1.4 2.4 3.4
v -1.4 2.4 -3.4
v -1.3 0 3.5
v -1.3 0 -3.5
v -1.3 0.1 3.5
v -1.3 0.1 -3.5
v -1.3 0.3 3.5
v -1.3 0.3 -3.5
v 0.6 0 3.7
v 0.6 0 3.6
v 0.6 0 -3.6
v 0.6 0 -3.7
v 0.6 0.1 3.7
v 0.6 0.1 3.6
v 0.6 0.1 -3.6
v 0.6 0.1 -3.7
v 0.6 0.3 3.7
v 0.6 0.3 3.6
v 0.6 0.3 -3.6
v 0.6 0.3 -3.7
v -1.2 0 3.7
v -1.2 0 3.6
v -1.2 0 -3.6
v -1.2 0 -3.7
v -1.2 0.1 3.7
v -1.2 0.1 3.6
v -1.2 0.1 -3.6
v -1.2 0.1 -3.7
v -1.2 0.3 3.7
v -1.2 0.3 3.6
v -1.2 0.3 -3.6
v -1.2 0.3 -3.7
v -1.1 0.7 1.6
v -1.1 0.7 1.5
v -1.1 0.7 -1.5
v -1.1 0.7 -1.6
v -1.1 0.9 3.4
v -1.1 0.9 1.6
v -1.1 0.9 1.5
v -1.1 0.9 -1.5
v -1.1 0.9 -1.6
v -1.1 0.9 -3.4
v -1.1 1.4 3.7
v -1.1 1.4 3.4
v -1.1 1.4 -3.4
v -1.1 1.4 -3.7
v -1.1 1.8 3
v -1.1 1.8 2.2
v -1.1 1.8 0.5
v -1.1 1.8 -0.3
v -1.1 1.8 -2.2
v -1.1 1.8 -3
v -1.1 1.9 3.7
v -1.1 1.9 3.4
v -1.1 1.9 -3.4
v -1.1 1.9 -3.7
v -1.1 2.2 3
v -1.1 2.2 2.2
v -1.1 2.2 0.5
v -1.1 2.2 -0.3
v -1.1 2.2 -2.2
v -1.1 2.2 -3
v -1.1 2.4 3.4
v -1.1 2.4 -3.4
v -1 1.8 3
v -1 1.8 2.2
v -1 1.8 0.5
v -1 1.8 -0.3
v -1 1.8 -2.2
v -1 1.8 -3
v -1 2.2 3
v -1 2.2 2.2
v -1 2.2 0.5
v -1 2.2 -0.3
v -1 2.2 -2.2
v -1 2.2 -3
v 0.6 0.7 3.4
v 0.6 0.7 1.6
v 0.6 0.7 1.5
v 0.6 0.7 -1.5
v 0.6 0.7 -1.6
v 0.6 0.7 -3.4
v 0.6 0.9 3.4
v 0.6 0.9 1.6
v 0.6 0.9 1.5
v 0.6 0.9 -1.5
v 0.6 0.9 -1.6
v 0.6 0.9 -3.4
v 0.7 0 3.2
v 0.7 0 -3.2
v 0.7 0.1 3.2
v 0.7 0.1 -3.2
v 0.7 0.3 3.2
v 0.7 0.3 -3.2
v 0.8 0 3.7
v 0.8 0 3.2
v 0.8 0 -3.2
v 0.8 0 -3.7
v 0.8 0.1 3.7
v 0.8 0.1 3.2
v 0.8 0.1 -3.2
v 0.8 0.1 -3.7
v 0.8 0.3 3.2
v 0.8 0.3 -3.2
v 0.8 0.6 3.5
v 0.8 0.6 -3.5
v 0.8 0.7 3.8
v 0.8 0.7 3.7
v 0.8 0.7 3.4
v 0.8 0.7 -3.4
v 0.8 0.7 -3.7
v 0.8 0.7 -3.8
v 0.8 1.2 3.7
v 0.8 1.2 3.5
v 0.8 1.2 -3.5
v 0.8 1.2 -3.7
v 0.8 1.4 3.8
v 0.8 1.4 3.4
v 0.8 1.4 -3.4
v 0.8 1.4 -3.8
v -1.4 0.7 3.8
v -1.4 1.4 3.8
v 0.8 0.7 3.8
v 0.8 1.4 3.8
v -1.4 0 3.7
v -1.4 0.1 3.7
v -1.4 0.7 3.7
v -1.4 1.4 3.7
v -1.4 1.9 3.7
v -1.2 0 3.7
v -1.2 0.1 3.7
v -1.2 0.3 3.7
v -1.1 1.4 3.7
v -1.1 1.9 3.7
v 0.6 0 3.7
v 0.6 0.1 3.7
v 0.6 0.3 3.7
v 0.8 0 3.7
v 0.8 0.1 3.7
v 0.8 0.7 3.7
v -1.2 0 3.6
v -1.2 0.1 3.6
v -1.2 0.3 3.6
v 0.6 0 3.6
v 0.6 0.1 3.6
v 0.6 0.3 3.6
v -1.4 1.9 3.4
v -1.4 2.4 3.4
v -1.1 1.9 3.4
v -1.1 2.4 3.4
v -1.1 1.8 3
v -1.1 2.2 3
v -1 1.8 3
v -1 2.2 3
v -1.1 0.7 1.5
v -1.1 0.9 1.5
v 0.6 0.7 1.5
v 0.6 0.9 1.5
v -1.1 1.8 0.5
v -1.1 2.2 0.5
v -1 1.8 0.5
v -1 2.2 0.5
v -1.1 0.7 -1.6
v -1.1 0.9 -1.6
v 0.6 0.7 -1.6
v 0.6 0.9 -1.6
v -1.1 1.8 -2.2
v -1.1 2.2 -2.2
v -1 1.8 -2.2
v -1 2.2 -2.2
v 0.7 0 -3.2
v 0.7 0.1 -3.2
v 0.7 0.3 -3.2
v 0.8 0 -3.2
v 0.8 0.1 -3.2
v 0.8 0.3 -3.2
v -1.1 0.9 -3.4
v -1.1 1.4 -3.4
v 0.6 0.7 -3.4
v 0.6 0.9 -3.4
v 0.8 0.7 -3.4
v 0.8 1.4 -3.4
v -1.4 0 -3.5
v -1.4 0.1 -3.5
v -1.4 0.3 -3.5
v -1.3 0 -3.5
v -1.3 0.1 -3.5
v -1.3 0.3 -3.5
v -1.4 0 3.5
v -1.4 0.1 3.5
v -1.4 0.3 3.5
v -1.3 0 3.5
v -1.3 0.1 3.5
v -1.3 0.3 3.5
v -1.1 0.9 3.4
v -1.1 1.4 3.4
v 0.6 0.7 3.4
v 0.6 0.9 3.4
v 0.8 0.7 3.4
v 0.8 1.4 3.4
v 0.7 0 3.2
v 0.7 0.1 3.2
v 0.7 0.3 3.2
v 0.8 0 3.2
v 0.8 0.1 3.2
v 0.8 0.3 3.2
v -1.1 1.8 2.2
v -1.1 2.2 2.2
v -1 1.8 2.2
v -1 2.2 2.2
v -1.1 0.7 1.6
v -1.1 0.9 1.6
v 0.6 0.7 1.6
v 0.6 0.9 1.6
v -1.1 1.8 -0.3
v -1.1 2.2 -0.3
v -1 1.8 -0.3
v -1 2.2 -0.3
v -1.1 0.7 -1.5
v -1.1 0.9 -1.5
v 0.6 0.7 -1.5
v 0.6 0.9 -1.5
v -1.1 1.8 -3
v -1.1 2.2 -3
v -1 1.8 -3
v -1 2.2 -3
v -1.4 1.9 -3.4
v -1.4 2.4 -3.4
v -1.1 1.9 -3.4
v -1.1 2.4 -3.4
v -1.2 0 -3.6
v -1.2 0.1 -3.6
v -1.2 0.3 -3.6
v 0.6 0 -3.6
v 0.6 0.1 -3.6
v 0.6 0.3 -3.6
v -1.4 0 -3.7
v -1.4 0.1 -3.7
v -1.4 0.7 -3.7
v -1.4 1.4 -3.7
v -1.4 1.9 -3.7
v -1.2 0 -3.7
v -1.2 0.1 -3.7
v -1.2 0.3 -3.7
v -1.1 1.4 -3.7
v -1.1 1.9 -3.7
v 0.6 0 -3.7
v 0.6 0.1 -3.7
v 0.6 0.3 -3.7
v 0.8 0 -3.7
v 0.8 0.1 -3.7
v 0.8 0.7 -3.7
v -1.4 0.7 -3.8
v -1.4 1.4 -3.8
v 0.8 0.7 -3.8
v 0.8 1.4 -3.8
v -1.4 0 3.7
v -1.2 0 3.7
v 0.6 0 3.7
v 0.8 0 3.7
v -1.3 0 3.6
v -1.2 0 3.6
v 0.6 0 3.6
v 0.7 0 3.6
v -1.4 0 3.5
v -1.3 0 3.5
v 0.7 0 3.2
v 0.8 0 3.2
v 0.7 0 -3.2
v 0.8 0 -3.2
v -1.4 0 -3.5
v -1.3 0 -3.5
v -1.2 0 -3.5
v -1.2 0 -3.6
v 0.6 0 -3.6
v 0.7 0 -3.6
v -1.4 0 -3.7
v -1.2 0 -3.7
v 0.6 0 -3.7
v 0.8 0 -3.7
v -1.2 0.3 3.7
v 0.6 0.3 3.7
v -1.2 0.3 3.6
v 0.6 0.3 3.6
v -1.4 0.3 3.5
v -1.3 0.3 3.5
v 0.7 0.3 3.2
v 0.8 0.3 3.2
v 0.7 0.3 -3.2
v 0.8 0.3 -3.2
v -1.4 0.3 -3.5
v -1.3 0.3 -3.5
v -1.2 0.3 -3.6
v 0.6 0.3 -3.6
v -1.2 0.3 -3.7
v 0.6 0.3 -3.7
v -1.4 0.7 3.8
v 0.8 0.7 3.8
v -1.4 0.7 3.7
v 0.8 0.7 3.7
v -1.4 0.7 -3.7
v 0.8 0.7 -3.7
v -1.4 0.7 -3.8
v 0.8 0.7 -3.8
v -1.1 1.8 3
v -1 1.8 3
v -1.1 1.8 2.2
v -1 1.8 2.2
v -1.1 1.8 0.5
v -1 1.8 0.5
v -1.1 1.8 -0.3
v -1 1.8 -0.3
v -1.1 1.8 -2.2
v -1 1.8 -2.2
v -1.1 1.8 -3
v -1 1.8 -3
v 0.6 0.7 3.4
v 0.8 0.7 3.4
v -1.1 0.7 1.6
v 0.6 0.7 1.6
v -1.1 0.7 1.5
v 0.6 0.7 1.5
v -1.1 0.7 -1.5
v 0.6 0.7 -1.5
v -1.1 0.7 -1.6
v 0.6 0.7 -1.6
v 0.6 0.7 -3.4
v 0.8 0.7 -3.4
v -1.1 0.9 3.4
v 0.6 0.9 3.4
v -1.1 0.9 1.6
v 0.6 0.9 1.6
v -1.1 0.9 1.5
v 0.6 0.9 1.5
v -1.1 0.9 -1.5
v 0.6 0.9 -1.5
v -1.1 0.9 -1.6
v 0.6 0.9 -1.6
v -1.1 0.9 -3.4
v 0.6 0.9 -3.4
v -1.4 1.4 3.8
v 0.8 1.4 3.8
v -1.4 1.4 3.7
v -1.1 1.4 3.7
v -1.1 1.4 3.4
v 0.8 1.4 3.4
v -1.1 1.4 -3.4
v 0.8 1.4 -3.4
v -1.4 1.4 -3.7
v -1.1 1.4 -3.7
v -1.4 1.4 -3.8
v 0.8 1.4 -3.8
v -1.4 1.9 3.7
v -1.1 1.9 3.7
v -1.4 1.9 3.4
v -1.1 1.9 3.4
v -1.4 1.9 -3.4
v -1.1 1.9 -3.4
v -1.4 1.9 -3.7
v -1.1 1.9 -3.7
v -1.1 2.2 3
v -1 2.2 3
v -1.1 2.2 2.2
v -1 2.2 2.2
v -1.1 2.2 0.5
v -1 2.2 0.5
v -1.1 2.2 -0.3
v -1 2.2 -0.3
v -1.1 2.2 -2.2
v -1 2.2 -2.2
v -1.1 2.2 -3
v -1 2.2 -3
v -1.4 2.4 3.4
v -1.1 2.4 3.4
v -1.4 2.4 -3.4
v -1.1 2.4 -3.4

# faces
f 5/2/1 2/2/1 1/2/1
f 6/2/1 2/2/1 5/2/1
f 7/2/1 4/2/1 3/2/1
f 8/2/1 4/2/1 7/2/1
f 9/1/1 6/1/1 5/1/1
f 10/1/1 8/1/1 7/1/1
f 11/1/1 9/1/1 5/1/1
f 11/1/1 10/1/1 9/1/1
f 12/1/1 8/1/1 10/1/1
f 12/1/1 10/1/1 11/1/1
f 14/1/1 11/1/1 5/1/1
f 15/1/1 8/1/1 12/1/1
f 17/3/1 14/3/1 13/3/1
f 17/1/1 11/1/1 14/1/1
f 18/3/1 12/3/1 11/3/1
f 18/1/1 11/1/1 17/1/1
f 19/1/1 15/1/1 12/1/1
f 19/3/1 12/3/1 18/3/1
f 20/3/1 16/3/1 15/3/1
f 20/1/1 15/1/1 19/1/1
f 21/3/1 18/3/1 17/3/1
f 21/3/1 19/3/1 18/3/1
f 21/3/1 20/3/1 19/3/1
f 21/3/1 17/3/1 13/3/1
f 22/3/1 20/3/1 21/3/1
f 23/3/1 16/3/1 20/3/1
f 23/3/1 20/3/1 22/3/1
f 24/3/1 16/3/1 23/3/1
f 25/3/1 23/3/1 22/3/1
f 26/3/1 23/3/1 25/3/1
f 27/3/1 23/3/1 26/3/1
f 28/3/1 23/3/1 27/3/1
f 29/3/1 27/3/1 26/3/1
f 30/3/1 27/3/1 29/3/1
f 33/1/1 32/1/1 31/1/1
f 34/1/1 32/1/1 33/1/1
f 35/1/1 34/1/1 33/1/1
f 36/1/1 34/1/1 35/1/1
f 41/2/1 38/2/1 37/2/1
f 42/2/1 38/2/1 41/2/1
f 43/2/1 40/2/1 39/2/1
f 44/2/1 40/2/1 43/2/1
f 45/1/1 42/1/1 41/1/1
f 46/1/1 42/1/1 45/1/1
f 47/1/1 44/1/1 43/1/1
f 48/1/1 44/1/1 47/1/1
f 49/2/2 50/2/2 53/2/2
f 53/2/2 50/2/2 54/2/2
f 51/2/2 52/2/2 55/2/2
f 55/2/2 52/2/2 56/2/2
f 53/1/2 54/1/2 57/1/2
f 57/1/2 54/1/2 58/1/2
f 55/1/2 56/1/2 59/1/2
f 59/1/2 56/1/2 60/1/2
f 61/3/2 62/3/2 66/3/2
f 66/3/2 62/3/2 67/3/2
f 63/3/2 64/3/2 68/3/2
f 68/3/2 64/3/2 69/3/2
f 66/3/2 67/3/2 72/3/2
f 69/3/2 70/3/2 72/3/2
f 68/3/2 69/3/2 72/3/2
f 67/3/2 68/3/2 72/3/2
f 65/3/2 66/3/2 72/3/2
f 72/3/2 70/3/2 73/3/2
f 71/3/2 72/3/2 75/3/2
f 73/3/2 74/3/2 75/3/2
f 72/3/2 73/3/2 75/3/2
f 75/3/2 74/3/2 76/3/2
f 76/3/2 74/3/2 77/3/2
f 77/3/2 74/3/2 78/3/2
f 78/3/2 74/3/2 79/3/2
f 79/3/2 74/3/2 80/3/2
f 71/3/2 75/3/2 81/3/2
f 81/3/2 75/3/2 82/3/2
f 80/3/2 74/3/2 83/3/2
f 83/3/2 74/3/2 84/3/2
f 82/3/2 75/3/2 85/3/2
f 76/3/2 77/3/2 86/3/2
f 86/3/2 77/3/2 87/3/2
f 78/3/2 79/3/2 88/3/2
f 88/3/2 79/3/2 89/3/2
f 80/3/2 83/3/2 90/3/2
f 86/3/2 87/3/2 91/3/2
f 89/3/2 90/3/2 91/3/2
f 82/3/2 85/3/2 91/3/2
f 88/3/2 89/3/2 91/3/2
f 87/3/2 88/3/2 91/3/2
f 85/3/2 86/3/2 91/3/2
f 90/3/2 83/3/2 92/3/2
f 91/3/2 90/3/2 92/3/2
f 93/4/2 94/4/2 99/4/2
f 99/4/2 94/4/2 100/4/2
f 95/4/2 96/4/2 101/4/2
f 101/4/2 96/4/2 102/4/2
f 97/4/2 98/4/2 103/4/2
f 103/4/2 98/4/2 104/4/2
f 105/3/2 106/3/2 111/3/2
f 111/3/2 106/3/2 112/3/2
f 107/3/2 108/3/2 113/3/2
f 113/3/2 108/3/2 114/3/2
f 109/3/2 110/3/2 115/3/2
f 115/3/2 110/3/2 116/3/2
f 117/1/2 118/1/2 119/1/2
f 119/1/2 118/1/2 120/1/2
f 119/1/2 120/1/2 121/1/2
f 121/1/2 120/1/2 122/1/2
f 123/2/2 124/2/2 127/2/2
f 127/2/2 124/2/2 128/2/2
f 125/2/2 126/2/2 129/2/2
f 129/2/2 126/2/2 130/2/2
f 127/1/2 128/1/2 131/1/2
f 129/1/2 130/1/2 132/1/2
f 127/1/2 131/1/2 133/1/2
f 131/1/2 132/1/2 133/1/2
f 132/1/2 130/1/2 134/1/2
f 133/1/2 132/1/2 134/1/2
f 127/1/2 133/1/2 136/1/2
f 133/3/2 134/3/2 137/3/2
f 137/3/2 134/3/2 138/3/2
f 134/1/2 130/1/2 139/1/2
f 135/3/2 136/3/2 141/3/2
f 136/1/2 133/1/2 141/1/2
f 133/3/2 137/3/2 142/3/2
f 141/1/2 133/1/2 142/1/2
f 134/1/2 139/1/2 143/1/2
f 138/3/2 134/3/2 143/3/2
f 139/3/2 140/3/2 144/3/2
f 143/1/2 139/1/2 144/1/2
f 141/3/2 142/3/2 145/3/2
f 135/3/2 141/3/2 145/3/2
f 142/3/2 137/3/2 146/3/2
f 145/3/2 142/3/2 146/3/2
f 138/3/2 143/3/2 147/3/2
f 143/3/2 144/3/2 147/3/2
f 144/3/2 140/3/2 148/3/2
f 147/3/2 144/3/2 148/3/2
f 151/3/3 150/3/3 149/3/3
f 152/3/3 150/3/3 151/3/3
f 158/2/3 154/2/3 153/2/3
f 159/1/3 155/1/3 154/1/3
f 159/2/3 154/2/3 158/2/3
f 160/1/3 155/1/3 159/1/3
f 161/3/3 157/3/3 156/3/3
f 162/3/3 157/3/3 161/3/3
f 165/1/3 155/1/3 160/1/3
f 166/2/3 164/2/3 163/2/3
f 167/1/3 165/1/3 164/1/3
f 167/2/3 164/2/3 166/2/3
f 168/1/3 155/1/3 165/1/3
f 168/1/3 165/1/3 167/1/3
f 172/1/3 170/1/3 169/1/3
f 172/1/3 171/1/3 170/1/3
f 173/1/3 171/1/3 172/1/3
f 174/1/3 171/1/3 173/1/3
f 177/3/3 176/3/3 175/3/3
f 178/3/3 176/3/3 177/3/3
f 181/4/3 180/4/3 179/4/3
f 182/4/3 180/4/3 181/4/3
f 185/3/3 184/3/3 183/3/3
f 186/3/3 184/3/3 185/3/3
f 189/4/3 188/4/3 187/4/3
f 190/4/3 188/4/3 189/4/3
f 193/3/3 192/3/3 191/3/3
f 194/3/3 192/3/3 193/3/3
f 197/4/3 196/4/3 195/4/3
f 198/4/3 196/4/3 197/4/3
f 202/2/3 200/2/3 199/2/3
f 203/1/3 201/1/3 200/1/3
f 203/2/3 200/2/3 202/2/3
f 204/1/3 201/1/3 203/1/3
f 208/3/3 206/3/3 205/3/3
f 209/3/3 208/3/3 207/3/3
f 210/3/3 206/3/3 208/3/3
f 210/3/3 208/3/3 209/3/3
f 214/2/3 212/2/3 211/2/3
f 215/1/3 213/1/3 212/1/3
f 215/2/3 212/2/3 214/2/3
f 216/1/3 213/1/3 215/1/3
f 217/2/4 218/2/4 220/2/4
f 218/1/4 219/1/4 221/1/4
f 220/2/4 218/2/4 221/2/4
f 221/1/4 219/1/4 222/1/4
f 223/3/4 224/3/4 226/3/4
f 225/3/4 226/3/4 227/3/4
f 226/3/4 224/3/4 228/3/4
f 227/3/4 226/3/4 228/3/4
f 229/2/4 230/2/4 232/2/4
f 230/1/4 231/1/4 233/1/4
f 232/2/4 230/2/4 233/2/4
f 233/1/4 231/1/4 234/1/4
f 235/4/4 236/4/4 237/4/4
f 237/4/4 236/4/4 238/4/4
f 239/3/4 240/3/4 241/3/4
f 241/3/4 240/3/4 242/3/4
f 243/4/4 244/4/4 245/4/4
f 245/4/4 244/4/4 246/4/4
f 247/3/4 248/3/4 249/3/4
f 249/3/4 248/3/4 250/3/4
f 251/4/4 252/4/4 253/4/4
f 253/4/4 252/4/4 254/4/4
f 255/3/4 256/3/4 257/3/4
f 257/3/4 256/3/4 258/3/4
f 259/1/4 260/1/4 262/1/4
f 260/1/4 261/1/4 262/1/4
f 262/1/4 261/1/4 263/1/4
f 263/1/4 261/1/4 264/1/4
f 265/2/4 266/2/4 270/2/4
f 266/1/4 267/1/4 271/1/4
f 270/2/4 266/2/4 271/2/4
f 271/1/4 267/1/4 272/1/4
f 268/3/4 269/3/4 273/3/4
f 273/3/4 269/3/4 274/3/4
f 272/1/4 267/1/4 277/1/4
f 275/2/4 276/2/4 278/2/4
f 276/1/4 277/1/4 279/1/4
f 278/2/4 276/2/4 279/2/4
f 277/1/4 267/1/4 280/1/4
f 279/1/4 277/1/4 280/1/4
f 281/3/4 282/3/4 283/3/4
f 283/3/4 282/3/4 284/3/4
f 289/2/5 286/2/5 285/2/5
f 290/2/5 286/2/5 289/2/5
f 291/2/5 288/2/5 287/2/5
f 292/2/5 288/2/5 291/2/5
f 293/2/5 289/2/5 285/2/5
f 294/1/5 290/1/5 289/1/5
f 294/2/5 289/2/5 293/2/5
f 294/1/5 291/1/5 290/1/5
f 294/1/5 292/1/5 291/1/5
f 295/2/5 288/2/5 292/2/5
f 295/1/5 292/1/5 294/1/5
f 296/2/5 288/2/5 295/2/5
f 297/1/5 295/1/5 294/1/5
f 300/1/5 297/1/5 294/1/5
f 301/1/5 297/1/5 300/1/5
f 302/2/5 300/2/5 299/2/5
f 302/1/5 297/1/5 301/1/5
f 302/2/5 301/2/5 300/2/5
f 303/1/5 297/1/5 302/1/5
f 304/2/5 298/2/5 297/2/5
f 304/1/5 297/1/5 303/1/5
f 305/2/5 302/2/5 299/2/5
f 306/2/5 302/2/5 305/2/5
f 307/2/5 304/2/5 303/2/5
f 308/2/5 298/2/5 304/2/5
f 308/2/5 304/2/5 307/2/5
f 311/1/5 310/1/5 309/1/5
f 312/1/5 310/1/5 311/1/5
f 317/1/5 316/1/5 315/1/5
f 318/1/5 316/1/5 317/1/5
f 319/1/5 314/1/5 313/1/5
f 320/1/5 314/1/5 319/1/5
f 323/1/5 322/1/5 321/1/5
f 324/1/5 322/1/5 323/1/5
f 327/3/5 326/3/5 325/3/5
f 328/3/5 326/3/5 327/3/5
f 331/3/5 330/3/5 329/3/5
f 332/3/5 330/3/5 331/3/5
f 335/4/5 334/4/5 333/4/5
f 336/4/5 334/4/5 335/4/5
f 339/4/5 338/4/5 337/4/5
f 340/4/5 338/4/5 339/4/5
f 343/4/5 342/4/5 341/4/5
f 344/4/5 342/4/5 343/4/5
f 345/3/6 346/3/6 348/3/6
f 347/3/6 348/3/6 349/3/6
f 348/3/6 346/3/6 350/3/6
f 349/3/6 348/3/6 350/3/6
f 350/3/6 346/3/6 352/3/6
f 351/3/6 352/3/6 353/3/6
f 352/3/6 346/3/6 354/3/6
f 353/3/6 352/3/6 354/3/6
f 354/3/6 346/3/6 355/3/6
f 355/3/6 346/3/6 356/3/6
f 357/3/6 358/3/6 359/3/6
f 359/3/6 358/3/6 360/3/6
f 361/3/6 362/3/6 363/3/6
f 363/3/6 362/3/6 364/3/6
f 365/3/6 366/3/6 367/3/6
f 367/3/6 366/3/6 368/3/6
f 369/3/6 370/3/6 371/3/6
f 371/3/6 370/3/6 372/3/6
f 372/3/6 370/3/6 373/3/6
f 373/3/6 370/3/6 374/3/6
f 375/3/6 376/3/6 378/3/6
f 377/3/6 378/3/6 379/3/6
f 378/3/6 376/3/6 380/3/6
f 379/3/6 378/3/6 380/3/6
f 381/3/6 382/3/6 383/3/6
f 383/3/6 382/3/6 384/3/6
f 385/3/6 386/3/6 387/3/6
f 387/3/6 386/3/6 388/3/6
f 389/4/6 390/4/6 391/4/6
f 391/4/6 390/4/6 392/4/6
f 393/4/6 394/4/6 395/4/6
f 395/4/6 394/4/6 396/4/6
f 397/4/6 398/4/6 399/4/6
f 399/4/6 398/4/6 400/4/6
f 401/3/6 402/3/6 403/3/6
f 403/3/6 402/3/6 404/3/6
