# MagicaVoxel @ Ephtracy

# group
o 

# material
mtllib Food 2.mtl
usemtl palette

# normals
vn -1 0 0
vn 1 0 0
vn 0 0 1
vn 0 0 -1
vn 0 -1 0
vn 0 1 0

# texcoords
vt 0.0449219 0.5
vt 0.0683594 0.5
vt 0.853516 0.5

# verts
v 3.8 6.3 -6.7
v 3.8 6.3 -7.3
v 3.8 6.7 -6.7
v 3.8 6.7 -7.3
v 3.8 6.8 -6.7
v 3.8 6.8 -7.3
v 3.8 7 -6.7
v 3.8 7 -7.3
v 3.8 7.1 -6.7
v 3.8 7.1 -7.3
v 3.8 7.2 -7.2
v 3.8 7.2 -7.3
v 3.8 7.3 -7
v 3.8 7.3 -7.2
v 3.8 7.4 -6.9
v 3.8 7.4 -7
v 3.8 7.5 -6.7
v 3.8 7.5 -6.9
v 3.9 6.3 -7.3
v 3.9 6.3 -7.4
v 3.9 6.7 -7.3
v 3.9 6.7 -7.4
v 3.9 6.8 -7.3
v 3.9 6.8 -7.4
v 3.9 7 -7.3
v 3.9 7 -7.4
v 3.9 7.1 -7.3
v 3.9 7.1 -7.4
v 3.9 7.2 -7.3
v 3.9 7.2 -7.4
v 4 6.6 -7.1
v 4 6.6 -7.2
v 4 7.5 -7.1
v 4 7.5 -7.2
v 4.1 6.6 -6.9
v 4.1 6.6 -7
v 4.1 7.6 -6.9
v 4.1 7.6 -7
v 4.2 6.6 -6.8
v 4.2 6.6 -6.9
v 4.2 6.7 -6.8
v 4.2 6.8 -6.8
v 4.2 7 -6.8
v 4.2 7.1 -6.8
v 4.2 7.4 -6.8
v 4.2 7.4 -6.9
v 4.3 6.6 -6.9
v 4.3 6.6 -7
v 4.3 6.6 -7.1
v 4.3 6.6 -7.2
v 4.3 7.3 -6.9
v 4.3 7.3 -7
v 4.3 7.6 -7.1
v 4.3 7.6 -7.2
v 4.5 6.6 -6.8
v 4.5 6.6 -6.9
v 4.5 6.6 -7
v 4.5 6.6 -7.1
v 4.5 6.7 -6.8
v 4.5 6.8 -6.8
v 4.5 7 -6.8
v 4.5 7.1 -6.8
v 4.5 7.2 -6.8
v 4.5 7.2 -6.9
v 4.5 7.6 -7
v 4.5 7.6 -7.1
v 4.6 6.6 -7.1
v 4.6 6.6 -7.2
v 4.6 7.3 -7.1
v 4.6 7.3 -7.2
v 4.7 6.6 -6.9
v 4.7 6.6 -7
v 4.7 7.4 -6.9
v 4.7 7.4 -7
v 4.8 6.6 -6.8
v 4.8 6.6 -6.9
v 4.8 6.6 -7
v 4.8 6.6 -7.3
v 4.8 6.7 -6.8
v 4.8 6.7 -6.9
v 4.8 6.7 -7
v 4.8 6.7 -7.3
v 4.8 6.8 -6.8
v 4.8 6.8 -6.9
v 4.8 6.8 -7
v 4.8 6.8 -7.3
v 4.8 7 -6.8
v 4.8 7 -6.9
v 4.8 7 -7
v 4.8 7 -7.3
v 4.8 7.1 -6.8
v 4.8 7.1 -6.9
v 4.8 7.1 -7
v 4.8 7.1 -7.3
v 4.8 7.2 -7.2
v 4.8 7.2 -7.3
v 4.8 7.3 -7
v 4.8 7.3 -7.2
v 4.8 7.4 -6.9
v 4.8 7.5 -6.8
v 4.8 7.5 -6.9
v 3.9 6.6 -6.9
v 3.9 6.6 -7.3
v 3.9 6.7 -6.9
v 3.9 6.7 -7.3
v 3.9 6.8 -6.9
v 3.9 6.8 -7.3
v 3.9 7 -6.9
v 3.9 7 -7.3
v 3.9 7.1 -6.8
v 3.9 7.1 -6.9
v 3.9 7.1 -7.3
v 3.9 7.2 -7.2
v 3.9 7.2 -7.3
v 3.9 7.3 -7
v 3.9 7.3 -7.2
v 3.9 7.4 -6.9
v 3.9 7.4 -7
v 3.9 7.5 -6.8
v 3.9 7.5 -6.9
v 4 6.6 -6.8
v 4 6.6 -6.9
v 4 6.7 -6.8
v 4 6.8 -6.8
v 4 7 -6.8
v 4 7.1 -6.8
v 4 7.1 -6.9
v 4.2 6.6 -6.9
v 4.2 6.6 -7
v 4.2 6.6 -7.1
v 4.2 6.6 -7.2
v 4.2 7.4 -6.9
v 4.2 7.5 -7.1
v 4.2 7.5 -7.2
v 4.2 7.6 -6.9
v 4.2 7.6 -7
v 4.3 6.6 -6.8
v 4.3 6.6 -6.9
v 4.3 6.7 -6.8
v 4.3 6.8 -6.8
v 4.3 7 -6.8
v 4.3 7.1 -6.8
v 4.3 7.3 -6.9
v 4.3 7.4 -6.8
v 4.3 7.4 -6.9
v 4.4 6.6 -6.9
v 4.4 6.6 -7
v 4.4 6.6 -7.1
v 4.4 6.6 -7.2
v 4.4 7.3 -6.9
v 4.4 7.3 -7
v 4.4 7.6 -7.1
v 4.4 7.6 -7.2
v 4.6 6.6 -6.8
v 4.6 6.6 -6.9
v 4.6 6.6 -7
v 4.6 6.6 -7.1
v 4.6 6.7 -6.8
v 4.6 6.8 -6.8
v 4.6 7 -6.8
v 4.6 7.1 -6.8
v 4.6 7.2 -6.8
v 4.6 7.2 -6.9
v 4.6 7.3 -7.1
v 4.6 7.6 -7
v 4.6 7.6 -7.1
v 4.7 6.6 -7.1
v 4.7 6.6 -7.2
v 4.7 7.3 -7.1
v 4.7 7.3 -7.2
v 4.8 6.3 -7.3
v 4.8 6.3 -7.4
v 4.8 6.7 -7.3
v 4.8 6.7 -7.4
v 4.8 6.8 -7.3
v 4.8 6.8 -7.4
v 4.8 7 -7.3
v 4.8 7 -7.4
v 4.8 7.1 -7.3
v 4.8 7.1 -7.4
v 4.8 7.2 -7.3
v 4.8 7.2 -7.4
v 4.9 6.3 -6.7
v 4.9 6.3 -7.3
v 4.9 6.7 -6.7
v 4.9 6.7 -7.3
v 4.9 6.8 -6.7
v 4.9 6.8 -7.3
v 4.9 7 -6.7
v 4.9 7 -7.3
v 4.9 7.1 -6.7
v 4.9 7.1 -7.3
v 4.9 7.2 -7.2
v 4.9 7.2 -7.3
v 4.9 7.3 -7
v 4.9 7.3 -7.2
v 4.9 7.4 -6.9
v 4.9 7.4 -7
v 4.9 7.5 -6.7
v 4.9 7.5 -6.9
v 3.8 6.3 -6.7
v 3.8 6.7 -6.7
v 3.8 6.8 -6.7
v 3.8 7 -6.7
v 3.8 7.1 -6.7
v 3.8 7.5 -6.7
v 4.9 6.3 -6.7
v 4.9 6.7 -6.7
v 4.9 6.8 -6.7
v 4.9 7 -6.7
v 4.9 7.1 -6.7
v 4.9 7.5 -6.7
v 4.1 6.6 -6.9
v 4.1 7.6 -6.9
v 4.2 6.6 -6.9
v 4.2 7.4 -6.9
v 4.2 7.6 -6.9
v 4.3 6.6 -6.9
v 4.3 7.3 -6.9
v 4.4 6.6 -6.9
v 4.4 7.3 -6.9
v 4.7 6.6 -6.9
v 4.7 7.4 -6.9
v 4.8 6.6 -6.9
v 4.8 6.7 -6.9
v 4.8 6.8 -6.9
v 4.8 7 -6.9
v 4.8 7.1 -6.9
v 4.8 7.4 -6.9
v 4.5 6.6 -7
v 4.5 7.6 -7
v 4.6 6.6 -7
v 4.6 7.6 -7
v 4 6.6 -7.1
v 4 7.5 -7.1
v 4.2 6.6 -7.1
v 4.2 7.5 -7.1
v 4.3 6.6 -7.1
v 4.3 7.6 -7.1
v 4.4 6.6 -7.1
v 4.4 7.6 -7.1
v 4.6 6.6 -7.1
v 4.6 7.3 -7.1
v 4.7 6.6 -7.1
v 4.7 7.3 -7.1
v 3.9 6.6 -7.3
v 3.9 6.7 -7.3
v 3.9 6.8 -7.3
v 3.9 7 -7.3
v 3.9 7.1 -7.3
v 3.9 7.2 -7.3
v 4.8 6.6 -7.3
v 4.8 6.7 -7.3
v 4.8 6.8 -7.3
v 4.8 7 -7.3
v 4.8 7.1 -7.3
v 4.8 7.2 -7.3
v 3.9 7.1 -6.8
v 3.9 7.5 -6.8
v 4 6.6 -6.8
v 4 6.7 -6.8
v 4 6.8 -6.8
v 4 7 -6.8
v 4 7.1 -6.8
v 4.2 6.6 -6.8
v 4.2 6.7 -6.8
v 4.2 6.8 -6.8
v 4.2 7 -6.8
v 4.2 7.1 -6.8
v 4.2 7.4 -6.8
v 4.3 6.6 -6.8
v 4.3 6.7 -6.8
v 4.3 6.8 -6.8
v 4.3 7 -6.8
v 4.3 7.1 -6.8
v 4.3 7.4 -6.8
v 4.5 6.6 -6.8
v 4.5 6.7 -6.8
v 4.5 6.8 -6.8
v 4.5 7 -6.8
v 4.5 7.1 -6.8
v 4.5 7.2 -6.8
v 4.6 6.6 -6.8
v 4.6 6.7 -6.8
v 4.6 6.8 -6.8
v 4.6 7 -6.8
v 4.6 7.1 -6.8
v 4.6 7.2 -6.8
v 4.8 6.6 -6.8
v 4.8 6.7 -6.8
v 4.8 6.8 -6.8
v 4.8 7 -6.8
v 4.8 7.1 -6.8
v 4.8 7.5 -6.8
v 3.8 7.4 -6.9
v 3.8 7.5 -6.9
v 3.9 6.6 -6.9
v 3.9 6.7 -6.9
v 3.9 6.8 -6.9
v 3.9 7 -6.9
v 3.9 7.1 -6.9
v 3.9 7.4 -6.9
v 3.9 7.5 -6.9
v 4 6.6 -6.9
v 4 7.1 -6.9
v 4.2 6.6 -6.9
v 4.2 7.4 -6.9
v 4.3 6.6 -6.9
v 4.3 7.3 -6.9
v 4.3 7.4 -6.9
v 4.5 6.6 -6.9
v 4.5 7.2 -6.9
v 4.6 6.6 -6.9
v 4.6 7.2 -6.9
v 4.8 7.4 -6.9
v 4.8 7.5 -6.9
v 4.9 7.4 -6.9
v 4.9 7.5 -6.9
v 3.8 7.3 -7
v 3.8 7.4 -7
v 3.9 7.3 -7
v 3.9 7.4 -7
v 4.1 6.6 -7
v 4.1 7.6 -7
v 4.2 6.6 -7
v 4.2 7.6 -7
v 4.3 6.6 -7
v 4.3 7.3 -7
v 4.4 6.6 -7
v 4.4 7.3 -7
v 4.7 6.6 -7
v 4.7 7.4 -7
v 4.8 6.6 -7
v 4.8 6.7 -7
v 4.8 6.8 -7
v 4.8 7 -7
v 4.8 7.1 -7
v 4.8 7.3 -7
v 4.8 7.4 -7
v 4.9 7.3 -7
v 4.9 7.4 -7
v 4.5 6.6 -7.1
v 4.5 7.6 -7.1
v 4.6 6.6 -7.1
v 4.6 7.3 -7.1
v 4.6 7.6 -7.1
v 3.8 7.2 -7.2
v 3.8 7.3 -7.2
v 3.9 7.2 -7.2
v 3.9 7.3 -7.2
v 4 6.6 -7.2
v 4 7.5 -7.2
v 4.2 6.6 -7.2
v 4.2 7.5 -7.2
v 4.3 6.6 -7.2
v 4.3 7.6 -7.2
v 4.4 6.6 -7.2
v 4.4 7.6 -7.2
v 4.6 6.6 -7.2
v 4.6 7.3 -7.2
v 4.7 6.6 -7.2
v 4.7 7.3 -7.2
v 4.8 7.2 -7.2
v 4.8 7.3 -7.2
v 4.9 7.2 -7.2
v 4.9 7.3 -7.2
v 3.8 6.3 -7.3
v 3.8 6.7 -7.3
v 3.8 6.8 -7.3
v 3.8 7 -7.3
v 3.8 7.1 -7.3
v 3.8 7.2 -7.3
v 3.9 6.3 -7.3
v 3.9 6.7 -7.3
v 3.9 6.8 -7.3
v 3.9 7 -7.3
v 3.9 7.1 -7.3
v 3.9 7.2 -7.3
v 4.8 6.3 -7.3
v 4.8 6.7 -7.3
v 4.8 6.8 -7.3
v 4.8 7 -7.3
v 4.8 7.1 -7.3
v 4.8 7.2 -7.3
v 4.9 6.3 -7.3
v 4.9 6.7 -7.3
v 4.9 6.8 -7.3
v 4.9 7 -7.3
v 4.9 7.1 -7.3
v 4.9 7.2 -7.3
v 3.9 6.3 -7.4
v 3.9 6.7 -7.4
v 3.9 6.8 -7.4
v 3.9 7 -7.4
v 3.9 7.1 -7.4
v 3.9 7.2 -7.4
v 4.8 6.3 -7.4
v 4.8 6.7 -7.4
v 4.8 6.8 -7.4
v 4.8 7 -7.4
v 4.8 7.1 -7.4
v 4.8 7.2 -7.4
v 3.8 6.3 -6.7
v 4.9 6.3 -6.7
v 3.8 6.3 -7.3
v 3.9 6.3 -7.3
v 4.8 6.3 -7.3
v 4.9 6.3 -7.3
v 3.9 6.3 -7.4
v 4.8 6.3 -7.4
v 4 6.6 -6.8
v 4.2 6.6 -6.8
v 4.3 6.6 -6.8
v 4.5 6.6 -6.8
v 4.6 6.6 -6.8
v 4.8 6.6 -6.8
v 3.9 6.6 -6.9
v 4 6.6 -6.9
v 4.1 6.6 -6.9
v 4.2 6.6 -6.9
v 4.3 6.6 -6.9
v 4.4 6.6 -6.9
v 4.5 6.6 -6.9
v 4.6 6.6 -6.9
v 4.7 6.6 -6.9
v 4.8 6.6 -6.9
v 4.1 6.6 -7
v 4.2 6.6 -7
v 4.3 6.6 -7
v 4.4 6.6 -7
v 4.5 6.6 -7
v 4.6 6.6 -7
v 4.7 6.6 -7
v 4.8 6.6 -7
v 4 6.6 -7.1
v 4.2 6.6 -7.1
v 4.3 6.6 -7.1
v 4.4 6.6 -7.1
v 4.5 6.6 -7.1
v 4.6 6.6 -7.1
v 4.7 6.6 -7.1
v 4 6.6 -7.2
v 4.2 6.6 -7.2
v 4.3 6.6 -7.2
v 4.4 6.6 -7.2
v 4.6 6.6 -7.2
v 4.7 6.6 -7.2
v 3.9 6.6 -7.3
v 4.8 6.6 -7.3
v 3.9 7.1 -6.8
v 4 7.1 -6.8
v 3.9 7.1 -6.9
v 4 7.1 -6.9
v 4.5 7.2 -6.8
v 4.6 7.2 -6.8
v 4.5 7.2 -6.9
v 4.6 7.2 -6.9
v 3.8 7.2 -7.2
v 3.9 7.2 -7.2
v 4.8 7.2 -7.2
v 4.9 7.2 -7.2
v 3.8 7.2 -7.3
v 3.9 7.2 -7.3
v 4.8 7.2 -7.3
v 4.9 7.2 -7.3
v 3.9 7.2 -7.4
v 4.8 7.2 -7.4
v 4.3 7.3 -6.9
v 4.4 7.3 -6.9
v 3.8 7.3 -7
v 3.9 7.3 -7
v 4.3 7.3 -7
v 4.4 7.3 -7
v 4.8 7.3 -7
v 4.9 7.3 -7
v 4.6 7.3 -7.1
v 4.7 7.3 -7.1
v 3.8 7.3 -7.2
v 3.9 7.3 -7.2
v 4.6 7.3 -7.2
v 4.7 7.3 -7.2
v 4.8 7.3 -7.2
v 4.9 7.3 -7.2
v 4.2 7.4 -6.8
v 4.3 7.4 -6.8
v 3.8 7.4 -6.9
v 3.9 7.4 -6.9
v 4.2 7.4 -6.9
v 4.3 7.4 -6.9
v 4.7 7.4 -6.9
v 4.8 7.4 -6.9
v 4.9 7.4 -6.9
v 3.8 7.4 -7
v 3.9 7.4 -7
v 4.7 7.4 -7
v 4.8 7.4 -7
v 4.9 7.4 -7
v 3.8 7.5 -6.7
v 4.9 7.5 -6.7
v 3.9 7.5 -6.8
v 4.8 7.5 -6.8
v 3.8 7.5 -6.9
v 3.9 7.5 -6.9
v 4.8 7.5 -6.9
v 4.9 7.5 -6.9
v 4 7.5 -7.1
v 4.2 7.5 -7.1
v 4 7.5 -7.2
v 4.2 7.5 -7.2
v 4.1 7.6 -6.9
v 4.2 7.6 -6.9
v 4.1 7.6 -7
v 4.2 7.6 -7
v 4.5 7.6 -7
v 4.6 7.6 -7
v 4.3 7.6 -7.1
v 4.4 7.6 -7.1
v 4.5 7.6 -7.1
v 4.6 7.6 -7.1
v 4.3 7.6 -7.2
v 4.4 7.6 -7.2

# faces
f 3/3/1 2/3/1 1/3/1
f 4/3/1 2/3/1 3/3/1
f 5/1/1 4/1/1 3/1/1
f 6/1/1 4/1/1 5/1/1
f 7/3/1 6/3/1 5/3/1
f 8/3/1 6/3/1 7/3/1
f 9/1/1 8/1/1 7/1/1
f 10/1/1 8/1/1 9/1/1
f 11/3/1 10/3/1 9/3/1
f 12/3/1 10/3/1 11/3/1
f 13/3/1 11/3/1 9/3/1
f 14/3/1 11/3/1 13/3/1
f 15/3/1 13/3/1 9/3/1
f 16/3/1 13/3/1 15/3/1
f 17/3/1 15/3/1 9/3/1
f 18/3/1 15/3/1 17/3/1
f 21/3/1 20/3/1 19/3/1
f 22/3/1 20/3/1 21/3/1
f 23/1/1 22/1/1 21/1/1
f 24/1/1 22/1/1 23/1/1
f 25/3/1 24/3/1 23/3/1
f 26/3/1 24/3/1 25/3/1
f 27/1/1 26/1/1 25/1/1
f 28/1/1 26/1/1 27/1/1
f 29/3/1 28/3/1 27/3/1
f 30/3/1 28/3/1 29/3/1
f 33/2/1 32/2/1 31/2/1
f 34/2/1 32/2/1 33/2/1
f 37/2/1 36/2/1 35/2/1
f 38/2/1 36/2/1 37/2/1
f 41/2/1 40/2/1 39/2/1
f 42/2/1 40/2/1 41/2/1
f 43/2/1 40/2/1 42/2/1
f 44/2/1 40/2/1 43/2/1
f 45/2/1 40/2/1 44/2/1
f 46/2/1 40/2/1 45/2/1
f 51/2/1 48/2/1 47/2/1
f 52/2/1 48/2/1 51/2/1
f 53/2/1 50/2/1 49/2/1
f 54/2/1 50/2/1 53/2/1
f 59/2/1 56/2/1 55/2/1
f 60/2/1 56/2/1 59/2/1
f 61/2/1 56/2/1 60/2/1
f 62/2/1 56/2/1 61/2/1
f 63/2/1 56/2/1 62/2/1
f 64/2/1 56/2/1 63/2/1
f 65/2/1 58/2/1 57/2/1
f 66/2/1 58/2/1 65/2/1
f 69/2/1 68/2/1 67/2/1
f 70/2/1 68/2/1 69/2/1
f 73/2/1 72/2/1 71/2/1
f 74/2/1 72/2/1 73/2/1
f 79/3/1 76/3/1 75/3/1
f 80/3/1 76/3/1 79/3/1
f 81/3/1 78/3/1 77/3/1
f 82/3/1 78/3/1 81/3/1
f 83/1/1 80/1/1 79/1/1
f 84/1/1 80/1/1 83/1/1
f 85/1/1 82/1/1 81/1/1
f 86/1/1 82/1/1 85/1/1
f 87/3/1 84/3/1 83/3/1
f 88/3/1 84/3/1 87/3/1
f 89/3/1 86/3/1 85/3/1
f 90/3/1 86/3/1 89/3/1
f 91/1/1 88/1/1 87/1/1
f 92/1/1 88/1/1 91/1/1
f 93/1/1 90/1/1 89/1/1
f 94/1/1 90/1/1 93/1/1
f 95/3/1 94/3/1 93/3/1
f 96/3/1 94/3/1 95/3/1
f 97/3/1 95/3/1 93/3/1
f 98/3/1 95/3/1 97/3/1
f 99/3/1 92/3/1 91/3/1
f 100/3/1 99/3/1 91/3/1
f 101/3/1 99/3/1 100/3/1
f 102/3/2 103/3/2 104/3/2
f 104/3/2 103/3/2 105/3/2
f 104/1/2 105/1/2 106/1/2
f 106/1/2 105/1/2 107/1/2
f 106/3/2 107/3/2 108/3/2
f 108/3/2 107/3/2 109/3/2
f 108/1/2 109/1/2 111/1/2
f 111/1/2 109/1/2 112/1/2
f 110/3/2 111/3/2 113/3/2
f 111/3/2 112/3/2 113/3/2
f 113/3/2 112/3/2 114/3/2
f 110/3/2 113/3/2 115/3/2
f 115/3/2 113/3/2 116/3/2
f 110/3/2 115/3/2 117/3/2
f 117/3/2 115/3/2 118/3/2
f 110/3/2 117/3/2 119/3/2
f 119/3/2 117/3/2 120/3/2
f 121/2/2 122/2/2 123/2/2
f 123/2/2 122/2/2 124/2/2
f 124/2/2 122/2/2 125/2/2
f 125/2/2 122/2/2 126/2/2
f 126/2/2 122/2/2 127/2/2
f 128/2/2 129/2/2 132/2/2
f 130/2/2 131/2/2 133/2/2
f 133/2/2 131/2/2 134/2/2
f 132/2/2 129/2/2 135/2/2
f 135/2/2 129/2/2 136/2/2
f 137/2/2 138/2/2 139/2/2
f 139/2/2 138/2/2 140/2/2
f 140/2/2 138/2/2 141/2/2
f 141/2/2 138/2/2 142/2/2
f 142/2/2 138/2/2 143/2/2
f 142/2/2 143/2/2 144/2/2
f 144/2/2 143/2/2 145/2/2
f 146/2/2 147/2/2 150/2/2
f 150/2/2 147/2/2 151/2/2
f 148/2/2 149/2/2 152/2/2
f 152/2/2 149/2/2 153/2/2
f 154/2/2 155/2/2 158/2/2
f 158/2/2 155/2/2 159/2/2
f 159/2/2 155/2/2 160/2/2
f 160/2/2 155/2/2 161/2/2
f 161/2/2 155/2/2 162/2/2
f 162/2/2 155/2/2 163/2/2
f 156/2/2 157/2/2 164/2/2
f 156/2/2 164/2/2 165/2/2
f 165/2/2 164/2/2 166/2/2
f 167/2/2 168/2/2 169/2/2
f 169/2/2 168/2/2 170/2/2
f 171/3/2 172/3/2 173/3/2
f 173/3/2 172/3/2 174/3/2
f 173/1/2 174/1/2 175/1/2
f 175/1/2 174/1/2 176/1/2
f 175/3/2 176/3/2 177/3/2
f 177/3/2 176/3/2 178/3/2
f 177/1/2 178/1/2 179/1/2
f 179/1/2 178/1/2 180/1/2
f 179/3/2 180/3/2 181/3/2
f 181/3/2 180/3/2 182/3/2
f 183/3/2 184/3/2 185/3/2
f 185/3/2 184/3/2 186/3/2
f 185/1/2 186/1/2 187/1/2
f 187/1/2 186/1/2 188/1/2
f 187/3/2 188/3/2 189/3/2
f 189/3/2 188/3/2 190/3/2
f 189/1/2 190/1/2 191/1/2
f 191/1/2 190/1/2 192/1/2
f 191/3/2 192/3/2 193/3/2
f 193/3/2 192/3/2 194/3/2
f 191/3/2 193/3/2 195/3/2
f 195/3/2 193/3/2 196/3/2
f 191/3/2 195/3/2 197/3/2
f 197/3/2 195/3/2 198/3/2
f 191/3/2 197/3/2 199/3/2
f 199/3/2 197/3/2 200/3/2
f 207/3/3 202/3/3 201/3/3
f 208/1/3 203/1/3 202/1/3
f 208/3/3 202/3/3 207/3/3
f 209/3/3 204/3/3 203/3/3
f 209/1/3 203/1/3 208/1/3
f 210/1/3 205/1/3 204/1/3
f 210/3/3 204/3/3 209/3/3
f 211/3/3 206/3/3 205/3/3
f 211/1/3 205/1/3 210/1/3
f 212/3/3 206/3/3 211/3/3
f 215/2/3 214/2/3 213/2/3
f 216/2/3 214/2/3 215/2/3
f 217/2/3 214/2/3 216/2/3
f 220/2/3 219/2/3 218/2/3
f 221/2/3 219/2/3 220/2/3
f 224/2/3 223/2/3 222/2/3
f 225/2/3 223/2/3 224/2/3
f 226/2/3 223/2/3 225/2/3
f 227/2/3 223/2/3 226/2/3
f 228/2/3 223/2/3 227/2/3
f 229/2/3 223/2/3 228/2/3
f 232/2/3 231/2/3 230/2/3
f 233/2/3 231/2/3 232/2/3
f 236/2/3 235/2/3 234/2/3
f 237/2/3 235/2/3 236/2/3
f 240/2/3 239/2/3 238/2/3
f 241/2/3 239/2/3 240/2/3
f 244/2/3 243/2/3 242/2/3
f 245/2/3 243/2/3 244/2/3
f 252/3/3 247/3/3 246/3/3
f 253/1/3 248/1/3 247/1/3
f 253/3/3 247/3/3 252/3/3
f 254/3/3 249/3/3 248/3/3
f 254/1/3 248/1/3 253/1/3
f 255/1/3 250/1/3 249/1/3
f 255/3/3 249/3/3 254/3/3
f 256/3/3 251/3/3 250/3/3
f 256/1/3 250/1/3 255/1/3
f 257/3/3 251/3/3 256/3/3
f 258/3/4 259/3/4 264/3/4
f 260/3/4 261/3/4 265/3/4
f 261/1/4 262/1/4 266/1/4
f 265/3/4 261/3/4 266/3/4
f 262/3/4 263/3/4 267/3/4
f 266/1/4 262/1/4 267/1/4
f 263/1/4 264/1/4 268/1/4
f 267/3/4 263/3/4 268/3/4
f 264/3/4 259/3/4 269/3/4
f 268/1/4 264/1/4 269/1/4
f 269/3/4 259/3/4 270/3/4
f 270/3/4 259/3/4 276/3/4
f 271/3/4 272/3/4 277/3/4
f 272/1/4 273/1/4 278/1/4
f 277/3/4 272/3/4 278/3/4
f 273/3/4 274/3/4 279/3/4
f 278/1/4 273/1/4 279/1/4
f 274/1/4 275/1/4 280/1/4
f 279/3/4 274/3/4 280/3/4
f 275/3/4 276/3/4 281/3/4
f 280/1/4 275/1/4 281/1/4
f 281/3/4 276/3/4 282/3/4
f 282/3/4 276/3/4 288/3/4
f 283/3/4 284/3/4 289/3/4
f 284/1/4 285/1/4 290/1/4
f 289/3/4 284/3/4 290/3/4
f 285/3/4 286/3/4 291/3/4
f 290/1/4 285/1/4 291/1/4
f 286/1/4 287/1/4 292/1/4
f 291/3/4 286/3/4 292/3/4
f 287/3/4 288/3/4 293/3/4
f 292/1/4 287/1/4 293/1/4
f 276/3/4 259/3/4 294/3/4
f 293/3/4 288/3/4 294/3/4
f 288/3/4 276/3/4 294/3/4
f 295/3/4 296/3/4 302/3/4
f 302/3/4 296/3/4 303/3/4
f 300/2/4 301/2/4 304/2/4
f 297/2/4 298/2/4 304/2/4
f 298/2/4 299/2/4 304/2/4
f 299/2/4 300/2/4 304/2/4
f 304/2/4 301/2/4 305/2/4
f 306/2/4 307/2/4 308/2/4
f 308/2/4 307/2/4 309/2/4
f 309/2/4 307/2/4 310/2/4
f 311/2/4 312/2/4 313/2/4
f 313/2/4 312/2/4 314/2/4
f 315/3/4 316/3/4 317/3/4
f 317/3/4 316/3/4 318/3/4
f 319/3/4 320/3/4 321/3/4
f 321/3/4 320/3/4 322/3/4
f 323/2/4 324/2/4 325/2/4
f 325/2/4 324/2/4 326/2/4
f 327/2/4 328/2/4 329/2/4
f 329/2/4 328/2/4 330/2/4
f 331/2/4 332/2/4 333/2/4
f 333/2/4 332/2/4 334/2/4
f 334/2/4 332/2/4 335/2/4
f 335/2/4 332/2/4 336/2/4
f 336/2/4 332/2/4 337/2/4
f 337/2/4 332/2/4 338/2/4
f 338/2/4 332/2/4 339/2/4
f 338/3/4 339/3/4 340/3/4
f 340/3/4 339/3/4 341/3/4
f 342/2/4 343/2/4 344/2/4
f 344/2/4 343/2/4 345/2/4
f 345/2/4 343/2/4 346/2/4
f 347/3/4 348/3/4 349/3/4
f 349/3/4 348/3/4 350/3/4
f 351/2/4 352/2/4 353/2/4
f 353/2/4 352/2/4 354/2/4
f 355/2/4 356/2/4 357/2/4
f 357/2/4 356/2/4 358/2/4
f 359/2/4 360/2/4 361/2/4
f 361/2/4 360/2/4 362/2/4
f 363/3/4 364/3/4 365/3/4
f 365/3/4 364/3/4 366/3/4
f 367/3/4 368/3/4 373/3/4
f 368/1/4 369/1/4 374/1/4
f 373/3/4 368/3/4 374/3/4
f 369/3/4 370/3/4 375/3/4
f 374/1/4 369/1/4 375/1/4
f 370/1/4 371/1/4 376/1/4
f 375/3/4 370/3/4 376/3/4
f 371/3/4 372/3/4 377/3/4
f 376/1/4 371/1/4 377/1/4
f 377/3/4 372/3/4 378/3/4
f 379/3/4 380/3/4 385/3/4
f 380/1/4 381/1/4 386/1/4
f 385/3/4 380/3/4 386/3/4
f 381/3/4 382/3/4 387/3/4
f 386/1/4 381/1/4 387/1/4
f 382/1/4 383/1/4 388/1/4
f 387/3/4 382/3/4 388/3/4
f 383/3/4 384/3/4 389/3/4
f 388/1/4 383/1/4 389/1/4
f 389/3/4 384/3/4 390/3/4
f 391/3/4 392/3/4 397/3/4
f 392/1/4 393/1/4 398/1/4
f 397/3/4 392/3/4 398/3/4
f 393/3/4 394/3/4 399/3/4
f 398/1/4 393/1/4 399/1/4
f 394/1/4 395/1/4 400/1/4
f 399/3/4 394/3/4 400/3/4
f 395/3/4 396/3/4 401/3/4
f 400/1/4 395/1/4 401/1/4
f 401/3/4 396/3/4 402/3/4
f 405/3/5 404/3/5 403/3/5
f 406/3/5 404/3/5 405/3/5
f 407/3/5 404/3/5 406/3/5
f 408/3/5 404/3/5 407/3/5
f 409/3/5 407/3/5 406/3/5
f 410/3/5 407/3/5 409/3/5
f 411/3/6 412/3/6 418/3/6
f 418/3/6 412/3/6 419/3/6
f 419/3/6 412/3/6 420/3/6
f 413/3/6 414/3/6 421/3/6
f 421/3/6 414/3/6 422/3/6
f 422/3/6 414/3/6 423/3/6
f 415/3/6 416/3/6 424/3/6
f 424/3/6 416/3/6 425/3/6
f 425/3/6 416/3/6 426/3/6
f 417/3/6 418/3/6 427/3/6
f 418/3/6 419/3/6 427/3/6
f 420/3/6 421/3/6 428/3/6
f 428/3/6 421/3/6 429/3/6
f 422/3/6 423/3/6 430/3/6
f 424/3/6 425/3/6 430/3/6
f 423/3/6 424/3/6 430/3/6
f 430/3/6 425/3/6 431/3/6
f 431/3/6 425/3/6 432/3/6
f 432/3/6 425/3/6 433/3/6
f 428/3/6 429/3/6 435/3/6
f 427/3/6 428/3/6 435/3/6
f 417/3/6 427/3/6 435/3/6
f 430/3/6 431/3/6 435/3/6
f 429/3/6 430/3/6 435/3/6
f 435/3/6 431/3/6 436/3/6
f 436/3/6 431/3/6 437/3/6
f 437/3/6 431/3/6 438/3/6
f 438/3/6 431/3/6 439/3/6
f 433/3/6 434/3/6 440/3/6
f 432/3/6 433/3/6 440/3/6
f 440/3/6 434/3/6 441/3/6
f 417/3/6 435/3/6 442/3/6
f 436/3/6 437/3/6 443/3/6
f 443/3/6 437/3/6 444/3/6
f 438/3/6 439/3/6 445/3/6
f 439/3/6 440/3/6 445/3/6
f 445/3/6 440/3/6 446/3/6
f 441/3/6 434/3/6 447/3/6
f 443/3/6 444/3/6 448/3/6
f 446/3/6 447/3/6 448/3/6
f 445/3/6 446/3/6 448/3/6
f 442/3/6 443/3/6 448/3/6
f 444/3/6 445/3/6 448/3/6
f 417/3/6 442/3/6 448/3/6
f 447/3/6 434/3/6 449/3/6
f 448/3/6 447/3/6 449/3/6
f 450/2/6 451/2/6 452/2/6
f 452/2/6 451/2/6 453/2/6
f 454/2/6 455/2/6 456/2/6
f 456/2/6 455/2/6 457/2/6
f 458/3/6 459/3/6 462/3/6
f 462/3/6 459/3/6 463/3/6
f 460/3/6 461/3/6 464/3/6
f 464/3/6 461/3/6 465/3/6
f 463/3/6 464/3/6 466/3/6
f 466/3/6 464/3/6 467/3/6
f 468/2/6 469/2/6 472/2/6
f 472/2/6 469/2/6 473/2/6
f 470/3/6 471/3/6 478/3/6
f 478/3/6 471/3/6 479/3/6
f 476/2/6 477/2/6 480/2/6
f 480/2/6 477/2/6 481/2/6
f 474/3/6 475/3/6 482/3/6
f 482/3/6 475/3/6 483/3/6
f 484/2/6 485/2/6 488/2/6
f 488/2/6 485/2/6 489/2/6
f 486/3/6 487/3/6 493/3/6
f 493/3/6 487/3/6 494/3/6
f 490/2/6 491/2/6 495/2/6
f 491/3/6 492/3/6 496/3/6
f 495/2/6 491/2/6 496/2/6
f 496/3/6 492/3/6 497/3/6
f 498/3/6 499/3/6 500/3/6
f 500/3/6 499/3/6 501/3/6
f 498/3/6 500/3/6 502/3/6
f 502/3/6 500/3/6 503/3/6
f 501/3/6 499/3/6 504/3/6
f 504/3/6 499/3/6 505/3/6
f 506/2/6 507/2/6 508/2/6
f 508/2/6 507/2/6 509/2/6
f 510/2/6 511/2/6 512/2/6
f 512/2/6 511/2/6 513/2/6
f 514/2/6 515/2/6 518/2/6
f 518/2/6 515/2/6 519/2/6
f 516/2/6 517/2/6 520/2/6
f 520/2/6 517/2/6 521/2/6
