# MagicaVoxel @ Ephtracy

# group
o 

# material
mtllib Bridge.mtl
usemtl palette

# normals
vn -1 0 0
vn 1 0 0
vn 0 0 1
vn 0 0 -1
vn 0 -1 0
vn 0 1 0

# texcoords
vt 0.337891 0.5
vt 0.966797 0.5

# verts
v 5.5 6.3 -2.8
v 5.5 6.3 -9.4
v 5.5 6.5 -2.8
v 5.5 6.5 -3
v 5.5 6.5 -4.2
v 5.5 6.5 -4.4
v 5.5 6.5 -5.7
v 5.5 6.5 -5.9
v 5.5 6.5 -7.5
v 5.5 6.5 -7.7
v 5.5 6.5 -9.2
v 5.5 6.5 -9.4
v 5.5 8 -2.8
v 5.5 8 -3
v 5.5 8 -4.2
v 5.5 8 -4.4
v 5.5 8 -5.7
v 5.5 8 -5.9
v 5.5 8 -7.5
v 5.5 8 -7.7
v 5.5 8 -9.2
v 5.5 8 -9.4
v 5.5 8.1 -2.8
v 5.5 8.1 -9.4
v 7.5 6.4 -3.4
v 7.5 6.4 -3.7
v 7.5 6.4 -4.8
v 7.5 6.4 -5.1
v 7.5 6.4 -6.5
v 7.5 6.4 -6.8
v 7.5 6.4 -8.4
v 7.5 6.4 -8.7
v 7.5 6.5 -3.4
v 7.5 6.5 -3.7
v 7.5 6.5 -4.8
v 7.5 6.5 -5.1
v 7.5 6.5 -6.5
v 7.5 6.5 -6.8
v 7.5 6.5 -8.4
v 7.5 6.5 -8.7
v 7.6 6.5 -2.8
v 7.6 6.5 -3
v 7.6 6.5 -4.2
v 7.6 6.5 -4.4
v 7.6 6.5 -5.7
v 7.6 6.5 -5.9
v 7.6 6.5 -7.5
v 7.6 6.5 -7.7
v 7.6 6.5 -9.2
v 7.6 6.5 -9.4
v 7.6 8 -2.8
v 7.6 8 -3
v 7.6 8 -4.2
v 7.6 8 -4.4
v 7.6 8 -5.7
v 7.6 8 -5.9
v 7.6 8 -7.5
v 7.6 8 -7.7
v 7.6 8 -9.2
v 7.6 8 -9.4
v 7.6 8.1 -2.8
v 7.6 8.1 -9.4
v 5.7 6.5 -2.8
v 5.7 6.5 -3
v 5.7 6.5 -4.2
v 5.7 6.5 -4.4
v 5.7 6.5 -5.7
v 5.7 6.5 -5.9
v 5.7 6.5 -7.5
v 5.7 6.5 -7.7
v 5.7 6.5 -9.2
v 5.7 6.5 -9.4
v 5.7 8 -2.8
v 5.7 8 -3
v 5.7 8 -4.2
v 5.7 8 -4.4
v 5.7 8 -5.7
v 5.7 8 -5.9
v 5.7 8 -7.5
v 5.7 8 -7.7
v 5.7 8 -9.2
v 5.7 8 -9.4
v 5.7 8.1 -2.8
v 5.7 8.1 -9.4
v 5.8 6.4 -3.4
v 5.8 6.4 -3.7
v 5.8 6.4 -4.8
v 5.8 6.4 -5.1
v 5.8 6.4 -6.5
v 5.8 6.4 -6.8
v 5.8 6.4 -8.4
v 5.8 6.4 -8.7
v 5.8 6.5 -3.4
v 5.8 6.5 -3.7
v 5.8 6.5 -4.8
v 5.8 6.5 -5.1
v 5.8 6.5 -6.5
v 5.8 6.5 -6.8
v 5.8 6.5 -8.4
v 5.8 6.5 -8.7
v 7.8 6.3 -2.8
v 7.8 6.3 -9.4
v 7.8 6.5 -2.8
v 7.8 6.5 -3
v 7.8 6.5 -4.2
v 7.8 6.5 -4.4
v 7.8 6.5 -5.7
v 7.8 6.5 -5.9
v 7.8 6.5 -7.5
v 7.8 6.5 -7.7
v 7.8 6.5 -9.2
v 7.8 6.5 -9.4
v 7.8 8 -2.8
v 7.8 8 -3
v 7.8 8 -4.2
v 7.8 8 -4.4
v 7.8 8 -5.7
v 7.8 8 -5.9
v 7.8 8 -7.5
v 7.8 8 -7.7
v 7.8 8 -9.2
v 7.8 8 -9.4
v 7.8 8.1 -2.8
v 7.8 8.1 -9.4
v 5.5 6.3 -2.8
v 5.5 6.5 -2.8
v 5.5 8 -2.8
v 5.5 8.1 -2.8
v 5.7 6.5 -2.8
v 5.7 8 -2.8
v 5.7 8.1 -2.8
v 7.6 6.5 -2.8
v 7.6 8 -2.8
v 7.6 8.1 -2.8
v 7.8 6.3 -2.8
v 7.8 6.5 -2.8
v 7.8 8 -2.8
v 7.8 8.1 -2.8
v 5.8 6.4 -3.7
v 5.8 6.5 -3.7
v 7.5 6.4 -3.7
v 7.5 6.5 -3.7
v 5.5 6.5 -4.2
v 5.5 8 -4.2
v 5.7 6.5 -4.2
v 5.7 8 -4.2
v 7.6 6.5 -4.2
v 7.6 8 -4.2
v 7.8 6.5 -4.2
v 7.8 8 -4.2
v 5.8 6.4 -5.1
v 5.8 6.5 -5.1
v 7.5 6.4 -5.1
v 7.5 6.5 -5.1
v 5.5 6.5 -5.7
v 5.5 8 -5.7
v 5.7 6.5 -5.7
v 5.7 8 -5.7
v 7.6 6.5 -5.7
v 7.6 8 -5.7
v 7.8 6.5 -5.7
v 7.8 8 -5.7
v 5.8 6.4 -6.8
v 5.8 6.5 -6.8
v 7.5 6.4 -6.8
v 7.5 6.5 -6.8
v 5.5 6.5 -7.5
v 5.5 8 -7.5
v 5.7 6.5 -7.5
v 5.7 8 -7.5
v 7.6 6.5 -7.5
v 7.6 8 -7.5
v 7.8 6.5 -7.5
v 7.8 8 -7.5
v 5.8 6.4 -8.7
v 5.8 6.5 -8.7
v 7.5 6.4 -8.7
v 7.5 6.5 -8.7
v 5.5 6.5 -9.2
v 5.5 8 -9.2
v 5.7 6.5 -9.2
v 5.7 8 -9.2
v 7.6 6.5 -9.2
v 7.6 8 -9.2
v 7.8 6.5 -9.2
v 7.8 8 -9.2
v 5.5 6.5 -3
v 5.5 8 -3
v 5.7 6.5 -3
v 5.7 8 -3
v 7.6 6.5 -3
v 7.6 8 -3
v 7.8 6.5 -3
v 7.8 8 -3
v 5.8 6.4 -3.4
v 5.8 6.5 -3.4
v 7.5 6.4 -3.4
v 7.5 6.5 -3.4
v 5.5 6.5 -4.4
v 5.5 8 -4.4
v 5.7 6.5 -4.4
v 5.7 8 -4.4
v 7.6 6.5 -4.4
v 7.6 8 -4.4
v 7.8 6.5 -4.4
v 7.8 8 -4.4
v 5.8 6.4 -4.8
v 5.8 6.5 -4.8
v 7.5 6.4 -4.8
v 7.5 6.5 -4.8
v 5.5 6.5 -5.9
v 5.5 8 -5.9
v 5.7 6.5 -5.9
v 5.7 8 -5.9
v 7.6 6.5 -5.9
v 7.6 8 -5.9
v 7.8 6.5 -5.9
v 7.8 8 -5.9
v 5.8 6.4 -6.5
v 5.8 6.5 -6.5
v 7.5 6.4 -6.5
v 7.5 6.5 -6.5
v 5.5 6.5 -7.7
v 5.5 8 -7.7
v 5.7 6.5 -7.7
v 5.7 8 -7.7
v 7.6 6.5 -7.7
v 7.6 8 -7.7
v 7.8 6.5 -7.7
v 7.8 8 -7.7
v 5.8 6.4 -8.4
v 5.8 6.5 -8.4
v 7.5 6.4 -8.4
v 7.5 6.5 -8.4
v 5.5 6.3 -9.4
v 5.5 6.5 -9.4
v 5.5 8 -9.4
v 5.5 8.1 -9.4
v 5.7 6.5 -9.4
v 5.7 8 -9.4
v 5.7 8.1 -9.4
v 7.6 6.5 -9.4
v 7.6 8 -9.4
v 7.6 8.1 -9.4
v 7.8 6.3 -9.4
v 7.8 6.5 -9.4
v 7.8 8 -9.4
v 7.8 8.1 -9.4
v 5.5 6.3 -2.8
v 7.8 6.3 -2.8
v 5.5 6.3 -9.4
v 7.8 6.3 -9.4
v 5.5 8 -3
v 5.7 8 -3
v 7.6 8 -3
v 7.8 8 -3
v 5.5 8 -4.2
v 5.7 8 -4.2
v 7.6 8 -4.2
v 7.8 8 -4.2
v 5.5 8 -4.4
v 5.7 8 -4.4
v 7.6 8 -4.4
v 7.8 8 -4.4
v 5.5 8 -5.7
v 5.7 8 -5.7
v 7.6 8 -5.7
v 7.8 8 -5.7
v 5.5 8 -5.9
v 5.7 8 -5.9
v 7.6 8 -5.9
v 7.8 8 -5.9
v 5.5 8 -7.5
v 5.7 8 -7.5
v 7.6 8 -7.5
v 7.8 8 -7.5
v 5.5 8 -7.7
v 5.7 8 -7.7
v 7.6 8 -7.7
v 7.8 8 -7.7
v 5.5 8 -9.2
v 5.7 8 -9.2
v 7.6 8 -9.2
v 7.8 8 -9.2
v 5.8 6.4 -3.4
v 7.5 6.4 -3.4
v 5.8 6.4 -3.7
v 7.5 6.4 -3.7
v 5.8 6.4 -4.8
v 7.5 6.4 -4.8
v 5.8 6.4 -5.1
v 7.5 6.4 -5.1
v 5.8 6.4 -6.5
v 7.5 6.4 -6.5
v 5.8 6.4 -6.8
v 7.5 6.4 -6.8
v 5.8 6.4 -8.4
v 7.5 6.4 -8.4
v 5.8 6.4 -8.7
v 7.5 6.4 -8.7
v 5.7 6.5 -2.8
v 7.6 6.5 -2.8
v 5.5 6.5 -3
v 5.7 6.5 -3
v 7.6 6.5 -3
v 7.8 6.5 -3
v 5.8 6.5 -3.4
v 7.5 6.5 -3.4
v 5.8 6.5 -3.7
v 7.5 6.5 -3.7
v 5.5 6.5 -4.2
v 5.7 6.5 -4.2
v 7.6 6.5 -4.2
v 7.8 6.5 -4.2
v 5.5 6.5 -4.4
v 5.7 6.5 -4.4
v 7.6 6.5 -4.4
v 7.8 6.5 -4.4
v 5.8 6.5 -4.8
v 7.5 6.5 -4.8
v 5.8 6.5 -5.1
v 7.5 6.5 -5.1
v 5.5 6.5 -5.7
v 5.7 6.5 -5.7
v 7.6 6.5 -5.7
v 7.8 6.5 -5.7
v 5.5 6.5 -5.9
v 5.7 6.5 -5.9
v 7.6 6.5 -5.9
v 7.8 6.5 -5.9
v 5.8 6.5 -6.5
v 7.5 6.5 -6.5
v 5.8 6.5 -6.8
v 7.5 6.5 -6.8
v 5.5 6.5 -7.5
v 5.7 6.5 -7.5
v 7.6 6.5 -7.5
v 7.8 6.5 -7.5
v 5.5 6.5 -7.7
v 5.7 6.5 -7.7
v 7.6 6.5 -7.7
v 7.8 6.5 -7.7
v 5.8 6.5 -8.4
v 7.5 6.5 -8.4
v 5.8 6.5 -8.7
v 7.5 6.5 -8.7
v 5.5 6.5 -9.2
v 5.7 6.5 -9.2
v 7.6 6.5 -9.2
v 7.8 6.5 -9.2
v 5.7 6.5 -9.4
v 7.6 6.5 -9.4
v 5.5 8.1 -2.8
v 5.7 8.1 -2.8
v 7.6 8.1 -2.8
v 7.8 8.1 -2.8
v 5.5 8.1 -9.4
v 5.7 8.1 -9.4
v 7.6 8.1 -9.4
v 7.8 8.1 -9.4

# faces
f 3/1/1 2/1/1 1/1/1
f 4/1/1 2/1/1 3/1/1
f 5/1/1 2/1/1 4/1/1
f 6/1/1 2/1/1 5/1/1
f 7/1/1 2/1/1 6/1/1
f 8/1/1 2/1/1 7/1/1
f 9/1/1 2/1/1 8/1/1
f 10/1/1 2/1/1 9/1/1
f 11/1/1 2/1/1 10/1/1
f 12/1/1 2/1/1 11/1/1
f 13/2/1 4/2/1 3/2/1
f 14/2/1 4/2/1 13/2/1
f 15/2/1 6/2/1 5/2/1
f 16/2/1 6/2/1 15/2/1
f 17/2/1 8/2/1 7/2/1
f 18/2/1 8/2/1 17/2/1
f 19/2/1 10/2/1 9/2/1
f 20/2/1 10/2/1 19/2/1
f 21/2/1 12/2/1 11/2/1
f 22/2/1 12/2/1 21/2/1
f 23/1/1 20/1/1 19/1/1
f 23/1/1 14/1/1 13/1/1
f 23/1/1 22/1/1 21/1/1
f 23/1/1 21/1/1 20/1/1
f 23/1/1 18/1/1 17/1/1
f 23/1/1 19/1/1 18/1/1
f 23/1/1 16/1/1 15/1/1
f 23/1/1 17/1/1 16/1/1
f 23/1/1 15/1/1 14/1/1
f 24/1/1 22/1/1 23/1/1
f 33/1/1 26/1/1 25/1/1
f 34/1/1 26/1/1 33/1/1
f 35/1/1 28/1/1 27/1/1
f 36/1/1 28/1/1 35/1/1
f 37/1/1 30/1/1 29/1/1
f 38/1/1 30/1/1 37/1/1
f 39/1/1 32/1/1 31/1/1
f 40/1/1 32/1/1 39/1/1
f 51/2/1 42/2/1 41/2/1
f 52/2/1 42/2/1 51/2/1
f 53/2/1 44/2/1 43/2/1
f 54/2/1 44/2/1 53/2/1
f 55/2/1 46/2/1 45/2/1
f 56/2/1 46/2/1 55/2/1
f 57/2/1 48/2/1 47/2/1
f 58/2/1 48/2/1 57/2/1
f 59/2/1 50/2/1 49/2/1
f 60/2/1 50/2/1 59/2/1
f 61/1/1 58/1/1 57/1/1
f 61/1/1 52/1/1 51/1/1
f 61/1/1 60/1/1 59/1/1
f 61/1/1 59/1/1 58/1/1
f 61/1/1 54/1/1 53/1/1
f 61/1/1 57/1/1 56/1/1
f 61/1/1 56/1/1 55/1/1
f 61/1/1 55/1/1 54/1/1
f 61/1/1 53/1/1 52/1/1
f 62/1/1 60/1/1 61/1/1
f 63/2/2 64/2/2 73/2/2
f 73/2/2 64/2/2 74/2/2
f 65/2/2 66/2/2 75/2/2
f 75/2/2 66/2/2 76/2/2
f 67/2/2 68/2/2 77/2/2
f 77/2/2 68/2/2 78/2/2
f 69/2/2 70/2/2 79/2/2
f 79/2/2 70/2/2 80/2/2
f 71/2/2 72/2/2 81/2/2
f 81/2/2 72/2/2 82/2/2
f 79/1/2 80/1/2 83/1/2
f 73/1/2 74/1/2 83/1/2
f 81/1/2 82/1/2 83/1/2
f 80/1/2 81/1/2 83/1/2
f 75/1/2 76/1/2 83/1/2
f 78/1/2 79/1/2 83/1/2
f 77/1/2 78/1/2 83/1/2
f 76/1/2 77/1/2 83/1/2
f 74/1/2 75/1/2 83/1/2
f 83/1/2 82/1/2 84/1/2
f 85/1/2 86/1/2 93/1/2
f 93/1/2 86/1/2 94/1/2
f 87/1/2 88/1/2 95/1/2
f 95/1/2 88/1/2 96/1/2
f 89/1/2 90/1/2 97/1/2
f 97/1/2 90/1/2 98/1/2
f 91/1/2 92/1/2 99/1/2
f 99/1/2 92/1/2 100/1/2
f 101/1/2 102/1/2 103/1/2
f 103/1/2 102/1/2 104/1/2
f 104/1/2 102/1/2 105/1/2
f 105/1/2 102/1/2 106/1/2
f 106/1/2 102/1/2 107/1/2
f 107/1/2 102/1/2 108/1/2
f 108/1/2 102/1/2 109/1/2
f 109/1/2 102/1/2 110/1/2
f 110/1/2 102/1/2 111/1/2
f 111/1/2 102/1/2 112/1/2
f 103/2/2 104/2/2 113/2/2
f 113/2/2 104/2/2 114/2/2
f 105/2/2 106/2/2 115/2/2
f 115/2/2 106/2/2 116/2/2
f 107/2/2 108/2/2 117/2/2
f 117/2/2 108/2/2 118/2/2
f 109/2/2 110/2/2 119/2/2
f 119/2/2 110/2/2 120/2/2
f 111/2/2 112/2/2 121/2/2
f 121/2/2 112/2/2 122/2/2
f 119/1/2 120/1/2 123/1/2
f 113/1/2 114/1/2 123/1/2
f 121/1/2 122/1/2 123/1/2
f 120/1/2 121/1/2 123/1/2
f 117/1/2 118/1/2 123/1/2
f 118/1/2 119/1/2 123/1/2
f 115/1/2 116/1/2 123/1/2
f 116/1/2 117/1/2 123/1/2
f 114/1/2 115/1/2 123/1/2
f 123/1/2 122/1/2 124/1/2
f 129/1/3 126/1/3 125/1/3
f 129/2/3 127/2/3 126/2/3
f 130/1/3 128/1/3 127/1/3
f 130/2/3 127/2/3 129/2/3
f 131/1/3 128/1/3 130/1/3
f 132/1/3 129/1/3 125/1/3
f 135/1/3 132/1/3 125/1/3
f 136/2/3 133/2/3 132/2/3
f 136/1/3 132/1/3 135/1/3
f 137/1/3 134/1/3 133/1/3
f 137/2/3 133/2/3 136/2/3
f 138/1/3 134/1/3 137/1/3
f 141/1/3 140/1/3 139/1/3
f 142/1/3 140/1/3 141/1/3
f 145/2/3 144/2/3 143/2/3
f 146/2/3 144/2/3 145/2/3
f 149/2/3 148/2/3 147/2/3
f 150/2/3 148/2/3 149/2/3
f 153/1/3 152/1/3 151/1/3
f 154/1/3 152/1/3 153/1/3
f 157/2/3 156/2/3 155/2/3
f 158/2/3 156/2/3 157/2/3
f 161/2/3 160/2/3 159/2/3
f 162/2/3 160/2/3 161/2/3
f 165/1/3 164/1/3 163/1/3
f 166/1/3 164/1/3 165/1/3
f 169/2/3 168/2/3 167/2/3
f 170/2/3 168/2/3 169/2/3
f 173/2/3 172/2/3 171/2/3
f 174/2/3 172/2/3 173/2/3
f 177/1/3 176/1/3 175/1/3
f 178/1/3 176/1/3 177/1/3
f 181/2/3 180/2/3 179/2/3
f 182/2/3 180/2/3 181/2/3
f 185/2/3 184/2/3 183/2/3
f 186/2/3 184/2/3 185/2/3
f 187/2/4 188/2/4 189/2/4
f 189/2/4 188/2/4 190/2/4
f 191/2/4 192/2/4 193/2/4
f 193/2/4 192/2/4 194/2/4
f 195/1/4 196/1/4 197/1/4
f 197/1/4 196/1/4 198/1/4
f 199/2/4 200/2/4 201/2/4
f 201/2/4 200/2/4 202/2/4
f 203/2/4 204/2/4 205/2/4
f 205/2/4 204/2/4 206/2/4
f 207/1/4 208/1/4 209/1/4
f 209/1/4 208/1/4 210/1/4
f 211/2/4 212/2/4 213/2/4
f 213/2/4 212/2/4 214/2/4
f 215/2/4 216/2/4 217/2/4
f 217/2/4 216/2/4 218/2/4
f 219/1/4 220/1/4 221/1/4
f 221/1/4 220/1/4 222/1/4
f 223/2/4 224/2/4 225/2/4
f 225/2/4 224/2/4 226/2/4
f 227/2/4 228/2/4 229/2/4
f 229/2/4 228/2/4 230/2/4
f 231/1/4 232/1/4 233/1/4
f 233/1/4 232/1/4 234/1/4
f 235/1/4 236/1/4 239/1/4
f 236/2/4 237/2/4 239/2/4
f 237/1/4 238/1/4 240/1/4
f 239/2/4 237/2/4 240/2/4
f 240/1/4 238/1/4 241/1/4
f 235/1/4 239/1/4 242/1/4
f 235/1/4 242/1/4 245/1/4
f 242/2/4 243/2/4 246/2/4
f 245/1/4 242/1/4 246/1/4
f 243/1/4 244/1/4 247/1/4
f 246/2/4 243/2/4 247/2/4
f 247/1/4 244/1/4 248/1/4
f 251/1/5 250/1/5 249/1/5
f 252/1/5 250/1/5 251/1/5
f 257/1/5 254/1/5 253/1/5
f 258/1/5 254/1/5 257/1/5
f 259/1/5 256/1/5 255/1/5
f 260/1/5 256/1/5 259/1/5
f 265/1/5 262/1/5 261/1/5
f 266/1/5 262/1/5 265/1/5
f 267/1/5 264/1/5 263/1/5
f 268/1/5 264/1/5 267/1/5
f 273/1/5 270/1/5 269/1/5
f 274/1/5 270/1/5 273/1/5
f 275/1/5 272/1/5 271/1/5
f 276/1/5 272/1/5 275/1/5
f 281/1/5 278/1/5 277/1/5
f 282/1/5 278/1/5 281/1/5
f 283/1/5 280/1/5 279/1/5
f 284/1/5 280/1/5 283/1/5
f 285/1/6 286/1/6 287/1/6
f 287/1/6 286/1/6 288/1/6
f 289/1/6 290/1/6 291/1/6
f 291/1/6 290/1/6 292/1/6
f 293/1/6 294/1/6 295/1/6
f 295/1/6 294/1/6 296/1/6
f 297/1/6 298/1/6 299/1/6
f 299/1/6 298/1/6 300/1/6
f 301/1/6 302/1/6 304/1/6
f 304/1/6 302/1/6 305/1/6
f 303/1/6 304/1/6 307/1/6
f 305/1/6 306/1/6 307/1/6
f 304/1/6 305/1/6 307/1/6
f 307/1/6 306/1/6 308/1/6
f 303/1/6 307/1/6 309/1/6
f 308/1/6 306/1/6 310/1/6
f 303/1/6 309/1/6 311/1/6
f 309/1/6 310/1/6 311/1/6
f 311/1/6 310/1/6 312/1/6
f 310/1/6 306/1/6 313/1/6
f 312/1/6 310/1/6 313/1/6
f 313/1/6 306/1/6 314/1/6
f 312/1/6 313/1/6 316/1/6
f 316/1/6 313/1/6 317/1/6
f 315/1/6 316/1/6 319/1/6
f 317/1/6 318/1/6 319/1/6
f 316/1/6 317/1/6 319/1/6
f 319/1/6 318/1/6 320/1/6
f 315/1/6 319/1/6 321/1/6
f 320/1/6 318/1/6 322/1/6
f 315/1/6 321/1/6 323/1/6
f 321/1/6 322/1/6 323/1/6
f 323/1/6 322/1/6 324/1/6
f 322/1/6 318/1/6 325/1/6
f 324/1/6 322/1/6 325/1/6
f 325/1/6 318/1/6 326/1/6
f 324/1/6 325/1/6 328/1/6
f 328/1/6 325/1/6 329/1/6
f 327/1/6 328/1/6 331/1/6
f 329/1/6 330/1/6 331/1/6
f 328/1/6 329/1/6 331/1/6
f 331/1/6 330/1/6 332/1/6
f 327/1/6 331/1/6 333/1/6
f 332/1/6 330/1/6 334/1/6
f 327/1/6 333/1/6 335/1/6
f 333/1/6 334/1/6 335/1/6
f 335/1/6 334/1/6 336/1/6
f 334/1/6 330/1/6 337/1/6
f 336/1/6 334/1/6 337/1/6
f 337/1/6 330/1/6 338/1/6
f 336/1/6 337/1/6 340/1/6
f 340/1/6 337/1/6 341/1/6
f 339/1/6 340/1/6 343/1/6
f 341/1/6 342/1/6 343/1/6
f 340/1/6 341/1/6 343/1/6
f 343/1/6 342/1/6 344/1/6
f 339/1/6 343/1/6 345/1/6
f 344/1/6 342/1/6 346/1/6
f 339/1/6 345/1/6 347/1/6
f 345/1/6 346/1/6 347/1/6
f 347/1/6 346/1/6 348/1/6
f 346/1/6 342/1/6 349/1/6
f 348/1/6 346/1/6 349/1/6
f 349/1/6 342/1/6 350/1/6
f 348/1/6 349/1/6 351/1/6
f 351/1/6 349/1/6 352/1/6
f 353/1/6 354/1/6 357/1/6
f 357/1/6 354/1/6 358/1/6
f 355/1/6 356/1/6 359/1/6
f 359/1/6 356/1/6 360/1/6
