# MagicaVoxel @ Ephtracy

# group
o 

# material
mtllib Movie theatre-1.mtl
usemtl palette

# normals
vn -1 0 0
vn 1 0 0
vn 0 0 1
vn 0 0 -1
vn 0 -1 0
vn 0 1 0

# texcoords
vt 0.306641 0.5
vt 0.939453 0.5
vt 0.943359 0.5
vt 0.970703 0.5
vt 0.974609 0.5

# verts
v -5.8 0 15.2
v -5.8 0 15.1
v -5.8 0 13.5
v -5.8 0.5 15.2
v -5.8 0.5 15.1
v -5.8 0.6 15.2
v -5.8 0.6 15.1
v -5.8 0.6 15
v -5.8 0.6 14.9
v -5.8 0.7 15.1
v -5.8 0.7 15
v -5.8 0.7 14.9
v -5.8 0.7 14.8
v -5.8 4.1 15.4
v -5.8 4.1 14.9
v -5.8 4.6 15.4
v -5.8 4.6 15.3
v -5.8 4.7 15.3
v -5.8 4.7 15.2
v -5.8 4.8 15.2
v -5.8 4.8 14.9
v -5.8 5.9 15.3
v -5.8 5.9 15.2
v -5.8 5.9 14.9
v -5.8 5.9 14.8
v -5.8 10.1 15.3
v -5.8 10.1 15.2
v -5.8 10.1 13.5
v -2.5 0 15.2
v -2.5 0 14.5
v -2.5 0.5 15.2
v -2.5 0.5 15.1
v -2.5 0.6 15.2
v -2.5 0.6 15.1
v -2.5 0.6 15
v -2.5 0.7 15.1
v -2.5 0.7 15
v -2.5 0.7 14.9
v -2.5 0.7 14.8
v -2.5 4 14.9
v -2.5 4 14.8
v -2.5 4 14.5
v 2 0 15.2
v 2 0 14.6
v 2 0.5 15.2
v 2 0.5 15.1
v 2 0.6 15.2
v 2 0.6 15.1
v 2 0.6 15
v 2 0.7 15.1
v 2 0.7 15
v 2 0.7 14.9
v 2 0.7 14.8
v 2 4 14.9
v 2 4 14.8
v 2 4 14.6
v 6.1 0 15.2
v 6.1 0 14.6
v 6.1 0.5 15.2
v 6.1 0.5 15.1
v 6.1 0.6 15.2
v 6.1 0.6 15.1
v 6.1 0.6 15
v 6.1 0.7 15.1
v 6.1 0.7 15
v 6.1 0.7 14.9
v 6.1 0.7 14.8
v 6.1 4 14.9
v 6.1 4 14.8
v 6.1 4 14.6
v -5.1 0 15.2
v -5.1 0 14.5
v -5.1 0.5 15.2
v -5.1 0.5 15.1
v -5.1 0.6 15.2
v -5.1 0.6 15.1
v -5.1 0.6 15
v -5.1 0.7 15.1
v -5.1 0.7 15
v -5.1 0.7 14.9
v -5.1 0.7 14.8
v -5.1 4 14.9
v -5.1 4 14.8
v -5.1 4 14.5
v -0.9 0 15.2
v -0.9 0 14.6
v -0.9 0.5 15.2
v -0.9 0.5 15.1
v -0.9 0.6 15.2
v -0.9 0.6 15.1
v -0.9 0.6 15
v -0.9 0.7 15.1
v -0.9 0.7 15
v -0.9 0.7 14.9
v -0.9 0.7 14.8
v -0.9 4 14.9
v -0.9 4 14.8
v -0.9 4 14.6
v 3.4 0 15.2
v 3.4 0 14.6
v 3.4 0.5 15.2
v 3.4 0.5 15.1
v 3.4 0.6 15.2
v 3.4 0.6 15.1
v 3.4 0.6 15
v 3.4 0.7 15.1
v 3.4 0.7 15
v 3.4 0.7 14.9
v 3.4 0.7 14.8
v 3.4 4 14.9
v 3.4 4 14.8
v 3.4 4 14.6
v 6.8 0 15.2
v 6.8 0 15.1
v 6.8 0 13.5
v 6.8 0.5 15.2
v 6.8 0.5 15.1
v 6.8 0.6 15.2
v 6.8 0.6 15.1
v 6.8 0.6 15
v 6.8 0.6 14.9
v 6.8 0.7 15.1
v 6.8 0.7 15
v 6.8 0.7 14.9
v 6.8 0.7 14.8
v 6.8 4.1 15.4
v 6.8 4.1 14.9
v 6.8 4.6 15.4
v 6.8 4.6 15.3
v 6.8 4.7 15.3
v 6.8 4.7 15.2
v 6.8 4.8 15.2
v 6.8 4.8 14.9
v 6.8 5.9 15.3
v 6.8 5.9 15.2
v 6.8 5.9 14.9
v 6.8 5.9 14.8
v 6.8 10.1 15.3
v 6.8 10.1 15.2
v 6.8 10.1 13.5
v -5.8 4.1 15.4
v -5.8 4.6 15.4
v 6.8 4.1 15.4
v 6.8 4.6 15.4
v -5.8 4.6 15.3
v -5.8 4.7 15.3
v -5.8 5.9 15.3
v -5.8 10.1 15.3
v 6.8 4.6 15.3
v 6.8 4.7 15.3
v 6.8 5.9 15.3
v 6.8 10.1 15.3
v -5.8 0 15.2
v -5.8 0.5 15.2
v -5.8 0.6 15.2
v -5.8 4.7 15.2
v -5.8 4.8 15.2
v -5.1 0 15.2
v -5.1 0.5 15.2
v -5.1 0.6 15.2
v -2.5 0 15.2
v -2.5 0.5 15.2
v -2.5 0.6 15.2
v -0.9 0 15.2
v -0.9 0.5 15.2
v -0.9 0.6 15.2
v 2 0 15.2
v 2 0.5 15.2
v 2 0.6 15.2
v 3.4 0 15.2
v 3.4 0.5 15.2
v 3.4 0.6 15.2
v 6.1 0 15.2
v 6.1 0.5 15.2
v 6.1 0.6 15.2
v 6.8 0 15.2
v 6.8 0.5 15.2
v 6.8 0.6 15.2
v 6.8 4.7 15.2
v 6.8 4.8 15.2
v -5.8 0.6 15.1
v -5.8 0.7 15.1
v -5.1 0.6 15.1
v -5.1 0.7 15.1
v -2.5 0.6 15.1
v -2.5 0.7 15.1
v -0.9 0.6 15.1
v -0.9 0.7 15.1
v 2 0.6 15.1
v 2 0.7 15.1
v 3.4 0.6 15.1
v 3.4 0.7 15.1
v 6.1 0.6 15.1
v 6.1 0.7 15.1
v 6.8 0.6 15.1
v 6.8 0.7 15.1
v -5.8 0.7 14.9
v -5.8 4.1 14.9
v -5.8 4.8 14.9
v -5.8 5.9 14.9
v -5.1 0.7 14.9
v -5.1 4 14.9
v -2.5 0.7 14.9
v -2.5 4 14.9
v -0.9 0.7 14.9
v -0.9 4 14.9
v 2 0.7 14.9
v 2 4 14.9
v 3.4 0.7 14.9
v 3.4 4 14.9
v 6.1 0.7 14.9
v 6.1 4 14.9
v 6.8 0.7 14.9
v 6.8 4.1 14.9
v 6.8 4.8 14.9
v 6.8 5.9 14.9
v -0.9 0 14.6
v -0.9 4 14.6
v 2 0 14.6
v 2 4 14.6
v 3.4 0 14.6
v 3.4 4 14.6
v 6.1 0 14.6
v 6.1 4 14.6
v -5.1 0 14.5
v -5.1 4 14.5
v -2.5 0 14.5
v -2.5 4 14.5
v -5.8 0 13.5
v -5.8 10.1 13.5
v 6.8 0 13.5
v 6.8 10.1 13.5
v -5.8 0 15.2
v -5.1 0 15.2
v -2.5 0 15.2
v -0.9 0 15.2
v 2 0 15.2
v 3.4 0 15.2
v 6.1 0 15.2
v 6.8 0 15.2
v -5.8 0 15.1
v -5.2 0 15.1
v -2.4 0 15.1
v -1 0 15.1
v 2.1 0 15.1
v 3.3 0 15.1
v 6.2 0 15.1
v 6.8 0 15.1
v -1 0 14.6
v -0.9 0 14.6
v 2 0 14.6
v 2.1 0 14.6
v 3.3 0 14.6
v 3.4 0 14.6
v 6.1 0 14.6
v 6.2 0 14.6
v -5.2 0 14.5
v -5.1 0 14.5
v -2.5 0 14.5
v -2.4 0 14.5
v -5.8 0 13.5
v 6.8 0 13.5
v -5.1 4 14.9
v -2.5 4 14.9
v -0.9 4 14.9
v 2 4 14.9
v 3.4 4 14.9
v 6.1 4 14.9
v -5.1 4 14.8
v -2.5 4 14.8
v -0.9 4 14.8
v 2 4 14.8
v 3.4 4 14.8
v 6.1 4 14.8
v -0.9 4 14.6
v 2 4 14.6
v 3.4 4 14.6
v 6.1 4 14.6
v -5.1 4 14.5
v -2.5 4 14.5
v -5.8 4.1 15.4
v 6.8 4.1 15.4
v -5.8 4.1 14.9
v 6.8 4.1 14.9
v -5.8 5.9 15.3
v 6.8 5.9 15.3
v -5.8 5.9 15.2
v 6.8 5.9 15.2
v -5.8 5.9 14.9
v 6.8 5.9 14.9
v -5.8 0.6 15.2
v -5.1 0.6 15.2
v -2.5 0.6 15.2
v -0.9 0.6 15.2
v 2 0.6 15.2
v 3.4 0.6 15.2
v 6.1 0.6 15.2
v 6.8 0.6 15.2
v -5.8 0.6 15.1
v -5.1 0.6 15.1
v -2.5 0.6 15.1
v -0.9 0.6 15.1
v 2 0.6 15.1
v 3.4 0.6 15.1
v 6.1 0.6 15.1
v 6.8 0.6 15.1
v -5.8 0.7 15.1
v -5.1 0.7 15.1
v -2.5 0.7 15.1
v -0.9 0.7 15.1
v 2 0.7 15.1
v 3.4 0.7 15.1
v 6.1 0.7 15.1
v 6.8 0.7 15.1
v -5.8 0.7 15
v -5.1 0.7 15
v -2.5 0.7 15
v -0.9 0.7 15
v 2 0.7 15
v 3.4 0.7 15
v 6.1 0.7 15
v 6.8 0.7 15
v -5.8 0.7 14.9
v -5.1 0.7 14.9
v -2.5 0.7 14.9
v -0.9 0.7 14.9
v 2 0.7 14.9
v 3.4 0.7 14.9
v 6.1 0.7 14.9
v 6.8 0.7 14.9
v -5.8 4.6 15.4
v 6.8 4.6 15.4
v -5.8 4.6 15.3
v 6.8 4.6 15.3
v -5.8 4.7 15.3
v 6.8 4.7 15.3
v -5.8 4.7 15.2
v 6.8 4.7 15.2
v -5.8 4.8 15.2
v 6.8 4.8 15.2
v -5.8 4.8 14.9
v 6.8 4.8 14.9
v -5.8 10.1 15.3
v 6.8 10.1 15.3
v -5.8 10.1 15.2
v 6.8 10.1 15.2
v -5.8 10.1 13.5
v 6.8 10.1 13.5

# faces
f 4/4/1 2/4/1 1/4/1
f 5/1/1 3/1/1 2/1/1
f 5/4/1 2/4/1 4/4/1
f 6/5/1 5/5/1 4/5/1
f 7/1/1 3/1/1 5/1/1
f 7/5/1 5/5/1 6/5/1
f 8/1/1 3/1/1 7/1/1
f 9/1/1 3/1/1 8/1/1
f 10/5/1 8/5/1 7/5/1
f 11/4/1 9/4/1 8/4/1
f 11/5/1 8/5/1 10/5/1
f 12/1/1 3/1/1 9/1/1
f 12/4/1 9/4/1 11/4/1
f 13/1/1 3/1/1 12/1/1
f 15/2/1 13/2/1 12/2/1
f 16/3/1 15/3/1 14/3/1
f 17/3/1 15/3/1 16/3/1
f 18/3/1 15/3/1 17/3/1
f 19/3/1 15/3/1 18/3/1
f 20/3/1 15/3/1 19/3/1
f 21/2/1 13/2/1 15/2/1
f 21/3/1 15/3/1 20/3/1
f 24/2/1 13/2/1 21/2/1
f 25/1/1 3/1/1 13/1/1
f 25/2/1 13/2/1 24/2/1
f 26/2/1 23/2/1 22/2/1
f 27/1/1 24/1/1 23/1/1
f 27/2/1 23/2/1 26/2/1
f 27/1/1 25/1/1 24/1/1
f 28/1/1 3/1/1 25/1/1
f 28/1/1 25/1/1 27/1/1
f 31/4/1 30/4/1 29/4/1
f 32/4/1 30/4/1 31/4/1
f 33/5/1 32/5/1 31/5/1
f 34/4/1 30/4/1 32/4/1
f 34/5/1 32/5/1 33/5/1
f 35/4/1 30/4/1 34/4/1
f 36/5/1 35/5/1 34/5/1
f 37/4/1 30/4/1 35/4/1
f 37/5/1 35/5/1 36/5/1
f 38/4/1 30/4/1 37/4/1
f 39/4/1 30/4/1 38/4/1
f 40/2/1 39/2/1 38/2/1
f 41/4/1 30/4/1 39/4/1
f 41/2/1 39/2/1 40/2/1
f 42/4/1 30/4/1 41/4/1
f 45/4/1 44/4/1 43/4/1
f 46/4/1 44/4/1 45/4/1
f 47/5/1 46/5/1 45/5/1
f 48/4/1 44/4/1 46/4/1
f 48/5/1 46/5/1 47/5/1
f 49/4/1 44/4/1 48/4/1
f 50/5/1 49/5/1 48/5/1
f 51/4/1 44/4/1 49/4/1
f 51/5/1 49/5/1 50/5/1
f 52/4/1 44/4/1 51/4/1
f 53/4/1 44/4/1 52/4/1
f 54/2/1 53/2/1 52/2/1
f 55/4/1 44/4/1 53/4/1
f 55/2/1 53/2/1 54/2/1
f 56/4/1 44/4/1 55/4/1
f 59/4/1 58/4/1 57/4/1
f 60/4/1 58/4/1 59/4/1
f 61/5/1 60/5/1 59/5/1
f 62/4/1 58/4/1 60/4/1
f 62/5/1 60/5/1 61/5/1
f 63/4/1 58/4/1 62/4/1
f 64/5/1 63/5/1 62/5/1
f 65/4/1 58/4/1 63/4/1
f 65/5/1 63/5/1 64/5/1
f 66/4/1 58/4/1 65/4/1
f 67/4/1 58/4/1 66/4/1
f 68/2/1 67/2/1 66/2/1
f 69/4/1 58/4/1 67/4/1
f 69/2/1 67/2/1 68/2/1
f 70/4/1 58/4/1 69/4/1
f 71/4/2 72/4/2 73/4/2
f 73/4/2 72/4/2 74/4/2
f 73/5/2 74/5/2 75/5/2
f 74/4/2 72/4/2 76/4/2
f 75/5/2 74/5/2 76/5/2
f 76/4/2 72/4/2 77/4/2
f 76/5/2 77/5/2 78/5/2
f 77/4/2 72/4/2 79/4/2
f 78/5/2 77/5/2 79/5/2
f 79/4/2 72/4/2 80/4/2
f 80/4/2 72/4/2 81/4/2
f 80/2/2 81/2/2 82/2/2
f 81/4/2 72/4/2 83/4/2
f 82/2/2 81/2/2 83/2/2
f 83/4/2 72/4/2 84/4/2
f 85/4/2 86/4/2 87/4/2
f 87/4/2 86/4/2 88/4/2
f 87/5/2 88/5/2 89/5/2
f 88/4/2 86/4/2 90/4/2
f 89/5/2 88/5/2 90/5/2
f 90/4/2 86/4/2 91/4/2
f 90/5/2 91/5/2 92/5/2
f 91/4/2 86/4/2 93/4/2
f 92/5/2 91/5/2 93/5/2
f 93/4/2 86/4/2 94/4/2
f 94/4/2 86/4/2 95/4/2
f 94/2/2 95/2/2 96/2/2
f 95/4/2 86/4/2 97/4/2
f 96/2/2 95/2/2 97/2/2
f 97/4/2 86/4/2 98/4/2
f 99/4/2 100/4/2 101/4/2
f 101/4/2 100/4/2 102/4/2
f 101/5/2 102/5/2 103/5/2
f 102/4/2 100/4/2 104/4/2
f 103/5/2 102/5/2 104/5/2
f 104/4/2 100/4/2 105/4/2
f 104/5/2 105/5/2 106/5/2
f 105/4/2 100/4/2 107/4/2
f 106/5/2 105/5/2 107/5/2
f 107/4/2 100/4/2 108/4/2
f 108/4/2 100/4/2 109/4/2
f 108/2/2 109/2/2 110/2/2
f 109/4/2 100/4/2 111/4/2
f 110/2/2 109/2/2 111/2/2
f 111/4/2 100/4/2 112/4/2
f 113/4/2 114/4/2 116/4/2
f 114/1/2 115/1/2 117/1/2
f 116/4/2 114/4/2 117/4/2
f 116/5/2 117/5/2 118/5/2
f 117/1/2 115/1/2 119/1/2
f 118/5/2 117/5/2 119/5/2
f 119/1/2 115/1/2 120/1/2
f 120/1/2 115/1/2 121/1/2
f 119/5/2 120/5/2 122/5/2
f 120/4/2 121/4/2 123/4/2
f 122/5/2 120/5/2 123/5/2
f 121/1/2 115/1/2 124/1/2
f 123/4/2 121/4/2 124/4/2
f 124/1/2 115/1/2 125/1/2
f 124/2/2 125/2/2 127/2/2
f 126/3/2 127/3/2 128/3/2
f 128/3/2 127/3/2 129/3/2
f 129/3/2 127/3/2 130/3/2
f 130/3/2 127/3/2 131/3/2
f 131/3/2 127/3/2 132/3/2
f 127/2/2 125/2/2 133/2/2
f 132/3/2 127/3/2 133/3/2
f 133/2/2 125/2/2 136/2/2
f 125/1/2 115/1/2 137/1/2
f 136/2/2 125/2/2 137/2/2
f 134/2/2 135/2/2 138/2/2
f 135/1/2 136/1/2 139/1/2
f 138/2/2 135/2/2 139/2/2
f 136/1/2 137/1/2 139/1/2
f 137/1/2 115/1/2 140/1/2
f 139/1/2 137/1/2 140/1/2
f 143/3/3 142/3/3 141/3/3
f 144/3/3 142/3/3 143/3/3
f 149/3/3 146/3/3 145/3/3
f 150/3/3 146/3/3 149/3/3
f 151/2/3 148/2/3 147/2/3
f 152/2/3 148/2/3 151/2/3
f 158/4/3 154/4/3 153/4/3
f 159/5/3 155/5/3 154/5/3
f 159/4/3 154/4/3 158/4/3
f 160/5/3 155/5/3 159/5/3
f 164/4/3 162/4/3 161/4/3
f 165/5/3 163/5/3 162/5/3
f 165/4/3 162/4/3 164/4/3
f 166/5/3 163/5/3 165/5/3
f 170/4/3 168/4/3 167/4/3
f 171/5/3 169/5/3 168/5/3
f 171/4/3 168/4/3 170/4/3
f 172/5/3 169/5/3 171/5/3
f 176/4/3 174/4/3 173/4/3
f 177/5/3 175/5/3 174/5/3
f 177/4/3 174/4/3 176/4/3
f 178/5/3 175/5/3 177/5/3
f 179/3/3 157/3/3 156/3/3
f 180/3/3 157/3/3 179/3/3
f 183/5/3 182/5/3 181/5/3
f 184/5/3 182/5/3 183/5/3
f 187/5/3 186/5/3 185/5/3
f 188/5/3 186/5/3 187/5/3
f 191/5/3 190/5/3 189/5/3
f 192/5/3 190/5/3 191/5/3
f 195/5/3 194/5/3 193/5/3
f 196/5/3 194/5/3 195/5/3
f 201/2/3 198/2/3 197/2/3
f 202/2/3 198/2/3 201/2/3
f 204/2/3 198/2/3 202/2/3
f 205/2/3 204/2/3 203/2/3
f 206/2/3 198/2/3 204/2/3
f 206/2/3 204/2/3 205/2/3
f 208/2/3 198/2/3 206/2/3
f 209/2/3 208/2/3 207/2/3
f 210/2/3 198/2/3 208/2/3
f 210/2/3 208/2/3 209/2/3
f 212/2/3 198/2/3 210/2/3
f 213/2/3 212/2/3 211/2/3
f 214/2/3 198/2/3 212/2/3
f 214/2/3 212/2/3 213/2/3
f 215/2/3 200/2/3 199/2/3
f 216/2/3 200/2/3 215/2/3
f 219/1/3 218/1/3 217/1/3
f 220/1/3 218/1/3 219/1/3
f 223/1/3 222/1/3 221/1/3
f 224/1/3 222/1/3 223/1/3
f 227/1/3 226/1/3 225/1/3
f 228/1/3 226/1/3 227/1/3
f 229/1/4 230/1/4 231/1/4
f 231/1/4 230/1/4 232/1/4
f 241/4/5 234/4/5 233/4/5
f 242/4/5 234/4/5 241/4/5
f 243/4/5 236/4/5 235/4/5
f 244/4/5 236/4/5 243/4/5
f 245/4/5 238/4/5 237/4/5
f 246/4/5 238/4/5 245/4/5
f 247/4/5 240/4/5 239/4/5
f 248/4/5 240/4/5 247/4/5
f 249/4/5 236/4/5 244/4/5
f 249/1/5 244/1/5 243/1/5
f 250/4/5 236/4/5 249/4/5
f 251/4/5 245/4/5 237/4/5
f 252/1/5 246/1/5 245/1/5
f 252/4/5 245/4/5 251/4/5
f 253/4/5 238/4/5 246/4/5
f 253/1/5 246/1/5 252/1/5
f 254/4/5 238/4/5 253/4/5
f 255/4/5 247/4/5 239/4/5
f 256/1/5 248/1/5 247/1/5
f 256/4/5 247/4/5 255/4/5
f 257/4/5 234/4/5 242/4/5
f 257/1/5 242/1/5 241/1/5
f 258/4/5 234/4/5 257/4/5
f 259/4/5 243/4/5 235/4/5
f 260/1/5 252/1/5 251/1/5
f 260/1/5 256/1/5 255/1/5
f 260/4/5 243/4/5 259/4/5
f 260/1/5 255/1/5 254/1/5
f 260/1/5 250/1/5 249/1/5
f 260/1/5 251/1/5 250/1/5
f 260/1/5 253/1/5 252/1/5
f 260/1/5 254/1/5 253/1/5
f 260/1/5 249/1/5 243/1/5
f 261/1/5 259/1/5 258/1/5
f 261/1/5 258/1/5 257/1/5
f 261/1/5 260/1/5 259/1/5
f 261/1/5 257/1/5 241/1/5
f 262/1/5 256/1/5 260/1/5
f 262/1/5 260/1/5 261/1/5
f 262/1/5 248/1/5 256/1/5
f 269/2/5 264/2/5 263/2/5
f 270/2/5 264/2/5 269/2/5
f 271/2/5 266/2/5 265/2/5
f 272/2/5 266/2/5 271/2/5
f 273/2/5 268/2/5 267/2/5
f 274/2/5 268/2/5 273/2/5
f 275/1/5 272/1/5 271/1/5
f 276/1/5 272/1/5 275/1/5
f 277/1/5 274/1/5 273/1/5
f 278/1/5 274/1/5 277/1/5
f 279/1/5 270/1/5 269/1/5
f 280/1/5 270/1/5 279/1/5
f 283/3/5 282/3/5 281/3/5
f 284/3/5 282/3/5 283/3/5
f 287/2/5 286/2/5 285/2/5
f 288/2/5 286/2/5 287/2/5
f 289/1/5 288/1/5 287/1/5
f 290/1/5 288/1/5 289/1/5
f 291/5/6 292/5/6 299/5/6
f 299/5/6 292/5/6 300/5/6
f 293/5/6 294/5/6 301/5/6
f 301/5/6 294/5/6 302/5/6
f 295/5/6 296/5/6 303/5/6
f 303/5/6 296/5/6 304/5/6
f 297/5/6 298/5/6 305/5/6
f 305/5/6 298/5/6 306/5/6
f 307/5/6 308/5/6 315/5/6
f 315/5/6 308/5/6 316/5/6
f 309/5/6 310/5/6 317/5/6
f 317/5/6 310/5/6 318/5/6
f 311/5/6 312/5/6 319/5/6
f 319/5/6 312/5/6 320/5/6
f 313/5/6 314/5/6 321/5/6
f 321/5/6 314/5/6 322/5/6
f 315/4/6 316/4/6 323/4/6
f 323/4/6 316/4/6 324/4/6
f 317/4/6 318/4/6 325/4/6
f 325/4/6 318/4/6 326/4/6
f 319/4/6 320/4/6 327/4/6
f 327/4/6 320/4/6 328/4/6
f 321/4/6 322/4/6 329/4/6
f 329/4/6 322/4/6 330/4/6
f 331/3/6 332/3/6 333/3/6
f 333/3/6 332/3/6 334/3/6
f 335/3/6 336/3/6 337/3/6
f 337/3/6 336/3/6 338/3/6
f 339/3/6 340/3/6 341/3/6
f 341/3/6 340/3/6 342/3/6
f 343/2/6 344/2/6 345/2/6
f 345/2/6 344/2/6 346/2/6
f 345/1/6 346/1/6 347/1/6
f 347/1/6 346/1/6 348/1/6
