# MagicaVoxel @ Ephtracy

# group
o 

# material
mtllib Table 2.mtl
usemtl palette

# normals
vn -1 0 0
vn 1 0 0
vn 0 0 1
vn 0 0 -1
vn 0 -1 0
vn 0 1 0

# texcoords
vt 0.537109 0.5
vt 0.623047 0.5
vt 0.974609 0.5
vt 0.990234 0.5

# verts
v 4.7 7.5 -2.8
v 4.7 7.5 -4.3
v 4.7 7.6 -2.8
v 4.7 7.6 -4.3
v 4.9 6.3 -3.5
v 4.9 6.3 -3.6
v 4.9 6.4 -3.5
v 4.9 6.4 -3.6
v 4.9 6.6 -3.5
v 4.9 6.6 -3.6
v 5.4 6.3 -3
v 5.4 6.3 -3.1
v 5.4 6.3 -4
v 5.4 6.3 -4.1
v 5.4 6.4 -3
v 5.4 6.4 -3.1
v 5.4 6.4 -4
v 5.4 6.4 -4.1
v 5.4 6.5 -3.1
v 5.4 6.5 -3.5
v 5.4 6.5 -3.6
v 5.4 6.5 -4
v 5.4 6.6 -3
v 5.4 6.6 -3.5
v 5.4 6.6 -3.6
v 5.4 6.6 -4.1
v 5.4 7.5 -3.5
v 5.4 7.5 -3.6
v 5.9 6.3 -3.5
v 5.9 6.3 -3.6
v 5.9 6.4 -3.5
v 5.9 6.4 -3.6
v 5.9 6.5 -3.5
v 5.9 6.5 -3.6
v 5 6.3 -3.5
v 5 6.3 -3.6
v 5 6.4 -3.5
v 5 6.4 -3.6
v 5 6.5 -3.5
v 5 6.5 -3.6
v 5.5 6.3 -3
v 5.5 6.3 -3.1
v 5.5 6.3 -4
v 5.5 6.3 -4.1
v 5.5 6.4 -3
v 5.5 6.4 -3.1
v 5.5 6.4 -4
v 5.5 6.4 -4.1
v 5.5 6.5 -3.1
v 5.5 6.5 -3.5
v 5.5 6.5 -3.6
v 5.5 6.5 -4
v 5.5 6.6 -3
v 5.5 6.6 -3.5
v 5.5 6.6 -3.6
v 5.5 6.6 -4.1
v 5.5 7.5 -3.5
v 5.5 7.5 -3.6
v 6 6.3 -3.5
v 6 6.3 -3.6
v 6 6.4 -3.5
v 6 6.4 -3.6
v 6 6.6 -3.5
v 6 6.6 -3.6
v 6.2 7.5 -2.8
v 6.2 7.5 -4.3
v 6.2 7.6 -2.8
v 6.2 7.6 -4.3
v 4.7 7.5 -2.8
v 4.7 7.6 -2.8
v 6.2 7.5 -2.8
v 6.2 7.6 -2.8
v 5.4 6.3 -3
v 5.4 6.4 -3
v 5.4 6.6 -3
v 5.5 6.3 -3
v 5.5 6.4 -3
v 5.5 6.6 -3
v 4.9 6.3 -3.5
v 4.9 6.4 -3.5
v 4.9 6.6 -3.5
v 5 6.3 -3.5
v 5 6.4 -3.5
v 5 6.5 -3.5
v 5.4 6.5 -3.5
v 5.4 6.6 -3.5
v 5.4 7.5 -3.5
v 5.5 6.5 -3.5
v 5.5 6.6 -3.5
v 5.5 7.5 -3.5
v 5.9 6.3 -3.5
v 5.9 6.4 -3.5
v 5.9 6.5 -3.5
v 6 6.3 -3.5
v 6 6.4 -3.5
v 6 6.6 -3.5
v 5.4 6.3 -4
v 5.4 6.4 -4
v 5.4 6.5 -4
v 5.5 6.3 -4
v 5.5 6.4 -4
v 5.5 6.5 -4
v 5.4 6.3 -3.1
v 5.4 6.4 -3.1
v 5.4 6.5 -3.1
v 5.5 6.3 -3.1
v 5.5 6.4 -3.1
v 5.5 6.5 -3.1
v 4.9 6.3 -3.6
v 4.9 6.4 -3.6
v 4.9 6.6 -3.6
v 5 6.3 -3.6
v 5 6.4 -3.6
v 5 6.5 -3.6
v 5.4 6.5 -3.6
v 5.4 6.6 -3.6
v 5.4 7.5 -3.6
v 5.5 6.5 -3.6
v 5.5 6.6 -3.6
v 5.5 7.5 -3.6
v 5.9 6.3 -3.6
v 5.9 6.4 -3.6
v 5.9 6.5 -3.6
v 6 6.3 -3.6
v 6 6.4 -3.6
v 6 6.6 -3.6
v 5.4 6.3 -4.1
v 5.4 6.4 -4.1
v 5.4 6.6 -4.1
v 5.5 6.3 -4.1
v 5.5 6.4 -4.1
v 5.5 6.6 -4.1
v 4.7 7.5 -4.3
v 4.7 7.6 -4.3
v 6.2 7.5 -4.3
v 6.2 7.6 -4.3
v 5.4 6.3 -3
v 5.5 6.3 -3
v 5.4 6.3 -3.1
v 5.5 6.3 -3.1
v 4.9 6.3 -3.5
v 5 6.3 -3.5
v 5.9 6.3 -3.5
v 6 6.3 -3.5
v 4.9 6.3 -3.6
v 5 6.3 -3.6
v 5.9 6.3 -3.6
v 6 6.3 -3.6
v 5.4 6.3 -4
v 5.5 6.3 -4
v 5.4 6.3 -4.1
v 5.5 6.3 -4.1
v 5.4 6.5 -3.1
v 5.5 6.5 -3.1
v 5 6.5 -3.5
v 5.4 6.5 -3.5
v 5.5 6.5 -3.5
v 5.9 6.5 -3.5
v 5 6.5 -3.6
v 5.4 6.5 -3.6
v 5.5 6.5 -3.6
v 5.9 6.5 -3.6
v 5.4 6.5 -4
v 5.5 6.5 -4
v 4.7 7.5 -2.8
v 6.2 7.5 -2.8
v 5.2 7.5 -3.2
v 5.3 7.5 -3.2
v 4.8 7.5 -3.4
v 5.2 7.5 -3.4
v 5.4 7.5 -3.5
v 5.5 7.5 -3.5
v 5.2 7.5 -3.6
v 5.3 7.5 -3.6
v 5.4 7.5 -3.6
v 5.5 7.5 -3.6
v 5.8 7.5 -3.7
v 5.9 7.5 -3.7
v 5.7 7.5 -3.8
v 5.8 7.5 -3.8
v 5.9 7.5 -3.8
v 6 7.5 -3.8
v 4.8 7.5 -3.9
v 5.2 7.5 -3.9
v 5.7 7.5 -4
v 6 7.5 -4
v 4.7 7.5 -4.3
v 6.2 7.5 -4.3
v 5.4 6.6 -3
v 5.5 6.6 -3
v 4.9 6.6 -3.5
v 5.4 6.6 -3.5
v 5.5 6.6 -3.5
v 6 6.6 -3.5
v 4.9 6.6 -3.6
v 5.4 6.6 -3.6
v 5.5 6.6 -3.6
v 6 6.6 -3.6
v 5.4 6.6 -4.1
v 5.5 6.6 -4.1
v 4.7 7.6 -2.8
v 6.2 7.6 -2.8
v 5.2 7.6 -3.2
v 5.3 7.6 -3.2
v 4.8 7.6 -3.4
v 5.2 7.6 -3.4
v 5.2 7.6 -3.6
v 5.3 7.6 -3.6
v 5.8 7.6 -3.7
v 5.9 7.6 -3.7
v 5.7 7.6 -3.8
v 5.8 7.6 -3.8
v 5.9 7.6 -3.8
v 6 7.6 -3.8
v 4.8 7.6 -3.9
v 5.2 7.6 -3.9
v 5.7 7.6 -4
v 6 7.6 -4
v 4.7 7.6 -4.3
v 6.2 7.6 -4.3

# faces
f 3/1/1 2/1/1 1/1/1
f 4/1/1 2/1/1 3/1/1
f 7/4/1 6/4/1 5/4/1
f 8/4/1 6/4/1 7/4/1
f 9/3/1 8/3/1 7/3/1
f 10/3/1 8/3/1 9/3/1
f 15/4/1 12/4/1 11/4/1
f 16/4/1 12/4/1 15/4/1
f 17/4/1 14/4/1 13/4/1
f 18/4/1 14/4/1 17/4/1
f 19/3/1 16/3/1 15/3/1
f 22/3/1 18/3/1 17/3/1
f 23/3/1 20/3/1 19/3/1
f 23/3/1 19/3/1 15/3/1
f 24/3/1 20/3/1 23/3/1
f 25/3/1 22/3/1 21/3/1
f 26/3/1 18/3/1 22/3/1
f 26/3/1 22/3/1 25/3/1
f 27/3/1 25/3/1 24/3/1
f 28/3/1 25/3/1 27/3/1
f 31/4/1 30/4/1 29/4/1
f 32/4/1 30/4/1 31/4/1
f 33/3/1 32/3/1 31/3/1
f 34/3/1 32/3/1 33/3/1
f 35/4/2 36/4/2 37/4/2
f 37/4/2 36/4/2 38/4/2
f 37/3/2 38/3/2 39/3/2
f 39/3/2 38/3/2 40/3/2
f 41/4/2 42/4/2 45/4/2
f 45/4/2 42/4/2 46/4/2
f 43/4/2 44/4/2 47/4/2
f 47/4/2 44/4/2 48/4/2
f 45/3/2 46/3/2 49/3/2
f 47/3/2 48/3/2 52/3/2
f 49/3/2 50/3/2 53/3/2
f 45/3/2 49/3/2 53/3/2
f 53/3/2 50/3/2 54/3/2
f 51/3/2 52/3/2 55/3/2
f 52/3/2 48/3/2 56/3/2
f 55/3/2 52/3/2 56/3/2
f 54/3/2 55/3/2 57/3/2
f 57/3/2 55/3/2 58/3/2
f 59/4/2 60/4/2 61/4/2
f 61/4/2 60/4/2 62/4/2
f 61/3/2 62/3/2 63/3/2
f 63/3/2 62/3/2 64/3/2
f 65/1/2 66/1/2 67/1/2
f 67/1/2 66/1/2 68/1/2
f 71/1/3 70/1/3 69/1/3
f 72/1/3 70/1/3 71/1/3
f 76/4/3 74/4/3 73/4/3
f 77/3/3 75/3/3 74/3/3
f 77/4/3 74/4/3 76/4/3
f 78/3/3 75/3/3 77/3/3
f 82/4/3 80/4/3 79/4/3
f 83/3/3 81/3/3 80/3/3
f 83/4/3 80/4/3 82/4/3
f 84/3/3 81/3/3 83/3/3
f 85/3/3 81/3/3 84/3/3
f 86/3/3 81/3/3 85/3/3
f 89/3/3 87/3/3 86/3/3
f 90/3/3 87/3/3 89/3/3
f 93/3/3 89/3/3 88/3/3
f 94/4/3 92/4/3 91/4/3
f 95/3/3 93/3/3 92/3/3
f 95/4/3 92/4/3 94/4/3
f 96/3/3 89/3/3 93/3/3
f 96/3/3 93/3/3 95/3/3
f 100/4/3 98/4/3 97/4/3
f 101/3/3 99/3/3 98/3/3
f 101/4/3 98/4/3 100/4/3
f 102/3/3 99/3/3 101/3/3
f 103/4/4 104/4/4 106/4/4
f 104/3/4 105/3/4 107/3/4
f 106/4/4 104/4/4 107/4/4
f 107/3/4 105/3/4 108/3/4
f 109/4/4 110/4/4 112/4/4
f 110/3/4 111/3/4 113/3/4
f 112/4/4 110/4/4 113/4/4
f 113/3/4 111/3/4 114/3/4
f 114/3/4 111/3/4 115/3/4
f 115/3/4 111/3/4 116/3/4
f 116/3/4 117/3/4 119/3/4
f 119/3/4 117/3/4 120/3/4
f 118/3/4 119/3/4 123/3/4
f 121/4/4 122/4/4 124/4/4
f 122/3/4 123/3/4 125/3/4
f 124/4/4 122/4/4 125/4/4
f 123/3/4 119/3/4 126/3/4
f 125/3/4 123/3/4 126/3/4
f 127/4/4 128/4/4 130/4/4
f 128/3/4 129/3/4 131/3/4
f 130/4/4 128/4/4 131/4/4
f 131/3/4 129/3/4 132/3/4
f 133/1/4 134/1/4 135/1/4
f 135/1/4 134/1/4 136/1/4
f 139/4/5 138/4/5 137/4/5
f 140/4/5 138/4/5 139/4/5
f 145/4/5 142/4/5 141/4/5
f 146/4/5 142/4/5 145/4/5
f 147/4/5 144/4/5 143/4/5
f 148/4/5 144/4/5 147/4/5
f 151/4/5 150/4/5 149/4/5
f 152/4/5 150/4/5 151/4/5
f 156/3/5 154/3/5 153/3/5
f 157/3/5 154/3/5 156/3/5
f 159/3/5 156/3/5 155/3/5
f 159/3/5 158/3/5 157/3/5
f 159/3/5 157/3/5 156/3/5
f 160/3/5 158/3/5 159/3/5
f 161/3/5 158/3/5 160/3/5
f 162/3/5 158/3/5 161/3/5
f 163/3/5 161/3/5 160/3/5
f 164/3/5 161/3/5 163/3/5
f 167/1/5 166/1/5 165/1/5
f 168/1/5 166/1/5 167/1/5
f 169/1/5 167/1/5 165/1/5
f 170/2/5 168/2/5 167/2/5
f 170/1/5 167/1/5 169/1/5
f 171/1/5 166/1/5 168/1/5
f 172/1/5 166/1/5 171/1/5
f 173/2/5 168/2/5 170/2/5
f 173/2/5 170/2/5 169/2/5
f 174/1/5 171/1/5 168/1/5
f 174/2/5 168/2/5 173/2/5
f 175/1/5 171/1/5 174/1/5
f 176/1/5 166/1/5 172/1/5
f 177/1/5 175/1/5 174/1/5
f 177/1/5 176/1/5 175/1/5
f 177/1/5 166/1/5 176/1/5
f 177/1/5 174/1/5 173/1/5
f 178/1/5 166/1/5 177/1/5
f 179/1/5 177/1/5 173/1/5
f 180/2/5 178/2/5 177/2/5
f 180/1/5 177/1/5 179/1/5
f 181/1/5 166/1/5 178/1/5
f 181/2/5 178/2/5 180/2/5
f 182/1/5 166/1/5 181/1/5
f 183/1/5 169/1/5 165/1/5
f 183/2/5 173/2/5 169/2/5
f 184/1/5 179/1/5 173/1/5
f 184/2/5 173/2/5 183/2/5
f 185/2/5 182/2/5 181/2/5
f 185/1/5 179/1/5 184/1/5
f 185/1/5 184/1/5 183/1/5
f 185/2/5 181/2/5 180/2/5
f 185/2/5 180/2/5 179/2/5
f 186/1/5 166/1/5 182/1/5
f 186/2/5 182/2/5 185/2/5
f 187/1/5 185/1/5 183/1/5
f 187/1/5 183/1/5 165/1/5
f 187/1/5 186/1/5 185/1/5
f 188/1/5 166/1/5 186/1/5
f 188/1/5 186/1/5 187/1/5
f 189/3/6 190/3/6 192/3/6
f 192/3/6 190/3/6 193/3/6
f 191/3/6 192/3/6 195/3/6
f 195/3/6 192/3/6 196/3/6
f 193/3/6 194/3/6 197/3/6
f 197/3/6 194/3/6 198/3/6
f 196/3/6 197/3/6 199/3/6
f 199/3/6 197/3/6 200/3/6
f 201/1/6 202/1/6 203/1/6
f 203/1/6 202/1/6 204/1/6
f 201/1/6 203/1/6 205/1/6
f 203/2/6 204/2/6 206/2/6
f 205/1/6 203/1/6 206/1/6
f 205/2/6 206/2/6 207/2/6
f 206/2/6 204/2/6 207/2/6
f 204/1/6 202/1/6 208/1/6
f 207/2/6 204/2/6 208/2/6
f 207/1/6 208/1/6 209/1/6
f 208/1/6 202/1/6 209/1/6
f 209/1/6 202/1/6 210/1/6
f 207/1/6 209/1/6 211/1/6
f 209/2/6 210/2/6 212/2/6
f 211/1/6 209/1/6 212/1/6
f 210/1/6 202/1/6 213/1/6
f 212/2/6 210/2/6 213/2/6
f 213/1/6 202/1/6 214/1/6
f 205/2/6 207/2/6 215/2/6
f 201/1/6 205/1/6 215/1/6
f 207/1/6 211/1/6 216/1/6
f 215/2/6 207/2/6 216/2/6
f 213/2/6 214/2/6 217/2/6
f 216/1/6 211/1/6 217/1/6
f 215/1/6 216/1/6 217/1/6
f 212/2/6 213/2/6 217/2/6
f 211/2/6 212/2/6 217/2/6
f 214/1/6 202/1/6 218/1/6
f 217/2/6 214/2/6 218/2/6
f 215/1/6 217/1/6 219/1/6
f 201/1/6 215/1/6 219/1/6
f 217/1/6 218/1/6 219/1/6
f 218/1/6 202/1/6 220/1/6
f 219/1/6 218/1/6 220/1/6
