# MagicaVoxel @ Ephtracy

# group
o 

# material
mtllib Screen_0.mtl
usemtl palette

# normals
vn -1 0 0
vn 1 0 0
vn 0 0 1
vn 0 0 -1
vn 0 -1 0
vn 0 1 0

# texcoords
vt 0.306641 0.5
vt 0.970703 0.5
vt 0.978516 0.5

# verts
v -5.5 1 4.3
v -5.5 1 -3.5
v -5.5 4.6 4.3
v -5.5 4.6 -3.5
v -5.3 1 4.5
v -5.3 1 4.3
v -5.3 1 -3.5
v -5.3 1 -3.7
v -5.3 4.6 4.5
v -5.3 4.6 4.3
v -5.3 4.6 -3.5
v -5.3 4.6 -3.7
v -5.1 1 4.5
v -5.1 1 -3.7
v -5.1 1.1 4.4
v -5.1 1.1 -3.6
v -5.1 4.5 4.4
v -5.1 4.5 -3.6
v -5.1 4.6 4.5
v -5.1 4.6 -3.7
v -5.3 1 4.5
v -5.3 4.6 4.5
v -5.1 1 4.5
v -5.1 4.6 4.5
v -5.5 1 4.3
v -5.5 4.6 4.3
v -5.3 1 4.3
v -5.3 4.6 4.3
v -5.5 1 -3.5
v -5.5 4.6 -3.5
v -5.3 1 -3.5
v -5.3 4.6 -3.5
v -5.3 1 -3.7
v -5.3 4.6 -3.7
v -5.1 1 -3.7
v -5.1 4.6 -3.7
v -5.3 1 4.5
v -5.1 1 4.5
v -5.5 1 4.3
v -5.3 1 4.3
v -5.4 1 4.2
v -5.2 1 4.2
v -5.4 1 -3.4
v -5.3 1 -3.4
v -5.5 1 -3.5
v -5.3 1 -3.5
v -5.2 1 -3.5
v -5.3 1 -3.7
v -5.1 1 -3.7
v -5.3 4.6 4.5
v -5.1 4.6 4.5
v -5.5 4.6 4.3
v -5.3 4.6 4.3
v -5.5 4.6 -3.5
v -5.3 4.6 -3.5
v -5.3 4.6 -3.7
v -5.1 4.6 -3.7

# faces
f 3/2/1 2/2/1 1/2/1
f 4/2/1 2/2/1 3/2/1
f 9/2/1 6/2/1 5/2/1
f 10/2/1 6/2/1 9/2/1
f 11/2/1 8/2/1 7/2/1
f 12/2/1 8/2/1 11/2/1
f 13/2/2 14/2/2 15/2/2
f 15/2/2 14/2/2 16/2/2
f 13/2/2 15/2/2 17/2/2
f 15/3/2 16/3/2 17/3/2
f 16/2/2 14/2/2 18/2/2
f 17/3/2 16/3/2 18/3/2
f 13/2/2 17/2/2 19/2/2
f 17/2/2 18/2/2 19/2/2
f 18/2/2 14/2/2 20/2/2
f 19/2/2 18/2/2 20/2/2
f 23/2/3 22/2/3 21/2/3
f 24/2/3 22/2/3 23/2/3
f 27/2/3 26/2/3 25/2/3
f 28/2/3 26/2/3 27/2/3
f 29/2/4 30/2/4 31/2/4
f 31/2/4 30/2/4 32/2/4
f 33/2/4 34/2/4 35/2/4
f 35/2/4 34/2/4 36/2/4
f 40/2/5 38/2/5 37/2/5
f 41/2/5 40/2/5 39/2/5
f 42/2/5 38/2/5 40/2/5
f 42/2/5 40/2/5 41/2/5
f 43/2/5 41/2/5 39/2/5
f 43/1/5 42/1/5 41/1/5
f 44/1/5 42/1/5 43/1/5
f 45/2/5 43/2/5 39/2/5
f 45/2/5 44/2/5 43/2/5
f 46/1/5 42/1/5 44/1/5
f 46/2/5 44/2/5 45/2/5
f 47/2/5 38/2/5 42/2/5
f 47/1/5 42/1/5 46/1/5
f 48/2/5 47/2/5 46/2/5
f 49/2/5 38/2/5 47/2/5
f 49/2/5 47/2/5 48/2/5
f 50/2/6 51/2/6 53/2/6
f 52/2/6 53/2/6 54/2/6
f 53/2/6 51/2/6 55/2/6
f 54/2/6 53/2/6 55/2/6
f 55/2/6 51/2/6 56/2/6
f 56/2/6 51/2/6 57/2/6
