# MagicaVoxel @ Ephtracy

# group
o 

# material
mtllib Computer_Monitor.mtl
usemtl palette

# normals
vn -1 0 0
vn 1 0 0
vn 0 0 1
vn 0 0 -1
vn 0 -1 0
vn 0 1 0

# texcoords
vt 0.306641 0.5
vt 0.970703 0.5
vt 0.974609 0.5
vt 0.978516 0.5

# verts
v -6.1 0 2.5
v -6.1 0 -1.5
v -6.1 0.2 2.5
v -6.1 0.2 -1.5
v -5.5 0.2 0.9
v -5.5 0.2 0.3
v -5.5 1 4.3
v -5.5 1 0.9
v -5.5 1 0.3
v -5.5 1 -3.5
v -5.5 4.6 4.3
v -5.5 4.6 -3.5
v -5.3 1 4.5
v -5.3 1 4.3
v -5.3 1 -3.5
v -5.3 1 -3.7
v -5.3 4.6 4.5
v -5.3 4.6 4.3
v -5.3 4.6 -3.5
v -5.3 4.6 -3.7
v -5.3 0.2 0.9
v -5.3 0.2 0.3
v -5.3 1 0.9
v -5.3 1 0.3
v -5.1 1 4.5
v -5.1 1 -3.7
v -5.1 1.1 4.4
v -5.1 1.1 -3.6
v -5.1 4.5 4.4
v -5.1 4.5 -3.6
v -5.1 4.6 4.5
v -5.1 4.6 -3.7
v -4.5 0 2.5
v -4.5 0 -1.5
v -4.5 0.2 2.5
v -4.5 0.2 -1.5
v -5.3 1 4.5
v -5.3 4.6 4.5
v -5.1 1 4.5
v -5.1 4.6 4.5
v -5.5 1 4.3
v -5.5 4.6 4.3
v -5.3 1 4.3
v -5.3 4.6 4.3
v -6.1 0 2.5
v -6.1 0.2 2.5
v -4.5 0 2.5
v -4.5 0.2 2.5
v -5.5 0.2 0.9
v -5.5 1 0.9
v -5.4 1 0.9
v -5.3 0.2 0.9
v -5.3 1 0.9
v -5.5 0.2 0.3
v -5.5 1 0.3
v -5.4 1 0.3
v -5.3 0.2 0.3
v -5.3 1 0.3
v -6.1 0 -1.5
v -6.1 0.2 -1.5
v -4.5 0 -1.5
v -4.5 0.2 -1.5
v -5.5 1 -3.5
v -5.5 4.6 -3.5
v -5.3 1 -3.5
v -5.3 4.6 -3.5
v -5.3 1 -3.7
v -5.3 4.6 -3.7
v -5.1 1 -3.7
v -5.1 4.6 -3.7
v -6.1 0 2.5
v -4.5 0 2.5
v -6 0 2.4
v -4.6 0 2.4
v -6 0 -1.4
v -4.6 0 -1.4
v -6.1 0 -1.5
v -4.5 0 -1.5
v -5.3 1 4.5
v -5.1 1 4.5
v -5.5 1 4.3
v -5.3 1 4.3
v -5.4 1 4.2
v -5.2 1 4.2
v -5.5 1 0.9
v -5.4 1 0.9
v -5.3 1 0.9
v -5.5 1 0.3
v -5.4 1 0.3
v -5.3 1 0.3
v -5.4 1 -3.4
v -5.3 1 -3.4
v -5.5 1 -3.5
v -5.3 1 -3.5
v -5.2 1 -3.5
v -5.3 1 -3.7
v -5.1 1 -3.7
v -6.1 0.2 2.5
v -4.5 0.2 2.5
v -5.5 0.2 0.9
v -5.3 0.2 0.9
v -5.5 0.2 0.3
v -5.3 0.2 0.3
v -6.1 0.2 -1.5
v -4.5 0.2 -1.5
v -5.3 4.6 4.5
v -5.1 4.6 4.5
v -5.5 4.6 4.3
v -5.3 4.6 4.3
v -5.5 4.6 -3.5
v -5.3 4.6 -3.5
v -5.3 4.6 -3.7
v -5.1 4.6 -3.7

# faces
f 3/2/1 2/2/1 1/2/1
f 4/2/1 2/2/1 3/2/1
f 8/3/1 6/3/1 5/3/1
f 9/3/1 6/3/1 8/3/1
f 11/2/1 8/2/1 7/2/1
f 11/2/1 10/2/1 9/2/1
f 11/2/1 9/2/1 8/2/1
f 12/2/1 10/2/1 11/2/1
f 17/2/1 14/2/1 13/2/1
f 18/2/1 14/2/1 17/2/1
f 19/2/1 16/2/1 15/2/1
f 20/2/1 16/2/1 19/2/1
f 21/3/2 22/3/2 23/3/2
f 23/3/2 22/3/2 24/3/2
f 25/2/2 26/2/2 27/2/2
f 27/2/2 26/2/2 28/2/2
f 25/2/2 27/2/2 29/2/2
f 27/4/2 28/4/2 29/4/2
f 28/2/2 26/2/2 30/2/2
f 29/4/2 28/4/2 30/4/2
f 25/2/2 29/2/2 31/2/2
f 29/2/2 30/2/2 31/2/2
f 30/2/2 26/2/2 32/2/2
f 31/2/2 30/2/2 32/2/2
f 33/2/2 34/2/2 35/2/2
f 35/2/2 34/2/2 36/2/2
f 39/2/3 38/2/3 37/2/3
f 40/2/3 38/2/3 39/2/3
f 43/2/3 42/2/3 41/2/3
f 44/2/3 42/2/3 43/2/3
f 47/2/3 46/2/3 45/2/3
f 48/2/3 46/2/3 47/2/3
f 51/3/3 50/3/3 49/3/3
f 52/3/3 51/3/3 49/3/3
f 53/3/3 51/3/3 52/3/3
f 54/3/4 55/3/4 56/3/4
f 54/3/4 56/3/4 57/3/4
f 57/3/4 56/3/4 58/3/4
f 59/2/4 60/2/4 61/2/4
f 61/2/4 60/2/4 62/2/4
f 63/2/4 64/2/4 65/2/4
f 65/2/4 64/2/4 66/2/4
f 67/2/4 68/2/4 69/2/4
f 69/2/4 68/2/4 70/2/4
f 73/2/5 72/2/5 71/2/5
f 74/2/5 72/2/5 73/2/5
f 75/2/5 73/2/5 71/2/5
f 75/1/5 74/1/5 73/1/5
f 76/2/5 72/2/5 74/2/5
f 76/1/5 74/1/5 75/1/5
f 77/2/5 75/2/5 71/2/5
f 77/2/5 76/2/5 75/2/5
f 78/2/5 72/2/5 76/2/5
f 78/2/5 76/2/5 77/2/5
f 82/2/5 80/2/5 79/2/5
f 83/2/5 82/2/5 81/2/5
f 84/2/5 80/2/5 82/2/5
f 84/2/5 82/2/5 83/2/5
f 85/2/5 83/2/5 81/2/5
f 86/1/5 84/1/5 83/1/5
f 86/2/5 83/2/5 85/2/5
f 87/1/5 84/1/5 86/1/5
f 90/1/5 84/1/5 87/1/5
f 91/2/5 89/2/5 88/2/5
f 91/1/5 90/1/5 89/1/5
f 92/1/5 84/1/5 90/1/5
f 92/1/5 90/1/5 91/1/5
f 93/2/5 91/2/5 88/2/5
f 93/2/5 92/2/5 91/2/5
f 94/1/5 84/1/5 92/1/5
f 94/2/5 92/2/5 93/2/5
f 95/2/5 80/2/5 84/2/5
f 95/1/5 84/1/5 94/1/5
f 96/2/5 95/2/5 94/2/5
f 97/2/5 80/2/5 95/2/5
f 97/2/5 95/2/5 96/2/5
f 98/2/6 99/2/6 100/2/6
f 100/2/6 99/2/6 101/2/6
f 98/2/6 100/2/6 102/2/6
f 101/2/6 99/2/6 103/2/6
f 98/2/6 102/2/6 104/2/6
f 102/2/6 103/2/6 104/2/6
f 103/2/6 99/2/6 105/2/6
f 104/2/6 103/2/6 105/2/6
f 106/2/6 107/2/6 109/2/6
f 108/2/6 109/2/6 110/2/6
f 109/2/6 107/2/6 111/2/6
f 110/2/6 109/2/6 111/2/6
f 111/2/6 107/2/6 112/2/6
f 112/2/6 107/2/6 113/2/6
