# MagicaVoxel @ Ephtracy

# group
o 

# material
mtllib Alley door.mtl
usemtl palette

# normals
vn -1 0 0
vn 1 0 0
vn 0 0 1
vn 0 0 -1
vn 0 -1 0
vn 0 1 0

# texcoords
vt 0.306641 0.5
vt 0.970703 0.5
vt 0.974609 0.5

# verts
v -1.2 0 -6
v -1.2 0 -6.3
v -1.2 4.9 -6
v -1.2 4.9 -6.3
v 0 0.1 -6
v 0 0.1 -6.1
v 0 2.6 -5.9
v 0 2.6 -6
v 0 2.6 -6.1
v 0 2.9 -5.9
v 0 2.9 -6
v 0 2.9 -6.1
v 0 4.8 -6
v 0 4.8 -6.1
v 0.5 0.1 -6
v 0.5 0.1 -6.1
v 0.5 2.6 -6
v 0.5 2.6 -6.1
v 0.5 2.9 -6
v 0.5 2.9 -6.1
v 0.5 4.8 -6
v 0.5 4.8 -6.1
v 1.9 0.1 -6
v 1.9 0.1 -6.1
v 1.9 4.8 -6
v 1.9 4.8 -6.1
v -1.1 0.1 -6
v -1.1 0.1 -6.1
v -1.1 4.8 -6
v -1.1 4.8 -6.1
v 0.0999999 0.1 -6
v 0.0999999 0.1 -6.1
v 0.0999999 2.6 -6
v 0.0999999 2.6 -6.1
v 0.0999999 2.9 -6
v 0.0999999 2.9 -6.1
v 0.0999999 4.8 -6
v 0.0999999 4.8 -6.1
v 0.6 0.1 -6
v 0.6 0.1 -6.1
v 0.6 2.6 -5.9
v 0.6 2.6 -6
v 0.6 2.6 -6.1
v 0.6 2.9 -5.9
v 0.6 2.9 -6
v 0.6 2.9 -6.1
v 0.6 4.8 -6
v 0.6 4.8 -6.1
v 2 0 -6
v 2 0 -6.3
v 2 4.9 -6
v 2 4.9 -6.3
v 0 2.6 -5.9
v 0 2.9 -5.9
v 0.6 2.6 -5.9
v 0.6 2.9 -5.9
v -1.2 0 -6
v -1.2 4.9 -6
v -1.1 0.1 -6
v -1.1 4.8 -6
v 0 0.1 -6
v 0 2.6 -6
v 0 2.9 -6
v 0 4.8 -6
v 0.0999999 0.1 -6
v 0.0999999 2.6 -6
v 0.0999999 2.9 -6
v 0.0999999 4.8 -6
v 0.5 0.1 -6
v 0.5 2.6 -6
v 0.5 2.9 -6
v 0.5 4.8 -6
v 0.6 0.1 -6
v 0.6 2.6 -6
v 0.6 2.9 -6
v 0.6 4.8 -6
v 1.9 0.1 -6
v 1.9 4.8 -6
v 2 0 -6
v 2 4.9 -6
v -1.1 0.1 -6.1
v -1.1 4.8 -6.1
v 0 0.1 -6.1
v 0 2.6 -6.1
v 0 2.9 -6.1
v 0 4.8 -6.1
v 0.0999999 0.1 -6.1
v 0.0999999 2.6 -6.1
v 0.0999999 2.9 -6.1
v 0.0999999 4.8 -6.1
v 0.5 0.1 -6.1
v 0.5 2.6 -6.1
v 0.5 2.9 -6.1
v 0.5 4.8 -6.1
v 0.6 0.1 -6.1
v 0.6 2.6 -6.1
v 0.6 2.9 -6.1
v 0.6 4.8 -6.1
v 1.9 0.1 -6.1
v 1.9 4.8 -6.1
v -1.2 0 -6.3
v -1.2 4.9 -6.3
v -1.1 0.1 -6.3
v -1.1 4.8 -6.3
v 1.9 0.1 -6.3
v 1.9 4.8 -6.3
v 2 0 -6.3
v 2 4.9 -6.3
v -1.2 0 -6
v 2 0 -6
v -1.2 0 -6.3
v 2 0 -6.3
v 0 2.6 -5.9
v 0.6 2.6 -5.9
v 0 2.6 -6
v 0.0999999 2.6 -6
v 0.5 2.6 -6
v 0.6 2.6 -6
v 0.0999999 2.6 -6.1
v 0.5 2.6 -6.1
v -1.1 4.8 -6
v 0 4.8 -6
v 0.0999999 4.8 -6
v 0.5 4.8 -6
v 0.6 4.8 -6
v 1.9 4.8 -6
v -1.1 4.8 -6.1
v 0 4.8 -6.1
v 0.0999999 4.8 -6.1
v 0.5 4.8 -6.1
v 0.6 4.8 -6.1
v 1.9 4.8 -6.1
v -1.1 0.1 -6
v 0 0.1 -6
v 0.0999999 0.1 -6
v 0.5 0.1 -6
v 0.6 0.1 -6
v 1.9 0.1 -6
v -1.1 0.1 -6.1
v 0 0.1 -6.1
v 0.0999999 0.1 -6.1
v 0.5 0.1 -6.1
v 0.6 0.1 -6.1
v 1.9 0.1 -6.1
v 0 2.9 -5.9
v 0.6 2.9 -5.9
v 0 2.9 -6
v 0.0999999 2.9 -6
v 0.5 2.9 -6
v 0.6 2.9 -6
v 0.0999999 2.9 -6.1
v 0.5 2.9 -6.1
v -1.2 4.9 -6
v 2 4.9 -6
v -1.2 4.9 -6.3
v 2 4.9 -6.3

# faces
f 3/2/1 2/2/1 1/2/1
f 4/2/1 2/2/1 3/2/1
f 8/2/1 6/2/1 5/2/1
f 9/2/1 6/2/1 8/2/1
f 10/3/1 8/3/1 7/3/1
f 11/1/1 9/1/1 8/1/1
f 11/3/1 8/3/1 10/3/1
f 12/1/1 9/1/1 11/1/1
f 13/2/1 12/2/1 11/2/1
f 14/2/1 12/2/1 13/2/1
f 17/2/1 16/2/1 15/2/1
f 18/2/1 16/2/1 17/2/1
f 21/2/1 20/2/1 19/2/1
f 22/2/1 20/2/1 21/2/1
f 25/2/1 24/2/1 23/2/1
f 26/2/1 24/2/1 25/2/1
f 27/2/2 28/2/2 29/2/2
f 29/2/2 28/2/2 30/2/2
f 31/2/2 32/2/2 33/2/2
f 33/2/2 32/2/2 34/2/2
f 35/2/2 36/2/2 37/2/2
f 37/2/2 36/2/2 38/2/2
f 39/2/2 40/2/2 42/2/2
f 42/2/2 40/2/2 43/2/2
f 41/3/2 42/3/2 44/3/2
f 42/1/2 43/1/2 45/1/2
f 44/3/2 42/3/2 45/3/2
f 45/1/2 43/1/2 46/1/2
f 45/2/2 46/2/2 47/2/2
f 47/2/2 46/2/2 48/2/2
f 49/2/2 50/2/2 51/2/2
f 51/2/2 50/2/2 52/2/2
f 55/3/3 54/3/3 53/3/3
f 56/3/3 54/3/3 55/3/3
f 59/2/3 58/2/3 57/2/3
f 60/2/3 58/2/3 59/2/3
f 61/2/3 59/2/3 57/2/3
f 64/2/3 58/2/3 60/2/3
f 65/2/3 62/2/3 61/2/3
f 65/2/3 61/2/3 57/2/3
f 66/2/3 62/2/3 65/2/3
f 67/2/3 64/2/3 63/2/3
f 68/2/3 58/2/3 64/2/3
f 68/2/3 64/2/3 67/2/3
f 69/2/3 65/2/3 57/2/3
f 72/2/3 58/2/3 68/2/3
f 73/2/3 70/2/3 69/2/3
f 73/2/3 69/2/3 57/2/3
f 74/2/3 70/2/3 73/2/3
f 75/2/3 72/2/3 71/2/3
f 76/2/3 58/2/3 72/2/3
f 76/2/3 72/2/3 75/2/3
f 77/2/3 73/2/3 57/2/3
f 78/2/3 58/2/3 76/2/3
f 79/2/3 77/2/3 57/2/3
f 79/2/3 78/2/3 77/2/3
f 80/2/3 58/2/3 78/2/3
f 80/2/3 78/2/3 79/2/3
f 83/1/3 82/1/3 81/1/3
f 84/1/3 82/1/3 83/1/3
f 85/1/3 82/1/3 84/1/3
f 86/1/3 82/1/3 85/1/3
f 91/1/3 88/1/3 87/1/3
f 92/1/3 88/1/3 91/1/3
f 93/1/3 90/1/3 89/1/3
f 94/1/3 90/1/3 93/1/3
f 99/1/3 96/1/3 95/1/3
f 99/1/3 98/1/3 97/1/3
f 99/1/3 97/1/3 96/1/3
f 100/1/3 98/1/3 99/1/3
f 101/2/4 102/2/4 103/2/4
f 103/2/4 102/2/4 104/2/4
f 101/2/4 103/2/4 105/2/4
f 103/1/4 104/1/4 105/1/4
f 104/2/4 102/2/4 106/2/4
f 105/1/4 104/1/4 106/1/4
f 101/2/4 105/2/4 107/2/4
f 105/2/4 106/2/4 107/2/4
f 106/2/4 102/2/4 108/2/4
f 107/2/4 106/2/4 108/2/4
f 111/2/5 110/2/5 109/2/5
f 112/2/5 110/2/5 111/2/5
f 115/3/5 114/3/5 113/3/5
f 116/3/5 114/3/5 115/3/5
f 117/3/5 114/3/5 116/3/5
f 118/3/5 114/3/5 117/3/5
f 119/3/5 117/3/5 116/3/5
f 120/3/5 117/3/5 119/3/5
f 127/2/5 122/2/5 121/2/5
f 128/2/5 122/2/5 127/2/5
f 129/2/5 124/2/5 123/2/5
f 130/2/5 124/2/5 129/2/5
f 131/2/5 126/2/5 125/2/5
f 132/2/5 126/2/5 131/2/5
f 133/2/6 134/2/6 139/2/6
f 139/2/6 134/2/6 140/2/6
f 135/2/6 136/2/6 141/2/6
f 141/2/6 136/2/6 142/2/6
f 137/2/6 138/2/6 143/2/6
f 143/2/6 138/2/6 144/2/6
f 145/3/6 146/3/6 147/3/6
f 147/3/6 146/3/6 148/3/6
f 148/3/6 146/3/6 149/3/6
f 149/3/6 146/3/6 150/3/6
f 148/3/6 149/3/6 151/3/6
f 151/3/6 149/3/6 152/3/6
f 153/2/6 154/2/6 155/2/6
f 155/2/6 154/2/6 156/2/6
