# MagicaVoxel @ Ephtracy

# group
o 

# material
mtllib alley_assets-2.mtl
usemtl palette

# normals
vn -1 0 0
vn 1 0 0
vn 0 0 1
vn 0 0 -1
vn 0 -1 0
vn 0 1 0

# texcoords
vt 0.958984 0.5
vt 0.966797 0.5
vt 0.974609 0.5
vt 0.978516 0.5
vt 0.986328 0.5

# verts
v 13.9 0.7 -14.8
v 13.9 0.7 -19.6
v 13.9 0.9 -14.8
v 13.9 0.9 -19.6
v 13.9 1 -14.8
v 13.9 1 -19.6
v 19.2 0.7 -14.8
v 19.2 0.7 -19.6
v 19.2 0.9 -14.8
v 19.2 0.9 -19.6
v 19.2 1 -14.8
v 19.2 1 -19.6
v 13.9 0.7 -14.8
v 13.9 0.9 -14.8
v 13.9 1 -14.8
v 16.7 0.9 -14.8
v 16.7 1 -14.8
v 16.8 0.9 -14.8
v 16.8 1 -14.8
v 19.2 0.7 -14.8
v 19.2 0.9 -14.8
v 19.2 1 -14.8
v 13.9 0.7 -19.6
v 13.9 0.9 -19.6
v 13.9 1 -19.6
v 19.2 0.7 -19.6
v 19.2 0.9 -19.6
v 19.2 1 -19.6
v 13.9 0.7 -14.8
v 19.2 0.7 -14.8
v 13.9 0.7 -19.6
v 19.2 0.7 -19.6
v 13.9 1 -14.8
v 16.7 1 -14.8
v 16.8 1 -14.8
v 19.2 1 -14.8
v 14 1 -14.9
v 15.3 1 -14.9
v 15.4 1 -14.9
v 16.6 1 -14.9
v 16.8 1 -14.9
v 17.9 1 -14.9
v 18 1 -14.9
v 19.1 1 -14.9
v 16.6 1 -15.1
v 16.7 1 -15.1
v 16.7 1 -15.2
v 16.8 1 -15.2
v 16.5 1 -15.5
v 16.6 1 -15.5
v 16.6 1 -15.6
v 16.7 1 -15.6
v 14 1 -15.8
v 15.3 1 -15.8
v 15.4 1 -15.8
v 16.4 1 -15.8
v 16.5 1 -15.8
v 16.6 1 -15.8
v 16.7 1 -15.8
v 17.9 1 -15.8
v 18 1 -15.8
v 19.1 1 -15.8
v 14 1 -15.9
v 15.3 1 -15.9
v 15.4 1 -15.9
v 16.4 1 -15.9
v 16.5 1 -15.9
v 16.7 1 -15.9
v 17.9 1 -15.9
v 18 1 -15.9
v 19.1 1 -15.9
v 16.3 1 -16
v 16.4 1 -16
v 16.5 1 -16
v 16.6 1 -16
v 16.7 1 -16
v 16.8 1 -16
v 16.4 1 -16.1
v 16.5 1 -16.1
v 16.7 1 -16.1
v 16.8 1 -16.1
v 16.9 1 -16.1
v 16.2 1 -16.2
v 16.3 1 -16.2
v 16.3 1 -16.3
v 16.4 1 -16.3
v 16.8 1 -16.3
v 16.9 1 -16.3
v 17 1 -16.3
v 16.1 1 -16.4
v 16.2 1 -16.4
v 16.2 1 -16.5
v 16.3 1 -16.5
v 16 1 -16.7
v 16.1 1 -16.7
v 16.9 1 -16.7
v 17 1 -16.7
v 17.1 1 -16.7
v 16.1 1 -16.8
v 16.2 1 -16.8
v 14 1 -17
v 15.3 1 -17
v 15.4 1 -17
v 16 1 -17
v 16.1 1 -17
v 16.6 1 -17
v 16.7 1 -17
v 17 1 -17
v 17.1 1 -17
v 17.2 1 -17
v 17.9 1 -17
v 18 1 -17
v 19.1 1 -17
v 14 1 -17.1
v 15.3 1 -17.1
v 15.4 1 -17.1
v 16 1 -17.1
v 16.1 1 -17.1
v 16.6 1 -17.1
v 16.7 1 -17.1
v 17 1 -17.1
v 17.1 1 -17.1
v 17.2 1 -17.1
v 17.9 1 -17.1
v 18 1 -17.1
v 19.1 1 -17.1
v 15.9 1 -17.2
v 16 1 -17.2
v 16.1 1 -17.2
v 17.2 1 -17.2
v 17.3 1 -17.2
v 17.1 1 -17.3
v 17.2 1 -17.3
v 17.3 1 -17.4
v 17.4 1 -17.4
v 17.2 1 -17.5
v 17.3 1 -17.5
v 17.3 1 -17.6
v 17.4 1 -17.6
v 17.5 1 -17.6
v 16 1 -17.7
v 16.1 1 -17.7
v 17.4 1 -17.7
v 17.5 1 -17.7
v 17.6 1 -17.7
v 15.9 1 -17.8
v 16.1 1 -17.8
v 17.5 1 -17.8
v 17.6 1 -17.8
v 17.7 1 -17.8
v 17.6 1 -17.9
v 17.7 1 -17.9
v 17.8 1 -17.9
v 17.8 1 -18
v 17.9 1 -18
v 17.7 1 -18.1
v 17.9 1 -18.1
v 18 1 -18.1
v 18.1 1 -18.1
v 14 1 -18.2
v 15.3 1 -18.2
v 15.4 1 -18.2
v 16.6 1 -18.2
v 16.7 1 -18.2
v 17.9 1 -18.2
v 18 1 -18.2
v 18.1 1 -18.2
v 18.2 1 -18.2
v 19.1 1 -18.2
v 14 1 -18.3
v 15.3 1 -18.3
v 15.4 1 -18.3
v 16.6 1 -18.3
v 16.7 1 -18.3
v 17.9 1 -18.3
v 18 1 -18.3
v 18.2 1 -18.3
v 19.1 1 -18.3
v 18.4 1 -18.4
v 18.5 1 -18.4
v 18.4 1 -18.5
v 18.5 1 -18.5
v 17.8 1 -18.9
v 17.9 1 -18.9
v 17.8 1 -19
v 17.9 1 -19
v 17.8 1 -19.4
v 17.9 1 -19.4
v 14 1 -19.5
v 15.3 1 -19.5
v 15.4 1 -19.5
v 16.6 1 -19.5
v 16.7 1 -19.5
v 17.8 1 -19.5
v 17.9 1 -19.5
v 18 1 -19.5
v 19.1 1 -19.5
v 13.9 1 -19.6
v 19.2 1 -19.6

# faces
f 3/1/1 2/1/1 1/1/1
f 4/1/1 2/1/1 3/1/1
f 5/3/1 4/3/1 3/3/1
f 6/3/1 4/3/1 5/3/1
f 7/1/2 8/1/2 9/1/2
f 9/1/2 8/1/2 10/1/2
f 9/3/2 10/3/2 11/3/2
f 11/3/2 10/3/2 12/3/2
f 16/1/3 14/1/3 13/1/3
f 16/3/3 15/3/3 14/3/3
f 17/3/3 15/3/3 16/3/3
f 18/1/3 16/1/3 13/1/3
f 18/4/3 17/4/3 16/4/3
f 19/4/3 17/4/3 18/4/3
f 20/1/3 18/1/3 13/1/3
f 21/3/3 19/3/3 18/3/3
f 21/1/3 18/1/3 20/1/3
f 22/3/3 19/3/3 21/3/3
f 23/1/4 24/1/4 26/1/4
f 24/3/4 25/3/4 27/3/4
f 26/1/4 24/1/4 27/1/4
f 27/3/4 25/3/4 28/3/4
f 31/1/5 30/1/5 29/1/5
f 32/1/5 30/1/5 31/1/5
f 33/3/6 34/3/6 37/3/6
f 37/3/6 34/3/6 38/3/6
f 38/3/6 34/3/6 39/3/6
f 39/3/6 34/3/6 40/3/6
f 35/3/6 36/3/6 41/3/6
f 34/4/6 35/4/6 41/4/6
f 41/3/6 36/3/6 42/3/6
f 42/3/6 36/3/6 43/3/6
f 43/3/6 36/3/6 44/3/6
f 40/3/6 34/3/6 45/3/6
f 39/2/6 40/2/6 45/2/6
f 34/4/6 41/4/6 46/4/6
f 45/3/6 34/3/6 46/3/6
f 45/4/6 46/4/6 47/4/6
f 46/4/6 41/4/6 47/4/6
f 41/1/6 42/1/6 48/1/6
f 47/4/6 41/4/6 48/4/6
f 39/2/6 45/2/6 49/2/6
f 45/4/6 47/4/6 50/4/6
f 49/2/6 45/2/6 50/2/6
f 49/4/6 50/4/6 51/4/6
f 50/4/6 47/4/6 51/4/6
f 47/1/6 48/1/6 52/1/6
f 51/4/6 47/4/6 52/4/6
f 33/3/6 37/3/6 53/3/6
f 37/2/6 38/2/6 53/2/6
f 38/3/6 39/3/6 54/3/6
f 53/2/6 38/2/6 54/2/6
f 39/2/6 49/2/6 55/2/6
f 54/3/6 39/3/6 55/3/6
f 55/2/6 49/2/6 56/2/6
f 49/4/6 51/4/6 57/4/6
f 56/2/6 49/2/6 57/2/6
f 51/3/6 52/3/6 58/3/6
f 57/4/6 51/4/6 58/4/6
f 52/1/6 48/1/6 59/1/6
f 58/3/6 52/3/6 59/3/6
f 48/1/6 42/1/6 60/1/6
f 59/1/6 48/1/6 60/1/6
f 42/3/6 43/3/6 60/3/6
f 43/2/6 44/2/6 61/2/6
f 60/3/6 43/3/6 61/3/6
f 44/3/6 36/3/6 62/3/6
f 61/2/6 44/2/6 62/2/6
f 33/3/6 53/3/6 63/3/6
f 53/3/6 54/3/6 63/3/6
f 54/3/6 55/3/6 63/3/6
f 55/3/6 56/3/6 63/3/6
f 63/3/6 56/3/6 64/3/6
f 64/3/6 56/3/6 65/3/6
f 56/4/6 57/4/6 66/4/6
f 65/3/6 56/3/6 66/3/6
f 60/3/6 61/3/6 67/3/6
f 66/4/6 57/4/6 67/4/6
f 59/3/6 60/3/6 67/3/6
f 57/3/6 58/3/6 67/3/6
f 58/3/6 59/3/6 67/3/6
f 61/3/6 62/3/6 67/3/6
f 67/3/6 62/3/6 68/3/6
f 68/3/6 62/3/6 69/3/6
f 69/3/6 62/3/6 70/3/6
f 62/3/6 36/3/6 71/3/6
f 70/3/6 62/3/6 71/3/6
f 65/1/6 66/1/6 72/1/6
f 66/4/6 67/4/6 73/4/6
f 72/1/6 66/1/6 73/1/6
f 67/4/6 68/4/6 73/4/6
f 73/4/6 68/4/6 74/4/6
f 74/4/6 68/4/6 75/4/6
f 68/2/6 69/2/6 76/2/6
f 75/4/6 68/4/6 76/4/6
f 76/2/6 69/2/6 77/2/6
f 72/4/6 73/4/6 78/4/6
f 73/4/6 74/4/6 78/4/6
f 74/1/6 75/1/6 79/1/6
f 78/4/6 74/4/6 79/4/6
f 76/4/6 77/4/6 80/4/6
f 75/3/6 76/3/6 80/3/6
f 77/2/6 69/2/6 81/2/6
f 80/4/6 77/4/6 81/4/6
f 81/2/6 69/2/6 82/2/6
f 65/1/6 72/1/6 83/1/6
f 72/4/6 78/4/6 84/4/6
f 83/1/6 72/1/6 84/1/6
f 83/4/6 84/4/6 85/4/6
f 84/4/6 78/4/6 85/4/6
f 78/1/6 79/1/6 86/1/6
f 85/4/6 78/4/6 86/4/6
f 80/2/6 81/2/6 87/2/6
f 81/4/6 82/4/6 87/4/6
f 82/2/6 69/2/6 88/2/6
f 87/4/6 82/4/6 88/4/6
f 88/2/6 69/2/6 89/2/6
f 65/1/6 83/1/6 90/1/6
f 83/4/6 85/4/6 91/4/6
f 90/1/6 83/1/6 91/1/6
f 90/4/6 91/4/6 92/4/6
f 91/4/6 85/4/6 92/4/6
f 85/1/6 86/1/6 93/1/6
f 92/4/6 85/4/6 93/4/6
f 65/1/6 90/1/6 94/1/6
f 90/4/6 92/4/6 95/4/6
f 94/1/6 90/1/6 95/1/6
f 87/2/6 88/2/6 96/2/6
f 88/4/6 89/4/6 96/4/6
f 89/2/6 69/2/6 97/2/6
f 96/4/6 89/4/6 97/4/6
f 97/2/6 69/2/6 98/2/6
f 95/4/6 92/4/6 99/4/6
f 94/4/6 95/4/6 99/4/6
f 92/1/6 93/1/6 100/1/6
f 99/4/6 92/4/6 100/4/6
f 63/2/6 64/2/6 101/2/6
f 33/3/6 63/3/6 101/3/6
f 64/3/6 65/3/6 102/3/6
f 101/2/6 64/2/6 102/2/6
f 65/1/6 94/1/6 103/1/6
f 102/3/6 65/3/6 103/3/6
f 94/4/6 99/4/6 104/4/6
f 103/1/6 94/1/6 104/1/6
f 99/1/6 100/1/6 105/1/6
f 104/4/6 99/4/6 105/4/6
f 100/1/6 93/1/6 106/1/6
f 105/1/6 100/1/6 106/1/6
f 75/3/6 80/3/6 106/3/6
f 79/1/6 75/1/6 106/1/6
f 93/1/6 86/1/6 106/1/6
f 86/1/6 79/1/6 106/1/6
f 80/2/6 87/2/6 107/2/6
f 106/3/6 80/3/6 107/3/6
f 87/2/6 96/2/6 107/2/6
f 96/2/6 97/2/6 107/2/6
f 97/4/6 98/4/6 108/4/6
f 107/2/6 97/2/6 108/2/6
f 98/2/6 69/2/6 109/2/6
f 108/4/6 98/4/6 109/4/6
f 109/2/6 69/2/6 110/2/6
f 69/3/6 70/3/6 111/3/6
f 110/2/6 69/2/6 111/2/6
f 70/2/6 71/2/6 112/2/6
f 111/3/6 70/3/6 112/3/6
f 71/3/6 36/3/6 113/3/6
f 112/2/6 71/2/6 113/2/6
f 103/3/6 104/3/6 114/3/6
f 33/3/6 101/3/6 114/3/6
f 101/3/6 102/3/6 114/3/6
f 102/3/6 103/3/6 114/3/6
f 114/3/6 104/3/6 115/3/6
f 115/3/6 104/3/6 116/3/6
f 104/4/6 105/4/6 117/4/6
f 116/3/6 104/3/6 117/3/6
f 105/3/6 106/3/6 118/3/6
f 117/4/6 105/4/6 118/4/6
f 107/3/6 108/3/6 118/3/6
f 106/3/6 107/3/6 118/3/6
f 118/3/6 108/3/6 119/3/6
f 119/3/6 108/3/6 120/3/6
f 109/4/6 110/4/6 121/4/6
f 120/3/6 108/3/6 121/3/6
f 108/4/6 109/4/6 121/4/6
f 121/4/6 110/4/6 122/4/6
f 111/3/6 112/3/6 123/3/6
f 122/4/6 110/4/6 123/4/6
f 112/3/6 113/3/6 123/3/6
f 110/3/6 111/3/6 123/3/6
f 123/3/6 113/3/6 124/3/6
f 124/3/6 113/3/6 125/3/6
f 113/3/6 36/3/6 126/3/6
f 125/3/6 113/3/6 126/3/6
f 116/1/6 117/1/6 127/1/6
f 117/4/6 118/4/6 128/4/6
f 127/1/6 117/1/6 128/1/6
f 118/1/6 119/1/6 129/1/6
f 128/4/6 118/4/6 129/4/6
f 122/4/6 123/4/6 130/4/6
f 123/2/6 124/2/6 130/2/6
f 130/2/6 124/2/6 131/2/6
f 121/2/6 122/2/6 132/2/6
f 120/2/6 121/2/6 132/2/6
f 130/4/6 131/4/6 132/4/6
f 122/4/6 130/4/6 132/4/6
f 132/4/6 131/4/6 133/4/6
f 131/2/6 124/2/6 134/2/6
f 133/4/6 131/4/6 134/4/6
f 134/2/6 124/2/6 135/2/6
f 132/2/6 133/2/6 136/2/6
f 133/4/6 134/4/6 136/4/6
f 134/4/6 135/4/6 136/4/6
f 136/4/6 135/4/6 137/4/6
f 136/2/6 137/2/6 138/2/6
f 137/4/6 135/4/6 138/4/6
f 135/2/6 124/2/6 139/2/6
f 138/4/6 135/4/6 139/4/6
f 139/2/6 124/2/6 140/2/6
f 127/4/6 128/4/6 141/4/6
f 128/1/6 129/1/6 141/1/6
f 129/1/6 119/1/6 142/1/6
f 141/1/6 129/1/6 142/1/6
f 139/4/6 140/4/6 143/4/6
f 138/2/6 139/2/6 143/2/6
f 140/2/6 124/2/6 144/2/6
f 143/4/6 140/4/6 144/4/6
f 144/2/6 124/2/6 145/2/6
f 116/1/6 127/1/6 146/1/6
f 127/4/6 141/4/6 146/4/6
f 141/4/6 142/4/6 146/4/6
f 142/1/6 119/1/6 147/1/6
f 146/4/6 142/4/6 147/4/6
f 144/4/6 145/4/6 148/4/6
f 143/2/6 144/2/6 148/2/6
f 145/2/6 124/2/6 149/2/6
f 148/4/6 145/4/6 149/4/6
f 149/2/6 124/2/6 150/2/6
f 148/2/6 149/2/6 151/2/6
f 149/4/6 150/4/6 151/4/6
f 150/2/6 124/2/6 152/2/6
f 151/4/6 150/4/6 152/4/6
f 152/2/6 124/2/6 153/2/6
f 152/4/6 153/4/6 154/4/6
f 153/2/6 124/2/6 154/2/6
f 124/3/6 125/3/6 155/3/6
f 154/2/6 124/2/6 155/2/6
f 152/4/6 154/4/6 156/4/6
f 151/2/6 152/2/6 156/2/6
f 154/4/6 155/4/6 156/4/6
f 155/3/6 125/3/6 157/3/6
f 156/4/6 155/4/6 157/4/6
f 125/2/6 126/2/6 158/2/6
f 157/3/6 125/3/6 158/3/6
f 158/2/6 126/2/6 159/2/6
f 114/2/6 115/2/6 160/2/6
f 33/3/6 114/3/6 160/3/6
f 115/3/6 116/3/6 161/3/6
f 160/2/6 115/2/6 161/2/6
f 116/1/6 146/1/6 162/1/6
f 161/3/6 116/3/6 162/3/6
f 146/1/6 147/1/6 162/1/6
f 119/3/6 120/3/6 163/3/6
f 162/1/6 147/1/6 163/1/6
f 147/1/6 119/1/6 163/1/6
f 136/2/6 138/2/6 164/2/6
f 163/3/6 120/3/6 164/3/6
f 151/2/6 156/2/6 164/2/6
f 156/2/6 157/2/6 164/2/6
f 132/2/6 136/2/6 164/2/6
f 120/2/6 132/2/6 164/2/6
f 143/2/6 148/2/6 164/2/6
f 148/2/6 151/2/6 164/2/6
f 138/2/6 143/2/6 164/2/6
f 157/4/6 158/4/6 165/4/6
f 164/2/6 157/2/6 165/2/6
f 158/4/6 159/4/6 165/4/6
f 165/4/6 159/4/6 166/4/6
f 159/2/6 126/2/6 167/2/6
f 166/4/6 159/4/6 167/4/6
f 167/2/6 126/2/6 168/2/6
f 126/3/6 36/3/6 169/3/6
f 168/2/6 126/2/6 169/2/6
f 162/3/6 163/3/6 170/3/6
f 33/3/6 160/3/6 170/3/6
f 163/3/6 164/3/6 170/3/6
f 160/3/6 161/3/6 170/3/6
f 164/3/6 165/3/6 170/3/6
f 165/3/6 166/3/6 170/3/6
f 161/3/6 162/3/6 170/3/6
f 170/3/6 166/3/6 171/3/6
f 171/3/6 166/3/6 172/3/6
f 172/3/6 166/3/6 173/3/6
f 173/3/6 166/3/6 174/3/6
f 174/3/6 166/3/6 175/3/6
f 166/4/6 167/4/6 176/4/6
f 175/3/6 166/3/6 176/3/6
f 167/4/6 168/4/6 176/4/6
f 168/3/6 169/3/6 177/3/6
f 176/4/6 168/4/6 177/4/6
f 169/3/6 36/3/6 178/3/6
f 177/3/6 169/3/6 178/3/6
f 176/2/6 177/2/6 179/2/6
f 177/2/6 178/2/6 179/2/6
f 179/2/6 178/2/6 180/2/6
f 176/2/6 179/2/6 181/2/6
f 179/4/6 180/4/6 181/4/6
f 180/2/6 178/2/6 182/2/6
f 181/4/6 180/4/6 182/4/6
f 174/1/6 175/1/6 183/1/6
f 175/3/6 176/3/6 184/3/6
f 183/1/6 175/1/6 184/1/6
f 174/1/6 183/1/6 185/1/6
f 183/4/6 184/4/6 185/4/6
f 184/3/6 176/3/6 186/3/6
f 185/4/6 184/4/6 186/4/6
f 174/1/6 185/1/6 187/1/6
f 185/1/6 186/1/6 187/1/6
f 186/3/6 176/3/6 188/3/6
f 187/1/6 186/1/6 188/1/6
f 33/3/6 170/3/6 189/3/6
f 170/2/6 171/2/6 189/2/6
f 171/3/6 172/3/6 190/3/6
f 189/2/6 171/2/6 190/2/6
f 172/2/6 173/2/6 191/2/6
f 190/3/6 172/3/6 191/3/6
f 173/3/6 174/3/6 192/3/6
f 191/2/6 173/2/6 192/2/6
f 174/1/6 187/1/6 193/1/6
f 192/3/6 174/3/6 193/3/6
f 187/4/6 188/4/6 194/4/6
f 193/1/6 187/1/6 194/1/6
f 188/3/6 176/3/6 195/3/6
f 194/4/6 188/4/6 195/4/6
f 176/2/6 181/2/6 196/2/6
f 195/3/6 176/3/6 196/3/6
f 181/2/6 182/2/6 196/2/6
f 178/3/6 36/3/6 197/3/6
f 196/2/6 182/2/6 197/2/6
f 182/2/6 178/2/6 197/2/6
f 195/3/6 196/3/6 198/3/6
f 191/3/6 192/3/6 198/3/6
f 196/3/6 197/3/6 198/3/6
f 189/3/6 190/3/6 198/3/6
f 33/3/6 189/3/6 198/3/6
f 192/3/6 193/3/6 198/3/6
f 193/3/6 194/3/6 198/3/6
f 190/3/6 191/3/6 198/3/6
f 194/3/6 195/3/6 198/3/6
f 197/3/6 36/3/6 199/3/6
f 198/3/6 197/3/6 199/3/6
