# MagicaVoxel @ Ephtracy

# group
o 

# material
mtllib Roof_walls-0.mtl
usemtl palette

# normals
vn -1 0 0
vn 1 0 0
vn 0 0 1
vn 0 0 -1
vn 0 -1 0
vn 0 1 0

# texcoords
vt 0.306641 0.5
vt 0.947266 0.5
vt 0.951172 0.5

# verts
v -0.1 0 -8
v -0.1 0 -9.9
v -0.1 0.2 -9.8
v -0.1 0.2 -9.9
v -0.1 0.7 -9.8
v -0.1 0.7 -9.9
v -0.1 0.8 -9.8
v -0.1 0.8 -9.9
v -0.1 1.3 -9.8
v -0.1 1.3 -9.9
v -0.1 1.4 -9.8
v -0.1 1.4 -9.9
v -0.1 1.9 -9.8
v -0.1 1.9 -9.9
v -0.1 2 -9.8
v -0.1 2 -9.9
v -0.1 2.5 -9.8
v -0.1 2.5 -9.9
v -0.1 2.6 -9.8
v -0.1 2.6 -9.9
v -0.1 3.1 -9.8
v -0.1 3.1 -9.9
v -0.1 3.2 -8
v -0.1 3.2 -9.9
v 1.8 0 -6.3
v 1.8 0 -8
v 1.8 3.2 -6.3
v 1.8 3.2 -8
v 3.7 0 -6.3
v 3.7 0 -6.4
v 3.7 0 -9.9
v 3.7 0.1 -6.4
v 3.7 0.1 -9.9
v 3.7 0.2 -6.3
v 3.7 0.2 -7
v 3.7 0.2 -7.1
v 3.7 0.2 -8.5
v 3.7 0.2 -8.6
v 3.7 0.2 -9.7
v 3.7 0.2 -9.8
v 3.7 0.2 -9.9
v 3.7 0.7 -6.3
v 3.7 0.7 -7
v 3.7 0.7 -7.1
v 3.7 0.7 -8.5
v 3.7 0.7 -8.6
v 3.7 0.7 -9.7
v 3.7 0.7 -9.8
v 3.7 0.7 -9.9
v 3.7 0.8 -6.3
v 3.7 0.8 -7.6
v 3.7 0.8 -7.7
v 3.7 0.8 -9.1
v 3.7 0.8 -9.2
v 3.7 0.8 -9.9
v 3.7 1.3 -6.3
v 3.7 1.3 -7.6
v 3.7 1.3 -7.7
v 3.7 1.3 -9.1
v 3.7 1.3 -9.2
v 3.7 1.3 -9.9
v 3.7 1.4 -6.3
v 3.7 1.4 -6.8
v 3.7 1.4 -6.9
v 3.7 1.4 -8.3
v 3.7 1.4 -8.4
v 3.7 1.4 -9.6
v 3.7 1.4 -9.7
v 3.7 1.4 -9.9
v 3.7 1.9 -6.3
v 3.7 1.9 -6.8
v 3.7 1.9 -6.9
v 3.7 1.9 -8.3
v 3.7 1.9 -8.4
v 3.7 1.9 -9.6
v 3.7 1.9 -9.7
v 3.7 1.9 -9.9
v 3.7 2 -6.3
v 3.7 2 -7.5
v 3.7 2 -7.6
v 3.7 2 -9
v 3.7 2 -9.1
v 3.7 2 -9.9
v 3.7 2.5 -6.3
v 3.7 2.5 -7.5
v 3.7 2.5 -7.6
v 3.7 2.5 -9
v 3.7 2.5 -9.1
v 3.7 2.5 -9.9
v 3.7 2.6 -6.3
v 3.7 2.6 -7
v 3.7 2.6 -7.1
v 3.7 2.6 -8.4
v 3.7 2.6 -8.5
v 3.7 2.6 -9.7
v 3.7 2.6 -9.8
v 3.7 2.6 -9.9
v 3.7 3.1 -6.3
v 3.7 3.1 -7
v 3.7 3.1 -7.1
v 3.7 3.1 -8.4
v 3.7 3.1 -8.5
v 3.7 3.1 -9.7
v 3.7 3.1 -9.8
v 3.7 3.1 -9.9
v 3.7 3.2 -6.3
v 3.7 3.2 -9.9
v 1.8 0 -6.3
v 1.8 3.2 -6.3
v 3.6 0.2 -6.3
v 3.6 0.7 -6.3
v 3.6 0.8 -6.3
v 3.6 1.3 -6.3
v 3.6 1.4 -6.3
v 3.6 1.9 -6.3
v 3.6 2 -6.3
v 3.6 2.5 -6.3
v 3.6 2.6 -6.3
v 3.6 3.1 -6.3
v 3.7 0 -6.3
v 3.7 0.2 -6.3
v 3.7 0.7 -6.3
v 3.7 0.8 -6.3
v 3.7 1.3 -6.3
v 3.7 1.4 -6.3
v 3.7 1.9 -6.3
v 3.7 2 -6.3
v 3.7 2.5 -6.3
v 3.7 2.6 -6.3
v 3.7 3.1 -6.3
v 3.7 3.2 -6.3
v -0.1 0 -8
v -0.1 3.2 -8
v 1.8 0 -8
v 1.8 3.2 -8
v -0.1 0 -9.9
v -0.1 0.2 -9.9
v -0.1 0.7 -9.9
v -0.1 0.8 -9.9
v -0.1 1.3 -9.9
v -0.1 1.4 -9.9
v -0.1 1.9 -9.9
v -0.1 2 -9.9
v -0.1 2.5 -9.9
v -0.1 2.6 -9.9
v -0.1 3.1 -9.9
v -0.1 3.2 -9.9
v 0 0 -9.9
v 0 0.1 -9.9
v 0.3 0.8 -9.9
v 0.3 1.3 -9.9
v 0.3 2 -9.9
v 0.3 2.5 -9.9
v 0.4 0.8 -9.9
v 0.4 1.3 -9.9
v 0.4 2 -9.9
v 0.4 2.5 -9.9
v 0.9 0.2 -9.9
v 0.9 0.7 -9.9
v 0.9 1.4 -9.9
v 0.9 1.9 -9.9
v 0.9 2.6 -9.9
v 0.9 3.1 -9.9
v 1 0.2 -9.9
v 1 0.7 -9.9
v 1 1.4 -9.9
v 1 1.9 -9.9
v 1 2.6 -9.9
v 1 3.1 -9.9
v 1.6 0.8 -9.9
v 1.6 1.3 -9.9
v 1.6 2 -9.9
v 1.6 2.5 -9.9
v 1.7 0.8 -9.9
v 1.7 1.3 -9.9
v 1.7 2 -9.9
v 1.7 2.5 -9.9
v 2.3 0.2 -9.9
v 2.3 0.7 -9.9
v 2.4 0.2 -9.9
v 2.4 0.7 -9.9
v 2.4 1.4 -9.9
v 2.4 1.9 -9.9
v 2.4 2.6 -9.9
v 2.4 3.1 -9.9
v 2.5 1.4 -9.9
v 2.5 1.9 -9.9
v 2.5 2.6 -9.9
v 2.5 3.1 -9.9
v 3 0.8 -9.9
v 3 1.3 -9.9
v 3 2 -9.9
v 3 2.5 -9.9
v 3.1 0.8 -9.9
v 3.1 1.3 -9.9
v 3.1 2 -9.9
v 3.1 2.5 -9.9
v 3.7 0 -9.9
v 3.7 0.1 -9.9
v 3.7 0.2 -9.9
v 3.7 0.7 -9.9
v 3.7 0.8 -9.9
v 3.7 1.3 -9.9
v 3.7 1.4 -9.9
v 3.7 1.9 -9.9
v 3.7 2 -9.9
v 3.7 2.5 -9.9
v 3.7 2.6 -9.9
v 3.7 3.1 -9.9
v 3.7 3.2 -9.9
v 1.8 0 -6.3
v 3.7 0 -6.3
v 1.9 0 -6.4
v 3.7 0 -6.4
v -0.1 0 -8
v 1.8 0 -8
v 1.9 0 -8
v 0 0 -8.1
v 1.8 0 -8.1
v -0.1 0 -9.9
v 0 0 -9.9
v 3.7 0 -9.9
v 1.8 3.2 -6.3
v 3.7 3.2 -6.3
v -0.1 3.2 -8
v 1.8 3.2 -8
v -0.1 3.2 -9.9
v 3.7 3.2 -9.9

# faces
f 3/2/1 2/2/1 1/2/1
f 4/2/1 2/2/1 3/2/1
f 5/2/1 3/2/1 1/2/1
f 5/3/1 4/3/1 3/3/1
f 6/3/1 4/3/1 5/3/1
f 7/2/1 5/2/1 1/2/1
f 7/2/1 6/2/1 5/2/1
f 8/2/1 6/2/1 7/2/1
f 9/2/1 7/2/1 1/2/1
f 9/3/1 8/3/1 7/3/1
f 10/3/1 8/3/1 9/3/1
f 11/2/1 9/2/1 1/2/1
f 11/2/1 10/2/1 9/2/1
f 12/2/1 10/2/1 11/2/1
f 13/2/1 11/2/1 1/2/1
f 13/3/1 12/3/1 11/3/1
f 14/3/1 12/3/1 13/3/1
f 15/2/1 13/2/1 1/2/1
f 15/2/1 14/2/1 13/2/1
f 16/2/1 14/2/1 15/2/1
f 17/2/1 15/2/1 1/2/1
f 17/3/1 16/3/1 15/3/1
f 18/3/1 16/3/1 17/3/1
f 19/2/1 17/2/1 1/2/1
f 19/2/1 18/2/1 17/2/1
f 20/2/1 18/2/1 19/2/1
f 21/2/1 19/2/1 1/2/1
f 21/3/1 20/3/1 19/3/1
f 22/3/1 20/3/1 21/3/1
f 23/2/1 21/2/1 1/2/1
f 23/2/1 22/2/1 21/2/1
f 24/2/1 22/2/1 23/2/1
f 27/2/1 26/2/1 25/2/1
f 28/2/1 26/2/1 27/2/1
f 29/2/2 30/2/2 32/2/2
f 30/1/2 31/1/2 32/1/2
f 32/1/2 31/1/2 33/1/2
f 29/2/2 32/2/2 34/2/2
f 32/2/2 33/2/2 34/2/2
f 34/2/2 33/2/2 35/2/2
f 35/2/2 33/2/2 36/2/2
f 36/2/2 33/2/2 37/2/2
f 37/2/2 33/2/2 38/2/2
f 38/2/2 33/2/2 39/2/2
f 39/2/2 33/2/2 40/2/2
f 40/2/2 33/2/2 41/2/2
f 34/3/2 35/3/2 42/3/2
f 35/2/2 36/2/2 43/2/2
f 42/3/2 35/3/2 43/3/2
f 36/3/2 37/3/2 44/3/2
f 43/2/2 36/2/2 44/2/2
f 37/2/2 38/2/2 45/2/2
f 44/3/2 37/3/2 45/3/2
f 38/3/2 39/3/2 46/3/2
f 45/2/2 38/2/2 46/2/2
f 39/2/2 40/2/2 47/2/2
f 46/3/2 39/3/2 47/3/2
f 40/3/2 41/3/2 48/3/2
f 47/2/2 40/2/2 48/2/2
f 48/3/2 41/3/2 49/3/2
f 42/2/2 43/2/2 50/2/2
f 43/2/2 44/2/2 50/2/2
f 48/2/2 49/2/2 50/2/2
f 47/2/2 48/2/2 50/2/2
f 46/2/2 47/2/2 50/2/2
f 45/2/2 46/2/2 50/2/2
f 44/2/2 45/2/2 50/2/2
f 50/2/2 49/2/2 51/2/2
f 51/2/2 49/2/2 52/2/2
f 52/2/2 49/2/2 53/2/2
f 53/2/2 49/2/2 54/2/2
f 54/2/2 49/2/2 55/2/2
f 50/3/2 51/3/2 56/3/2
f 51/2/2 52/2/2 57/2/2
f 56/3/2 51/3/2 57/3/2
f 52/3/2 53/3/2 58/3/2
f 57/2/2 52/2/2 58/2/2
f 53/2/2 54/2/2 59/2/2
f 58/3/2 53/3/2 59/3/2
f 54/3/2 55/3/2 60/3/2
f 59/2/2 54/2/2 60/2/2
f 60/3/2 55/3/2 61/3/2
f 56/2/2 57/2/2 62/2/2
f 57/2/2 58/2/2 62/2/2
f 60/2/2 61/2/2 62/2/2
f 59/2/2 60/2/2 62/2/2
f 58/2/2 59/2/2 62/2/2
f 62/2/2 61/2/2 63/2/2
f 63/2/2 61/2/2 64/2/2
f 64/2/2 61/2/2 65/2/2
f 65/2/2 61/2/2 66/2/2
f 66/2/2 61/2/2 67/2/2
f 67/2/2 61/2/2 68/2/2
f 68/2/2 61/2/2 69/2/2
f 62/3/2 63/3/2 70/3/2
f 63/2/2 64/2/2 71/2/2
f 70/3/2 63/3/2 71/3/2
f 64/3/2 65/3/2 72/3/2
f 71/2/2 64/2/2 72/2/2
f 65/2/2 66/2/2 73/2/2
f 72/3/2 65/3/2 73/3/2
f 66/3/2 67/3/2 74/3/2
f 73/2/2 66/2/2 74/2/2
f 67/2/2 68/2/2 75/2/2
f 74/3/2 67/3/2 75/3/2
f 68/3/2 69/3/2 76/3/2
f 75/2/2 68/2/2 76/2/2
f 76/3/2 69/3/2 77/3/2
f 70/2/2 71/2/2 78/2/2
f 71/2/2 72/2/2 78/2/2
f 76/2/2 77/2/2 78/2/2
f 75/2/2 76/2/2 78/2/2
f 74/2/2 75/2/2 78/2/2
f 73/2/2 74/2/2 78/2/2
f 72/2/2 73/2/2 78/2/2
f 78/2/2 77/2/2 79/2/2
f 79/2/2 77/2/2 80/2/2
f 80/2/2 77/2/2 81/2/2
f 81/2/2 77/2/2 82/2/2
f 82/2/2 77/2/2 83/2/2
f 78/3/2 79/3/2 84/3/2
f 79/2/2 80/2/2 85/2/2
f 84/3/2 79/3/2 85/3/2
f 80/3/2 81/3/2 86/3/2
f 85/2/2 80/2/2 86/2/2
f 81/2/2 82/2/2 87/2/2
f 86/3/2 81/3/2 87/3/2
f 82/3/2 83/3/2 88/3/2
f 87/2/2 82/2/2 88/2/2
f 88/3/2 83/3/2 89/3/2
f 84/2/2 85/2/2 90/2/2
f 85/2/2 86/2/2 90/2/2
f 88/2/2 89/2/2 90/2/2
f 87/2/2 88/2/2 90/2/2
f 86/2/2 87/2/2 90/2/2
f 90/2/2 89/2/2 91/2/2
f 91/2/2 89/2/2 92/2/2
f 92/2/2 89/2/2 93/2/2
f 93/2/2 89/2/2 94/2/2
f 94/2/2 89/2/2 95/2/2
f 95/2/2 89/2/2 96/2/2
f 96/2/2 89/2/2 97/2/2
f 90/3/2 91/3/2 98/3/2
f 91/2/2 92/2/2 99/2/2
f 98/3/2 91/3/2 99/3/2
f 92/3/2 93/3/2 100/3/2
f 99/2/2 92/2/2 100/2/2
f 93/2/2 94/2/2 101/2/2
f 100/3/2 93/3/2 101/3/2
f 94/3/2 95/3/2 102/3/2
f 101/2/2 94/2/2 102/2/2
f 95/2/2 96/2/2 103/2/2
f 102/3/2 95/3/2 103/3/2
f 96/3/2 97/3/2 104/3/2
f 103/2/2 96/2/2 104/2/2
f 104/3/2 97/3/2 105/3/2
f 98/2/2 99/2/2 106/2/2
f 99/2/2 100/2/2 106/2/2
f 104/2/2 105/2/2 106/2/2
f 103/2/2 104/2/2 106/2/2
f 102/2/2 103/2/2 106/2/2
f 101/2/2 102/2/2 106/2/2
f 100/2/2 101/2/2 106/2/2
f 106/2/2 105/2/2 107/2/2
f 110/2/3 109/2/3 108/2/3
f 111/2/3 109/2/3 110/2/3
f 112/2/3 109/2/3 111/2/3
f 113/2/3 109/2/3 112/2/3
f 114/2/3 109/2/3 113/2/3
f 115/2/3 109/2/3 114/2/3
f 116/2/3 109/2/3 115/2/3
f 117/2/3 109/2/3 116/2/3
f 118/2/3 109/2/3 117/2/3
f 119/2/3 109/2/3 118/2/3
f 120/2/3 110/2/3 108/2/3
f 121/3/3 111/3/3 110/3/3
f 121/2/3 110/2/3 120/2/3
f 122/2/3 112/2/3 111/2/3
f 122/3/3 111/3/3 121/3/3
f 123/3/3 113/3/3 112/3/3
f 123/2/3 112/2/3 122/2/3
f 124/2/3 114/2/3 113/2/3
f 124/3/3 113/3/3 123/3/3
f 125/3/3 115/3/3 114/3/3
f 125/2/3 114/2/3 124/2/3
f 126/2/3 116/2/3 115/2/3
f 126/3/3 115/3/3 125/3/3
f 127/3/3 117/3/3 116/3/3
f 127/2/3 116/2/3 126/2/3
f 128/2/3 118/2/3 117/2/3
f 128/3/3 117/3/3 127/3/3
f 129/3/3 119/3/3 118/3/3
f 129/2/3 118/2/3 128/2/3
f 130/2/3 109/2/3 119/2/3
f 130/3/3 119/3/3 129/3/3
f 131/2/3 109/2/3 130/2/3
f 134/2/3 133/2/3 132/2/3
f 135/2/3 133/2/3 134/2/3
f 136/2/4 137/2/4 148/2/4
f 148/2/4 137/2/4 149/2/4
f 138/2/4 139/2/4 150/2/4
f 139/3/4 140/3/4 150/3/4
f 140/2/4 141/2/4 151/2/4
f 150/3/4 140/3/4 151/3/4
f 142/2/4 143/2/4 152/2/4
f 143/3/4 144/3/4 152/3/4
f 144/2/4 145/2/4 153/2/4
f 152/3/4 144/3/4 153/3/4
f 138/2/4 150/2/4 154/2/4
f 150/2/4 151/2/4 154/2/4
f 151/2/4 141/2/4 155/2/4
f 154/2/4 151/2/4 155/2/4
f 152/2/4 153/2/4 156/2/4
f 142/2/4 152/2/4 156/2/4
f 153/2/4 145/2/4 157/2/4
f 156/2/4 153/2/4 157/2/4
f 137/3/4 138/3/4 158/3/4
f 149/2/4 137/2/4 158/2/4
f 138/2/4 154/2/4 159/2/4
f 158/3/4 138/3/4 159/3/4
f 141/3/4 142/3/4 160/3/4
f 155/2/4 141/2/4 160/2/4
f 142/2/4 156/2/4 161/2/4
f 160/3/4 142/3/4 161/3/4
f 157/2/4 145/2/4 162/2/4
f 145/3/4 146/3/4 162/3/4
f 146/2/4 147/2/4 163/2/4
f 162/3/4 146/3/4 163/3/4
f 149/2/4 158/2/4 164/2/4
f 158/2/4 159/2/4 164/2/4
f 159/2/4 154/2/4 165/2/4
f 164/2/4 159/2/4 165/2/4
f 155/2/4 160/2/4 166/2/4
f 160/2/4 161/2/4 166/2/4
f 161/2/4 156/2/4 167/2/4
f 166/2/4 161/2/4 167/2/4
f 157/2/4 162/2/4 168/2/4
f 162/2/4 163/2/4 168/2/4
f 163/2/4 147/2/4 169/2/4
f 168/2/4 163/2/4 169/2/4
f 165/2/4 154/2/4 170/2/4
f 154/3/4 155/3/4 170/3/4
f 155/2/4 166/2/4 171/2/4
f 170/3/4 155/3/4 171/3/4
f 167/2/4 156/2/4 172/2/4
f 156/3/4 157/3/4 172/3/4
f 157/2/4 168/2/4 173/2/4
f 172/3/4 157/3/4 173/3/4
f 165/2/4 170/2/4 174/2/4
f 170/2/4 171/2/4 174/2/4
f 171/2/4 166/2/4 175/2/4
f 174/2/4 171/2/4 175/2/4
f 172/2/4 173/2/4 176/2/4
f 167/2/4 172/2/4 176/2/4
f 173/2/4 168/2/4 177/2/4
f 176/2/4 173/2/4 177/2/4
f 149/2/4 164/2/4 178/2/4
f 164/3/4 165/3/4 178/3/4
f 165/2/4 174/2/4 179/2/4
f 178/3/4 165/3/4 179/3/4
f 149/2/4 178/2/4 180/2/4
f 178/2/4 179/2/4 180/2/4
f 179/2/4 174/2/4 181/2/4
f 180/2/4 179/2/4 181/2/4
f 175/2/4 166/2/4 182/2/4
f 166/3/4 167/3/4 182/3/4
f 167/2/4 176/2/4 183/2/4
f 182/3/4 167/3/4 183/3/4
f 177/2/4 168/2/4 184/2/4
f 168/3/4 169/3/4 184/3/4
f 169/2/4 147/2/4 185/2/4
f 184/3/4 169/3/4 185/3/4
f 175/2/4 182/2/4 186/2/4
f 182/2/4 183/2/4 186/2/4
f 183/2/4 176/2/4 187/2/4
f 186/2/4 183/2/4 187/2/4
f 177/2/4 184/2/4 188/2/4
f 184/2/4 185/2/4 188/2/4
f 185/2/4 147/2/4 189/2/4
f 188/2/4 185/2/4 189/2/4
f 181/2/4 174/2/4 190/2/4
f 174/3/4 175/3/4 190/3/4
f 175/2/4 186/2/4 191/2/4
f 190/3/4 175/3/4 191/3/4
f 187/2/4 176/2/4 192/2/4
f 176/3/4 177/3/4 192/3/4
f 177/2/4 188/2/4 193/2/4
f 192/3/4 177/3/4 193/3/4
f 181/2/4 190/2/4 194/2/4
f 190/2/4 191/2/4 194/2/4
f 191/2/4 186/2/4 195/2/4
f 194/2/4 191/2/4 195/2/4
f 187/2/4 192/2/4 196/2/4
f 192/2/4 193/2/4 196/2/4
f 193/2/4 188/2/4 197/2/4
f 196/2/4 193/2/4 197/2/4
f 148/1/4 149/1/4 198/1/4
f 149/2/4 180/2/4 199/2/4
f 198/1/4 149/1/4 199/1/4
f 180/3/4 181/3/4 200/3/4
f 199/2/4 180/2/4 200/2/4
f 181/2/4 194/2/4 201/2/4
f 200/3/4 181/3/4 201/3/4
f 194/3/4 195/3/4 202/3/4
f 201/2/4 194/2/4 202/2/4
f 195/2/4 186/2/4 203/2/4
f 202/3/4 195/3/4 203/3/4
f 186/3/4 187/3/4 204/3/4
f 203/2/4 186/2/4 204/2/4
f 187/2/4 196/2/4 205/2/4
f 204/3/4 187/3/4 205/3/4
f 196/3/4 197/3/4 206/3/4
f 205/2/4 196/2/4 206/2/4
f 197/2/4 188/2/4 207/2/4
f 206/3/4 197/3/4 207/3/4
f 188/3/4 189/3/4 208/3/4
f 207/2/4 188/2/4 208/2/4
f 189/2/4 147/2/4 209/2/4
f 208/3/4 189/3/4 209/3/4
f 209/2/4 147/2/4 210/2/4
f 213/2/5 212/2/5 211/2/5
f 214/2/5 212/2/5 213/2/5
f 216/2/5 213/2/5 211/2/5
f 217/1/5 214/1/5 213/1/5
f 217/2/5 213/2/5 216/2/5
f 218/2/5 216/2/5 215/2/5
f 219/1/5 217/1/5 216/1/5
f 219/2/5 216/2/5 218/2/5
f 220/2/5 218/2/5 215/2/5
f 221/1/5 219/1/5 218/1/5
f 221/2/5 218/2/5 220/2/5
f 222/1/5 214/1/5 217/1/5
f 222/1/5 219/1/5 221/1/5
f 222/1/5 217/1/5 219/1/5
f 223/2/6 224/2/6 226/2/6
f 225/2/6 226/2/6 227/2/6
f 226/2/6 224/2/6 228/2/6
f 227/2/6 226/2/6 228/2/6
