# MagicaVoxel @ Ephtracy

# group
o 

# material
mtllib Computer table.mtl
usemtl palette

# normals
vn -1 0 0
vn 1 0 0
vn 0 0 1
vn 0 0 -1
vn 0 -1 0
vn 0 1 0

# texcoords
vt 0.306641 0.5
vt 0.970703 0.5
vt 0.974609 0.5
vt 0.978516 0.5

# verts
v 0.6 0 -1.6
v 0.6 0 -1.7
v 0.6 0 -2.4
v 0.6 0 -2.5
v 0.6 0.8 -1.5
v 0.6 0.8 -1.6
v 0.6 0.8 -1.7
v 0.6 0.8 -2.4
v 0.6 0.8 -2.5
v 0.6 0.9 -1.5
v 0.6 0.9 -2.5
v 1.5 0.1 0.4
v 1.5 0.1 0.1
v 1.5 0.2 0.4
v 1.5 0.2 0.1
v 1.5 0.4 0.4
v 1.5 0.4 0.1
v 1.5 0.5 0.4
v 1.5 0.5 0.1
v 1.5 0.7 0.4
v 1.5 0.7 0.1
v 1.5 0.8 0.7
v 1.5 0.8 0.4
v 1.5 0.8 0.1
v 1.5 0.8 -1.5
v 1.5 0.9 0.7
v 1.5 0.9 -1.5
v 1.6 0 0.7
v 1.6 0 0.6
v 1.6 0 -0.1
v 1.6 0.1 0.4
v 1.6 0.1 0.1
v 1.6 0.2 0.6
v 1.6 0.2 0.4
v 1.6 0.2 0.1
v 1.6 0.2 -0.1
v 1.6 0.3 0.6
v 1.6 0.3 -0.1
v 1.6 0.4 0.4
v 1.6 0.4 0.1
v 1.6 0.5 0.6
v 1.6 0.5 0.4
v 1.6 0.5 0.1
v 1.6 0.5 -0.1
v 1.6 0.6 0.6
v 1.6 0.6 -0.1
v 1.6 0.7 0.4
v 1.6 0.7 0.1
v 1.6 0.8 0.7
v 1.6 0.8 0.6
v 1.6 0.8 0.4
v 1.6 0.8 0.1
v 1.6 0.8 -0.1
v 1.7 0.2 0.6
v 1.7 0.2 -0.1
v 1.7 0.3 0.6
v 1.7 0.3 -0.1
v 1.7 0.5 0.6
v 1.7 0.5 0.2
v 1.7 0.5 0.1
v 1.7 0.5 -0.1
v 1.7 0.6 0.6
v 1.7 0.6 -0.1
v 2.4 0 0.7
v 2.4 0 0.6
v 2.4 0 -2.4
v 2.4 0 -2.5
v 2.4 0.8 0.7
v 2.4 0.8 0.6
v 2.4 0.8 -2.4
v 2.4 0.8 -2.5
v 0.7 0 -1.6
v 0.7 0 -1.7
v 0.7 0 -2.4
v 0.7 0 -2.5
v 0.7 0.8 -1.6
v 0.7 0.8 -1.7
v 0.7 0.8 -2.4
v 0.7 0.8 -2.5
v 1.7 0 0.7
v 1.7 0 0.6
v 1.7 0.8 0.7
v 1.7 0.8 0.6
v 2.5 0 0.7
v 2.5 0 0.6
v 2.5 0 -0.1
v 2.5 0 -2.4
v 2.5 0 -2.5
v 2.5 0.8 0.7
v 2.5 0.8 0.6
v 2.5 0.8 -0.1
v 2.5 0.8 -2.4
v 2.5 0.8 -2.5
v 2.5 0.9 0.7
v 2.5 0.9 -2.5
v 1.5 0.8 0.7
v 1.5 0.9 0.7
v 1.6 0 0.7
v 1.6 0.8 0.7
v 1.7 0 0.7
v 1.7 0.8 0.7
v 2.4 0 0.7
v 2.4 0.8 0.7
v 2.5 0 0.7
v 2.5 0.8 0.7
v 2.5 0.9 0.7
v 1.7 0 0.6
v 1.7 0.8 0.6
v 2.4 0 0.6
v 2.4 0.8 0.6
v 1.5 0.1 0.4
v 1.5 0.2 0.4
v 1.5 0.4 0.4
v 1.5 0.5 0.4
v 1.5 0.7 0.4
v 1.5 0.8 0.4
v 1.6 0.1 0.4
v 1.6 0.2 0.4
v 1.6 0.4 0.4
v 1.6 0.5 0.4
v 1.6 0.7 0.4
v 1.6 0.8 0.4
v 0.6 0.8 -1.5
v 0.6 0.9 -1.5
v 1.5 0.8 -1.5
v 1.5 0.9 -1.5
v 0.6 0 -1.6
v 0.6 0.8 -1.6
v 0.7 0 -1.6
v 0.7 0.8 -1.6
v 0.6 0 -2.4
v 0.6 0.8 -2.4
v 0.7 0 -2.4
v 0.7 0.8 -2.4
v 2.4 0 -2.4
v 2.4 0.8 -2.4
v 2.5 0 -2.4
v 2.5 0.8 -2.4
v 1.6 0.2 0.6
v 1.6 0.3 0.6
v 1.6 0.5 0.6
v 1.6 0.6 0.6
v 1.7 0.2 0.6
v 1.7 0.3 0.6
v 1.7 0.5 0.6
v 1.7 0.6 0.6
v 1.5 0.1 0.1
v 1.5 0.2 0.1
v 1.5 0.4 0.1
v 1.5 0.5 0.1
v 1.5 0.7 0.1
v 1.5 0.8 0.1
v 1.6 0.1 0.1
v 1.6 0.2 0.1
v 1.6 0.4 0.1
v 1.6 0.5 0.1
v 1.6 0.7 0.1
v 1.6 0.8 0.1
v 1.6 0 -0.1
v 1.6 0.2 -0.1
v 1.6 0.3 -0.1
v 1.6 0.5 -0.1
v 1.6 0.6 -0.1
v 1.6 0.8 -0.1
v 1.7 0.2 -0.1
v 1.7 0.3 -0.1
v 1.7 0.5 -0.1
v 1.7 0.6 -0.1
v 2.5 0 -0.1
v 2.5 0.8 -0.1
v 0.6 0 -1.7
v 0.6 0.8 -1.7
v 0.7 0 -1.7
v 0.7 0.8 -1.7
v 0.6 0 -2.5
v 0.6 0.8 -2.5
v 0.6 0.9 -2.5
v 0.7 0 -2.5
v 0.7 0.8 -2.5
v 2.4 0 -2.5
v 2.4 0.8 -2.5
v 2.5 0 -2.5
v 2.5 0.8 -2.5
v 2.5 0.9 -2.5
v 1.6 0 0.7
v 1.7 0 0.7
v 2.4 0 0.7
v 2.5 0 0.7
v 1.6 0 0.6
v 1.7 0 0.6
v 2.4 0 0.6
v 2.5 0 0.6
v 1.6 0 -0.1
v 2.5 0 -0.1
v 0.6 0 -1.6
v 0.7 0 -1.6
v 0.6 0 -1.7
v 0.7 0 -1.7
v 0.6 0 -2.4
v 0.7 0 -2.4
v 2.4 0 -2.4
v 2.5 0 -2.4
v 0.6 0 -2.5
v 0.7 0 -2.5
v 2.4 0 -2.5
v 2.5 0 -2.5
v 1.5 0.1 0.4
v 1.6 0.1 0.4
v 1.5 0.1 0.1
v 1.6 0.1 0.1
v 1.6 0.3 0.6
v 1.7 0.3 0.6
v 1.6 0.3 -0.1
v 1.7 0.3 -0.1
v 1.5 0.4 0.4
v 1.6 0.4 0.4
v 1.5 0.4 0.1
v 1.6 0.4 0.1
v 1.6 0.6 0.6
v 1.7 0.6 0.6
v 1.6 0.6 -0.1
v 1.7 0.6 -0.1
v 1.5 0.7 0.4
v 1.6 0.7 0.4
v 1.5 0.7 0.1
v 1.6 0.7 0.1
v 1.5 0.8 0.7
v 1.6 0.8 0.7
v 1.7 0.8 0.7
v 2.4 0.8 0.7
v 1.6 0.8 0.6
v 1.7 0.8 0.6
v 2.4 0.8 0.6
v 1.5 0.8 0.4
v 1.6 0.8 0.4
v 1.5 0.8 0.1
v 1.6 0.8 0.1
v 1.6 0.8 -0.1
v 2.5 0.8 -0.1
v 0.6 0.8 -1.5
v 1.5 0.8 -1.5
v 0.6 0.8 -1.6
v 0.7 0.8 -1.6
v 0.6 0.8 -1.7
v 0.7 0.8 -1.7
v 0.6 0.8 -2.4
v 0.7 0.8 -2.4
v 2.4 0.8 -2.4
v 2.5 0.8 -2.4
v 0.7 0.8 -2.5
v 2.4 0.8 -2.5
v 1.6 0.2 0.6
v 1.7 0.2 0.6
v 1.5 0.2 0.4
v 1.6 0.2 0.4
v 1.5 0.2 0.1
v 1.6 0.2 0.1
v 1.6 0.2 -0.1
v 1.7 0.2 -0.1
v 1.6 0.5 0.6
v 1.7 0.5 0.6
v 1.5 0.5 0.4
v 1.6 0.5 0.4
v 1.6 0.5 0.2
v 1.7 0.5 0.2
v 1.5 0.5 0.1
v 1.6 0.5 0.1
v 1.7 0.5 0.1
v 1.6 0.5 -0.1
v 1.7 0.5 -0.1
v 1.5 0.9 0.7
v 2.5 0.9 0.7
v 0.6 0.9 -1.5
v 1.5 0.9 -1.5
v 0.6 0.9 -2.5
v 2.5 0.9 -2.5

# faces
f 6/2/1 2/2/1 1/2/1
f 7/2/1 2/2/1 6/2/1
f 8/2/1 4/2/1 3/2/1
f 9/2/1 4/2/1 8/2/1
f 10/3/1 7/3/1 6/3/1
f 10/3/1 6/3/1 5/3/1
f 10/3/1 9/3/1 8/3/1
f 10/3/1 8/3/1 7/3/1
f 11/3/1 9/3/1 10/3/1
f 14/4/1 13/4/1 12/4/1
f 15/4/1 13/4/1 14/4/1
f 18/4/1 17/4/1 16/4/1
f 19/4/1 17/4/1 18/4/1
f 23/4/1 21/4/1 20/4/1
f 24/4/1 21/4/1 23/4/1
f 26/3/1 24/3/1 23/3/1
f 26/3/1 25/3/1 24/3/1
f 26/3/1 23/3/1 22/3/1
f 27/3/1 25/3/1 26/3/1
f 31/1/1 30/1/1 29/1/1
f 32/1/1 30/1/1 31/1/1
f 33/2/1 29/2/1 28/2/1
f 33/1/1 31/1/1 29/1/1
f 34/1/1 31/1/1 33/1/1
f 35/1/1 30/1/1 32/1/1
f 36/1/1 30/1/1 35/1/1
f 37/2/1 33/2/1 28/2/1
f 39/1/1 38/1/1 37/1/1
f 40/1/1 38/1/1 39/1/1
f 41/2/1 37/2/1 28/2/1
f 41/1/1 39/1/1 37/1/1
f 42/1/1 39/1/1 41/1/1
f 43/1/1 38/1/1 40/1/1
f 44/1/1 38/1/1 43/1/1
f 45/2/1 41/2/1 28/2/1
f 47/1/1 46/1/1 45/1/1
f 48/1/1 46/1/1 47/1/1
f 49/2/1 45/2/1 28/2/1
f 50/1/1 47/1/1 45/1/1
f 50/2/1 45/2/1 49/2/1
f 51/1/1 47/1/1 50/1/1
f 52/1/1 46/1/1 48/1/1
f 53/1/1 46/1/1 52/1/1
f 56/1/1 55/1/1 54/1/1
f 57/1/1 55/1/1 56/1/1
f 62/1/1 59/1/1 58/1/1
f 62/1/1 61/1/1 60/1/1
f 62/1/1 60/1/1 59/1/1
f 63/1/1 61/1/1 62/1/1
f 68/2/1 65/2/1 64/2/1
f 69/2/1 65/2/1 68/2/1
f 70/2/1 67/2/1 66/2/1
f 71/2/1 67/2/1 70/2/1
f 72/2/2 73/2/2 76/2/2
f 76/2/2 73/2/2 77/2/2
f 74/2/2 75/2/2 78/2/2
f 78/2/2 75/2/2 79/2/2
f 80/2/2 81/2/2 82/2/2
f 82/2/2 81/2/2 83/2/2
f 84/2/2 85/2/2 89/2/2
f 85/1/2 86/1/2 90/1/2
f 89/2/2 85/2/2 90/2/2
f 90/1/2 86/1/2 91/1/2
f 87/2/2 88/2/2 92/2/2
f 92/2/2 88/2/2 93/2/2
f 90/3/2 91/3/2 94/3/2
f 89/3/2 90/3/2 94/3/2
f 92/3/2 93/3/2 94/3/2
f 91/3/2 92/3/2 94/3/2
f 94/3/2 93/3/2 95/3/2
f 99/3/3 97/3/3 96/3/3
f 100/2/3 99/2/3 98/2/3
f 101/3/3 97/3/3 99/3/3
f 101/2/3 99/2/3 100/2/3
f 103/3/3 97/3/3 101/3/3
f 104/2/3 103/2/3 102/2/3
f 105/3/3 97/3/3 103/3/3
f 105/2/3 103/2/3 104/2/3
f 106/3/3 97/3/3 105/3/3
f 109/1/3 108/1/3 107/1/3
f 110/1/3 108/1/3 109/1/3
f 117/4/3 112/4/3 111/4/3
f 118/4/3 112/4/3 117/4/3
f 119/4/3 114/4/3 113/4/3
f 120/4/3 114/4/3 119/4/3
f 121/4/3 116/4/3 115/4/3
f 122/4/3 116/4/3 121/4/3
f 125/3/3 124/3/3 123/3/3
f 126/3/3 124/3/3 125/3/3
f 129/2/3 128/2/3 127/2/3
f 130/2/3 128/2/3 129/2/3
f 133/2/3 132/2/3 131/2/3
f 134/2/3 132/2/3 133/2/3
f 137/2/3 136/2/3 135/2/3
f 138/2/3 136/2/3 137/2/3
f 139/2/4 140/2/4 143/2/4
f 143/2/4 140/2/4 144/2/4
f 141/2/4 142/2/4 145/2/4
f 145/2/4 142/2/4 146/2/4
f 147/4/4 148/4/4 153/4/4
f 153/4/4 148/4/4 154/4/4
f 149/4/4 150/4/4 155/4/4
f 155/4/4 150/4/4 156/4/4
f 151/4/4 152/4/4 157/4/4
f 157/4/4 152/4/4 158/4/4
f 159/1/4 160/1/4 165/1/4
f 161/1/4 162/1/4 166/1/4
f 166/1/4 162/1/4 167/1/4
f 163/1/4 164/1/4 168/1/4
f 166/1/4 167/1/4 169/1/4
f 167/1/4 168/1/4 169/1/4
f 159/1/4 165/1/4 169/1/4
f 165/1/4 166/1/4 169/1/4
f 168/1/4 164/1/4 170/1/4
f 169/1/4 168/1/4 170/1/4
f 171/2/4 172/2/4 173/2/4
f 173/2/4 172/2/4 174/2/4
f 175/2/4 176/2/4 178/2/4
f 176/3/4 177/3/4 179/3/4
f 178/2/4 176/2/4 179/2/4
f 179/3/4 177/3/4 181/3/4
f 180/2/4 181/2/4 182/2/4
f 181/3/4 177/3/4 183/3/4
f 182/2/4 181/2/4 183/2/4
f 183/3/4 177/3/4 184/3/4
f 189/2/5 186/2/5 185/2/5
f 190/2/5 186/2/5 189/2/5
f 191/2/5 188/2/5 187/2/5
f 192/2/5 188/2/5 191/2/5
f 193/1/5 190/1/5 189/1/5
f 193/1/5 191/1/5 190/1/5
f 193/1/5 192/1/5 191/1/5
f 194/1/5 192/1/5 193/1/5
f 197/2/5 196/2/5 195/2/5
f 198/2/5 196/2/5 197/2/5
f 203/2/5 200/2/5 199/2/5
f 204/2/5 200/2/5 203/2/5
f 205/2/5 202/2/5 201/2/5
f 206/2/5 202/2/5 205/2/5
f 209/4/5 208/4/5 207/4/5
f 210/4/5 208/4/5 209/4/5
f 213/1/5 212/1/5 211/1/5
f 214/1/5 212/1/5 213/1/5
f 217/4/5 216/4/5 215/4/5
f 218/4/5 216/4/5 217/4/5
f 221/1/5 220/1/5 219/1/5
f 222/1/5 220/1/5 221/1/5
f 225/4/5 224/4/5 223/4/5
f 226/4/5 224/4/5 225/4/5
f 231/3/5 228/3/5 227/3/5
f 232/3/5 230/3/5 229/3/5
f 233/3/5 230/3/5 232/3/5
f 234/3/5 231/3/5 227/3/5
f 235/3/5 231/3/5 234/3/5
f 238/3/5 237/3/5 236/3/5
f 241/3/5 238/3/5 236/3/5
f 241/3/5 239/3/5 238/3/5
f 242/3/5 241/3/5 240/3/5
f 243/3/5 241/3/5 242/3/5
f 245/3/5 241/3/5 243/3/5
f 246/3/5 245/3/5 244/3/5
f 247/3/5 241/3/5 245/3/5
f 247/3/5 245/3/5 246/3/5
f 248/3/5 239/3/5 241/3/5
f 248/3/5 241/3/5 247/3/5
f 249/3/5 239/3/5 248/3/5
f 250/3/5 248/3/5 247/3/5
f 251/3/5 248/3/5 250/3/5
f 252/1/6 253/1/6 255/1/6
f 254/4/6 255/4/6 256/4/6
f 255/1/6 253/1/6 257/1/6
f 256/4/6 255/4/6 257/4/6
f 257/1/6 253/1/6 258/1/6
f 258/1/6 253/1/6 259/1/6
f 260/1/6 261/1/6 263/1/6
f 263/1/6 261/1/6 264/1/6
f 262/4/6 263/4/6 264/4/6
f 264/1/6 261/1/6 265/1/6
f 262/4/6 264/4/6 266/4/6
f 264/4/6 265/4/6 266/4/6
f 266/4/6 265/4/6 267/4/6
f 267/4/6 265/4/6 268/4/6
f 267/1/6 268/1/6 269/1/6
f 269/1/6 268/1/6 270/1/6
f 271/3/6 272/3/6 274/3/6
f 273/3/6 274/3/6 275/3/6
f 274/3/6 272/3/6 276/3/6
f 275/3/6 274/3/6 276/3/6
