# MagicaVoxel @ Ephtracy

# group
o 

# material
mtllib CardBoard Box.mtl
usemtl palette

# normals
vn -1 0 0
vn 1 0 0
vn 0 0 1
vn 0 0 -1
vn 0 -1 0
vn 0 1 0

# texcoords
vt 0.0917969 0.5
vt 0.537109 0.5
vt 0.994141 0.5

# verts
v -0.7 0 0.6
v -0.7 0 -1
v -0.7 0.1 0.5
v -0.7 0.1 -0.9
v -0.7 0.2 0.4
v -0.7 0.2 -0.8
v -0.7 1 0.4
v -0.7 1 -0.8
v -0.7 1.1 0.5
v -0.7 1.1 -0.9
v -0.7 1.2 0.6
v -0.7 1.2 -1
v 0.8 0 0.6
v 0.8 0 -1
v 0.8 0.1 0.5
v 0.8 0.1 -0.9
v 0.8 0.2 0.4
v 0.8 0.2 -0.8
v 0.8 1 0.4
v 0.8 1 -0.8
v 0.8 1.1 0.5
v 0.8 1.1 -0.9
v 0.8 1.2 0.6
v 0.8 1.2 -1
v -0.7 0 0.6
v -0.7 1.2 0.6
v -0.6 0.1 0.6
v -0.6 1.1 0.6
v -0.5 0.2 0.6
v -0.5 1 0.6
v 0.6 0.2 0.6
v 0.6 1 0.6
v 0.7 0.1 0.6
v 0.7 1.1 0.6
v 0.8 0 0.6
v 0.8 1.2 0.6
v -0.7 0 -1
v -0.7 1.2 -1
v -0.6 0.1 -1
v -0.6 1.1 -1
v -0.5 0.2 -1
v -0.5 1 -1
v 0.6 0.2 -1
v 0.6 1 -1
v 0.7 0.1 -1
v 0.7 1.1 -1
v 0.8 0 -1
v 0.8 1.2 -1
v -0.7 0 0.6
v 0.8 0 0.6
v -0.6 0 0.5
v 0.7 0 0.5
v -0.6 0 -0.9
v 0.7 0 -0.9
v -0.7 0 -1
v 0.8 0 -1
v -0.7 1.2 0.6
v 0.8 1.2 0.6
v -0.6 1.2 0.5
v 0.7 1.2 0.5
v -0.6 1.2 -0.1
v 0.7 1.2 -0.1
v -0.6 1.2 -0.3
v 0.7 1.2 -0.3
v -0.6 1.2 -0.9
v 0.7 1.2 -0.9
v -0.7 1.2 -1
v 0.8 1.2 -1

# faces
f 3/1/1 2/1/1 1/1/1
f 4/1/1 2/1/1 3/1/1
f 5/2/1 4/2/1 3/2/1
f 6/2/1 4/2/1 5/2/1
f 7/2/1 5/2/1 3/2/1
f 7/3/1 6/3/1 5/3/1
f 8/2/1 4/2/1 6/2/1
f 8/3/1 6/3/1 7/3/1
f 9/1/1 3/1/1 1/1/1
f 9/2/1 7/2/1 3/2/1
f 9/2/1 8/2/1 7/2/1
f 10/2/1 4/2/1 8/2/1
f 10/2/1 8/2/1 9/2/1
f 10/1/1 2/1/1 4/1/1
f 11/1/1 9/1/1 1/1/1
f 11/1/1 10/1/1 9/1/1
f 12/1/1 2/1/1 10/1/1
f 12/1/1 10/1/1 11/1/1
f 13/1/2 14/1/2 15/1/2
f 15/1/2 14/1/2 16/1/2
f 15/2/2 16/2/2 17/2/2
f 17/2/2 16/2/2 18/2/2
f 15/2/2 17/2/2 19/2/2
f 17/3/2 18/3/2 19/3/2
f 18/2/2 16/2/2 20/2/2
f 19/3/2 18/3/2 20/3/2
f 13/1/2 15/1/2 21/1/2
f 15/2/2 19/2/2 21/2/2
f 19/2/2 20/2/2 21/2/2
f 20/2/2 16/2/2 22/2/2
f 21/2/2 20/2/2 22/2/2
f 16/1/2 14/1/2 22/1/2
f 13/1/2 21/1/2 23/1/2
f 21/1/2 22/1/2 23/1/2
f 22/1/2 14/1/2 24/1/2
f 23/1/2 22/1/2 24/1/2
f 27/1/3 26/1/3 25/1/3
f 28/1/3 26/1/3 27/1/3
f 29/2/3 28/2/3 27/2/3
f 30/2/3 28/2/3 29/2/3
f 31/2/3 29/2/3 27/2/3
f 31/3/3 30/3/3 29/3/3
f 32/2/3 28/2/3 30/2/3
f 32/3/3 30/3/3 31/3/3
f 33/1/3 27/1/3 25/1/3
f 33/2/3 31/2/3 27/2/3
f 33/2/3 32/2/3 31/2/3
f 34/2/3 28/2/3 32/2/3
f 34/2/3 32/2/3 33/2/3
f 34/1/3 26/1/3 28/1/3
f 35/1/3 33/1/3 25/1/3
f 35/1/3 34/1/3 33/1/3
f 36/1/3 26/1/3 34/1/3
f 36/1/3 34/1/3 35/1/3
f 37/1/4 38/1/4 39/1/4
f 39/1/4 38/1/4 40/1/4
f 39/2/4 40/2/4 41/2/4
f 41/2/4 40/2/4 42/2/4
f 39/2/4 41/2/4 43/2/4
f 41/3/4 42/3/4 43/3/4
f 42/2/4 40/2/4 44/2/4
f 43/3/4 42/3/4 44/3/4
f 37/1/4 39/1/4 45/1/4
f 39/2/4 43/2/4 45/2/4
f 43/2/4 44/2/4 45/2/4
f 44/2/4 40/2/4 46/2/4
f 45/2/4 44/2/4 46/2/4
f 40/1/4 38/1/4 46/1/4
f 37/1/4 45/1/4 47/1/4
f 45/1/4 46/1/4 47/1/4
f 46/1/4 38/1/4 48/1/4
f 47/1/4 46/1/4 48/1/4
f 51/1/5 50/1/5 49/1/5
f 52/1/5 50/1/5 51/1/5
f 53/1/5 51/1/5 49/1/5
f 53/2/5 52/2/5 51/2/5
f 54/1/5 50/1/5 52/1/5
f 54/2/5 52/2/5 53/2/5
f 55/1/5 53/1/5 49/1/5
f 55/1/5 54/1/5 53/1/5
f 56/1/5 50/1/5 54/1/5
f 56/1/5 54/1/5 55/1/5
f 57/1/6 58/1/6 59/1/6
f 59/1/6 58/1/6 60/1/6
f 57/1/6 59/1/6 61/1/6
f 59/2/6 60/2/6 61/2/6
f 60/1/6 58/1/6 62/1/6
f 61/2/6 60/2/6 62/2/6
f 57/1/6 61/1/6 63/1/6
f 61/1/6 62/1/6 63/1/6
f 62/1/6 58/1/6 64/1/6
f 63/1/6 62/1/6 64/1/6
f 57/1/6 63/1/6 65/1/6
f 63/2/6 64/2/6 65/2/6
f 64/1/6 58/1/6 66/1/6
f 65/2/6 64/2/6 66/2/6
f 57/1/6 65/1/6 67/1/6
f 65/1/6 66/1/6 67/1/6
f 66/1/6 58/1/6 68/1/6
f 67/1/6 66/1/6 68/1/6
