# MagicaVoxel @ Ephtracy

# group
o 

# material
mtllib Building_shop-1.mtl
usemtl palette

# normals
vn -1 0 0
vn 1 0 0
vn 0 0 1
vn 0 0 -1
vn 0 -1 0
vn 0 1 0

# texcoords
vt 0.306641 0.5
vt 0.970703 0.5
vt 0.974609 0.5
vt 0.978516 0.5
vt 0.982422 0.5
vt 0.994141 0.5

# verts
v -4.6 0 -0.1
v -4.6 0 -2.1
v -4.6 12.6 -0.1
v -4.6 12.6 -2.1
v 3.9 1.2 -0.1
v 3.9 1.2 -0.2
v 3.9 1.2 -0.3
v 3.9 4.4 -0.1
v 3.9 4.4 -0.2
v 3.9 4.4 -0.3
v 4.2 3.7 0.5
v 4.2 3.7 0.4
v 4.2 3.9 0.4
v 4.2 3.9 0.3
v 4.2 4 0.5
v 4.2 4 0.4
v 4.2 4 0.3
v 4.2 4 0
v 4.2 4.1 0.4
v 4.2 4.1 0.3
v 4.2 4.1 0
v 4.2 4.1 -0.1
v 4.2 4.2 0.3
v 4.2 4.2 -0.1
v 6.2 0.1 -0.2
v 6.2 0.1 -0.3
v 6.2 3.5 -0.2
v 6.2 3.5 -0.3
v 6.9 0.1 -0.2
v 6.9 0.1 -0.3
v 6.9 3.5 -0.2
v 6.9 3.5 -0.3
v 7 0 -0.1
v 7 0 -0.2
v 7 3.6 -0.1
v 7 3.6 -0.2
v 7.3 4 -0.1
v 7.3 4 -0.2
v 7.3 4.1 -0.1
v 7.3 4.1 -0.2
v 7.8 5.9 -0.1
v 7.8 5.9 -0.3
v 7.8 8.8 -0.1
v 7.8 8.8 -0.2
v 7.8 8.8 -0.3
v 7.8 9.4 -0.1
v 7.8 9.4 -0.3
v 7.8 12 -0.1
v 7.8 12 -0.2
v 7.8 12 -0.3
v -4.4 5.9 -0.1
v -4.4 5.9 -0.3
v -4.4 8.8 -0.1
v -4.4 8.8 -0.2
v -4.4 8.8 -0.3
v -4.4 9.4 -0.1
v -4.4 9.4 -0.3
v -4.4 12 -0.1
v -4.4 12 -0.2
v -4.4 12 -0.3
v -4 1.2 -0.1
v -4 1.2 -0.2
v -4 1.2 -0.3
v -4 4.4 -0.1
v -4 4.4 -0.2
v -4 4.4 -0.3
v 4.6 0 -0.1
v 4.6 0 -0.2
v 4.6 3.6 -0.1
v 4.6 3.6 -0.2
v 4.7 0.1 -0.2
v 4.7 0.1 -0.3
v 4.7 3.5 -0.2
v 4.7 3.5 -0.3
v 6.3 0.1 -0.2
v 6.3 0.1 -0.3
v 6.3 3.5 -0.2
v 6.3 3.5 -0.3
v 7.2 4 -0.1
v 7.2 4 -0.2
v 7.2 4.1 -0.1
v 7.2 4.1 -0.2
v 7.4 3.7 0.5
v 7.4 3.7 0.4
v 7.4 3.9 0.4
v 7.4 3.9 0.3
v 7.4 4 0.5
v 7.4 4 0.4
v 7.4 4 0.3
v 7.4 4 0
v 7.4 4.1 0.4
v 7.4 4.1 0.3
v 7.4 4.1 0
v 7.4 4.1 -0.1
v 7.4 4.2 0.3
v 7.4 4.2 -0.1
v 8 0 -0.1
v 8 0 -2.1
v 8 12.6 -0.1
v 8 12.6 -2.1
v 4.2 3.7 0.5
v 4.2 4 0.5
v 4.9 3.7 0.5
v 4.9 4 0.5
v 5.3 3.7 0.5
v 5.3 4 0.5
v 6.1 3.7 0.5
v 6.1 4 0.5
v 6.5 3.7 0.5
v 6.5 4 0.5
v 7.4 3.7 0.5
v 7.4 4 0.5
v 4.2 4 0.4
v 4.2 4.1 0.4
v 4.9 4 0.4
v 4.9 4.1 0.4
v 5.3 4 0.4
v 5.3 4.1 0.4
v 6.1 4 0.4
v 6.1 4.1 0.4
v 6.5 4 0.4
v 6.5 4.1 0.4
v 7.4 4 0.4
v 7.4 4.1 0.4
v 4.2 4.1 0.3
v 4.2 4.2 0.3
v 4.9 4.1 0.3
v 4.9 4.2 0.3
v 5.3 4.1 0.3
v 5.3 4.2 0.3
v 6.1 4.1 0.3
v 6.1 4.2 0.3
v 6.5 4.1 0.3
v 6.5 4.2 0.3
v 7.4 4.1 0.3
v 7.4 4.2 0.3
v -4.6 0 -0.1
v -4.6 12.6 -0.1
v -4.4 5.9 -0.1
v -4.4 8.8 -0.1
v -4.4 9.4 -0.1
v -4.4 12 -0.1
v -4 1.2 -0.1
v -4 4.4 -0.1
v 3.9 1.2 -0.1
v 3.9 4.4 -0.1
v 4.2 4.1 -0.1
v 4.2 4.2 -0.1
v 4.6 0 -0.1
v 4.6 3.6 -0.1
v 4.9 4.1 -0.1
v 4.9 4.2 -0.1
v 5.3 4.1 -0.1
v 5.3 4.2 -0.1
v 6.1 4.1 -0.1
v 6.1 4.2 -0.1
v 6.5 4.1 -0.1
v 6.5 4.2 -0.1
v 7 0 -0.1
v 7 3.6 -0.1
v 7.2 4 -0.1
v 7.2 4.1 -0.1
v 7.3 4 -0.1
v 7.3 4.1 -0.1
v 7.4 4.1 -0.1
v 7.4 4.2 -0.1
v 7.8 5.9 -0.1
v 7.8 8.8 -0.1
v 7.8 9.4 -0.1
v 7.8 12 -0.1
v 8 0 -0.1
v 8 12.6 -0.1
v 4.6 0 -0.2
v 4.6 3.6 -0.2
v 4.7 0.1 -0.2
v 4.7 3.5 -0.2
v 6.2 0.1 -0.2
v 6.2 3.5 -0.2
v 6.3 0.1 -0.2
v 6.3 3.5 -0.2
v 6.9 0.1 -0.2
v 6.9 3.5 -0.2
v 7 0 -0.2
v 7 3.6 -0.2
v 7.2 4 -0.2
v 7.2 4.1 -0.2
v 7.3 4 -0.2
v 7.3 4.1 -0.2
v -4.4 5.9 -0.3
v -4.4 8.8 -0.3
v -4.4 9.4 -0.3
v -4.4 12 -0.3
v -4 1.2 -0.3
v -4 4.4 -0.3
v 3.9 1.2 -0.3
v 3.9 4.4 -0.3
v 4.7 0.1 -0.3
v 4.7 3.5 -0.3
v 6.2 0.1 -0.3
v 6.2 3.5 -0.3
v 6.3 0.1 -0.3
v 6.3 3.5 -0.3
v 6.9 0.1 -0.3
v 6.9 3.5 -0.3
v 7.8 5.9 -0.3
v 7.8 8.8 -0.3
v 7.8 9.4 -0.3
v 7.8 12 -0.3
v 4.2 3.7 0.4
v 4.2 3.9 0.4
v 4.9 3.7 0.4
v 4.9 3.9 0.4
v 5.3 3.7 0.4
v 5.3 3.9 0.4
v 6.1 3.7 0.4
v 6.1 3.9 0.4
v 6.5 3.7 0.4
v 6.5 3.9 0.4
v 7.4 3.7 0.4
v 7.4 3.9 0.4
v 4.2 3.9 0.3
v 4.2 4 0.3
v 4.9 3.9 0.3
v 4.9 4 0.3
v 5.3 3.9 0.3
v 5.3 4 0.3
v 6.1 3.9 0.3
v 6.1 4 0.3
v 6.5 3.9 0.3
v 6.5 4 0.3
v 7.4 3.9 0.3
v 7.4 4 0.3
v 4.2 4 0
v 4.2 4.1 0
v 4.9 4 0
v 4.9 4.1 0
v 5.3 4 0
v 5.3 4.1 0
v 6.1 4 0
v 6.1 4.1 0
v 6.5 4 0
v 6.5 4.1 0
v 7.4 4 0
v 7.4 4.1 0
v -4.6 0 -2.1
v -4.6 12.6 -2.1
v 8 0 -2.1
v 8 12.6 -2.1
v -4.6 0 -0.1
v 4.6 0 -0.1
v 7 0 -0.1
v 8 0 -0.1
v -4.5 0 -0.2
v 4.6 0 -0.2
v 7 0 -0.2
v 7.9 0 -0.2
v 4.6 0 -0.3
v 7 0 -0.3
v -4.5 0 -2
v 7.9 0 -2
v -4.6 0 -2.1
v 8 0 -2.1
v 4.7 3.5 -0.2
v 6.2 3.5 -0.2
v 6.3 3.5 -0.2
v 6.9 3.5 -0.2
v 4.7 3.5 -0.3
v 6.2 3.5 -0.3
v 6.3 3.5 -0.3
v 6.9 3.5 -0.3
v 4.6 3.6 -0.1
v 7 3.6 -0.1
v 4.6 3.6 -0.2
v 7 3.6 -0.2
v 4.2 3.7 0.5
v 4.9 3.7 0.5
v 5.3 3.7 0.5
v 6.1 3.7 0.5
v 6.5 3.7 0.5
v 7.4 3.7 0.5
v 4.2 3.7 0.4
v 4.9 3.7 0.4
v 5.3 3.7 0.4
v 6.1 3.7 0.4
v 6.5 3.7 0.4
v 7.4 3.7 0.4
v 4.2 3.9 0.4
v 4.9 3.9 0.4
v 5.3 3.9 0.4
v 6.1 3.9 0.4
v 6.5 3.9 0.4
v 7.4 3.9 0.4
v 4.2 3.9 0.3
v 4.9 3.9 0.3
v 5.3 3.9 0.3
v 6.1 3.9 0.3
v 6.5 3.9 0.3
v 7.4 3.9 0.3
v 4.2 4 0.3
v 4.9 4 0.3
v 5.3 4 0.3
v 6.1 4 0.3
v 6.5 4 0.3
v 7.4 4 0.3
v 4.2 4 0
v 4.9 4 0
v 5.3 4 0
v 6.1 4 0
v 6.5 4 0
v 7.4 4 0
v 4.2 4.1 0
v 4.9 4.1 0
v 5.3 4.1 0
v 6.1 4.1 0
v 6.5 4.1 0
v 7.4 4.1 0
v 4.2 4.1 -0.1
v 4.9 4.1 -0.1
v 5.3 4.1 -0.1
v 6.1 4.1 -0.1
v 6.5 4.1 -0.1
v 7.2 4.1 -0.1
v 7.3 4.1 -0.1
v 7.4 4.1 -0.1
v 7.2 4.1 -0.2
v 7.3 4.1 -0.2
v -4 4.4 -0.1
v 3.9 4.4 -0.1
v -4 4.4 -0.2
v 3.9 4.4 -0.2
v -4 4.4 -0.3
v 3.9 4.4 -0.3
v -4.4 8.8 -0.1
v 7.8 8.8 -0.1
v -4.4 8.8 -0.2
v 7.8 8.8 -0.2
v -4.4 8.8 -0.3
v 7.8 8.8 -0.3
v -4.4 12 -0.1
v 7.8 12 -0.1
v -4.4 12 -0.2
v 7.8 12 -0.2
v -4.4 12 -0.3
v 7.8 12 -0.3
v 4.7 0.1 -0.2
v 6.2 0.1 -0.2
v 6.3 0.1 -0.2
v 6.9 0.1 -0.2
v 4.7 0.1 -0.3
v 6.2 0.1 -0.3
v 6.3 0.1 -0.3
v 6.9 0.1 -0.3
v -4 1.2 -0.1
v 3.9 1.2 -0.1
v -4 1.2 -0.2
v 3.9 1.2 -0.2
v -4 1.2 -0.3
v 3.9 1.2 -0.3
v 4.2 4 0.5
v 4.9 4 0.5
v 5.3 4 0.5
v 6.1 4 0.5
v 6.5 4 0.5
v 7.4 4 0.5
v 4.2 4 0.4
v 4.9 4 0.4
v 5.3 4 0.4
v 6.1 4 0.4
v 6.5 4 0.4
v 7.4 4 0.4
v 7.2 4 -0.1
v 7.3 4 -0.1
v 7.2 4 -0.2
v 7.3 4 -0.2
v 4.2 4.1 0.4
v 4.9 4.1 0.4
v 5.3 4.1 0.4
v 6.1 4.1 0.4
v 6.5 4.1 0.4
v 7.4 4.1 0.4
v 4.2 4.1 0.3
v 4.9 4.1 0.3
v 5.3 4.1 0.3
v 6.1 4.1 0.3
v 6.5 4.1 0.3
v 7.4 4.1 0.3
v 4.2 4.2 0.3
v 4.9 4.2 0.3
v 5.3 4.2 0.3
v 6.1 4.2 0.3
v 6.5 4.2 0.3
v 7.4 4.2 0.3
v 4.2 4.2 -0.1
v 4.9 4.2 -0.1
v 5.3 4.2 -0.1
v 6.1 4.2 -0.1
v 6.5 4.2 -0.1
v 7.4 4.2 -0.1
v -4.4 5.9 -0.1
v 7.8 5.9 -0.1
v -4.4 5.9 -0.3
v 7.8 5.9 -0.3
v -4.4 9.4 -0.1
v 7.8 9.4 -0.1
v -4.4 9.4 -0.3
v 7.8 9.4 -0.3
v -4.6 12.6 -0.1
v 8 12.6 -0.1
v -4.6 12.6 -2.1
v 8 12.6 -2.1

# faces
f 3/2/1 2/2/1 1/2/1
f 4/2/1 2/2/1 3/2/1
f 8/2/1 6/2/1 5/2/1
f 9/1/1 7/1/1 6/1/1
f 9/2/1 6/2/1 8/2/1
f 10/1/1 7/1/1 9/1/1
f 13/4/1 12/4/1 11/4/1
f 15/4/1 13/4/1 11/4/1
f 15/4/1 14/4/1 13/4/1
f 16/4/1 14/4/1 15/4/1
f 17/4/1 14/4/1 16/4/1
f 19/4/1 18/4/1 17/4/1
f 19/4/1 17/4/1 16/4/1
f 20/4/1 18/4/1 19/4/1
f 21/4/1 18/4/1 20/4/1
f 23/4/1 22/4/1 21/4/1
f 23/4/1 21/4/1 20/4/1
f 24/4/1 22/4/1 23/4/1
f 27/3/1 26/3/1 25/3/1
f 28/3/1 26/3/1 27/3/1
f 31/3/1 30/3/1 29/3/1
f 32/3/1 30/3/1 31/3/1
f 35/2/1 34/2/1 33/2/1
f 36/2/1 34/2/1 35/2/1
f 39/2/1 38/2/1 37/2/1
f 40/2/1 38/2/1 39/2/1
f 43/2/1 42/2/1 41/2/1
f 44/2/1 42/2/1 43/2/1
f 45/2/1 42/2/1 44/2/1
f 48/2/1 47/2/1 46/2/1
f 49/2/1 47/2/1 48/2/1
f 50/2/1 47/2/1 49/2/1
f 51/2/2 52/2/2 53/2/2
f 53/2/2 52/2/2 54/2/2
f 54/2/2 52/2/2 55/2/2
f 56/2/2 57/2/2 58/2/2
f 58/2/2 57/2/2 59/2/2
f 59/2/2 57/2/2 60/2/2
f 61/2/2 62/2/2 64/2/2
f 62/1/2 63/1/2 65/1/2
f 64/2/2 62/2/2 65/2/2
f 65/1/2 63/1/2 66/1/2
f 67/2/2 68/2/2 69/2/2
f 69/2/2 68/2/2 70/2/2
f 71/3/2 72/3/2 73/3/2
f 73/3/2 72/3/2 74/3/2
f 75/3/2 76/3/2 77/3/2
f 77/3/2 76/3/2 78/3/2
f 79/2/2 80/2/2 81/2/2
f 81/2/2 80/2/2 82/2/2
f 83/4/2 84/4/2 85/4/2
f 83/4/2 85/4/2 87/4/2
f 85/4/2 86/4/2 87/4/2
f 87/4/2 86/4/2 88/4/2
f 88/4/2 86/4/2 89/4/2
f 89/4/2 90/4/2 91/4/2
f 88/4/2 89/4/2 91/4/2
f 91/4/2 90/4/2 92/4/2
f 92/4/2 90/4/2 93/4/2
f 93/4/2 94/4/2 95/4/2
f 92/4/2 93/4/2 95/4/2
f 95/4/2 94/4/2 96/4/2
f 97/2/2 98/2/2 99/2/2
f 99/2/2 98/2/2 100/2/2
f 103/4/3 102/4/3 101/4/3
f 104/4/3 102/4/3 103/4/3
f 105/5/3 104/5/3 103/5/3
f 106/5/3 104/5/3 105/5/3
f 107/4/3 106/4/3 105/4/3
f 108/4/3 106/4/3 107/4/3
f 109/5/3 108/5/3 107/5/3
f 110/5/3 108/5/3 109/5/3
f 111/4/3 110/4/3 109/4/3
f 112/4/3 110/4/3 111/4/3
f 115/4/3 114/4/3 113/4/3
f 116/4/3 114/4/3 115/4/3
f 117/5/3 116/5/3 115/5/3
f 118/5/3 116/5/3 117/5/3
f 119/4/3 118/4/3 117/4/3
f 120/4/3 118/4/3 119/4/3
f 121/5/3 120/5/3 119/5/3
f 122/5/3 120/5/3 121/5/3
f 123/4/3 122/4/3 121/4/3
f 124/4/3 122/4/3 123/4/3
f 127/4/3 126/4/3 125/4/3
f 128/4/3 126/4/3 127/4/3
f 129/5/3 128/5/3 127/5/3
f 130/5/3 128/5/3 129/5/3
f 131/4/3 130/4/3 129/4/3
f 132/4/3 130/4/3 131/4/3
f 133/5/3 132/5/3 131/5/3
f 134/5/3 132/5/3 133/5/3
f 135/4/3 134/4/3 133/4/3
f 136/4/3 134/4/3 135/4/3
f 139/2/3 138/2/3 137/2/3
f 140/2/3 138/2/3 139/2/3
f 141/2/3 138/2/3 140/2/3
f 142/2/3 138/2/3 141/2/3
f 143/2/3 139/2/3 137/2/3
f 144/2/3 139/2/3 143/2/3
f 145/2/3 143/2/3 137/2/3
f 146/2/3 139/2/3 144/2/3
f 147/2/3 146/2/3 145/2/3
f 148/2/3 146/2/3 147/2/3
f 149/2/3 145/2/3 137/2/3
f 149/2/3 147/2/3 145/2/3
f 150/2/3 147/2/3 149/2/3
f 151/2/3 147/2/3 150/2/3
f 152/2/3 146/2/3 148/2/3
f 153/2/3 151/2/3 150/2/3
f 154/2/3 146/2/3 152/2/3
f 155/2/3 153/2/3 150/2/3
f 156/2/3 146/2/3 154/2/3
f 157/2/3 155/2/3 150/2/3
f 158/2/3 146/2/3 156/2/3
f 160/2/3 157/2/3 150/2/3
f 161/2/3 157/2/3 160/2/3
f 161/2/3 160/2/3 159/2/3
f 162/2/3 157/2/3 161/2/3
f 163/2/3 161/2/3 159/2/3
f 165/2/3 164/2/3 163/2/3
f 166/2/3 146/2/3 158/2/3
f 167/2/3 139/2/3 146/2/3
f 167/2/3 166/2/3 165/2/3
f 167/2/3 146/2/3 166/2/3
f 168/2/3 141/2/3 140/2/3
f 169/2/3 141/2/3 168/2/3
f 170/2/3 138/2/3 142/2/3
f 171/2/3 169/2/3 168/2/3
f 171/2/3 170/2/3 169/2/3
f 171/2/3 167/2/3 165/2/3
f 171/2/3 165/2/3 163/2/3
f 171/2/3 168/2/3 167/2/3
f 171/2/3 163/2/3 159/2/3
f 172/2/3 138/2/3 170/2/3
f 172/2/3 170/2/3 171/2/3
f 175/3/3 174/3/3 173/3/3
f 176/3/3 174/3/3 175/3/3
f 177/3/3 175/3/3 173/3/3
f 178/3/3 174/3/3 176/3/3
f 179/3/3 177/3/3 173/3/3
f 179/3/3 178/3/3 177/3/3
f 180/3/3 174/3/3 178/3/3
f 180/3/3 178/3/3 179/3/3
f 181/3/3 179/3/3 173/3/3
f 182/3/3 174/3/3 180/3/3
f 183/3/3 181/3/3 173/3/3
f 183/3/3 182/3/3 181/3/3
f 184/3/3 174/3/3 182/3/3
f 184/3/3 182/3/3 183/3/3
f 187/1/3 186/1/3 185/1/3
f 188/1/3 186/1/3 187/1/3
f 195/6/3 194/6/3 193/6/3
f 196/6/3 194/6/3 195/6/3
f 199/6/3 198/6/3 197/6/3
f 200/6/3 198/6/3 199/6/3
f 203/6/3 202/6/3 201/6/3
f 204/6/3 202/6/3 203/6/3
f 205/6/3 190/6/3 189/6/3
f 206/6/3 190/6/3 205/6/3
f 207/6/3 192/6/3 191/6/3
f 208/6/3 192/6/3 207/6/3
f 209/4/4 210/4/4 211/4/4
f 211/4/4 210/4/4 212/4/4
f 211/5/4 212/5/4 213/5/4
f 213/5/4 212/5/4 214/5/4
f 213/4/4 214/4/4 215/4/4
f 215/4/4 214/4/4 216/4/4
f 215/5/4 216/5/4 217/5/4
f 217/5/4 216/5/4 218/5/4
f 217/4/4 218/4/4 219/4/4
f 219/4/4 218/4/4 220/4/4
f 221/4/4 222/4/4 223/4/4
f 223/4/4 222/4/4 224/4/4
f 223/5/4 224/5/4 225/5/4
f 225/5/4 224/5/4 226/5/4
f 225/4/4 226/4/4 227/4/4
f 227/4/4 226/4/4 228/4/4
f 227/5/4 228/5/4 229/5/4
f 229/5/4 228/5/4 230/5/4
f 229/4/4 230/4/4 231/4/4
f 231/4/4 230/4/4 232/4/4
f 233/4/4 234/4/4 235/4/4
f 235/4/4 234/4/4 236/4/4
f 235/5/4 236/5/4 237/5/4
f 237/5/4 236/5/4 238/5/4
f 237/4/4 238/4/4 239/4/4
f 239/4/4 238/4/4 240/4/4
f 239/5/4 240/5/4 241/5/4
f 241/5/4 240/5/4 242/5/4
f 241/4/4 242/4/4 243/4/4
f 243/4/4 242/4/4 244/4/4
f 245/2/4 246/2/4 247/2/4
f 247/2/4 246/2/4 248/2/4
f 253/2/5 250/2/5 249/2/5
f 254/2/5 250/2/5 253/2/5
f 255/2/5 252/2/5 251/2/5
f 256/2/5 252/2/5 255/2/5
f 257/1/5 254/1/5 253/1/5
f 257/3/5 255/3/5 254/3/5
f 258/1/5 256/1/5 255/1/5
f 258/3/5 255/3/5 257/3/5
f 259/2/5 253/2/5 249/2/5
f 259/1/5 257/1/5 253/1/5
f 259/1/5 258/1/5 257/1/5
f 260/2/5 252/2/5 256/2/5
f 260/1/5 258/1/5 259/1/5
f 260/1/5 256/1/5 258/1/5
f 261/2/5 259/2/5 249/2/5
f 261/2/5 260/2/5 259/2/5
f 262/2/5 252/2/5 260/2/5
f 262/2/5 260/2/5 261/2/5
f 267/3/5 264/3/5 263/3/5
f 268/3/5 264/3/5 267/3/5
f 269/3/5 266/3/5 265/3/5
f 270/3/5 266/3/5 269/3/5
f 273/2/5 272/2/5 271/2/5
f 274/2/5 272/2/5 273/2/5
f 281/4/5 276/4/5 275/4/5
f 282/5/5 277/5/5 276/5/5
f 282/4/5 276/4/5 281/4/5
f 283/4/5 278/4/5 277/4/5
f 283/5/5 277/5/5 282/5/5
f 284/5/5 279/5/5 278/5/5
f 284/4/5 278/4/5 283/4/5
f 285/4/5 280/4/5 279/4/5
f 285/5/5 279/5/5 284/5/5
f 286/4/5 280/4/5 285/4/5
f 293/4/5 288/4/5 287/4/5
f 294/5/5 289/5/5 288/5/5
f 294/4/5 288/4/5 293/4/5
f 295/4/5 290/4/5 289/4/5
f 295/5/5 289/5/5 294/5/5
f 296/5/5 291/5/5 290/5/5
f 296/4/5 290/4/5 295/4/5
f 297/4/5 292/4/5 291/4/5
f 297/5/5 291/5/5 296/5/5
f 298/4/5 292/4/5 297/4/5
f 305/4/5 300/4/5 299/4/5
f 306/5/5 301/5/5 300/5/5
f 306/4/5 300/4/5 305/4/5
f 307/4/5 302/4/5 301/4/5
f 307/5/5 301/5/5 306/5/5
f 308/5/5 303/5/5 302/5/5
f 308/4/5 302/4/5 307/4/5
f 309/4/5 304/4/5 303/4/5
f 309/5/5 303/5/5 308/5/5
f 310/4/5 304/4/5 309/4/5
f 317/4/5 312/4/5 311/4/5
f 318/5/5 313/5/5 312/5/5
f 318/4/5 312/4/5 317/4/5
f 319/4/5 314/4/5 313/4/5
f 319/5/5 313/5/5 318/5/5
f 320/5/5 315/5/5 314/5/5
f 320/4/5 314/4/5 319/4/5
f 321/4/5 316/4/5 315/4/5
f 321/5/5 315/5/5 320/5/5
f 322/4/5 316/4/5 321/4/5
f 323/4/5 316/4/5 322/4/5
f 324/4/5 316/4/5 323/4/5
f 325/1/5 323/1/5 322/1/5
f 326/1/5 323/1/5 325/1/5
f 329/2/5 328/2/5 327/2/5
f 330/2/5 328/2/5 329/2/5
f 331/1/5 330/1/5 329/1/5
f 332/1/5 330/1/5 331/1/5
f 335/2/5 334/2/5 333/2/5
f 336/2/5 334/2/5 335/2/5
f 337/1/5 336/1/5 335/1/5
f 338/1/5 336/1/5 337/1/5
f 341/2/5 340/2/5 339/2/5
f 342/2/5 340/2/5 341/2/5
f 343/1/5 342/1/5 341/1/5
f 344/1/5 342/1/5 343/1/5
f 345/3/6 346/3/6 349/3/6
f 349/3/6 346/3/6 350/3/6
f 347/3/6 348/3/6 351/3/6
f 351/3/6 348/3/6 352/3/6
f 353/2/6 354/2/6 355/2/6
f 355/2/6 354/2/6 356/2/6
f 355/2/6 356/2/6 357/2/6
f 357/2/6 356/2/6 358/2/6
f 359/4/6 360/4/6 365/4/6
f 360/5/6 361/5/6 366/5/6
f 365/4/6 360/4/6 366/4/6
f 361/4/6 362/4/6 367/4/6
f 366/5/6 361/5/6 367/5/6
f 362/5/6 363/5/6 368/5/6
f 367/4/6 362/4/6 368/4/6
f 363/4/6 364/4/6 369/4/6
f 368/5/6 363/5/6 369/5/6
f 369/4/6 364/4/6 370/4/6
f 371/2/6 372/2/6 373/2/6
f 373/2/6 372/2/6 374/2/6
f 375/4/6 376/4/6 381/4/6
f 376/5/6 377/5/6 382/5/6
f 381/4/6 376/4/6 382/4/6
f 377/4/6 378/4/6 383/4/6
f 382/5/6 377/5/6 383/5/6
f 378/5/6 379/5/6 384/5/6
f 383/4/6 378/4/6 384/4/6
f 379/4/6 380/4/6 385/4/6
f 384/5/6 379/5/6 385/5/6
f 385/4/6 380/4/6 386/4/6
f 387/4/6 388/4/6 393/4/6
f 388/5/6 389/5/6 394/5/6
f 393/4/6 388/4/6 394/4/6
f 389/4/6 390/4/6 395/4/6
f 394/5/6 389/5/6 395/5/6
f 390/5/6 391/5/6 396/5/6
f 395/4/6 390/4/6 396/4/6
f 391/4/6 392/4/6 397/4/6
f 396/5/6 391/5/6 397/5/6
f 397/4/6 392/4/6 398/4/6
f 399/2/6 400/2/6 401/2/6
f 401/2/6 400/2/6 402/2/6
f 403/2/6 404/2/6 405/2/6
f 405/2/6 404/2/6 406/2/6
f 407/2/6 408/2/6 409/2/6
f 409/2/6 408/2/6 410/2/6
