# MagicaVoxel @ Ephtracy

# group
o 

# material
mtllib Bottle 3.mtl
usemtl palette

# normals
vn -1 0 0
vn 1 0 0
vn 0 0 1
vn 0 0 -1
vn 0 -1 0
vn 0 1 0

# texcoords
vt 0.181641 0.5
vt 0.650391 0.5
vt 0.677734 0.5
vt 0.994141 0.5

# verts
v 3.5 6.3 -8.6
v 3.5 6.3 -8.9
v 3.5 6.4 -8.7
v 3.5 6.4 -8.8
v 3.5 7 -8.7
v 3.5 7 -8.8
v 3.5 7.1 -8.6
v 3.5 7.1 -8.9
v 3.6 7.1 -8.7
v 3.6 7.1 -8.8
v 3.6 7.2 -8.7
v 3.6 7.2 -8.8
v 3.7 7.1 -8.7
v 3.7 7.1 -8.8
v 3.7 7.2 -8.7
v 3.7 7.2 -8.8
v 3.8 6.3 -8.6
v 3.8 6.3 -8.9
v 3.8 6.4 -8.7
v 3.8 6.4 -8.8
v 3.8 7 -8.7
v 3.8 7 -8.8
v 3.8 7.1 -8.6
v 3.8 7.1 -8.9
v 3.5 6.3 -8.6
v 3.5 7.1 -8.6
v 3.6 6.4 -8.6
v 3.6 7 -8.6
v 3.7 6.4 -8.6
v 3.7 7 -8.6
v 3.8 6.3 -8.6
v 3.8 7.1 -8.6
v 3.6 7.1 -8.7
v 3.6 7.2 -8.7
v 3.7 7.1 -8.7
v 3.7 7.2 -8.7
v 3.6 7.1 -8.8
v 3.6 7.2 -8.8
v 3.7 7.1 -8.8
v 3.7 7.2 -8.8
v 3.5 6.3 -8.9
v 3.5 7.1 -8.9
v 3.6 6.4 -8.9
v 3.6 7 -8.9
v 3.7 6.4 -8.9
v 3.7 7 -8.9
v 3.8 6.3 -8.9
v 3.8 7.1 -8.9
v 3.5 6.3 -8.6
v 3.8 6.3 -8.6
v 3.5 6.3 -8.9
v 3.8 6.3 -8.9
v 3.5 7.1 -8.6
v 3.8 7.1 -8.6
v 3.6 7.1 -8.7
v 3.7 7.1 -8.7
v 3.6 7.1 -8.8
v 3.7 7.1 -8.8
v 3.5 7.1 -8.9
v 3.8 7.1 -8.9
v 3.6 7.2 -8.7
v 3.7 7.2 -8.7
v 3.6 7.2 -8.8
v 3.7 7.2 -8.8

# faces
f 3/3/1 2/3/1 1/3/1
f 4/3/1 2/3/1 3/3/1
f 5/3/1 3/3/1 1/3/1
f 5/2/1 4/2/1 3/2/1
f 6/3/1 2/3/1 4/3/1
f 6/2/1 4/2/1 5/2/1
f 7/3/1 5/3/1 1/3/1
f 7/3/1 6/3/1 5/3/1
f 8/3/1 2/3/1 6/3/1
f 8/3/1 6/3/1 7/3/1
f 11/4/1 10/4/1 9/4/1
f 12/4/1 10/4/1 11/4/1
f 13/4/2 14/4/2 15/4/2
f 15/4/2 14/4/2 16/4/2
f 17/3/2 18/3/2 19/3/2
f 19/3/2 18/3/2 20/3/2
f 17/3/2 19/3/2 21/3/2
f 19/2/2 20/2/2 21/2/2
f 20/3/2 18/3/2 22/3/2
f 21/2/2 20/2/2 22/2/2
f 17/3/2 21/3/2 23/3/2
f 21/3/2 22/3/2 23/3/2
f 22/3/2 18/3/2 24/3/2
f 23/3/2 22/3/2 24/3/2
f 27/3/3 26/3/3 25/3/3
f 28/3/3 26/3/3 27/3/3
f 29/3/3 27/3/3 25/3/3
f 29/2/3 28/2/3 27/2/3
f 30/3/3 26/3/3 28/3/3
f 30/2/3 28/2/3 29/2/3
f 31/3/3 29/3/3 25/3/3
f 31/3/3 30/3/3 29/3/3
f 32/3/3 26/3/3 30/3/3
f 32/3/3 30/3/3 31/3/3
f 35/4/3 34/4/3 33/4/3
f 36/4/3 34/4/3 35/4/3
f 37/4/4 38/4/4 39/4/4
f 39/4/4 38/4/4 40/4/4
f 41/3/4 42/3/4 43/3/4
f 43/3/4 42/3/4 44/3/4
f 41/3/4 43/3/4 45/3/4
f 43/2/4 44/2/4 45/2/4
f 44/3/4 42/3/4 46/3/4
f 45/2/4 44/2/4 46/2/4
f 41/3/4 45/3/4 47/3/4
f 45/3/4 46/3/4 47/3/4
f 46/3/4 42/3/4 48/3/4
f 47/3/4 46/3/4 48/3/4
f 51/3/5 50/3/5 49/3/5
f 52/3/5 50/3/5 51/3/5
f 53/3/6 54/3/6 55/3/6
f 55/3/6 54/3/6 56/3/6
f 53/3/6 55/3/6 57/3/6
f 56/3/6 54/3/6 58/3/6
f 53/3/6 57/3/6 59/3/6
f 57/3/6 58/3/6 59/3/6
f 58/3/6 54/3/6 60/3/6
f 59/3/6 58/3/6 60/3/6
f 61/4/6 62/4/6 63/4/6
f 63/4/6 62/4/6 64/4/6
