# MagicaVoxel @ Ephtracy

# group
o 

# material
mtllib Food_Shop-1.mtl
usemtl palette

# normals
vn -1 0 0
vn 1 0 0
vn 0 0 1
vn 0 0 -1
vn 0 -1 0
vn 0 1 0

# texcoords
vt 0.0292969 0.5
vt 0.876953 0.5
vt 0.880859 0.5
vt 0.884766 0.5
vt 0.888672 0.5

# verts
v 1.8 2.2 5.5
v 1.8 2.2 4.6
v 1.8 2.3 5.1
v 1.8 2.3 4.6
v 1.8 2.9 5.1
v 1.8 2.9 4.8
v 1.8 3.5 5.5
v 1.8 3.5 4.8
v 2 2.9 4.8
v 2 2.9 4.6
v 2 3.1 4.8
v 2 3.1 4.6
v 2.6 2.9 4.8
v 2.6 2.9 4.6
v 2.6 3.1 4.8
v 2.6 3.1 4.6
v 2.8 2.2 5.5
v 2.8 2.2 4.6
v 2.8 2.3 5.5
v 2.8 2.3 5.4
v 2.8 2.3 5.2
v 2.8 2.3 5.1
v 2.8 2.3 4.6
v 2.8 2.9 5.1
v 2.8 2.9 4.8
v 2.8 3.1 5.5
v 2.8 3.1 5.1
v 2.8 3.5 5.5
v 2.8 3.5 4.8
v 3 2.3 5.5
v 3 2.3 5.1
v 3 3.1 5.5
v 3 3.1 5.1
v 1.8 2.2 5.5
v 1.8 3.5 5.5
v 2.8 2.2 5.5
v 2.8 2.3 5.5
v 2.8 3.1 5.5
v 2.8 3.5 5.5
v 2.9 2.3 5.5
v 2.9 3.1 5.5
v 3 2.3 5.5
v 3 3.1 5.5
v 1.8 2.3 5.1
v 1.8 2.9 5.1
v 2.1 2.3 5.1
v 2.4 2.3 5.1
v 2.8 2.3 5.1
v 2.8 2.9 5.1
v 2.8 3.1 5.1
v 2.9 2.3 5.1
v 2.9 3.1 5.1
v 3 2.3 5.1
v 3 3.1 5.1
v 1.8 2.9 4.8
v 1.8 3.5 4.8
v 2 2.9 4.8
v 2 3.1 4.8
v 2.6 2.9 4.8
v 2.6 3.1 4.8
v 2.8 2.9 4.8
v 2.8 3.5 4.8
v 1.8 2.2 4.6
v 1.8 2.3 4.6
v 2 2.9 4.6
v 2 3.1 4.6
v 2.1 2.2 4.6
v 2.1 2.3 4.6
v 2.1 2.9 4.6
v 2.1 3 4.6
v 2.3 2.9 4.6
v 2.3 3 4.6
v 2.4 2.2 4.6
v 2.4 2.3 4.6
v 2.5 2.9 4.6
v 2.5 3 4.6
v 2.6 2.9 4.6
v 2.6 3.1 4.6
v 2.8 2.2 4.6
v 2.8 2.3 4.6
v 1.8 2.2 5.5
v 2.8 2.2 5.5
v 1.9 2.2 5.4
v 2.7 2.2 5.4
v 1.9 2.2 5.1
v 2.1 2.2 5.1
v 2.4 2.2 5.1
v 2.7 2.2 5.1
v 2 2.2 5
v 2.1 2.2 5
v 2.4 2.2 5
v 2.5 2.2 5
v 2 2.2 4.7
v 2.1 2.2 4.7
v 2.4 2.2 4.7
v 2.5 2.2 4.7
v 1.8 2.2 4.6
v 2.1 2.2 4.6
v 2.4 2.2 4.6
v 2.8 2.2 4.6
v 2.8 2.3 5.5
v 2.9 2.3 5.5
v 3 2.3 5.5
v 2.8 2.3 5.4
v 2.9 2.3 5.4
v 2.8 2.3 5.2
v 2.9 2.3 5.2
v 2.8 2.3 5.1
v 2.9 2.3 5.1
v 3 2.3 5.1
v 1.8 2.9 5.1
v 2.8 2.9 5.1
v 1.8 2.9 4.8
v 2 2.9 4.8
v 2.6 2.9 4.8
v 2.8 2.9 4.8
v 2.1 2.9 4.7
v 2.3 2.9 4.7
v 2.5 2.9 4.7
v 2 2.9 4.6
v 2.1 2.9 4.6
v 2.3 2.9 4.6
v 2.5 2.9 4.6
v 2.6 2.9 4.6
v 1.8 2.3 5.1
v 2.1 2.3 5.1
v 2.4 2.3 5.1
v 2.8 2.3 5.1
v 2 2.3 5
v 2.1 2.3 5
v 2.4 2.3 5
v 2.5 2.3 5
v 2 2.3 4.7
v 2.1 2.3 4.7
v 2.4 2.3 4.7
v 2.5 2.3 4.7
v 1.8 2.3 4.6
v 2.1 2.3 4.6
v 2.4 2.3 4.6
v 2.8 2.3 4.6
v 2.8 3.1 5.5
v 2.9 3.1 5.5
v 3 3.1 5.5
v 2.8 3.1 5.1
v 2.9 3.1 5.1
v 3 3.1 5.1
v 2 3.1 4.8
v 2.6 3.1 4.8
v 2 3.1 4.6
v 2.6 3.1 4.6
v 1.8 3.5 5.5
v 2.8 3.5 5.5
v 1.8 3.5 4.8
v 2.8 3.5 4.8

# faces
f 3/2/1 2/2/1 1/2/1
f 4/2/1 2/2/1 3/2/1
f 5/2/1 3/2/1 1/2/1
f 7/2/1 5/2/1 1/2/1
f 7/2/1 6/2/1 5/2/1
f 8/2/1 6/2/1 7/2/1
f 11/2/1 10/2/1 9/2/1
f 12/2/1 10/2/1 11/2/1
f 13/2/2 14/2/2 15/2/2
f 15/2/2 14/2/2 16/2/2
f 17/2/2 18/2/2 19/2/2
f 19/2/2 18/2/2 20/2/2
f 20/2/2 18/2/2 21/2/2
f 21/2/2 18/2/2 22/2/2
f 22/2/2 18/2/2 23/2/2
f 24/2/2 25/2/2 27/2/2
f 26/2/2 27/2/2 28/2/2
f 27/2/2 25/2/2 29/2/2
f 28/2/2 27/2/2 29/2/2
f 30/3/2 31/3/2 32/3/2
f 32/3/2 31/3/2 33/3/2
f 36/2/3 35/2/3 34/2/3
f 37/2/3 35/2/3 36/2/3
f 38/2/3 35/2/3 37/2/3
f 39/2/3 35/2/3 38/2/3
f 40/2/3 38/2/3 37/2/3
f 41/2/3 38/2/3 40/2/3
f 42/3/3 41/3/3 40/3/3
f 43/3/3 41/3/3 42/3/3
f 44/2/4 45/2/4 46/2/4
f 46/2/4 45/2/4 47/2/4
f 47/2/4 45/2/4 48/2/4
f 48/2/4 45/2/4 49/2/4
f 48/2/4 49/2/4 51/2/4
f 49/2/4 50/2/4 51/2/4
f 51/2/4 50/2/4 52/2/4
f 51/3/4 52/3/4 53/3/4
f 53/3/4 52/3/4 54/3/4
f 55/2/4 56/2/4 57/2/4
f 57/2/4 56/2/4 58/2/4
f 58/2/4 56/2/4 60/2/4
f 59/2/4 60/2/4 61/2/4
f 60/2/4 56/2/4 62/2/4
f 61/2/4 60/2/4 62/2/4
f 63/2/4 64/2/4 67/2/4
f 67/2/4 64/2/4 68/2/4
f 65/2/4 66/2/4 69/2/4
f 69/2/4 66/2/4 70/2/4
f 69/5/4 70/5/4 71/5/4
f 70/2/4 66/2/4 72/2/4
f 71/5/4 70/5/4 72/5/4
f 67/3/4 68/3/4 73/3/4
f 73/3/4 68/3/4 74/3/4
f 71/4/4 72/4/4 75/4/4
f 72/2/4 66/2/4 76/2/4
f 75/4/4 72/4/4 76/4/4
f 75/2/4 76/2/4 77/2/4
f 76/2/4 66/2/4 78/2/4
f 77/2/4 76/2/4 78/2/4
f 73/2/4 74/2/4 79/2/4
f 79/2/4 74/2/4 80/2/4
f 83/2/5 82/2/5 81/2/5
f 84/2/5 82/2/5 83/2/5
f 85/2/5 83/2/5 81/2/5
f 85/1/5 84/1/5 83/1/5
f 86/1/5 84/1/5 85/1/5
f 87/1/5 84/1/5 86/1/5
f 88/2/5 82/2/5 84/2/5
f 88/1/5 84/1/5 87/1/5
f 89/2/5 86/2/5 85/2/5
f 90/3/5 87/3/5 86/3/5
f 90/2/5 86/2/5 89/2/5
f 91/2/5 88/2/5 87/2/5
f 91/3/5 87/3/5 90/3/5
f 92/2/5 88/2/5 91/2/5
f 93/2/5 89/2/5 85/2/5
f 93/3/5 90/3/5 89/3/5
f 93/3/5 92/3/5 91/3/5
f 93/3/5 91/3/5 90/3/5
f 94/3/5 92/3/5 93/3/5
f 95/3/5 92/3/5 94/3/5
f 96/2/5 88/2/5 92/2/5
f 96/3/5 92/3/5 95/3/5
f 97/2/5 85/2/5 81/2/5
f 97/2/5 93/2/5 85/2/5
f 97/2/5 94/2/5 93/2/5
f 98/3/5 95/3/5 94/3/5
f 98/2/5 94/2/5 97/2/5
f 99/2/5 96/2/5 95/2/5
f 99/3/5 95/3/5 98/3/5
f 100/2/5 88/2/5 96/2/5
f 100/2/5 96/2/5 99/2/5
f 100/2/5 82/2/5 88/2/5
f 104/2/5 102/2/5 101/2/5
f 105/3/5 103/3/5 102/3/5
f 105/2/5 102/2/5 104/2/5
f 106/1/5 105/1/5 104/1/5
f 107/3/5 103/3/5 105/3/5
f 107/1/5 105/1/5 106/1/5
f 108/2/5 107/2/5 106/2/5
f 109/3/5 103/3/5 107/3/5
f 109/2/5 107/2/5 108/2/5
f 110/3/5 103/3/5 109/3/5
f 113/2/5 112/2/5 111/2/5
f 114/2/5 112/2/5 113/2/5
f 115/2/5 112/2/5 114/2/5
f 116/2/5 112/2/5 115/2/5
f 117/2/5 115/2/5 114/2/5
f 118/2/5 115/2/5 117/2/5
f 119/2/5 115/2/5 118/2/5
f 120/2/5 117/2/5 114/2/5
f 121/5/5 118/5/5 117/5/5
f 121/2/5 117/2/5 120/2/5
f 122/4/5 119/4/5 118/4/5
f 122/5/5 118/5/5 121/5/5
f 123/2/5 115/2/5 119/2/5
f 123/4/5 119/4/5 122/4/5
f 124/2/5 115/2/5 123/2/5
f 125/2/6 126/2/6 129/2/6
f 126/3/6 127/3/6 130/3/6
f 129/2/6 126/2/6 130/2/6
f 127/2/6 128/2/6 131/2/6
f 130/3/6 127/3/6 131/3/6
f 131/2/6 128/2/6 132/2/6
f 129/3/6 130/3/6 133/3/6
f 125/2/6 129/2/6 133/2/6
f 131/3/6 132/3/6 133/3/6
f 130/3/6 131/3/6 133/3/6
f 133/3/6 132/3/6 134/3/6
f 134/3/6 132/3/6 135/3/6
f 132/2/6 128/2/6 136/2/6
f 135/3/6 132/3/6 136/3/6
f 125/2/6 133/2/6 137/2/6
f 133/2/6 134/2/6 137/2/6
f 134/3/6 135/3/6 138/3/6
f 137/2/6 134/2/6 138/2/6
f 135/2/6 136/2/6 139/2/6
f 138/3/6 135/3/6 139/3/6
f 136/2/6 128/2/6 140/2/6
f 139/2/6 136/2/6 140/2/6
f 141/2/6 142/2/6 144/2/6
f 142/3/6 143/3/6 145/3/6
f 144/2/6 142/2/6 145/2/6
f 145/3/6 143/3/6 146/3/6
f 147/2/6 148/2/6 149/2/6
f 149/2/6 148/2/6 150/2/6
f 151/2/6 152/2/6 153/2/6
f 153/2/6 152/2/6 154/2/6
