# MagicaVoxel @ Ephtracy

# group
o 

# material
mtllib Food_Shop-0.mtl
usemtl palette

# normals
vn -1 0 0
vn 1 0 0
vn 0 0 1
vn 0 0 -1
vn 0 -1 0
vn 0 1 0

# texcoords
vt 0.306641 0.5
vt 0.908203 0.5
vt 0.912109 0.5

# verts
v 3.3 1.4 2
v 3.3 1.4 1.7
v 3.3 1.6 2
v 3.3 1.6 1.7
v 3.4 0.1 2.1
v 3.4 0.1 2
v 3.4 0.1 1.7
v 3.4 0.1 1.6
v 3.4 1.4 2
v 3.4 1.4 1.7
v 3.4 1.5 2.1
v 3.4 1.5 2
v 3.4 1.5 1.7
v 3.4 1.5 1.6
v 3.4 1.6 2.1
v 3.4 1.6 2
v 3.4 1.6 1.7
v 3.4 1.6 1.6
v 3.5 1.4 2.2
v 3.5 1.4 2.1
v 3.5 1.4 1.6
v 3.5 1.4 1.5
v 3.5 1.5 2.1
v 3.5 1.5 1.6
v 3.5 1.6 2.2
v 3.5 1.6 2.1
v 3.5 1.6 1.6
v 3.5 1.6 1.5
v 3.8 0.1 2.1
v 3.8 0.1 2
v 3.8 0.1 1.7
v 3.8 0.1 1.6
v 3.8 1.4 2.1
v 3.8 1.4 2
v 3.8 1.4 1.7
v 3.8 1.4 1.6
v 3.5 0.1 2.1
v 3.5 0.1 2
v 3.5 0.1 1.7
v 3.5 0.1 1.6
v 3.5 1.4 2.1
v 3.5 1.4 2
v 3.5 1.4 1.7
v 3.5 1.4 1.6
v 3.8 1.4 2.2
v 3.8 1.4 2.1
v 3.8 1.4 1.6
v 3.8 1.4 1.5
v 3.8 1.5 2.1
v 3.8 1.5 1.6
v 3.8 1.6 2.2
v 3.8 1.6 2.1
v 3.8 1.6 1.6
v 3.8 1.6 1.5
v 3.9 0.1 2.1
v 3.9 0.1 2
v 3.9 0.1 1.7
v 3.9 0.1 1.6
v 3.9 1.4 2
v 3.9 1.4 1.7
v 3.9 1.5 2.1
v 3.9 1.5 2
v 3.9 1.5 1.7
v 3.9 1.5 1.6
v 3.9 1.6 2.1
v 3.9 1.6 2
v 3.9 1.6 1.7
v 3.9 1.6 1.6
v 4 1.4 2
v 4 1.4 1.7
v 4 1.6 2
v 4 1.6 1.7
v 3.5 1.4 2.2
v 3.5 1.6 2.2
v 3.8 1.4 2.2
v 3.8 1.6 2.2
v 3.4 0.1 2.1
v 3.4 1.5 2.1
v 3.4 1.6 2.1
v 3.5 0.1 2.1
v 3.5 1.4 2.1
v 3.5 1.5 2.1
v 3.5 1.6 2.1
v 3.8 0.1 2.1
v 3.8 1.4 2.1
v 3.8 1.5 2.1
v 3.8 1.6 2.1
v 3.9 0.1 2.1
v 3.9 1.5 2.1
v 3.9 1.6 2.1
v 3.3 1.4 2
v 3.3 1.6 2
v 3.4 1.4 2
v 3.4 1.5 2
v 3.4 1.6 2
v 3.9 1.4 2
v 3.9 1.5 2
v 3.9 1.6 2
v 4 1.4 2
v 4 1.6 2
v 3.4 0.1 1.7
v 3.4 1.4 1.7
v 3.5 0.1 1.7
v 3.5 1.4 1.7
v 3.8 0.1 1.7
v 3.8 1.4 1.7
v 3.9 0.1 1.7
v 3.9 1.4 1.7
v 3.4 0.1 2
v 3.4 1.4 2
v 3.5 0.1 2
v 3.5 1.4 2
v 3.8 0.1 2
v 3.8 1.4 2
v 3.9 0.1 2
v 3.9 1.4 2
v 3.3 1.4 1.7
v 3.3 1.6 1.7
v 3.4 1.4 1.7
v 3.4 1.5 1.7
v 3.4 1.6 1.7
v 3.9 1.4 1.7
v 3.9 1.5 1.7
v 3.9 1.6 1.7
v 4 1.4 1.7
v 4 1.6 1.7
v 3.4 0.1 1.6
v 3.4 1.5 1.6
v 3.4 1.6 1.6
v 3.5 0.1 1.6
v 3.5 1.4 1.6
v 3.5 1.5 1.6
v 3.5 1.6 1.6
v 3.8 0.1 1.6
v 3.8 1.4 1.6
v 3.8 1.5 1.6
v 3.8 1.6 1.6
v 3.9 0.1 1.6
v 3.9 1.5 1.6
v 3.9 1.6 1.6
v 3.5 1.4 1.5
v 3.5 1.6 1.5
v 3.8 1.4 1.5
v 3.8 1.6 1.5
v 3.4 0.1 2.1
v 3.5 0.1 2.1
v 3.8 0.1 2.1
v 3.9 0.1 2.1
v 3.4 0.1 2
v 3.5 0.1 2
v 3.8 0.1 2
v 3.9 0.1 2
v 3.4 0.1 1.7
v 3.5 0.1 1.7
v 3.8 0.1 1.7
v 3.9 0.1 1.7
v 3.4 0.1 1.6
v 3.5 0.1 1.6
v 3.8 0.1 1.6
v 3.9 0.1 1.6
v 3.5 1.4 2.2
v 3.8 1.4 2.2
v 3.5 1.4 2.1
v 3.8 1.4 2.1
v 3.3 1.4 2
v 3.4 1.4 2
v 3.5 1.4 2
v 3.8 1.4 2
v 3.9 1.4 2
v 4 1.4 2
v 3.5 1.4 1.9
v 3.8 1.4 1.9
v 3.3 1.4 1.7
v 3.4 1.4 1.7
v 3.5 1.4 1.7
v 3.8 1.4 1.7
v 3.9 1.4 1.7
v 4 1.4 1.7
v 3.5 1.4 1.6
v 3.8 1.4 1.6
v 3.5 1.4 1.5
v 3.8 1.4 1.5
v 3.5 1.6 2.2
v 3.8 1.6 2.2
v 3.4 1.6 2.1
v 3.5 1.6 2.1
v 3.8 1.6 2.1
v 3.9 1.6 2.1
v 3.3 1.6 2
v 3.4 1.6 2
v 3.9 1.6 2
v 4 1.6 2
v 3.3 1.6 1.7
v 3.4 1.6 1.7
v 3.9 1.6 1.7
v 4 1.6 1.7
v 3.4 1.6 1.6
v 3.5 1.6 1.6
v 3.8 1.6 1.6
v 3.9 1.6 1.6
v 3.5 1.6 1.5
v 3.8 1.6 1.5

# faces
f 3/3/1 2/3/1 1/3/1
f 4/3/1 2/3/1 3/3/1
f 9/2/1 6/2/1 5/2/1
f 10/2/1 8/2/1 7/2/1
f 11/2/1 9/2/1 5/2/1
f 12/2/1 9/2/1 11/2/1
f 13/2/1 8/2/1 10/2/1
f 14/2/1 8/2/1 13/2/1
f 15/3/1 12/3/1 11/3/1
f 16/3/1 12/3/1 15/3/1
f 17/3/1 14/3/1 13/3/1
f 18/3/1 14/3/1 17/3/1
f 23/3/1 20/3/1 19/3/1
f 24/3/1 22/3/1 21/3/1
f 25/3/1 23/3/1 19/3/1
f 26/3/1 23/3/1 25/3/1
f 27/3/1 22/3/1 24/3/1
f 28/3/1 22/3/1 27/3/1
f 33/2/1 30/2/1 29/2/1
f 34/2/1 30/2/1 33/2/1
f 35/2/1 32/2/1 31/2/1
f 36/2/1 32/2/1 35/2/1
f 37/2/2 38/2/2 41/2/2
f 41/2/2 38/2/2 42/2/2
f 39/2/2 40/2/2 43/2/2
f 43/2/2 40/2/2 44/2/2
f 45/3/2 46/3/2 49/3/2
f 47/3/2 48/3/2 50/3/2
f 45/3/2 49/3/2 51/3/2
f 51/3/2 49/3/2 52/3/2
f 50/3/2 48/3/2 53/3/2
f 53/3/2 48/3/2 54/3/2
f 55/2/2 56/2/2 59/2/2
f 57/2/2 58/2/2 60/2/2
f 55/2/2 59/2/2 61/2/2
f 61/2/2 59/2/2 62/2/2
f 60/2/2 58/2/2 63/2/2
f 63/2/2 58/2/2 64/2/2
f 61/3/2 62/3/2 65/3/2
f 65/3/2 62/3/2 66/3/2
f 63/3/2 64/3/2 67/3/2
f 67/3/2 64/3/2 68/3/2
f 69/3/2 70/3/2 71/3/2
f 71/3/2 70/3/2 72/3/2
f 75/3/3 74/3/3 73/3/3
f 76/3/3 74/3/3 75/3/3
f 80/2/3 78/2/3 77/2/3
f 81/2/3 78/2/3 80/2/3
f 82/3/3 79/3/3 78/3/3
f 82/2/3 78/2/3 81/2/3
f 83/3/3 79/3/3 82/3/3
f 88/2/3 85/2/3 84/2/3
f 88/2/3 86/2/3 85/2/3
f 89/3/3 87/3/3 86/3/3
f 89/2/3 86/2/3 88/2/3
f 90/3/3 87/3/3 89/3/3
f 93/3/3 92/3/3 91/3/3
f 94/3/3 92/3/3 93/3/3
f 95/3/3 92/3/3 94/3/3
f 99/3/3 97/3/3 96/3/3
f 99/3/3 98/3/3 97/3/3
f 100/3/3 98/3/3 99/3/3
f 103/2/3 102/2/3 101/2/3
f 104/2/3 102/2/3 103/2/3
f 107/2/3 106/2/3 105/2/3
f 108/2/3 106/2/3 107/2/3
f 109/2/4 110/2/4 111/2/4
f 111/2/4 110/2/4 112/2/4
f 113/2/4 114/2/4 115/2/4
f 115/2/4 114/2/4 116/2/4
f 117/3/4 118/3/4 119/3/4
f 119/3/4 118/3/4 120/3/4
f 120/3/4 118/3/4 121/3/4
f 122/3/4 123/3/4 125/3/4
f 123/3/4 124/3/4 125/3/4
f 125/3/4 124/3/4 126/3/4
f 127/2/4 128/2/4 130/2/4
f 130/2/4 128/2/4 131/2/4
f 128/3/4 129/3/4 132/3/4
f 131/2/4 128/2/4 132/2/4
f 132/3/4 129/3/4 133/3/4
f 134/2/4 135/2/4 138/2/4
f 135/2/4 136/2/4 138/2/4
f 136/3/4 137/3/4 139/3/4
f 138/2/4 136/2/4 139/2/4
f 139/3/4 137/3/4 140/3/4
f 141/3/4 142/3/4 143/3/4
f 143/3/4 142/3/4 144/3/4
f 149/2/5 146/2/5 145/2/5
f 150/2/5 146/2/5 149/2/5
f 151/2/5 148/2/5 147/2/5
f 152/2/5 148/2/5 151/2/5
f 157/2/5 154/2/5 153/2/5
f 158/2/5 154/2/5 157/2/5
f 159/2/5 156/2/5 155/2/5
f 160/2/5 156/2/5 159/2/5
f 163/3/5 162/3/5 161/3/5
f 164/3/5 162/3/5 163/3/5
f 167/3/5 164/3/5 163/3/5
f 168/3/5 164/3/5 167/3/5
f 171/3/5 168/3/5 167/3/5
f 171/1/5 167/1/5 166/1/5
f 172/1/5 169/1/5 168/1/5
f 172/3/5 168/3/5 171/3/5
f 173/3/5 166/3/5 165/3/5
f 174/1/5 171/1/5 166/1/5
f 174/3/5 166/3/5 173/3/5
f 174/1/5 172/1/5 171/1/5
f 175/1/5 172/1/5 174/1/5
f 176/1/5 169/1/5 172/1/5
f 176/1/5 172/1/5 175/1/5
f 177/3/5 170/3/5 169/3/5
f 177/1/5 169/1/5 176/1/5
f 178/3/5 170/3/5 177/3/5
f 179/1/5 176/1/5 175/1/5
f 180/1/5 176/1/5 179/1/5
f 181/3/5 180/3/5 179/3/5
f 182/3/5 180/3/5 181/3/5
f 183/3/6 184/3/6 186/3/6
f 186/3/6 184/3/6 187/3/6
f 185/3/6 186/3/6 190/3/6
f 187/3/6 188/3/6 190/3/6
f 186/3/6 187/3/6 190/3/6
f 190/3/6 188/3/6 191/3/6
f 189/3/6 190/3/6 193/3/6
f 191/3/6 192/3/6 193/3/6
f 190/3/6 191/3/6 193/3/6
f 193/3/6 192/3/6 194/3/6
f 194/3/6 192/3/6 195/3/6
f 195/3/6 192/3/6 196/3/6
f 194/3/6 195/3/6 197/3/6
f 197/3/6 195/3/6 198/3/6
f 198/3/6 195/3/6 199/3/6
f 199/3/6 195/3/6 200/3/6
f 198/3/6 199/3/6 201/3/6
f 201/3/6 199/3/6 202/3/6
