# MagicaVoxel @ Ephtracy

# group
o 

# material
mtllib Garage Computer.mtl
usemtl palette

# normals
vn -1 0 0
vn 1 0 0
vn 0 0 1
vn 0 0 -1
vn 0 -1 0
vn 0 1 0

# texcoords
vt 0.306641 0.5
vt 0.685547 0.5
vt 0.794922 0.5
vt 0.861328 0.5
vt 0.970703 0.5
vt 0.974609 0.5
vt 0.982422 0.5
vt 0.990234 0.5
vt 0.994141 0.5

# verts
v -0.7 0 0.1
v -0.7 0 -1.5
v -0.7 0.5 -0.2
v -0.7 0.5 -1.3
v -0.7 0.7 -1.1
v -0.7 0.7 -1.2
v -0.7 0.8 -1.1
v -0.7 0.8 -1.2
v -0.7 1.6 -0.2
v -0.7 1.6 -1.3
v -0.7 2.7 0
v -0.7 2.7 -0.5
v -0.7 2.9 -0.2
v -0.7 2.9 -0.3
v -0.7 3 -0.2
v -0.7 3 -0.3
v -0.7 3.2 -1.3
v -0.7 3.2 -1.5
v -0.7 3.4 -1.1
v -0.7 3.4 -1.3
v -0.7 3.6 -0.9
v -0.7 3.6 -1.1
v -0.7 3.8 0
v -0.7 3.8 -0.5
v -0.7 4 -0.7
v -0.7 4 -0.9
v -0.7 4.2 0.1
v -0.7 4.2 -0.7
v -0.7 4.6 0.1
v -0.7 4.6 -0.7
v -0.7 4.8 0.1
v -0.7 4.8 -0.7
v -0.5 4.2 -0.1
v -0.5 4.2 -0.5
v -0.5 4.6 -0.1
v -0.5 4.6 -0.5
v -0.5 4.8 -0.1
v -0.5 4.8 -0.5
v -0.5 5 -0.1
v -0.5 5 -0.5
v -0.3 2.3 0
v -0.3 2.3 -0.1
v -0.3 2.7 0
v -0.3 2.7 -0.1
v 0.2 2 0
v 0.2 2 -0.1
v 0.2 2.1 0
v 0.2 2.1 -0.1
v 0.2 2.2 0
v 0.2 2.2 -0.1
v 0.2 2.3 0
v 0.2 2.3 -0.1
v 0.2 2.4 0
v 0.2 2.4 -0.1
v 0.2 2.5 0
v 0.2 2.5 -0.1
v 0.2 2.6 0
v 0.2 2.6 -0.1
v 0.2 2.7 0
v 0.2 2.7 -0.1
v 0.4 2.2 0
v 0.4 2.2 -0.1
v 0.4 2.3 0
v 0.4 2.3 -0.1
v 0.4 2.4 0
v 0.4 2.4 -0.1
v 0.4 2.5 0
v 0.4 2.5 -0.1
v 0.4 2.6 0
v 0.4 2.6 -0.1
v 0.4 2.7 0
v 0.4 2.7 -0.1
v 0.6 2.2 0
v 0.6 2.2 -0.1
v 0.6 2.3 0
v 0.6 2.3 -0.1
v 0.6 2.4 0
v 0.6 2.4 -0.1
v 0.6 2.5 0
v 0.6 2.5 -0.1
v 0.6 2.6 0
v 0.6 2.6 -0.1
v 0.6 2.7 0
v 0.6 2.7 -0.1
v 0.7 3 -0.1
v 0.7 3 -0.2
v 0.7 3.8 -0.1
v 0.7 3.8 -0.2
v 0.9 0 0.1
v 0.9 0 -0.1
v 0.9 4 0.1
v 0.9 4 -0.1
v -0.5 0 0.1
v -0.5 0 -0.1
v -0.5 4 0.1
v -0.5 4 -0.1
v -0.3 3 -0.1
v -0.3 3 -0.2
v -0.3 3.8 -0.1
v -0.3 3.8 -0.2
v -0.3 4.2 -0.1
v -0.3 4.2 -0.5
v -0.3 4.6 -0.1
v -0.3 4.6 -0.5
v -0.3 4.8 -0.1
v -0.3 4.8 -0.5
v -0.3 5 -0.1
v -0.3 5 -0.5
v -0.1 4.6 0.1
v -0.1 4.6 -0.7
v -0.1 4.8 0.1
v -0.1 4.8 -0.7
v 0.1 2.3 0
v 0.1 2.3 -0.1
v 0.1 2.7 0
v 0.1 2.7 -0.1
v 0.3 2.2 0
v 0.3 2.2 -0.1
v 0.3 2.3 0
v 0.3 2.3 -0.1
v 0.3 2.4 0
v 0.3 2.4 -0.1
v 0.3 2.5 0
v 0.3 2.5 -0.1
v 0.3 2.6 0
v 0.3 2.6 -0.1
v 0.3 2.7 0
v 0.3 2.7 -0.1
v 0.5 2.2 0
v 0.5 2.2 -0.1
v 0.5 2.3 0
v 0.5 2.3 -0.1
v 0.5 2.4 0
v 0.5 2.4 -0.1
v 0.5 2.5 0
v 0.5 2.5 -0.1
v 0.5 2.6 0
v 0.5 2.6 -0.1
v 0.5 2.7 0
v 0.5 2.7 -0.1
v 0.7 2 0
v 0.7 2 -0.1
v 0.7 2.1 0
v 0.7 2.1 -0.1
v 0.7 2.2 0
v 0.7 2.2 -0.1
v 0.7 2.3 0
v 0.7 2.3 -0.1
v 0.7 2.4 0
v 0.7 2.4 -0.1
v 0.7 2.5 0
v 0.7 2.5 -0.1
v 0.7 2.6 0
v 0.7 2.6 -0.1
v 0.7 2.7 0
v 0.7 2.7 -0.1
v 1.1 0 0.1
v 1.1 0 -1.5
v 1.1 0.4 -0.2
v 1.1 0.4 -1.4
v 1.1 0.6 -1.1
v 1.1 0.6 -1.2
v 1.1 0.7 -1.1
v 1.1 0.7 -1.2
v 1.1 1.5 -0.2
v 1.1 1.5 -1.4
v 1.1 2.6 -0.1
v 1.1 2.6 -0.7
v 1.1 2.8 -0.5
v 1.1 2.8 -0.6
v 1.1 2.9 -0.5
v 1.1 2.9 -0.6
v 1.1 3.2 -1.3
v 1.1 3.2 -1.5
v 1.1 3.4 -1.1
v 1.1 3.4 -1.3
v 1.1 3.6 -0.9
v 1.1 3.6 -1.1
v 1.1 3.8 -0.1
v 1.1 3.8 -0.7
v 1.1 4 -0.7
v 1.1 4 -0.9
v 1.1 4.2 0.1
v 1.1 4.2 -0.7
v -0.7 0 0.1
v -0.7 4.2 0.1
v -0.7 4.6 0.1
v -0.7 4.8 0.1
v -0.6 0 0.1
v -0.6 4.2 0.1
v -0.5 0 0.1
v -0.5 4 0.1
v -0.1 4.6 0.1
v -0.1 4.8 0.1
v 0.9 0 0.1
v 0.9 4 0.1
v 1 0 0.1
v 1 4.2 0.1
v 1.1 0 0.1
v 1.1 4.2 0.1
v -0.3 2.3 0
v -0.3 2.7 0
v 0.1 2.3 0
v 0.1 2.7 0
v 0.2 2 0
v 0.2 2.1 0
v 0.2 2.2 0
v 0.2 2.3 0
v 0.2 2.4 0
v 0.2 2.5 0
v 0.2 2.6 0
v 0.2 2.7 0
v 0.3 2.2 0
v 0.3 2.3 0
v 0.3 2.4 0
v 0.3 2.5 0
v 0.3 2.6 0
v 0.3 2.7 0
v 0.4 2.2 0
v 0.4 2.3 0
v 0.4 2.4 0
v 0.4 2.5 0
v 0.4 2.6 0
v 0.4 2.7 0
v 0.5 2.2 0
v 0.5 2.3 0
v 0.5 2.4 0
v 0.5 2.5 0
v 0.5 2.6 0
v 0.5 2.7 0
v 0.6 2.2 0
v 0.6 2.3 0
v 0.6 2.4 0
v 0.6 2.5 0
v 0.6 2.6 0
v 0.6 2.7 0
v 0.7 2 0
v 0.7 2.1 0
v 0.7 2.2 0
v 0.7 2.3 0
v 0.7 2.4 0
v 0.7 2.5 0
v 0.7 2.6 0
v 0.7 2.7 0
v -0.5 0 -0.1
v -0.5 4 -0.1
v -0.5 4.2 -0.1
v -0.5 4.6 -0.1
v -0.5 4.8 -0.1
v -0.5 5 -0.1
v -0.4 1.3 -0.1
v -0.4 3.9 -0.1
v -0.3 0.3 -0.1
v -0.3 1.1 -0.1
v -0.3 1.2 -0.1
v -0.3 1.3 -0.1
v -0.3 2.3 -0.1
v -0.3 2.7 -0.1
v -0.3 3 -0.1
v -0.3 3.8 -0.1
v -0.3 4.2 -0.1
v -0.3 4.6 -0.1
v -0.3 4.8 -0.1
v -0.3 5 -0.1
v -0.2 1.1 -0.1
v -0.2 1.2 -0.1
v 0.1 0.3 -0.1
v 0.1 1.1 -0.1
v 0.1 2.3 -0.1
v 0.1 2.7 -0.1
v 0.2 2 -0.1
v 0.2 2.1 -0.1
v 0.2 2.2 -0.1
v 0.2 2.3 -0.1
v 0.2 2.4 -0.1
v 0.2 2.5 -0.1
v 0.2 2.6 -0.1
v 0.2 2.7 -0.1
v 0.3 0.3 -0.1
v 0.3 1.1 -0.1
v 0.3 2.2 -0.1
v 0.3 2.3 -0.1
v 0.3 2.4 -0.1
v 0.3 2.5 -0.1
v 0.3 2.6 -0.1
v 0.3 2.7 -0.1
v 0.4 2.2 -0.1
v 0.4 2.3 -0.1
v 0.4 2.4 -0.1
v 0.4 2.5 -0.1
v 0.4 2.6 -0.1
v 0.4 2.7 -0.1
v 0.5 2.2 -0.1
v 0.5 2.3 -0.1
v 0.5 2.4 -0.1
v 0.5 2.5 -0.1
v 0.5 2.6 -0.1
v 0.5 2.7 -0.1
v 0.6 1.1 -0.1
v 0.6 1.2 -0.1
v 0.6 2.2 -0.1
v 0.6 2.3 -0.1
v 0.6 2.4 -0.1
v 0.6 2.5 -0.1
v 0.6 2.6 -0.1
v 0.6 2.7 -0.1
v 0.7 0.3 -0.1
v 0.7 1.1 -0.1
v 0.7 1.2 -0.1
v 0.7 1.3 -0.1
v 0.7 2 -0.1
v 0.7 2.1 -0.1
v 0.7 2.2 -0.1
v 0.7 2.3 -0.1
v 0.7 2.4 -0.1
v 0.7 2.5 -0.1
v 0.7 2.6 -0.1
v 0.7 2.7 -0.1
v 0.7 3 -0.1
v 0.7 3.8 -0.1
v 0.8 1.3 -0.1
v 0.8 3.9 -0.1
v 0.9 0 -0.1
v 0.9 4 -0.1
v -0.3 3 -0.2
v -0.3 3.8 -0.2
v 0.7 3 -0.2
v 0.7 3.8 -0.2
v -0.5 4.2 -0.5
v -0.5 4.6 -0.5
v -0.5 4.8 -0.5
v -0.5 5 -0.5
v -0.3 4.2 -0.5
v -0.3 4.6 -0.5
v -0.3 4.8 -0.5
v -0.3 5 -0.5
v -0.7 4 -0.7
v -0.7 4.2 -0.7
v -0.7 4.6 -0.7
v -0.7 4.8 -0.7
v -0.6 4.1 -0.7
v -0.6 4.2 -0.7
v -0.1 4.6 -0.7
v -0.1 4.8 -0.7
v 1 4.1 -0.7
v 1 4.2 -0.7
v 1.1 4 -0.7
v 1.1 4.2 -0.7
v -0.7 3.6 -0.9
v -0.7 4 -0.9
v 1.1 3.6 -0.9
v 1.1 4 -0.9
v -0.7 3.4 -1.1
v -0.7 3.6 -1.1
v 1.1 3.4 -1.1
v 1.1 3.6 -1.1
v -0.7 3.2 -1.3
v -0.7 3.4 -1.3
v 1.1 3.2 -1.3
v 1.1 3.4 -1.3
v -0.7 0 -1.5
v -0.7 3.2 -1.5
v 1.1 0 -1.5
v 1.1 3.2 -1.5
v -0.7 0 0.1
v -0.6 0 0.1
v -0.5 0 0.1
v 0.9 0 0.1
v 1 0 0.1
v 1.1 0 0.1
v -0.6 0 -0.1
v -0.5 0 -0.1
v 0.9 0 -0.1
v 1 0 -0.1
v -0.5 0 -0.2
v 0.9 0 -0.2
v -0.6 0 -1.4
v 1 0 -1.4
v -0.7 0 -1.5
v 1.1 0 -1.5
v 0.2 2 0
v 0.7 2 0
v 0.2 2 -0.1
v 0.7 2 -0.1
v 0.2 2.2 0
v 0.3 2.2 0
v 0.4 2.2 0
v 0.5 2.2 0
v 0.6 2.2 0
v 0.7 2.2 0
v 0.2 2.2 -0.1
v 0.3 2.2 -0.1
v 0.4 2.2 -0.1
v 0.5 2.2 -0.1
v 0.6 2.2 -0.1
v 0.7 2.2 -0.1
v -0.3 2.3 0
v 0.1 2.3 0
v -0.3 2.3 -0.1
v 0.1 2.3 -0.1
v 0.2 2.4 0
v 0.3 2.4 0
v 0.4 2.4 0
v 0.5 2.4 0
v 0.6 2.4 0
v 0.7 2.4 0
v 0.2 2.4 -0.1
v 0.3 2.4 -0.1
v 0.4 2.4 -0.1
v 0.5 2.4 -0.1
v 0.6 2.4 -0.1
v 0.7 2.4 -0.1
v 0.2 2.6 0
v 0.3 2.6 0
v 0.4 2.6 0
v 0.5 2.6 0
v 0.6 2.6 0
v 0.7 2.6 0
v 0.2 2.6 -0.1
v 0.3 2.6 -0.1
v 0.4 2.6 -0.1
v 0.5 2.6 -0.1
v 0.6 2.6 -0.1
v 0.7 2.6 -0.1
v -0.3 3.8 -0.1
v 0.7 3.8 -0.1
v -0.3 3.8 -0.2
v 0.7 3.8 -0.2
v -0.5 4 0.1
v 0.9 4 0.1
v -0.5 4 -0.1
v 0.9 4 -0.1
v -0.7 4.6 0.1
v -0.1 4.6 0.1
v -0.5 4.6 -0.1
v -0.3 4.6 -0.1
v -0.5 4.6 -0.5
v -0.3 4.6 -0.5
v -0.7 4.6 -0.7
v -0.1 4.6 -0.7
v 0.2 2.1 0
v 0.7 2.1 0
v 0.2 2.1 -0.1
v 0.7 2.1 -0.1
v 0.2 2.3 0
v 0.3 2.3 0
v 0.4 2.3 0
v 0.5 2.3 0
v 0.6 2.3 0
v 0.7 2.3 0
v 0.2 2.3 -0.1
v 0.3 2.3 -0.1
v 0.4 2.3 -0.1
v 0.5 2.3 -0.1
v 0.6 2.3 -0.1
v 0.7 2.3 -0.1
v 0.2 2.5 0
v 0.3 2.5 0
v 0.4 2.5 0
v 0.5 2.5 0
v 0.6 2.5 0
v 0.7 2.5 0
v 0.2 2.5 -0.1
v 0.3 2.5 -0.1
v 0.4 2.5 -0.1
v 0.5 2.5 -0.1
v 0.6 2.5 -0.1
v 0.7 2.5 -0.1
v -0.3 2.7 0
v 0.1 2.7 0
v 0.2 2.7 0
v 0.3 2.7 0
v 0.4 2.7 0
v 0.5 2.7 0
v 0.6 2.7 0
v 0.7 2.7 0
v -0.3 2.7 -0.1
v 0.1 2.7 -0.1
v 0.2 2.7 -0.1
v 0.3 2.7 -0.1
v 0.4 2.7 -0.1
v 0.5 2.7 -0.1
v 0.6 2.7 -0.1
v 0.7 2.7 -0.1
v -0.3 3 -0.1
v 0.7 3 -0.1
v -0.3 3 -0.2
v 0.7 3 -0.2
v -0.7 3.2 -1.3
v 1.1 3.2 -1.3
v -0.7 3.2 -1.5
v 1.1 3.2 -1.5
v -0.7 3.4 -1.1
v 1.1 3.4 -1.1
v -0.7 3.4 -1.3
v 1.1 3.4 -1.3
v -0.7 3.6 -0.9
v 1.1 3.6 -0.9
v -0.7 3.6 -1.1
v 1.1 3.6 -1.1
v -0.7 4 -0.7
v 1.1 4 -0.7
v -0.7 4 -0.9
v 1.1 4 -0.9
v -0.7 4.2 0.1
v -0.6 4.2 0.1
v 1 4.2 0.1
v 1.1 4.2 0.1
v -0.5 4.2 -0.1
v -0.3 4.2 -0.1
v -0.5 4.2 -0.5
v -0.3 4.2 -0.5
v -0.7 4.2 -0.7
v -0.6 4.2 -0.7
v 1 4.2 -0.7
v 1.1 4.2 -0.7
v -0.7 4.8 0.1
v -0.1 4.8 0.1
v -0.5 4.8 -0.1
v -0.3 4.8 -0.1
v -0.5 4.8 -0.5
v -0.3 4.8 -0.5
v -0.7 4.8 -0.7
v -0.1 4.8 -0.7
v -0.5 5 -0.1
v -0.3 5 -0.1
v -0.5 5 -0.5
v -0.3 5 -0.5

# faces
f 3/7/1 2/7/1 1/7/1
f 4/7/1 2/7/1 3/7/1
f 5/9/1 4/9/1 3/9/1
f 6/9/1 4/9/1 5/9/1
f 7/9/1 5/9/1 3/9/1
f 7/7/1 6/7/1 5/7/1
f 8/9/1 4/9/1 6/9/1
f 8/7/1 6/7/1 7/7/1
f 9/7/1 3/7/1 1/7/1
f 9/9/1 7/9/1 3/9/1
f 9/9/1 8/9/1 7/9/1
f 10/9/1 4/9/1 8/9/1
f 10/9/1 8/9/1 9/9/1
f 10/7/1 2/7/1 4/7/1
f 11/7/1 9/7/1 1/7/1
f 11/7/1 10/7/1 9/7/1
f 12/7/1 10/7/1 11/7/1
f 13/9/1 12/9/1 11/9/1
f 14/9/1 12/9/1 13/9/1
f 15/9/1 13/9/1 11/9/1
f 15/7/1 14/7/1 13/7/1
f 16/9/1 12/9/1 14/9/1
f 16/7/1 14/7/1 15/7/1
f 17/7/1 2/7/1 10/7/1
f 17/7/1 10/7/1 12/7/1
f 18/7/1 2/7/1 17/7/1
f 19/7/1 17/7/1 12/7/1
f 20/7/1 17/7/1 19/7/1
f 21/7/1 19/7/1 12/7/1
f 22/7/1 19/7/1 21/7/1
f 23/7/1 11/7/1 1/7/1
f 23/9/1 16/9/1 15/9/1
f 23/9/1 15/9/1 11/9/1
f 24/9/1 12/9/1 16/9/1
f 24/9/1 16/9/1 23/9/1
f 24/7/1 21/7/1 12/7/1
f 25/7/1 24/7/1 23/7/1
f 25/7/1 21/7/1 24/7/1
f 26/7/1 21/7/1 25/7/1
f 27/7/1 23/7/1 1/7/1
f 27/7/1 25/7/1 23/7/1
f 28/7/1 25/7/1 27/7/1
f 31/8/1 30/8/1 29/8/1
f 32/8/1 30/8/1 31/8/1
f 35/6/1 34/6/1 33/6/1
f 36/6/1 34/6/1 35/6/1
f 39/6/1 38/6/1 37/6/1
f 40/6/1 38/6/1 39/6/1
f 43/3/1 42/3/1 41/3/1
f 44/3/1 42/3/1 43/3/1
f 47/4/1 46/4/1 45/4/1
f 48/4/1 46/4/1 47/4/1
f 51/4/1 50/4/1 49/4/1
f 52/4/1 50/4/1 51/4/1
f 55/4/1 54/4/1 53/4/1
f 56/4/1 54/4/1 55/4/1
f 59/4/1 58/4/1 57/4/1
f 60/4/1 58/4/1 59/4/1
f 63/4/1 62/4/1 61/4/1
f 64/4/1 62/4/1 63/4/1
f 67/4/1 66/4/1 65/4/1
f 68/4/1 66/4/1 67/4/1
f 71/4/1 70/4/1 69/4/1
f 72/4/1 70/4/1 71/4/1
f 75/4/1 74/4/1 73/4/1
f 76/4/1 74/4/1 75/4/1
f 79/4/1 78/4/1 77/4/1
f 80/4/1 78/4/1 79/4/1
f 83/4/1 82/4/1 81/4/1
f 84/4/1 82/4/1 83/4/1
f 87/7/1 86/7/1 85/7/1
f 88/7/1 86/7/1 87/7/1
f 91/9/1 90/9/1 89/9/1
f 92/9/1 90/9/1 91/9/1
f 93/9/2 94/9/2 95/9/2
f 95/9/2 94/9/2 96/9/2
f 97/7/2 98/7/2 99/7/2
f 99/7/2 98/7/2 100/7/2
f 101/6/2 102/6/2 103/6/2
f 103/6/2 102/6/2 104/6/2
f 105/6/2 106/6/2 107/6/2
f 107/6/2 106/6/2 108/6/2
f 109/8/2 110/8/2 111/8/2
f 111/8/2 110/8/2 112/8/2
f 113/3/2 114/3/2 115/3/2
f 115/3/2 114/3/2 116/3/2
f 117/4/2 118/4/2 119/4/2
f 119/4/2 118/4/2 120/4/2
f 121/4/2 122/4/2 123/4/2
f 123/4/2 122/4/2 124/4/2
f 125/4/2 126/4/2 127/4/2
f 127/4/2 126/4/2 128/4/2
f 129/4/2 130/4/2 131/4/2
f 131/4/2 130/4/2 132/4/2
f 133/4/2 134/4/2 135/4/2
f 135/4/2 134/4/2 136/4/2
f 137/4/2 138/4/2 139/4/2
f 139/4/2 138/4/2 140/4/2
f 141/4/2 142/4/2 143/4/2
f 143/4/2 142/4/2 144/4/2
f 145/4/2 146/4/2 147/4/2
f 147/4/2 146/4/2 148/4/2
f 149/4/2 150/4/2 151/4/2
f 151/4/2 150/4/2 152/4/2
f 153/4/2 154/4/2 155/4/2
f 155/4/2 154/4/2 156/4/2
f 157/7/2 158/7/2 159/7/2
f 159/7/2 158/7/2 160/7/2
f 159/9/2 160/9/2 161/9/2
f 161/9/2 160/9/2 162/9/2
f 159/9/2 161/9/2 163/9/2
f 161/7/2 162/7/2 163/7/2
f 162/9/2 160/9/2 164/9/2
f 163/7/2 162/7/2 164/7/2
f 157/7/2 159/7/2 165/7/2
f 159/9/2 163/9/2 165/9/2
f 163/9/2 164/9/2 165/9/2
f 164/9/2 160/9/2 166/9/2
f 165/9/2 164/9/2 166/9/2
f 160/7/2 158/7/2 166/7/2
f 157/7/2 165/7/2 167/7/2
f 165/7/2 166/7/2 167/7/2
f 167/7/2 166/7/2 168/7/2
f 167/9/2 168/9/2 169/9/2
f 169/9/2 168/9/2 170/9/2
f 167/9/2 169/9/2 171/9/2
f 169/7/2 170/7/2 171/7/2
f 170/9/2 168/9/2 172/9/2
f 171/7/2 170/7/2 172/7/2
f 168/7/2 166/7/2 173/7/2
f 166/7/2 158/7/2 174/7/2
f 173/7/2 166/7/2 174/7/2
f 168/7/2 173/7/2 175/7/2
f 175/7/2 173/7/2 176/7/2
f 168/7/2 175/7/2 177/7/2
f 177/7/2 175/7/2 178/7/2
f 157/7/2 167/7/2 179/7/2
f 167/9/2 171/9/2 179/9/2
f 171/9/2 172/9/2 179/9/2
f 172/9/2 168/9/2 180/9/2
f 179/9/2 172/9/2 180/9/2
f 168/7/2 177/7/2 180/7/2
f 179/7/2 180/7/2 181/7/2
f 180/7/2 177/7/2 181/7/2
f 181/7/2 177/7/2 182/7/2
f 157/7/2 179/7/2 183/7/2
f 179/7/2 181/7/2 183/7/2
f 183/7/2 181/7/2 184/7/2
f 189/7/3 186/7/3 185/7/3
f 190/7/3 186/7/3 189/7/3
f 191/9/3 190/9/3 189/9/3
f 192/9/3 190/9/3 191/9/3
f 193/8/3 188/8/3 187/8/3
f 194/8/3 188/8/3 193/8/3
f 196/9/3 190/9/3 192/9/3
f 197/9/3 196/9/3 195/9/3
f 198/9/3 190/9/3 196/9/3
f 198/9/3 196/9/3 197/9/3
f 199/7/3 198/7/3 197/7/3
f 200/7/3 198/7/3 199/7/3
f 203/3/3 202/3/3 201/3/3
f 204/3/3 202/3/3 203/3/3
f 213/4/3 208/4/3 207/4/3
f 214/4/3 208/4/3 213/4/3
f 215/4/3 210/4/3 209/4/3
f 216/4/3 210/4/3 215/4/3
f 217/4/3 212/4/3 211/4/3
f 218/4/3 212/4/3 217/4/3
f 225/4/3 220/4/3 219/4/3
f 226/4/3 220/4/3 225/4/3
f 227/4/3 222/4/3 221/4/3
f 228/4/3 222/4/3 227/4/3
f 229/4/3 224/4/3 223/4/3
f 230/4/3 224/4/3 229/4/3
f 237/4/3 206/4/3 205/4/3
f 238/4/3 206/4/3 237/4/3
f 239/4/3 232/4/3 231/4/3
f 240/4/3 232/4/3 239/4/3
f 241/4/3 234/4/3 233/4/3
f 242/4/3 234/4/3 241/4/3
f 243/4/3 236/4/3 235/4/3
f 244/4/3 236/4/3 243/4/3
f 251/5/3 246/5/3 245/5/3
f 252/5/3 246/5/3 251/5/3
f 253/5/3 251/5/3 245/5/3
f 254/5/3 251/5/3 253/5/3
f 255/5/3 251/5/3 254/5/3
f 256/7/3 252/7/3 251/7/3
f 256/5/3 251/5/3 255/5/3
f 257/7/3 252/7/3 256/7/3
f 258/7/3 252/7/3 257/7/3
f 259/7/3 252/7/3 258/7/3
f 260/7/3 252/7/3 259/7/3
f 261/6/3 248/6/3 247/6/3
f 262/6/3 248/6/3 261/6/3
f 263/6/3 250/6/3 249/6/3
f 264/6/3 250/6/3 263/6/3
f 265/5/3 255/5/3 254/5/3
f 265/9/3 254/9/3 253/9/3
f 266/7/3 256/7/3 255/7/3
f 266/5/3 255/5/3 265/5/3
f 266/7/3 257/7/3 256/7/3
f 267/5/3 253/5/3 245/5/3
f 267/9/3 265/9/3 253/9/3
f 268/7/3 266/7/3 265/7/3
f 268/9/3 265/9/3 267/9/3
f 269/7/3 257/7/3 266/7/3
f 269/7/3 266/7/3 268/7/3
f 270/7/3 259/7/3 258/7/3
f 271/7/3 269/7/3 268/7/3
f 271/7/3 270/7/3 269/7/3
f 272/7/3 270/7/3 271/7/3
f 273/7/3 270/7/3 272/7/3
f 274/7/3 270/7/3 273/7/3
f 275/7/3 270/7/3 274/7/3
f 276/7/3 270/7/3 275/7/3
f 277/7/3 270/7/3 276/7/3
f 278/7/3 259/7/3 270/7/3
f 278/7/3 270/7/3 277/7/3
f 279/5/3 268/5/3 267/5/3
f 279/5/3 267/5/3 245/5/3
f 280/7/3 271/7/3 268/7/3
f 280/5/3 268/5/3 279/5/3
f 281/7/3 273/7/3 272/7/3
f 282/7/3 275/7/3 274/7/3
f 283/7/3 275/7/3 282/7/3
f 284/7/3 277/7/3 276/7/3
f 285/7/3 277/7/3 284/7/3
f 286/7/3 259/7/3 278/7/3
f 287/7/3 285/7/3 284/7/3
f 287/7/3 286/7/3 285/7/3
f 287/7/3 281/7/3 272/7/3
f 287/7/3 283/7/3 282/7/3
f 287/7/3 284/7/3 283/7/3
f 287/7/3 282/7/3 281/7/3
f 288/7/3 286/7/3 287/7/3
f 289/7/3 286/7/3 288/7/3
f 290/7/3 286/7/3 289/7/3
f 291/7/3 286/7/3 290/7/3
f 292/7/3 259/7/3 286/7/3
f 292/7/3 286/7/3 291/7/3
f 293/7/3 287/7/3 272/7/3
f 294/7/3 289/7/3 288/7/3
f 295/7/3 289/7/3 294/7/3
f 296/7/3 291/7/3 290/7/3
f 297/7/3 291/7/3 296/7/3
f 298/7/3 259/7/3 292/7/3
f 299/7/3 271/7/3 280/7/3
f 299/9/3 280/9/3 279/9/3
f 300/7/3 271/7/3 299/7/3
f 301/7/3 295/7/3 294/7/3
f 301/7/3 298/7/3 297/7/3
f 301/7/3 297/7/3 296/7/3
f 301/7/3 293/7/3 272/7/3
f 301/7/3 294/7/3 293/7/3
f 301/7/3 296/7/3 295/7/3
f 302/7/3 298/7/3 301/7/3
f 303/7/3 298/7/3 302/7/3
f 304/7/3 298/7/3 303/7/3
f 305/7/3 298/7/3 304/7/3
f 306/7/3 259/7/3 298/7/3
f 306/7/3 298/7/3 305/7/3
f 307/5/3 279/5/3 245/5/3
f 307/9/3 299/9/3 279/9/3
f 308/5/3 300/5/3 299/5/3
f 308/9/3 299/9/3 307/9/3
f 309/7/3 271/7/3 300/7/3
f 309/5/3 300/5/3 308/5/3
f 310/7/3 271/7/3 309/7/3
f 311/7/3 271/7/3 310/7/3
f 312/7/3 301/7/3 272/7/3
f 313/7/3 301/7/3 312/7/3
f 314/7/3 303/7/3 302/7/3
f 315/7/3 303/7/3 314/7/3
f 316/7/3 305/7/3 304/7/3
f 317/7/3 305/7/3 316/7/3
f 318/7/3 259/7/3 306/7/3
f 319/7/3 259/7/3 318/7/3
f 320/7/3 252/7/3 260/7/3
f 321/7/3 319/7/3 318/7/3
f 321/7/3 320/7/3 319/7/3
f 321/5/3 308/5/3 307/5/3
f 321/7/3 317/7/3 316/7/3
f 321/7/3 318/7/3 317/7/3
f 321/7/3 315/7/3 314/7/3
f 321/7/3 316/7/3 315/7/3
f 321/7/3 313/7/3 312/7/3
f 321/7/3 314/7/3 313/7/3
f 321/7/3 311/7/3 310/7/3
f 321/7/3 312/7/3 311/7/3
f 321/5/3 309/5/3 308/5/3
f 321/5/3 310/5/3 309/5/3
f 322/7/3 252/7/3 320/7/3
f 322/7/3 320/7/3 321/7/3
f 322/5/3 246/5/3 252/5/3
f 323/5/3 321/5/3 307/5/3
f 323/5/3 307/5/3 245/5/3
f 323/5/3 322/5/3 321/5/3
f 324/5/3 246/5/3 322/5/3
f 324/5/3 322/5/3 323/5/3
f 327/2/3 326/2/3 325/2/3
f 328/2/3 326/2/3 327/2/3
f 329/6/4 330/6/4 333/6/4
f 333/6/4 330/6/4 334/6/4
f 331/6/4 332/6/4 335/6/4
f 335/6/4 332/6/4 336/6/4
f 337/7/4 338/7/4 341/7/4
f 341/7/4 338/7/4 342/7/4
f 339/8/4 340/8/4 343/8/4
f 343/8/4 340/8/4 344/8/4
f 341/9/4 342/9/4 345/9/4
f 337/7/4 341/7/4 345/7/4
f 345/9/4 342/9/4 346/9/4
f 337/7/4 345/7/4 347/7/4
f 345/7/4 346/7/4 347/7/4
f 347/7/4 346/7/4 348/7/4
f 349/7/4 350/7/4 351/7/4
f 351/7/4 350/7/4 352/7/4
f 353/7/4 354/7/4 355/7/4
f 355/7/4 354/7/4 356/7/4
f 357/7/4 358/7/4 359/7/4
f 359/7/4 358/7/4 360/7/4
f 361/7/4 362/7/4 363/7/4
f 363/7/4 362/7/4 364/7/4
f 371/7/5 366/7/5 365/7/5
f 371/9/5 367/9/5 366/9/5
f 372/9/5 367/9/5 371/9/5
f 373/9/5 369/9/5 368/9/5
f 374/7/5 370/7/5 369/7/5
f 374/9/5 369/9/5 373/9/5
f 375/5/5 373/5/5 372/5/5
f 375/1/5 372/1/5 371/1/5
f 376/1/5 374/1/5 373/1/5
f 376/5/5 373/5/5 375/5/5
f 377/1/5 375/1/5 371/1/5
f 377/7/5 371/7/5 365/7/5
f 377/1/5 376/1/5 375/1/5
f 378/7/5 370/7/5 374/7/5
f 378/1/5 376/1/5 377/1/5
f 378/1/5 374/1/5 376/1/5
f 379/7/5 377/7/5 365/7/5
f 379/7/5 378/7/5 377/7/5
f 380/7/5 370/7/5 378/7/5
f 380/7/5 378/7/5 379/7/5
f 383/4/5 382/4/5 381/4/5
f 384/4/5 382/4/5 383/4/5
f 391/4/5 386/4/5 385/4/5
f 392/4/5 386/4/5 391/4/5
f 393/4/5 388/4/5 387/4/5
f 394/4/5 388/4/5 393/4/5
f 395/4/5 390/4/5 389/4/5
f 396/4/5 390/4/5 395/4/5
f 399/3/5 398/3/5 397/3/5
f 400/3/5 398/3/5 399/3/5
f 407/4/5 402/4/5 401/4/5
f 408/4/5 402/4/5 407/4/5
f 409/4/5 404/4/5 403/4/5
f 410/4/5 404/4/5 409/4/5
f 411/4/5 406/4/5 405/4/5
f 412/4/5 406/4/5 411/4/5
f 419/4/5 414/4/5 413/4/5
f 420/4/5 414/4/5 419/4/5
f 421/4/5 416/4/5 415/4/5
f 422/4/5 416/4/5 421/4/5
f 423/4/5 418/4/5 417/4/5
f 424/4/5 418/4/5 423/4/5
f 427/7/5 426/7/5 425/7/5
f 428/7/5 426/7/5 427/7/5
f 431/9/5 430/9/5 429/9/5
f 432/9/5 430/9/5 431/9/5
f 435/8/5 434/8/5 433/8/5
f 436/8/5 434/8/5 435/8/5
f 437/8/5 435/8/5 433/8/5
f 438/8/5 434/8/5 436/8/5
f 439/8/5 437/8/5 433/8/5
f 439/8/5 438/8/5 437/8/5
f 440/8/5 434/8/5 438/8/5
f 440/8/5 438/8/5 439/8/5
f 441/4/6 442/4/6 443/4/6
f 443/4/6 442/4/6 444/4/6
f 445/4/6 446/4/6 451/4/6
f 451/4/6 446/4/6 452/4/6
f 447/4/6 448/4/6 453/4/6
f 453/4/6 448/4/6 454/4/6
f 449/4/6 450/4/6 455/4/6
f 455/4/6 450/4/6 456/4/6
f 457/4/6 458/4/6 463/4/6
f 463/4/6 458/4/6 464/4/6
f 459/4/6 460/4/6 465/4/6
f 465/4/6 460/4/6 466/4/6
f 461/4/6 462/4/6 467/4/6
f 467/4/6 462/4/6 468/4/6
f 469/3/6 470/3/6 477/3/6
f 477/3/6 470/3/6 478/3/6
f 471/4/6 472/4/6 479/4/6
f 479/4/6 472/4/6 480/4/6
f 473/4/6 474/4/6 481/4/6
f 481/4/6 474/4/6 482/4/6
f 475/4/6 476/4/6 483/4/6
f 483/4/6 476/4/6 484/4/6
f 485/7/6 486/7/6 487/7/6
f 487/7/6 486/7/6 488/7/6
f 489/7/6 490/7/6 491/7/6
f 491/7/6 490/7/6 492/7/6
f 493/7/6 494/7/6 495/7/6
f 495/7/6 494/7/6 496/7/6
f 497/7/6 498/7/6 499/7/6
f 499/7/6 498/7/6 500/7/6
f 501/7/6 502/7/6 503/7/6
f 503/7/6 502/7/6 504/7/6
f 506/9/6 507/9/6 509/9/6
f 509/9/6 507/9/6 510/9/6
f 506/9/6 509/9/6 511/9/6
f 510/9/6 507/9/6 512/9/6
f 505/7/6 506/7/6 513/7/6
f 511/9/6 512/9/6 514/9/6
f 513/7/6 506/7/6 514/7/6
f 506/9/6 511/9/6 514/9/6
f 507/7/6 508/7/6 515/7/6
f 514/9/6 512/9/6 515/9/6
f 512/9/6 507/9/6 515/9/6
f 515/7/6 508/7/6 516/7/6
f 517/8/6 518/8/6 519/8/6
f 519/8/6 518/8/6 520/8/6
f 517/8/6 519/8/6 521/8/6
f 520/8/6 518/8/6 522/8/6
f 517/8/6 521/8/6 523/8/6
f 521/8/6 522/8/6 523/8/6
f 522/8/6 518/8/6 524/8/6
f 523/8/6 522/8/6 524/8/6
f 525/6/6 526/6/6 527/6/6
f 527/6/6 526/6/6 528/6/6
