# MagicaVoxel @ Ephtracy

# group
o 

# material
mtllib Table 4.mtl
usemtl palette

# normals
vn -1 0 0
vn 1 0 0
vn 0 0 1
vn 0 0 -1
vn 0 -1 0
vn 0 1 0

# texcoords
vt 0.974609 0.5
vt 0.978516 0.5
vt 0.986328 0.5
vt 0.990234 0.5

# verts
v 4.4 7.5 -3.2
v 4.4 7.5 -4
v 4.4 7.6 -3.2
v 4.4 7.6 -4
v 4.5 7.5 -3
v 4.5 7.5 -3.2
v 4.5 7.5 -4
v 4.5 7.5 -4.2
v 4.5 7.6 -3
v 4.5 7.6 -3.2
v 4.5 7.6 -4
v 4.5 7.6 -4.2
v 4.6 7.5 -2.9
v 4.6 7.5 -3
v 4.6 7.5 -4.2
v 4.6 7.5 -4.3
v 4.6 7.6 -2.9
v 4.6 7.6 -3
v 4.6 7.6 -4.2
v 4.6 7.6 -4.3
v 4.7 7.5 -2.8
v 4.7 7.5 -2.9
v 4.7 7.5 -4.3
v 4.7 7.5 -4.4
v 4.7 7.6 -2.8
v 4.7 7.6 -2.9
v 4.7 7.6 -4.3
v 4.7 7.6 -4.4
v 4.8 7.5 -2.7
v 4.8 7.5 -2.8
v 4.8 7.5 -4.4
v 4.8 7.5 -4.5
v 4.8 7.6 -2.7
v 4.8 7.6 -2.8
v 4.8 7.6 -4.4
v 4.8 7.6 -4.5
v 4.9 6.3 -3.5
v 4.9 6.3 -3.6
v 4.9 6.4 -3.5
v 4.9 6.4 -3.6
v 4.9 6.6 -3.5
v 4.9 6.6 -3.6
v 5 7.5 -2.6
v 5 7.5 -2.7
v 5 7.5 -4.5
v 5 7.5 -4.6
v 5 7.6 -2.6
v 5 7.6 -2.7
v 5 7.6 -4.5
v 5 7.6 -4.6
v 5.4 6.3 -3
v 5.4 6.3 -3.1
v 5.4 6.3 -4
v 5.4 6.3 -4.1
v 5.4 6.4 -3
v 5.4 6.4 -3.1
v 5.4 6.4 -4
v 5.4 6.4 -4.1
v 5.4 6.5 -3.1
v 5.4 6.5 -3.5
v 5.4 6.5 -3.6
v 5.4 6.5 -4
v 5.4 6.6 -3
v 5.4 6.6 -3.5
v 5.4 6.6 -3.6
v 5.4 6.6 -4.1
v 5.4 7.5 -3.5
v 5.4 7.5 -3.6
v 5.9 6.3 -3.5
v 5.9 6.3 -3.6
v 5.9 6.4 -3.5
v 5.9 6.4 -3.6
v 5.9 6.5 -3.5
v 5.9 6.5 -3.6
v 5 6.3 -3.5
v 5 6.3 -3.6
v 5 6.4 -3.5
v 5 6.4 -3.6
v 5 6.5 -3.5
v 5 6.5 -3.6
v 5.5 6.3 -3
v 5.5 6.3 -3.1
v 5.5 6.3 -4
v 5.5 6.3 -4.1
v 5.5 6.4 -3
v 5.5 6.4 -3.1
v 5.5 6.4 -4
v 5.5 6.4 -4.1
v 5.5 6.5 -3.1
v 5.5 6.5 -3.5
v 5.5 6.5 -3.6
v 5.5 6.5 -4
v 5.5 6.6 -3
v 5.5 6.6 -3.5
v 5.5 6.6 -3.6
v 5.5 6.6 -4.1
v 5.5 7.5 -3.5
v 5.5 7.5 -3.6
v 5.8 7.5 -2.6
v 5.8 7.5 -2.7
v 5.8 7.5 -4.5
v 5.8 7.5 -4.6
v 5.8 7.6 -2.6
v 5.8 7.6 -2.7
v 5.8 7.6 -4.5
v 5.8 7.6 -4.6
v 6 6.3 -3.5
v 6 6.3 -3.6
v 6 6.4 -3.5
v 6 6.4 -3.6
v 6 6.6 -3.5
v 6 6.6 -3.6
v 6 7.5 -2.7
v 6 7.5 -2.8
v 6 7.5 -4.4
v 6 7.5 -4.5
v 6 7.6 -2.7
v 6 7.6 -2.8
v 6 7.6 -4.4
v 6 7.6 -4.5
v 6.1 7.5 -2.8
v 6.1 7.5 -2.9
v 6.1 7.5 -4.3
v 6.1 7.5 -4.4
v 6.1 7.6 -2.8
v 6.1 7.6 -2.9
v 6.1 7.6 -4.3
v 6.1 7.6 -4.4
v 6.2 7.5 -2.9
v 6.2 7.5 -3
v 6.2 7.5 -4.2
v 6.2 7.5 -4.3
v 6.2 7.6 -2.9
v 6.2 7.6 -3
v 6.2 7.6 -4.2
v 6.2 7.6 -4.3
v 6.3 7.5 -3
v 6.3 7.5 -3.2
v 6.3 7.5 -4
v 6.3 7.5 -4.2
v 6.3 7.6 -3
v 6.3 7.6 -3.2
v 6.3 7.6 -4
v 6.3 7.6 -4.2
v 6.4 7.5 -3.2
v 6.4 7.5 -4
v 6.4 7.6 -3.2
v 6.4 7.6 -4
v 5 7.5 -2.6
v 5 7.6 -2.6
v 5.8 7.5 -2.6
v 5.8 7.6 -2.6
v 4.8 7.5 -2.7
v 4.8 7.6 -2.7
v 5 7.5 -2.7
v 5 7.6 -2.7
v 5.8 7.5 -2.7
v 5.8 7.6 -2.7
v 6 7.5 -2.7
v 6 7.6 -2.7
v 4.7 7.5 -2.8
v 4.7 7.6 -2.8
v 4.8 7.5 -2.8
v 4.8 7.6 -2.8
v 6 7.5 -2.8
v 6 7.6 -2.8
v 6.1 7.5 -2.8
v 6.1 7.6 -2.8
v 4.6 7.5 -2.9
v 4.6 7.6 -2.9
v 4.7 7.5 -2.9
v 4.7 7.6 -2.9
v 6.1 7.5 -2.9
v 6.1 7.6 -2.9
v 6.2 7.5 -2.9
v 6.2 7.6 -2.9
v 4.5 7.5 -3
v 4.5 7.6 -3
v 4.6 7.5 -3
v 4.6 7.6 -3
v 5.4 6.3 -3
v 5.4 6.4 -3
v 5.4 6.6 -3
v 5.5 6.3 -3
v 5.5 6.4 -3
v 5.5 6.6 -3
v 6.2 7.5 -3
v 6.2 7.6 -3
v 6.3 7.5 -3
v 6.3 7.6 -3
v 4.4 7.5 -3.2
v 4.4 7.6 -3.2
v 4.5 7.5 -3.2
v 4.5 7.6 -3.2
v 6.3 7.5 -3.2
v 6.3 7.6 -3.2
v 6.4 7.5 -3.2
v 6.4 7.6 -3.2
v 4.9 6.3 -3.5
v 4.9 6.4 -3.5
v 4.9 6.6 -3.5
v 5 6.3 -3.5
v 5 6.4 -3.5
v 5 6.5 -3.5
v 5.4 6.5 -3.5
v 5.4 6.6 -3.5
v 5.4 7.5 -3.5
v 5.5 6.5 -3.5
v 5.5 6.6 -3.5
v 5.5 7.5 -3.5
v 5.9 6.3 -3.5
v 5.9 6.4 -3.5
v 5.9 6.5 -3.5
v 6 6.3 -3.5
v 6 6.4 -3.5
v 6 6.6 -3.5
v 5.4 6.3 -4
v 5.4 6.4 -4
v 5.4 6.5 -4
v 5.5 6.3 -4
v 5.5 6.4 -4
v 5.5 6.5 -4
v 5.4 6.3 -3.1
v 5.4 6.4 -3.1
v 5.4 6.5 -3.1
v 5.5 6.3 -3.1
v 5.5 6.4 -3.1
v 5.5 6.5 -3.1
v 4.9 6.3 -3.6
v 4.9 6.4 -3.6
v 4.9 6.6 -3.6
v 5 6.3 -3.6
v 5 6.4 -3.6
v 5 6.5 -3.6
v 5.4 6.5 -3.6
v 5.4 6.6 -3.6
v 5.4 7.5 -3.6
v 5.5 6.5 -3.6
v 5.5 6.6 -3.6
v 5.5 7.5 -3.6
v 5.9 6.3 -3.6
v 5.9 6.4 -3.6
v 5.9 6.5 -3.6
v 6 6.3 -3.6
v 6 6.4 -3.6
v 6 6.6 -3.6
v 4.4 7.5 -4
v 4.4 7.6 -4
v 4.5 7.5 -4
v 4.5 7.6 -4
v 6.3 7.5 -4
v 6.3 7.6 -4
v 6.4 7.5 -4
v 6.4 7.6 -4
v 5.4 6.3 -4.1
v 5.4 6.4 -4.1
v 5.4 6.6 -4.1
v 5.5 6.3 -4.1
v 5.5 6.4 -4.1
v 5.5 6.6 -4.1
v 4.5 7.5 -4.2
v 4.5 7.6 -4.2
v 4.6 7.5 -4.2
v 4.6 7.6 -4.2
v 6.2 7.5 -4.2
v 6.2 7.6 -4.2
v 6.3 7.5 -4.2
v 6.3 7.6 -4.2
v 4.6 7.5 -4.3
v 4.6 7.6 -4.3
v 4.7 7.5 -4.3
v 4.7 7.6 -4.3
v 6.1 7.5 -4.3
v 6.1 7.6 -4.3
v 6.2 7.5 -4.3
v 6.2 7.6 -4.3
v 4.7 7.5 -4.4
v 4.7 7.6 -4.4
v 4.8 7.5 -4.4
v 4.8 7.6 -4.4
v 6 7.5 -4.4
v 6 7.6 -4.4
v 6.1 7.5 -4.4
v 6.1 7.6 -4.4
v 4.8 7.5 -4.5
v 4.8 7.6 -4.5
v 5 7.5 -4.5
v 5 7.6 -4.5
v 5.8 7.5 -4.5
v 5.8 7.6 -4.5
v 6 7.5 -4.5
v 6 7.6 -4.5
v 5 7.5 -4.6
v 5 7.6 -4.6
v 5.8 7.5 -4.6
v 5.8 7.6 -4.6
v 5.4 6.3 -3
v 5.5 6.3 -3
v 5.4 6.3 -3.1
v 5.5 6.3 -3.1
v 4.9 6.3 -3.5
v 5 6.3 -3.5
v 5.9 6.3 -3.5
v 6 6.3 -3.5
v 4.9 6.3 -3.6
v 5 6.3 -3.6
v 5.9 6.3 -3.6
v 6 6.3 -3.6
v 5.4 6.3 -4
v 5.5 6.3 -4
v 5.4 6.3 -4.1
v 5.5 6.3 -4.1
v 5.4 6.5 -3.1
v 5.5 6.5 -3.1
v 5 6.5 -3.5
v 5.4 6.5 -3.5
v 5.5 6.5 -3.5
v 5.9 6.5 -3.5
v 5 6.5 -3.6
v 5.4 6.5 -3.6
v 5.5 6.5 -3.6
v 5.9 6.5 -3.6
v 5.4 6.5 -4
v 5.5 6.5 -4
v 5 7.5 -2.6
v 5.8 7.5 -2.6
v 4.8 7.5 -2.7
v 5 7.5 -2.7
v 5.8 7.5 -2.7
v 6 7.5 -2.7
v 4.7 7.5 -2.8
v 4.8 7.5 -2.8
v 6 7.5 -2.8
v 6.1 7.5 -2.8
v 4.6 7.5 -2.9
v 4.7 7.5 -2.9
v 4.8 7.5 -2.9
v 4.9 7.5 -2.9
v 6.1 7.5 -2.9
v 6.2 7.5 -2.9
v 4.5 7.5 -3
v 4.6 7.5 -3
v 6.2 7.5 -3
v 6.3 7.5 -3
v 5.8 7.5 -3.1
v 6 7.5 -3.1
v 4.4 7.5 -3.2
v 4.5 7.5 -3.2
v 4.8 7.5 -3.2
v 4.9 7.5 -3.2
v 6.3 7.5 -3.2
v 6.4 7.5 -3.2
v 5.8 7.5 -3.3
v 5.9 7.5 -3.3
v 5.4 7.5 -3.5
v 5.5 7.5 -3.5
v 5.9 7.5 -3.5
v 6 7.5 -3.5
v 5.4 7.5 -3.6
v 5.5 7.5 -3.6
v 5.3 7.5 -3.9
v 5.7 7.5 -3.9
v 4.4 7.5 -4
v 4.5 7.5 -4
v 6.3 7.5 -4
v 6.4 7.5 -4
v 5.3 7.5 -4.1
v 5.5 7.5 -4.1
v 4.5 7.5 -4.2
v 4.6 7.5 -4.2
v 6.2 7.5 -4.2
v 6.3 7.5 -4.2
v 4.6 7.5 -4.3
v 4.7 7.5 -4.3
v 5.5 7.5 -4.3
v 5.7 7.5 -4.3
v 6.1 7.5 -4.3
v 6.2 7.5 -4.3
v 4.7 7.5 -4.4
v 4.8 7.5 -4.4
v 6 7.5 -4.4
v 6.1 7.5 -4.4
v 4.8 7.5 -4.5
v 5 7.5 -4.5
v 5.8 7.5 -4.5
v 6 7.5 -4.5
v 5 7.5 -4.6
v 5.8 7.5 -4.6
v 5.4 6.6 -3
v 5.5 6.6 -3
v 4.9 6.6 -3.5
v 5.4 6.6 -3.5
v 5.5 6.6 -3.5
v 6 6.6 -3.5
v 4.9 6.6 -3.6
v 5.4 6.6 -3.6
v 5.5 6.6 -3.6
v 6 6.6 -3.6
v 5.4 6.6 -4.1
v 5.5 6.6 -4.1
v 5 7.6 -2.6
v 5.8 7.6 -2.6
v 4.8 7.6 -2.7
v 5 7.6 -2.7
v 5.8 7.6 -2.7
v 6 7.6 -2.7
v 4.7 7.6 -2.8
v 4.8 7.6 -2.8
v 6 7.6 -2.8
v 6.1 7.6 -2.8
v 4.6 7.6 -2.9
v 4.7 7.6 -2.9
v 4.8 7.6 -2.9
v 4.9 7.6 -2.9
v 6.1 7.6 -2.9
v 6.2 7.6 -2.9
v 4.5 7.6 -3
v 4.6 7.6 -3
v 6.2 7.6 -3
v 6.3 7.6 -3
v 5.8 7.6 -3.1
v 6 7.6 -3.1
v 4.4 7.6 -3.2
v 4.5 7.6 -3.2
v 4.8 7.6 -3.2
v 4.9 7.6 -3.2
v 6.3 7.6 -3.2
v 6.4 7.6 -3.2
v 5.8 7.6 -3.3
v 5.9 7.6 -3.3
v 5.9 7.6 -3.5
v 6 7.6 -3.5
v 5.3 7.6 -3.9
v 5.7 7.6 -3.9
v 4.4 7.6 -4
v 4.5 7.6 -4
v 6.3 7.6 -4
v 6.4 7.6 -4
v 5.3 7.6 -4.1
v 5.5 7.6 -4.1
v 4.5 7.6 -4.2
v 4.6 7.6 -4.2
v 6.2 7.6 -4.2
v 6.3 7.6 -4.2
v 4.6 7.6 -4.3
v 4.7 7.6 -4.3
v 5.5 7.6 -4.3
v 5.7 7.6 -4.3
v 6.1 7.6 -4.3
v 6.2 7.6 -4.3
v 4.7 7.6 -4.4
v 4.8 7.6 -4.4
v 6 7.6 -4.4
v 6.1 7.6 -4.4
v 4.8 7.6 -4.5
v 5 7.6 -4.5
v 5.8 7.6 -4.5
v 6 7.6 -4.5
v 5 7.6 -4.6
v 5.8 7.6 -4.6

# faces
f 3/3/1 2/3/1 1/3/1
f 4/3/1 2/3/1 3/3/1
f 9/3/1 6/3/1 5/3/1
f 10/3/1 6/3/1 9/3/1
f 11/3/1 8/3/1 7/3/1
f 12/3/1 8/3/1 11/3/1
f 17/3/1 14/3/1 13/3/1
f 18/3/1 14/3/1 17/3/1
f 19/3/1 16/3/1 15/3/1
f 20/3/1 16/3/1 19/3/1
f 25/3/1 22/3/1 21/3/1
f 26/3/1 22/3/1 25/3/1
f 27/3/1 24/3/1 23/3/1
f 28/3/1 24/3/1 27/3/1
f 33/3/1 30/3/1 29/3/1
f 34/3/1 30/3/1 33/3/1
f 35/3/1 32/3/1 31/3/1
f 36/3/1 32/3/1 35/3/1
f 39/4/1 38/4/1 37/4/1
f 40/4/1 38/4/1 39/4/1
f 41/1/1 40/1/1 39/1/1
f 42/1/1 40/1/1 41/1/1
f 47/3/1 44/3/1 43/3/1
f 48/3/1 44/3/1 47/3/1
f 49/3/1 46/3/1 45/3/1
f 50/3/1 46/3/1 49/3/1
f 55/4/1 52/4/1 51/4/1
f 56/4/1 52/4/1 55/4/1
f 57/4/1 54/4/1 53/4/1
f 58/4/1 54/4/1 57/4/1
f 59/1/1 56/1/1 55/1/1
f 62/1/1 58/1/1 57/1/1
f 63/1/1 60/1/1 59/1/1
f 63/1/1 59/1/1 55/1/1
f 64/1/1 60/1/1 63/1/1
f 65/1/1 62/1/1 61/1/1
f 66/1/1 58/1/1 62/1/1
f 66/1/1 62/1/1 65/1/1
f 67/1/1 65/1/1 64/1/1
f 68/1/1 65/1/1 67/1/1
f 71/4/1 70/4/1 69/4/1
f 72/4/1 70/4/1 71/4/1
f 73/1/1 72/1/1 71/1/1
f 74/1/1 72/1/1 73/1/1
f 75/4/2 76/4/2 77/4/2
f 77/4/2 76/4/2 78/4/2
f 77/1/2 78/1/2 79/1/2
f 79/1/2 78/1/2 80/1/2
f 81/4/2 82/4/2 85/4/2
f 85/4/2 82/4/2 86/4/2
f 83/4/2 84/4/2 87/4/2
f 87/4/2 84/4/2 88/4/2
f 85/1/2 86/1/2 89/1/2
f 87/1/2 88/1/2 92/1/2
f 89/1/2 90/1/2 93/1/2
f 85/1/2 89/1/2 93/1/2
f 93/1/2 90/1/2 94/1/2
f 91/1/2 92/1/2 95/1/2
f 92/1/2 88/1/2 96/1/2
f 95/1/2 92/1/2 96/1/2
f 94/1/2 95/1/2 97/1/2
f 97/1/2 95/1/2 98/1/2
f 99/3/2 100/3/2 103/3/2
f 103/3/2 100/3/2 104/3/2
f 101/3/2 102/3/2 105/3/2
f 105/3/2 102/3/2 106/3/2
f 107/4/2 108/4/2 109/4/2
f 109/4/2 108/4/2 110/4/2
f 109/1/2 110/1/2 111/1/2
f 111/1/2 110/1/2 112/1/2
f 113/3/2 114/3/2 117/3/2
f 117/3/2 114/3/2 118/3/2
f 115/3/2 116/3/2 119/3/2
f 119/3/2 116/3/2 120/3/2
f 121/3/2 122/3/2 125/3/2
f 125/3/2 122/3/2 126/3/2
f 123/3/2 124/3/2 127/3/2
f 127/3/2 124/3/2 128/3/2
f 129/3/2 130/3/2 133/3/2
f 133/3/2 130/3/2 134/3/2
f 131/3/2 132/3/2 135/3/2
f 135/3/2 132/3/2 136/3/2
f 137/3/2 138/3/2 141/3/2
f 141/3/2 138/3/2 142/3/2
f 139/3/2 140/3/2 143/3/2
f 143/3/2 140/3/2 144/3/2
f 145/3/2 146/3/2 147/3/2
f 147/3/2 146/3/2 148/3/2
f 151/3/3 150/3/3 149/3/3
f 152/3/3 150/3/3 151/3/3
f 155/3/3 154/3/3 153/3/3
f 156/3/3 154/3/3 155/3/3
f 159/3/3 158/3/3 157/3/3
f 160/3/3 158/3/3 159/3/3
f 163/3/3 162/3/3 161/3/3
f 164/3/3 162/3/3 163/3/3
f 167/3/3 166/3/3 165/3/3
f 168/3/3 166/3/3 167/3/3
f 171/3/3 170/3/3 169/3/3
f 172/3/3 170/3/3 171/3/3
f 175/3/3 174/3/3 173/3/3
f 176/3/3 174/3/3 175/3/3
f 179/3/3 178/3/3 177/3/3
f 180/3/3 178/3/3 179/3/3
f 184/4/3 182/4/3 181/4/3
f 185/1/3 183/1/3 182/1/3
f 185/4/3 182/4/3 184/4/3
f 186/1/3 183/1/3 185/1/3
f 189/3/3 188/3/3 187/3/3
f 190/3/3 188/3/3 189/3/3
f 193/3/3 192/3/3 191/3/3
f 194/3/3 192/3/3 193/3/3
f 197/3/3 196/3/3 195/3/3
f 198/3/3 196/3/3 197/3/3
f 202/4/3 200/4/3 199/4/3
f 203/1/3 201/1/3 200/1/3
f 203/4/3 200/4/3 202/4/3
f 204/1/3 201/1/3 203/1/3
f 205/1/3 201/1/3 204/1/3
f 206/1/3 201/1/3 205/1/3
f 209/1/3 207/1/3 206/1/3
f 210/1/3 207/1/3 209/1/3
f 213/1/3 209/1/3 208/1/3
f 214/4/3 212/4/3 211/4/3
f 215/1/3 213/1/3 212/1/3
f 215/4/3 212/4/3 214/4/3
f 216/1/3 209/1/3 213/1/3
f 216/1/3 213/1/3 215/1/3
f 220/4/3 218/4/3 217/4/3
f 221/1/3 219/1/3 218/1/3
f 221/4/3 218/4/3 220/4/3
f 222/1/3 219/1/3 221/1/3
f 223/4/4 224/4/4 226/4/4
f 224/1/4 225/1/4 227/1/4
f 226/4/4 224/4/4 227/4/4
f 227/1/4 225/1/4 228/1/4
f 229/4/4 230/4/4 232/4/4
f 230/1/4 231/1/4 233/1/4
f 232/4/4 230/4/4 233/4/4
f 233/1/4 231/1/4 234/1/4
f 234/1/4 231/1/4 235/1/4
f 235/1/4 231/1/4 236/1/4
f 236/1/4 237/1/4 239/1/4
f 239/1/4 237/1/4 240/1/4
f 238/1/4 239/1/4 243/1/4
f 241/4/4 242/4/4 244/4/4
f 242/1/4 243/1/4 245/1/4
f 244/4/4 242/4/4 245/4/4
f 243/1/4 239/1/4 246/1/4
f 245/1/4 243/1/4 246/1/4
f 247/3/4 248/3/4 249/3/4
f 249/3/4 248/3/4 250/3/4
f 251/3/4 252/3/4 253/3/4
f 253/3/4 252/3/4 254/3/4
f 255/4/4 256/4/4 258/4/4
f 256/1/4 257/1/4 259/1/4
f 258/4/4 256/4/4 259/4/4
f 259/1/4 257/1/4 260/1/4
f 261/3/4 262/3/4 263/3/4
f 263/3/4 262/3/4 264/3/4
f 265/3/4 266/3/4 267/3/4
f 267/3/4 266/3/4 268/3/4
f 269/3/4 270/3/4 271/3/4
f 271/3/4 270/3/4 272/3/4
f 273/3/4 274/3/4 275/3/4
f 275/3/4 274/3/4 276/3/4
f 277/3/4 278/3/4 279/3/4
f 279/3/4 278/3/4 280/3/4
f 281/3/4 282/3/4 283/3/4
f 283/3/4 282/3/4 284/3/4
f 285/3/4 286/3/4 287/3/4
f 287/3/4 286/3/4 288/3/4
f 289/3/4 290/3/4 291/3/4
f 291/3/4 290/3/4 292/3/4
f 293/3/4 294/3/4 295/3/4
f 295/3/4 294/3/4 296/3/4
f 299/4/5 298/4/5 297/4/5
f 300/4/5 298/4/5 299/4/5
f 305/4/5 302/4/5 301/4/5
f 306/4/5 302/4/5 305/4/5
f 307/4/5 304/4/5 303/4/5
f 308/4/5 304/4/5 307/4/5
f 311/4/5 310/4/5 309/4/5
f 312/4/5 310/4/5 311/4/5
f 316/1/5 314/1/5 313/1/5
f 317/1/5 314/1/5 316/1/5
f 319/1/5 316/1/5 315/1/5
f 319/1/5 318/1/5 317/1/5
f 319/1/5 317/1/5 316/1/5
f 320/1/5 318/1/5 319/1/5
f 321/1/5 318/1/5 320/1/5
f 322/1/5 318/1/5 321/1/5
f 323/1/5 321/1/5 320/1/5
f 324/1/5 321/1/5 323/1/5
f 328/3/5 326/3/5 325/3/5
f 329/3/5 326/3/5 328/3/5
f 332/3/5 328/3/5 327/3/5
f 332/3/5 330/3/5 329/3/5
f 332/3/5 329/3/5 328/3/5
f 333/3/5 330/3/5 332/3/5
f 336/3/5 332/3/5 331/3/5
f 336/3/5 334/3/5 333/3/5
f 336/3/5 333/3/5 332/3/5
f 337/3/5 334/3/5 336/3/5
f 338/3/5 334/3/5 337/3/5
f 339/3/5 334/3/5 338/3/5
f 342/3/5 336/3/5 335/3/5
f 342/3/5 337/3/5 336/3/5
f 343/3/5 340/3/5 339/3/5
f 343/3/5 339/3/5 338/3/5
f 345/3/5 343/3/5 338/3/5
f 345/3/5 344/3/5 343/3/5
f 346/3/5 344/3/5 345/3/5
f 348/3/5 342/3/5 341/3/5
f 349/3/5 337/3/5 342/3/5
f 349/2/5 338/2/5 337/2/5
f 349/3/5 342/3/5 348/3/5
f 350/3/5 345/3/5 338/3/5
f 350/2/5 338/2/5 349/2/5
f 351/3/5 344/3/5 346/3/5
f 353/3/5 345/3/5 350/3/5
f 353/3/5 348/3/5 347/3/5
f 353/3/5 349/3/5 348/3/5
f 353/3/5 350/3/5 349/3/5
f 353/2/5 346/2/5 345/2/5
f 354/2/5 346/2/5 353/2/5
f 355/3/5 353/3/5 347/3/5
f 355/3/5 354/3/5 353/3/5
f 356/3/5 354/3/5 355/3/5
f 357/2/5 346/2/5 354/2/5
f 357/3/5 354/3/5 356/3/5
f 358/3/5 352/3/5 351/3/5
f 358/2/5 346/2/5 357/2/5
f 358/3/5 351/3/5 346/3/5
f 359/3/5 355/3/5 347/3/5
f 360/3/5 357/3/5 356/3/5
f 360/3/5 358/3/5 357/3/5
f 361/3/5 359/3/5 347/3/5
f 361/3/5 360/3/5 359/3/5
f 362/3/5 358/3/5 360/3/5
f 362/3/5 360/3/5 361/3/5
f 363/3/5 361/3/5 347/3/5
f 364/3/5 361/3/5 363/3/5
f 365/3/5 358/3/5 362/3/5
f 365/3/5 352/3/5 358/3/5
f 366/3/5 352/3/5 365/3/5
f 367/3/5 361/3/5 364/3/5
f 367/2/5 362/2/5 361/2/5
f 368/2/5 362/2/5 367/2/5
f 369/3/5 367/3/5 364/3/5
f 369/3/5 368/3/5 367/3/5
f 370/3/5 368/3/5 369/3/5
f 371/3/5 365/3/5 362/3/5
f 372/3/5 365/3/5 371/3/5
f 373/3/5 368/3/5 370/3/5
f 374/3/5 368/3/5 373/3/5
f 375/2/5 362/2/5 368/2/5
f 375/3/5 368/3/5 374/3/5
f 376/3/5 371/3/5 362/3/5
f 376/2/5 362/2/5 375/2/5
f 377/3/5 371/3/5 376/3/5
f 378/3/5 371/3/5 377/3/5
f 379/3/5 375/3/5 374/3/5
f 379/3/5 377/3/5 376/3/5
f 379/3/5 376/3/5 375/3/5
f 380/3/5 377/3/5 379/3/5
f 381/3/5 377/3/5 380/3/5
f 382/3/5 377/3/5 381/3/5
f 383/3/5 381/3/5 380/3/5
f 384/3/5 381/3/5 383/3/5
f 385/3/5 381/3/5 384/3/5
f 386/3/5 381/3/5 385/3/5
f 387/3/5 385/3/5 384/3/5
f 388/3/5 385/3/5 387/3/5
f 389/1/6 390/1/6 392/1/6
f 392/1/6 390/1/6 393/1/6
f 391/1/6 392/1/6 395/1/6
f 395/1/6 392/1/6 396/1/6
f 393/1/6 394/1/6 397/1/6
f 397/1/6 394/1/6 398/1/6
f 396/1/6 397/1/6 399/1/6
f 399/1/6 397/1/6 400/1/6
f 401/3/6 402/3/6 404/3/6
f 404/3/6 402/3/6 405/3/6
f 403/3/6 404/3/6 408/3/6
f 405/3/6 406/3/6 408/3/6
f 404/3/6 405/3/6 408/3/6
f 408/3/6 406/3/6 409/3/6
f 407/3/6 408/3/6 412/3/6
f 409/3/6 410/3/6 412/3/6
f 408/3/6 409/3/6 412/3/6
f 412/3/6 410/3/6 413/3/6
f 413/3/6 410/3/6 414/3/6
f 414/3/6 410/3/6 415/3/6
f 411/3/6 412/3/6 418/3/6
f 412/3/6 413/3/6 418/3/6
f 415/3/6 416/3/6 419/3/6
f 414/3/6 415/3/6 419/3/6
f 414/3/6 419/3/6 421/3/6
f 419/3/6 420/3/6 421/3/6
f 421/3/6 420/3/6 422/3/6
f 417/3/6 418/3/6 424/3/6
f 418/3/6 413/3/6 425/3/6
f 413/2/6 414/2/6 425/2/6
f 424/3/6 418/3/6 425/3/6
f 414/3/6 421/3/6 426/3/6
f 425/2/6 414/2/6 426/2/6
f 422/3/6 420/3/6 427/3/6
f 426/3/6 421/3/6 429/3/6
f 423/3/6 424/3/6 429/3/6
f 424/3/6 425/3/6 429/3/6
f 425/3/6 426/3/6 429/3/6
f 421/2/6 422/2/6 429/2/6
f 429/2/6 422/2/6 430/2/6
f 429/3/6 430/3/6 431/3/6
f 430/2/6 422/2/6 431/2/6
f 427/3/6 428/3/6 432/3/6
f 431/2/6 422/2/6 432/2/6
f 422/3/6 427/3/6 432/3/6
f 429/3/6 431/3/6 433/3/6
f 423/3/6 429/3/6 433/3/6
f 431/3/6 432/3/6 433/3/6
f 433/3/6 432/3/6 434/3/6
f 423/3/6 433/3/6 435/3/6
f 435/3/6 433/3/6 436/3/6
f 432/3/6 428/3/6 437/3/6
f 434/3/6 432/3/6 437/3/6
f 437/3/6 428/3/6 438/3/6
f 436/3/6 433/3/6 439/3/6
f 433/2/6 434/2/6 439/2/6
f 439/2/6 434/2/6 440/2/6
f 436/3/6 439/3/6 441/3/6
f 439/3/6 440/3/6 441/3/6
f 441/3/6 440/3/6 442/3/6
f 434/3/6 437/3/6 443/3/6
f 443/3/6 437/3/6 444/3/6
f 442/3/6 440/3/6 445/3/6
f 445/3/6 440/3/6 446/3/6
f 440/2/6 434/2/6 447/2/6
f 446/3/6 440/3/6 447/3/6
f 434/3/6 443/3/6 448/3/6
f 447/2/6 434/2/6 448/2/6
f 448/3/6 443/3/6 449/3/6
f 449/3/6 443/3/6 450/3/6
f 446/3/6 447/3/6 451/3/6
f 448/3/6 449/3/6 451/3/6
f 447/3/6 448/3/6 451/3/6
f 451/3/6 449/3/6 452/3/6
f 452/3/6 449/3/6 453/3/6
f 453/3/6 449/3/6 454/3/6
f 452/3/6 453/3/6 455/3/6
f 455/3/6 453/3/6 456/3/6
f 456/3/6 453/3/6 457/3/6
f 457/3/6 453/3/6 458/3/6
f 456/3/6 457/3/6 459/3/6
f 459/3/6 457/3/6 460/3/6
