# MagicaVoxel @ Ephtracy

# group
o 

# material
mtllib Garage small table.mtl
usemtl palette

# normals
vn -1 0 0
vn 1 0 0
vn 0 0 1
vn 0 0 -1
vn 0 -1 0
vn 0 1 0

# texcoords
vt 0.974609 0.5
vt 0.994141 0.5

# verts
v -1.1 1.4 0.5
v -1.1 1.4 -1.1
v -1.1 1.6 0.5
v -1.1 1.6 -1.1
v -1 0 0.4
v -1 0 0.2
v -1 0 -0.8
v -1 0 -1
v -1 0.1 0.4
v -1 0.1 0.2
v -1 0.1 -0.8
v -1 0.1 -1
v -1 1.4 0.4
v -1 1.4 0.2
v -1 1.4 -0.8
v -1 1.4 -1
v 0.2 0 0.4
v 0.2 0 0.2
v 0.2 0 -0.8
v 0.2 0 -1
v 0.2 0.1 0.4
v 0.2 0.1 0.2
v 0.2 0.1 -0.8
v 0.2 0.1 -1
v 0.2 1.4 0.4
v 0.2 1.4 0.2
v 0.2 1.4 -0.8
v 0.2 1.4 -1
v -0.8 0 0.4
v -0.8 0 0.2
v -0.8 0 -0.8
v -0.8 0 -1
v -0.8 0.1 0.4
v -0.8 0.1 0.2
v -0.8 0.1 -0.8
v -0.8 0.1 -1
v -0.8 1.4 0.4
v -0.8 1.4 0.2
v -0.8 1.4 -0.8
v -0.8 1.4 -1
v 0.4 0 0.4
v 0.4 0 0.2
v 0.4 0 -0.8
v 0.4 0 -1
v 0.4 0.1 0.4
v 0.4 0.1 0.2
v 0.4 0.1 -0.8
v 0.4 0.1 -1
v 0.4 1.4 0.4
v 0.4 1.4 0.2
v 0.4 1.4 -0.8
v 0.4 1.4 -1
v 0.5 1.4 0.5
v 0.5 1.4 -1.1
v 0.5 1.6 0.5
v 0.5 1.6 -1.1
v -1.1 1.4 0.5
v -1.1 1.6 0.5
v 0.5 1.4 0.5
v 0.5 1.6 0.5
v -1 0 0.4
v -1 0.1 0.4
v -1 1.4 0.4
v -0.8 0 0.4
v -0.8 0.1 0.4
v -0.8 1.4 0.4
v 0.2 0 0.4
v 0.2 0.1 0.4
v 0.2 1.4 0.4
v 0.4 0 0.4
v 0.4 0.1 0.4
v 0.4 1.4 0.4
v -1 0 -0.8
v -1 0.1 -0.8
v -1 1.4 -0.8
v -0.8 0 -0.8
v -0.8 0.1 -0.8
v -0.8 1.4 -0.8
v 0.2 0 -0.8
v 0.2 0.1 -0.8
v 0.2 1.4 -0.8
v 0.4 0 -0.8
v 0.4 0.1 -0.8
v 0.4 1.4 -0.8
v -1 0 0.2
v -1 0.1 0.2
v -1 1.4 0.2
v -0.8 0 0.2
v -0.8 0.1 0.2
v -0.8 1.4 0.2
v 0.2 0 0.2
v 0.2 0.1 0.2
v 0.2 1.4 0.2
v 0.4 0 0.2
v 0.4 0.1 0.2
v 0.4 1.4 0.2
v -1 0 -1
v -1 0.1 -1
v -1 1.4 -1
v -0.8 0 -1
v -0.8 0.1 -1
v -0.8 1.4 -1
v 0.2 0 -1
v 0.2 0.1 -1
v 0.2 1.4 -1
v 0.4 0 -1
v 0.4 0.1 -1
v 0.4 1.4 -1
v -1.1 1.4 -1.1
v -1.1 1.6 -1.1
v 0.5 1.4 -1.1
v 0.5 1.6 -1.1
v -1 0 0.4
v -0.8 0 0.4
v 0.2 0 0.4
v 0.4 0 0.4
v -1 0 0.2
v -0.8 0 0.2
v 0.2 0 0.2
v 0.4 0 0.2
v -1 0 -0.8
v -0.8 0 -0.8
v 0.2 0 -0.8
v 0.4 0 -0.8
v -1 0 -1
v -0.8 0 -1
v 0.2 0 -1
v 0.4 0 -1
v -1.1 1.4 0.5
v 0.5 1.4 0.5
v -1 1.4 0.4
v -0.8 1.4 0.4
v 0.2 1.4 0.4
v 0.4 1.4 0.4
v -1 1.4 0.2
v -0.8 1.4 0.2
v 0.2 1.4 0.2
v 0.4 1.4 0.2
v -1 1.4 -0.8
v -0.8 1.4 -0.8
v 0.2 1.4 -0.8
v 0.4 1.4 -0.8
v -1 1.4 -1
v -0.8 1.4 -1
v 0.2 1.4 -1
v 0.4 1.4 -1
v -1.1 1.4 -1.1
v 0.5 1.4 -1.1
v -1.1 1.6 0.5
v 0.5 1.6 0.5
v -0.8 1.6 0.2
v -0.7 1.6 0.2
v -0.8 1.6 0.1
v -0.7 1.6 0.1
v -0.1 1.6 0
v 0 1.6 0
v -0.1 1.6 -0.1
v 0 1.6 -0.1
v -0.7 1.6 -0.2
v -0.6 1.6 -0.2
v -0.7 1.6 -0.3
v -0.6 1.6 -0.3
v 0.1 1.6 -0.4
v 0.2 1.6 -0.4
v 0.1 1.6 -0.5
v 0.2 1.6 -0.5
v -0.6 1.6 -0.8
v -0.5 1.6 -0.8
v -0.6 1.6 -0.9
v -0.5 1.6 -0.9
v -1.1 1.6 -1.1
v 0.5 1.6 -1.1

# faces
f 3/2/1 2/2/1 1/2/1
f 4/2/1 2/2/1 3/2/1
f 9/2/1 6/2/1 5/2/1
f 10/2/1 6/2/1 9/2/1
f 11/2/1 8/2/1 7/2/1
f 12/2/1 8/2/1 11/2/1
f 13/1/1 10/1/1 9/1/1
f 14/1/1 10/1/1 13/1/1
f 15/1/1 12/1/1 11/1/1
f 16/1/1 12/1/1 15/1/1
f 21/2/1 18/2/1 17/2/1
f 22/2/1 18/2/1 21/2/1
f 23/2/1 20/2/1 19/2/1
f 24/2/1 20/2/1 23/2/1
f 25/1/1 22/1/1 21/1/1
f 26/1/1 22/1/1 25/1/1
f 27/1/1 24/1/1 23/1/1
f 28/1/1 24/1/1 27/1/1
f 29/2/2 30/2/2 33/2/2
f 33/2/2 30/2/2 34/2/2
f 31/2/2 32/2/2 35/2/2
f 35/2/2 32/2/2 36/2/2
f 33/1/2 34/1/2 37/1/2
f 37/1/2 34/1/2 38/1/2
f 35/1/2 36/1/2 39/1/2
f 39/1/2 36/1/2 40/1/2
f 41/2/2 42/2/2 45/2/2
f 45/2/2 42/2/2 46/2/2
f 43/2/2 44/2/2 47/2/2
f 47/2/2 44/2/2 48/2/2
f 45/1/2 46/1/2 49/1/2
f 49/1/2 46/1/2 50/1/2
f 47/1/2 48/1/2 51/1/2
f 51/1/2 48/1/2 52/1/2
f 53/2/2 54/2/2 55/2/2
f 55/2/2 54/2/2 56/2/2
f 59/2/3 58/2/3 57/2/3
f 60/2/3 58/2/3 59/2/3
f 64/2/3 62/2/3 61/2/3
f 65/1/3 63/1/3 62/1/3
f 65/2/3 62/2/3 64/2/3
f 66/1/3 63/1/3 65/1/3
f 70/2/3 68/2/3 67/2/3
f 71/1/3 69/1/3 68/1/3
f 71/2/3 68/2/3 70/2/3
f 72/1/3 69/1/3 71/1/3
f 76/2/3 74/2/3 73/2/3
f 77/1/3 75/1/3 74/1/3
f 77/2/3 74/2/3 76/2/3
f 78/1/3 75/1/3 77/1/3
f 82/2/3 80/2/3 79/2/3
f 83/1/3 81/1/3 80/1/3
f 83/2/3 80/2/3 82/2/3
f 84/1/3 81/1/3 83/1/3
f 85/2/4 86/2/4 88/2/4
f 86/1/4 87/1/4 89/1/4
f 88/2/4 86/2/4 89/2/4
f 89/1/4 87/1/4 90/1/4
f 91/2/4 92/2/4 94/2/4
f 92/1/4 93/1/4 95/1/4
f 94/2/4 92/2/4 95/2/4
f 95/1/4 93/1/4 96/1/4
f 97/2/4 98/2/4 100/2/4
f 98/1/4 99/1/4 101/1/4
f 100/2/4 98/2/4 101/2/4
f 101/1/4 99/1/4 102/1/4
f 103/2/4 104/2/4 106/2/4
f 104/1/4 105/1/4 107/1/4
f 106/2/4 104/2/4 107/2/4
f 107/1/4 105/1/4 108/1/4
f 109/2/4 110/2/4 111/2/4
f 111/2/4 110/2/4 112/2/4
f 117/2/5 114/2/5 113/2/5
f 118/2/5 114/2/5 117/2/5
f 119/2/5 116/2/5 115/2/5
f 120/2/5 116/2/5 119/2/5
f 125/2/5 122/2/5 121/2/5
f 126/2/5 122/2/5 125/2/5
f 127/2/5 124/2/5 123/2/5
f 128/2/5 124/2/5 127/2/5
f 131/2/5 130/2/5 129/2/5
f 132/2/5 130/2/5 131/2/5
f 133/2/5 130/2/5 132/2/5
f 134/2/5 130/2/5 133/2/5
f 135/2/5 131/2/5 129/2/5
f 136/2/5 133/2/5 132/2/5
f 137/2/5 133/2/5 136/2/5
f 138/2/5 130/2/5 134/2/5
f 139/2/5 137/2/5 136/2/5
f 139/2/5 138/2/5 137/2/5
f 139/2/5 135/2/5 129/2/5
f 139/2/5 136/2/5 135/2/5
f 140/2/5 138/2/5 139/2/5
f 141/2/5 138/2/5 140/2/5
f 142/2/5 130/2/5 138/2/5
f 142/2/5 138/2/5 141/2/5
f 143/2/5 139/2/5 129/2/5
f 144/2/5 141/2/5 140/2/5
f 145/2/5 141/2/5 144/2/5
f 146/2/5 130/2/5 142/2/5
f 147/2/5 143/2/5 129/2/5
f 147/2/5 146/2/5 145/2/5
f 147/2/5 145/2/5 144/2/5
f 147/2/5 144/2/5 143/2/5
f 148/2/5 130/2/5 146/2/5
f 148/2/5 146/2/5 147/2/5
f 149/2/6 150/2/6 151/2/6
f 151/2/6 150/2/6 152/2/6
f 149/2/6 151/2/6 153/2/6
f 151/1/6 152/1/6 153/1/6
f 152/2/6 150/2/6 154/2/6
f 153/1/6 152/1/6 154/1/6
f 153/2/6 154/2/6 155/2/6
f 154/2/6 150/2/6 155/2/6
f 155/2/6 150/2/6 156/2/6
f 153/2/6 155/2/6 157/2/6
f 155/1/6 156/1/6 157/1/6
f 156/2/6 150/2/6 158/2/6
f 157/1/6 156/1/6 158/1/6
f 153/2/6 157/2/6 159/2/6
f 157/2/6 158/2/6 159/2/6
f 159/2/6 158/2/6 160/2/6
f 153/2/6 159/2/6 161/2/6
f 159/1/6 160/1/6 161/1/6
f 160/2/6 158/2/6 162/2/6
f 161/1/6 160/1/6 162/1/6
f 158/2/6 150/2/6 163/2/6
f 162/2/6 158/2/6 163/2/6
f 161/2/6 162/2/6 163/2/6
f 163/2/6 150/2/6 164/2/6
f 161/2/6 163/2/6 165/2/6
f 163/1/6 164/1/6 165/1/6
f 164/2/6 150/2/6 166/2/6
f 165/1/6 164/1/6 166/1/6
f 161/2/6 165/2/6 167/2/6
f 165/2/6 166/2/6 167/2/6
f 167/2/6 166/2/6 168/2/6
f 161/2/6 167/2/6 169/2/6
f 167/1/6 168/1/6 169/1/6
f 168/2/6 166/2/6 170/2/6
f 169/1/6 168/1/6 170/1/6
f 149/2/6 153/2/6 171/2/6
f 153/2/6 161/2/6 171/2/6
f 169/2/6 170/2/6 171/2/6
f 161/2/6 169/2/6 171/2/6
f 170/2/6 166/2/6 172/2/6
f 171/2/6 170/2/6 172/2/6
f 166/2/6 150/2/6 172/2/6
