# MagicaVoxel @ Ephtracy

# group
o 

# material
mtllib Milk Bottle.mtl
usemtl palette

# normals
vn -1 0 0
vn 1 0 0
vn 0 0 1
vn 0 0 -1
vn 0 -1 0
vn 0 1 0

# texcoords
vt 0.306641 0.5
vt 0.775391 0.5
vt 0.869141 0.5
vt 0.919922 0.5
vt 0.962891 0.5
vt 0.994141 0.5

# verts
v -0.4 0 -0.3
v -0.4 0 -0.8
v -0.4 0.4 -0.3
v -0.4 0.4 -0.8
v -0.4 1.1 -0.3
v -0.4 1.1 -0.8
v -0.3 1.1 -0.5
v -0.3 1.1 -0.8
v -0.3 1.2 -0.5
v -0.3 1.2 -0.8
v -0.2 1.1 -0.4
v -0.2 1.1 -0.5
v -0.2 1.2 -0.4
v -0.2 1.2 -0.5
v 0 1.1 -0.4
v 0 1.1 -0.5
v 0 1.2 -0.4
v 0 1.2 -0.5
v 0.1 1.1 -0.5
v 0.1 1.1 -0.8
v 0.1 1.2 -0.5
v 0.1 1.2 -0.8
v 0.2 0 -0.3
v 0.2 0 -0.8
v 0.2 0.4 -0.3
v 0.2 0.4 -0.8
v 0.2 1.1 -0.3
v 0.2 1.1 -0.8
v -0.4 0 -0.3
v -0.4 0.4 -0.3
v -0.4 1.1 -0.3
v -0.3 0.4 -0.3
v -0.3 1.1 -0.3
v 0.1 0.4 -0.3
v 0.1 1.1 -0.3
v 0.2 0 -0.3
v 0.2 0.4 -0.3
v 0.2 1.1 -0.3
v -0.2 1.1 -0.4
v -0.2 1.2 -0.4
v 0 1.1 -0.4
v 0 1.2 -0.4
v -0.3 1.1 -0.5
v -0.3 1.2 -0.5
v -0.2 1.1 -0.5
v -0.2 1.2 -0.5
v 0 1.1 -0.5
v 0 1.2 -0.5
v 0.1 1.1 -0.5
v 0.1 1.2 -0.5
v -0.4 0 -0.8
v -0.4 0.4 -0.8
v -0.4 1.1 -0.8
v -0.3 0.4 -0.8
v -0.3 1.1 -0.8
v -0.3 1.2 -0.8
v 0.1 0.4 -0.8
v 0.1 1.1 -0.8
v 0.1 1.2 -0.8
v 0.2 0 -0.8
v 0.2 0.4 -0.8
v 0.2 1.1 -0.8
v -0.4 0 -0.3
v 0.2 0 -0.3
v -0.3 0 -0.4
v 0.1 0 -0.4
v -0.3 0 -0.7
v 0.1 0 -0.7
v -0.4 0 -0.8
v 0.2 0 -0.8
v -0.4 1.1 -0.3
v -0.3 1.1 -0.3
v 0.1 1.1 -0.3
v 0.2 1.1 -0.3
v -0.2 1.1 -0.4
v 0 1.1 -0.4
v -0.3 1.1 -0.5
v -0.2 1.1 -0.5
v 0 1.1 -0.5
v 0.1 1.1 -0.5
v -0.4 1.1 -0.8
v -0.3 1.1 -0.8
v 0.1 1.1 -0.8
v 0.2 1.1 -0.8
v -0.2 1.2 -0.4
v 0 1.2 -0.4
v -0.3 1.2 -0.5
v -0.2 1.2 -0.5
v 0 1.2 -0.5
v 0.1 1.2 -0.5
v -0.3 1.2 -0.8
v 0.1 1.2 -0.8

# faces
f 3/2/1 2/2/1 1/2/1
f 4/2/1 2/2/1 3/2/1
f 5/5/1 4/5/1 3/5/1
f 6/5/1 4/5/1 5/5/1
f 9/6/1 8/6/1 7/6/1
f 10/6/1 8/6/1 9/6/1
f 13/3/1 12/3/1 11/3/1
f 14/3/1 12/3/1 13/3/1
f 15/3/2 16/3/2 17/3/2
f 17/3/2 16/3/2 18/3/2
f 19/6/2 20/6/2 21/6/2
f 21/6/2 20/6/2 22/6/2
f 23/2/2 24/2/2 25/2/2
f 25/2/2 24/2/2 26/2/2
f 25/5/2 26/5/2 27/5/2
f 27/5/2 26/5/2 28/5/2
f 32/2/3 30/2/3 29/2/3
f 32/5/3 31/5/3 30/5/3
f 33/5/3 31/5/3 32/5/3
f 34/2/3 32/2/3 29/2/3
f 34/6/3 33/6/3 32/6/3
f 35/6/3 33/6/3 34/6/3
f 36/2/3 34/2/3 29/2/3
f 37/5/3 35/5/3 34/5/3
f 37/2/3 34/2/3 36/2/3
f 38/5/3 35/5/3 37/5/3
f 41/3/3 40/3/3 39/3/3
f 42/3/3 40/3/3 41/3/3
f 45/6/3 44/6/3 43/6/3
f 46/6/3 44/6/3 45/6/3
f 49/6/3 48/6/3 47/6/3
f 50/6/3 48/6/3 49/6/3
f 51/2/4 52/2/4 54/2/4
f 52/5/4 53/5/4 54/5/4
f 54/5/4 53/5/4 55/5/4
f 51/2/4 54/2/4 57/2/4
f 55/6/4 56/6/4 57/6/4
f 54/6/4 55/6/4 57/6/4
f 57/6/4 56/6/4 58/6/4
f 58/6/4 56/6/4 59/6/4
f 51/2/4 57/2/4 60/2/4
f 57/5/4 58/5/4 61/5/4
f 60/2/4 57/2/4 61/2/4
f 61/5/4 58/5/4 62/5/4
f 65/2/5 64/2/5 63/2/5
f 66/2/5 64/2/5 65/2/5
f 67/2/5 65/2/5 63/2/5
f 67/4/5 66/4/5 65/4/5
f 68/2/5 64/2/5 66/2/5
f 68/4/5 66/4/5 67/4/5
f 69/2/5 67/2/5 63/2/5
f 69/2/5 68/2/5 67/2/5
f 70/2/5 64/2/5 68/2/5
f 70/2/5 68/2/5 69/2/5
f 72/6/6 73/6/6 75/6/6
f 75/6/6 73/6/6 76/6/6
f 71/5/6 72/5/6 77/5/6
f 72/6/6 75/6/6 77/6/6
f 77/6/6 75/6/6 78/6/6
f 76/6/6 73/6/6 79/6/6
f 73/5/6 74/5/6 80/5/6
f 79/6/6 73/6/6 80/6/6
f 71/5/6 77/5/6 81/5/6
f 81/5/6 77/5/6 82/5/6
f 80/5/6 74/5/6 83/5/6
f 83/5/6 74/5/6 84/5/6
f 85/3/6 86/3/6 88/3/6
f 88/3/6 86/3/6 89/3/6
f 87/6/6 88/6/6 91/6/6
f 89/6/6 90/6/6 91/6/6
f 88/6/6 89/6/6 91/6/6
f 91/6/6 90/6/6 92/6/6
