# MagicaVoxel @ Ephtracy

# group
o 

# material
mtllib FootPath-0.mtl
usemtl palette

# normals
vn -1 0 0
vn 1 0 0
vn 0 0 1
vn 0 0 -1
vn 0 -1 0
vn 0 1 0

# texcoords
vt 0.306641 0.5
vt 0.970703 0.5
vt 0.974609 0.5

# verts
v -2.2 0 4.2
v -2.2 0 -2.3
v -2.2 0.4 4.2
v -2.2 0.4 -2.3
v -2.2 0.5 4.2
v -2.2 0.5 -2.3
v 3.9 0 10.3
v 3.9 0 4.2
v 3.9 0.4 10.3
v 3.9 0.4 4.2
v 3.9 0.5 10.3
v 3.9 0.5 4.2
v 10.4 0 10.3
v 10.4 0 -2.3
v 10.4 0.4 10.3
v 10.4 0.4 -2.3
v 10.4 0.5 10.3
v 10.4 0.5 -2.3
v 3.9 0 10.3
v 3.9 0.4 10.3
v 3.9 0.5 10.3
v 4 0.4 10.3
v 4 0.5 10.3
v 10.3 0.4 10.3
v 10.3 0.5 10.3
v 10.4 0 10.3
v 10.4 0.4 10.3
v 10.4 0.5 10.3
v -2.2 0 4.2
v -2.2 0.4 4.2
v -2.2 0.5 4.2
v 3.9 0 4.2
v 3.9 0.4 4.2
v 3.9 0.5 4.2
v -2.2 0 -2.3
v -2.2 0.4 -2.3
v -2.2 0.5 -2.3
v 10.4 0 -2.3
v 10.4 0.4 -2.3
v 10.4 0.5 -2.3
v 3.9 0 10.3
v 10.4 0 10.3
v -2.2 0 4.2
v 3.9 0 4.2
v -2.2 0 -2.3
v 10.4 0 -2.3
v 3.9 0.5 10.3
v 4 0.5 10.3
v 10.3 0.5 10.3
v 10.4 0.5 10.3
v -2.2 0.5 4.2
v 3.9 0.5 4.2
v -2.1 0.5 4.1
v 4 0.5 4.1
v -2.1 0.5 -2.2
v 10.3 0.5 -2.2
v -2.2 0.5 -2.3
v 10.4 0.5 -2.3

# faces
f 3/2/1 2/2/1 1/2/1
f 4/2/1 2/2/1 3/2/1
f 5/3/1 4/3/1 3/3/1
f 6/3/1 4/3/1 5/3/1
f 9/2/1 8/2/1 7/2/1
f 10/2/1 8/2/1 9/2/1
f 11/3/1 10/3/1 9/3/1
f 12/3/1 10/3/1 11/3/1
f 13/2/2 14/2/2 15/2/2
f 15/2/2 14/2/2 16/2/2
f 15/3/2 16/3/2 17/3/2
f 17/3/2 16/3/2 18/3/2
f 22/2/3 20/2/3 19/2/3
f 22/3/3 21/3/3 20/3/3
f 23/3/3 21/3/3 22/3/3
f 24/2/3 22/2/3 19/2/3
f 24/2/3 23/2/3 22/2/3
f 25/2/3 23/2/3 24/2/3
f 26/2/3 24/2/3 19/2/3
f 27/3/3 25/3/3 24/3/3
f 27/2/3 24/2/3 26/2/3
f 28/3/3 25/3/3 27/3/3
f 32/2/3 30/2/3 29/2/3
f 33/3/3 31/3/3 30/3/3
f 33/2/3 30/2/3 32/2/3
f 34/3/3 31/3/3 33/3/3
f 35/2/4 36/2/4 38/2/4
f 36/3/4 37/3/4 39/3/4
f 38/2/4 36/2/4 39/2/4
f 39/3/4 37/3/4 40/3/4
f 44/2/5 42/2/5 41/2/5
f 45/2/5 44/2/5 43/2/5
f 46/2/5 42/2/5 44/2/5
f 46/2/5 44/2/5 45/2/5
f 47/3/6 48/3/6 52/3/6
f 51/3/6 52/3/6 53/3/6
f 48/2/6 49/2/6 54/2/6
f 53/3/6 52/3/6 54/3/6
f 52/3/6 48/3/6 54/3/6
f 51/3/6 53/3/6 55/3/6
f 53/2/6 54/2/6 55/2/6
f 49/3/6 50/3/6 56/3/6
f 55/2/6 54/2/6 56/2/6
f 54/2/6 49/2/6 56/2/6
f 51/3/6 55/3/6 57/3/6
f 55/3/6 56/3/6 57/3/6
f 56/3/6 50/3/6 58/3/6
f 57/3/6 56/3/6 58/3/6
