# MagicaVoxel @ Ephtracy

# group
o 

# material
mtllib Hall small table.mtl
usemtl palette

# normals
vn -1 0 0
vn 1 0 0
vn 0 0 1
vn 0 0 -1
vn 0 -1 0
vn 0 1 0

# texcoords
vt 0.341797 0.5
vt 0.556641 0.5
vt 0.974609 0.5
vt 0.994141 0.5

# verts
v -1.1 1.4 0.5
v -1.1 1.4 -1.1
v -1.1 1.6 0.5
v -1.1 1.6 -1.1
v -1 0 0.4
v -1 0 0.2
v -1 0 -0.8
v -1 0 -1
v -1 0.1 0.4
v -1 0.1 0.2
v -1 0.1 -0.8
v -1 0.1 -1
v -1 1.4 0.4
v -1 1.4 0.2
v -1 1.4 -0.8
v -1 1.4 -1
v 0.2 0 0.4
v 0.2 0 0.2
v 0.2 0 -0.8
v 0.2 0 -1
v 0.2 0.1 0.4
v 0.2 0.1 0.2
v 0.2 0.1 -0.8
v 0.2 0.1 -1
v 0.2 1.4 0.4
v 0.2 1.4 0.2
v 0.2 1.4 -0.8
v 0.2 1.4 -1
v -0.8 0 0.4
v -0.8 0 0.2
v -0.8 0 -0.8
v -0.8 0 -1
v -0.8 0.1 0.4
v -0.8 0.1 0.2
v -0.8 0.1 -0.8
v -0.8 0.1 -1
v -0.8 1.4 0.4
v -0.8 1.4 0.2
v -0.8 1.4 -0.8
v -0.8 1.4 -1
v 0.4 0 0.4
v 0.4 0 0.2
v 0.4 0 -0.8
v 0.4 0 -1
v 0.4 0.1 0.4
v 0.4 0.1 0.2
v 0.4 0.1 -0.8
v 0.4 0.1 -1
v 0.4 1.4 0.4
v 0.4 1.4 0.2
v 0.4 1.4 -0.8
v 0.4 1.4 -1
v 0.5 1.4 0.5
v 0.5 1.4 -1.1
v 0.5 1.6 0.5
v 0.5 1.6 -1.1
v -1.1 1.4 0.5
v -1.1 1.6 0.5
v 0.5 1.4 0.5
v 0.5 1.6 0.5
v -1 0 0.4
v -1 0.1 0.4
v -1 1.4 0.4
v -0.8 0 0.4
v -0.8 0.1 0.4
v -0.8 1.4 0.4
v 0.2 0 0.4
v 0.2 0.1 0.4
v 0.2 1.4 0.4
v 0.4 0 0.4
v 0.4 0.1 0.4
v 0.4 1.4 0.4
v -1 0 -0.8
v -1 0.1 -0.8
v -1 1.4 -0.8
v -0.8 0 -0.8
v -0.8 0.1 -0.8
v -0.8 1.4 -0.8
v 0.2 0 -0.8
v 0.2 0.1 -0.8
v 0.2 1.4 -0.8
v 0.4 0 -0.8
v 0.4 0.1 -0.8
v 0.4 1.4 -0.8
v -1 0 0.2
v -1 0.1 0.2
v -1 1.4 0.2
v -0.8 0 0.2
v -0.8 0.1 0.2
v -0.8 1.4 0.2
v 0.2 0 0.2
v 0.2 0.1 0.2
v 0.2 1.4 0.2
v 0.4 0 0.2
v 0.4 0.1 0.2
v 0.4 1.4 0.2
v -1 0 -1
v -1 0.1 -1
v -1 1.4 -1
v -0.8 0 -1
v -0.8 0.1 -1
v -0.8 1.4 -1
v 0.2 0 -1
v 0.2 0.1 -1
v 0.2 1.4 -1
v 0.4 0 -1
v 0.4 0.1 -1
v 0.4 1.4 -1
v -1.1 1.4 -1.1
v -1.1 1.6 -1.1
v 0.5 1.4 -1.1
v 0.5 1.6 -1.1
v -1 0 0.4
v -0.8 0 0.4
v 0.2 0 0.4
v 0.4 0 0.4
v -1 0 0.2
v -0.8 0 0.2
v 0.2 0 0.2
v 0.4 0 0.2
v -1 0 -0.8
v -0.8 0 -0.8
v 0.2 0 -0.8
v 0.4 0 -0.8
v -1 0 -1
v -0.8 0 -1
v 0.2 0 -1
v 0.4 0 -1
v -1.1 1.4 0.5
v 0.5 1.4 0.5
v -1 1.4 0.4
v -0.8 1.4 0.4
v 0.2 1.4 0.4
v 0.4 1.4 0.4
v -1 1.4 0.2
v -0.8 1.4 0.2
v 0.2 1.4 0.2
v 0.4 1.4 0.2
v -1 1.4 -0.8
v -0.8 1.4 -0.8
v 0.2 1.4 -0.8
v 0.4 1.4 -0.8
v -1 1.4 -1
v -0.8 1.4 -1
v 0.2 1.4 -1
v 0.4 1.4 -1
v -1.1 1.4 -1.1
v 0.5 1.4 -1.1
v -1.1 1.6 0.5
v 0.5 1.6 0.5
v 0.1 1.6 0.3
v 0.2 1.6 0.3
v -0.8 1.6 0.2
v -0.7 1.6 0.2
v 0.1 1.6 0.2
v 0.2 1.6 0.2
v -0.8 1.6 0.1
v -0.7 1.6 0.1
v -0.1 1.6 0
v 0 1.6 0
v -0.1 1.6 -0.1
v 0 1.6 -0.1
v -0.7 1.6 -0.2
v -0.6 1.6 -0.2
v -0.7 1.6 -0.3
v -0.6 1.6 -0.3
v 0.1 1.6 -0.4
v 0.2 1.6 -0.4
v 0.1 1.6 -0.5
v 0.2 1.6 -0.5
v -0.6 1.6 -0.8
v -0.5 1.6 -0.8
v -0.6 1.6 -0.9
v -0.5 1.6 -0.9
v -1.1 1.6 -1.1
v 0.5 1.6 -1.1

# faces
f 3/1/1 2/1/1 1/1/1
f 4/1/1 2/1/1 3/1/1
f 9/4/1 6/4/1 5/4/1
f 10/4/1 6/4/1 9/4/1
f 11/4/1 8/4/1 7/4/1
f 12/4/1 8/4/1 11/4/1
f 13/3/1 10/3/1 9/3/1
f 14/3/1 10/3/1 13/3/1
f 15/3/1 12/3/1 11/3/1
f 16/3/1 12/3/1 15/3/1
f 21/4/1 18/4/1 17/4/1
f 22/4/1 18/4/1 21/4/1
f 23/4/1 20/4/1 19/4/1
f 24/4/1 20/4/1 23/4/1
f 25/3/1 22/3/1 21/3/1
f 26/3/1 22/3/1 25/3/1
f 27/3/1 24/3/1 23/3/1
f 28/3/1 24/3/1 27/3/1
f 29/4/2 30/4/2 33/4/2
f 33/4/2 30/4/2 34/4/2
f 31/4/2 32/4/2 35/4/2
f 35/4/2 32/4/2 36/4/2
f 33/3/2 34/3/2 37/3/2
f 37/3/2 34/3/2 38/3/2
f 35/3/2 36/3/2 39/3/2
f 39/3/2 36/3/2 40/3/2
f 41/4/2 42/4/2 45/4/2
f 45/4/2 42/4/2 46/4/2
f 43/4/2 44/4/2 47/4/2
f 47/4/2 44/4/2 48/4/2
f 45/3/2 46/3/2 49/3/2
f 49/3/2 46/3/2 50/3/2
f 47/3/2 48/3/2 51/3/2
f 51/3/2 48/3/2 52/3/2
f 53/1/2 54/1/2 55/1/2
f 55/1/2 54/1/2 56/1/2
f 59/1/3 58/1/3 57/1/3
f 60/1/3 58/1/3 59/1/3
f 64/4/3 62/4/3 61/4/3
f 65/3/3 63/3/3 62/3/3
f 65/4/3 62/4/3 64/4/3
f 66/3/3 63/3/3 65/3/3
f 70/4/3 68/4/3 67/4/3
f 71/3/3 69/3/3 68/3/3
f 71/4/3 68/4/3 70/4/3
f 72/3/3 69/3/3 71/3/3
f 76/4/3 74/4/3 73/4/3
f 77/3/3 75/3/3 74/3/3
f 77/4/3 74/4/3 76/4/3
f 78/3/3 75/3/3 77/3/3
f 82/4/3 80/4/3 79/4/3
f 83/3/3 81/3/3 80/3/3
f 83/4/3 80/4/3 82/4/3
f 84/3/3 81/3/3 83/3/3
f 85/4/4 86/4/4 88/4/4
f 86/3/4 87/3/4 89/3/4
f 88/4/4 86/4/4 89/4/4
f 89/3/4 87/3/4 90/3/4
f 91/4/4 92/4/4 94/4/4
f 92/3/4 93/3/4 95/3/4
f 94/4/4 92/4/4 95/4/4
f 95/3/4 93/3/4 96/3/4
f 97/4/4 98/4/4 100/4/4
f 98/3/4 99/3/4 101/3/4
f 100/4/4 98/4/4 101/4/4
f 101/3/4 99/3/4 102/3/4
f 103/4/4 104/4/4 106/4/4
f 104/3/4 105/3/4 107/3/4
f 106/4/4 104/4/4 107/4/4
f 107/3/4 105/3/4 108/3/4
f 109/1/4 110/1/4 111/1/4
f 111/1/4 110/1/4 112/1/4
f 117/4/5 114/4/5 113/4/5
f 118/4/5 114/4/5 117/4/5
f 119/4/5 116/4/5 115/4/5
f 120/4/5 116/4/5 119/4/5
f 125/4/5 122/4/5 121/4/5
f 126/4/5 122/4/5 125/4/5
f 127/4/5 124/4/5 123/4/5
f 128/4/5 124/4/5 127/4/5
f 131/1/5 130/1/5 129/1/5
f 132/1/5 130/1/5 131/1/5
f 133/1/5 130/1/5 132/1/5
f 134/1/5 130/1/5 133/1/5
f 135/1/5 131/1/5 129/1/5
f 136/2/5 133/2/5 132/2/5
f 137/2/5 133/2/5 136/2/5
f 138/1/5 130/1/5 134/1/5
f 139/2/5 137/2/5 136/2/5
f 139/2/5 138/2/5 137/2/5
f 139/1/5 135/1/5 129/1/5
f 139/2/5 136/2/5 135/2/5
f 140/2/5 138/2/5 139/2/5
f 141/2/5 138/2/5 140/2/5
f 142/1/5 130/1/5 138/1/5
f 142/2/5 138/2/5 141/2/5
f 143/1/5 139/1/5 129/1/5
f 144/2/5 141/2/5 140/2/5
f 145/2/5 141/2/5 144/2/5
f 146/1/5 130/1/5 142/1/5
f 147/1/5 143/1/5 129/1/5
f 147/1/5 146/1/5 145/1/5
f 147/1/5 145/1/5 144/1/5
f 147/1/5 144/1/5 143/1/5
f 148/1/5 130/1/5 146/1/5
f 148/1/5 146/1/5 147/1/5
f 149/1/6 150/1/6 151/1/6
f 151/1/6 150/1/6 152/1/6
f 149/1/6 151/1/6 153/1/6
f 153/1/6 151/1/6 154/1/6
f 151/4/6 152/4/6 155/4/6
f 154/1/6 151/1/6 155/1/6
f 152/1/6 150/1/6 156/1/6
f 155/4/6 152/4/6 156/4/6
f 153/4/6 154/4/6 157/4/6
f 149/1/6 153/1/6 157/1/6
f 154/1/6 155/1/6 158/1/6
f 157/4/6 154/4/6 158/4/6
f 155/1/6 156/1/6 158/1/6
f 157/1/6 158/1/6 159/1/6
f 158/1/6 156/1/6 159/1/6
f 159/1/6 156/1/6 160/1/6
f 157/1/6 159/1/6 161/1/6
f 159/4/6 160/4/6 161/4/6
f 160/1/6 156/1/6 162/1/6
f 161/4/6 160/4/6 162/4/6
f 157/1/6 161/1/6 163/1/6
f 161/1/6 162/1/6 163/1/6
f 163/1/6 162/1/6 164/1/6
f 157/1/6 163/1/6 165/1/6
f 163/4/6 164/4/6 165/4/6
f 164/1/6 162/1/6 166/1/6
f 165/4/6 164/4/6 166/4/6
f 162/1/6 156/1/6 167/1/6
f 166/1/6 162/1/6 167/1/6
f 165/1/6 166/1/6 167/1/6
f 156/1/6 150/1/6 168/1/6
f 167/1/6 156/1/6 168/1/6
f 165/1/6 167/1/6 169/1/6
f 167/4/6 168/4/6 169/4/6
f 168/1/6 150/1/6 170/1/6
f 169/4/6 168/4/6 170/4/6
f 165/1/6 169/1/6 171/1/6
f 169/1/6 170/1/6 171/1/6
f 171/1/6 170/1/6 172/1/6
f 165/1/6 171/1/6 173/1/6
f 171/4/6 172/4/6 173/4/6
f 172/1/6 170/1/6 174/1/6
f 173/4/6 172/4/6 174/4/6
f 149/1/6 157/1/6 175/1/6
f 157/1/6 165/1/6 175/1/6
f 173/1/6 174/1/6 175/1/6
f 165/1/6 173/1/6 175/1/6
f 174/1/6 170/1/6 176/1/6
f 175/1/6 174/1/6 176/1/6
f 170/1/6 150/1/6 176/1/6
