# MagicaVoxel @ Ephtracy

# group
o 

# material
mtllib Bottle 4.mtl
usemtl palette

# normals
vn -1 0 0
vn 1 0 0
vn 0 0 1
vn 0 0 -1
vn 0 -1 0
vn 0 1 0

# texcoords
vt 0.181641 0.5
vt 0.341797 0.5
vt 0.435547 0.5
vt 0.677734 0.5
vt 0.994141 0.5

# verts
v 3.5 6.3 -8.6
v 3.5 6.3 -8.9
v 3.5 6.4 -8.7
v 3.5 6.4 -8.8
v 3.5 7 -8.7
v 3.5 7 -8.8
v 3.5 7.1 -8.6
v 3.5 7.1 -8.9
v 3.6 7.1 -8.7
v 3.6 7.1 -8.8
v 3.6 7.2 -8.7
v 3.6 7.2 -8.8
v 3.7 7.1 -8.7
v 3.7 7.1 -8.8
v 3.7 7.2 -8.7
v 3.7 7.2 -8.8
v 3.8 6.3 -8.6
v 3.8 6.3 -8.9
v 3.8 6.4 -8.7
v 3.8 6.4 -8.8
v 3.8 7 -8.7
v 3.8 7 -8.8
v 3.8 7.1 -8.6
v 3.8 7.1 -8.9
v 3.5 6.3 -8.6
v 3.5 7.1 -8.6
v 3.6 6.4 -8.6
v 3.6 7 -8.6
v 3.7 6.4 -8.6
v 3.7 7 -8.6
v 3.8 6.3 -8.6
v 3.8 7.1 -8.6
v 3.6 7.1 -8.7
v 3.6 7.2 -8.7
v 3.7 7.1 -8.7
v 3.7 7.2 -8.7
v 3.6 7.1 -8.8
v 3.6 7.2 -8.8
v 3.7 7.1 -8.8
v 3.7 7.2 -8.8
v 3.5 6.3 -8.9
v 3.5 7.1 -8.9
v 3.6 6.4 -8.9
v 3.6 7 -8.9
v 3.7 6.4 -8.9
v 3.7 7 -8.9
v 3.8 6.3 -8.9
v 3.8 7.1 -8.9
v 3.5 6.3 -8.6
v 3.8 6.3 -8.6
v 3.6 6.3 -8.7
v 3.7 6.3 -8.7
v 3.6 6.3 -8.8
v 3.7 6.3 -8.8
v 3.5 6.3 -8.9
v 3.8 6.3 -8.9
v 3.5 7.1 -8.6
v 3.8 7.1 -8.6
v 3.6 7.1 -8.7
v 3.7 7.1 -8.7
v 3.6 7.1 -8.8
v 3.7 7.1 -8.8
v 3.5 7.1 -8.9
v 3.8 7.1 -8.9
v 3.6 7.2 -8.7
v 3.7 7.2 -8.7
v 3.6 7.2 -8.8
v 3.7 7.2 -8.8

# faces
f 3/2/1 2/2/1 1/2/1
f 4/2/1 2/2/1 3/2/1
f 5/2/1 3/2/1 1/2/1
f 5/3/1 4/3/1 3/3/1
f 6/2/1 2/2/1 4/2/1
f 6/3/1 4/3/1 5/3/1
f 7/2/1 5/2/1 1/2/1
f 7/2/1 6/2/1 5/2/1
f 8/2/1 2/2/1 6/2/1
f 8/2/1 6/2/1 7/2/1
f 11/5/1 10/5/1 9/5/1
f 12/5/1 10/5/1 11/5/1
f 13/5/2 14/5/2 15/5/2
f 15/5/2 14/5/2 16/5/2
f 17/2/2 18/2/2 19/2/2
f 19/2/2 18/2/2 20/2/2
f 17/2/2 19/2/2 21/2/2
f 19/3/2 20/3/2 21/3/2
f 20/2/2 18/2/2 22/2/2
f 21/3/2 20/3/2 22/3/2
f 17/2/2 21/2/2 23/2/2
f 21/2/2 22/2/2 23/2/2
f 22/2/2 18/2/2 24/2/2
f 23/2/2 22/2/2 24/2/2
f 27/2/3 26/2/3 25/2/3
f 28/2/3 26/2/3 27/2/3
f 29/2/3 27/2/3 25/2/3
f 29/3/3 28/3/3 27/3/3
f 30/2/3 26/2/3 28/2/3
f 30/3/3 28/3/3 29/3/3
f 31/2/3 29/2/3 25/2/3
f 31/2/3 30/2/3 29/2/3
f 32/2/3 26/2/3 30/2/3
f 32/2/3 30/2/3 31/2/3
f 35/5/3 34/5/3 33/5/3
f 36/5/3 34/5/3 35/5/3
f 37/5/4 38/5/4 39/5/4
f 39/5/4 38/5/4 40/5/4
f 41/2/4 42/2/4 43/2/4
f 43/2/4 42/2/4 44/2/4
f 41/2/4 43/2/4 45/2/4
f 43/3/4 44/3/4 45/3/4
f 44/2/4 42/2/4 46/2/4
f 45/3/4 44/3/4 46/3/4
f 41/2/4 45/2/4 47/2/4
f 45/2/4 46/2/4 47/2/4
f 46/2/4 42/2/4 48/2/4
f 47/2/4 46/2/4 48/2/4
f 51/2/5 50/2/5 49/2/5
f 52/2/5 50/2/5 51/2/5
f 53/2/5 51/2/5 49/2/5
f 53/4/5 52/4/5 51/4/5
f 54/2/5 50/2/5 52/2/5
f 54/4/5 52/4/5 53/4/5
f 55/2/5 53/2/5 49/2/5
f 55/2/5 54/2/5 53/2/5
f 56/2/5 50/2/5 54/2/5
f 56/2/5 54/2/5 55/2/5
f 57/2/6 58/2/6 59/2/6
f 59/2/6 58/2/6 60/2/6
f 57/2/6 59/2/6 61/2/6
f 60/2/6 58/2/6 62/2/6
f 57/2/6 61/2/6 63/2/6
f 61/2/6 62/2/6 63/2/6
f 62/2/6 58/2/6 64/2/6
f 63/2/6 62/2/6 64/2/6
f 65/5/6 66/5/6 67/5/6
f 67/5/6 66/5/6 68/5/6
